<svg xmlns="http://www.w3.org/2000/svg" xmlns:v="https://svgstorm.com"
viewBox = "0 0 300 159"
width="300"
height="159">
<g fill="None" fill-opacity="0.0" stroke="#000000" stroke-opacity="0.00" stroke-width="0.3"><path d="
M 0.00 159.00 
L 300.00 159.00
L 300.00 0.00
L 0.00 0.00
L 0.00 159.00
M 33.00 22.00 
C 33.50 22.00 34.00 22.00 34.00 22.00
C 36.76 22.17 37.16 23.90 38.00 26.00
C 42.07 36.12 37.03 49.28 39.00 60.00
C 45.33 60.00 51.67 60.00 58.00 60.00
C 60.04 60.08 61.57 60.66 63.00 61.00
C 65.87 61.34 68.40 61.79 71.00 63.00
C 75.50 65.10 80.27 68.67 83.00 73.00
C 84.04 74.65 84.41 76.22 85.00 78.00
C 85.83 79.81 86.48 80.77 87.00 83.00
C 87.84 86.63 88.00 90.08 88.00 94.00
C 88.28 96.89 88.34 100.15 88.00 103.00
C 87.85 110.70 86.62 117.79 82.00 124.00
C 79.45 127.42 76.61 130.01 73.00 132.00
C 68.78 134.32 64.85 135.67 60.00 136.00
C 54.42 137.00 47.28 137.50 41.00 137.00
C 29.77 136.11 19.66 130.10 19.00 118.00
C 16.61 103.31 17.82 86.56 18.00 71.00 C 18.18 55.44 16.59 38.56 18.00 23.00
C 18.79 19.30 31.10 20.59 33.00 22.00
M 289.00 47.00 
C 291.09 51.29 288.43 53.29 285.00 56.00
C 283.30 57.34 281.67 58.03 280.00 59.00
C 278.49 60.24 273.37 64.19 273.00 66.00
C 273.30 73.53 281.31 80.44 278.07 88.07 C 274.84 95.71 263.88 85.32 260.00 82.00
C 258.22 80.48 256.06 79.16 255.00 77.00
C 254.80 76.60 255.00 76.00 255.00 76.00
C 253.59 74.19 253.61 71.78 255.00 70.00
C 255.00 69.50 255.00 69.00 255.00 69.00
C 256.34 65.59 258.43 67.56 260.00 69.00
C 260.45 69.42 261.40 69.89 262.00 70.00
C 262.48 70.09 263.00 70.00 263.00 70.00
C 262.79 67.21 260.24 64.19 261.33 61.33 C 262.43 58.47 265.67 57.93 267.00 55.00
C 264.42 55.39 261.90 55.03 260.00 54.00
C 256.90 52.33 256.36 48.80 256.00 45.00
C 253.26 47.76 254.67 53.88 250.00 55.00
C 244.59 56.69 231.68 55.73 227.00 54.00
C 222.94 52.50 220.07 48.78 221.00 44.00
C 229.00 44.00 237.00 44.00 245.00 44.00
C 248.32 39.17 246.67 21.57 255.08 21.08 C 263.48 20.58 263.10 39.01 266.00 44.00
C 273.10 45.68 285.09 40.45 289.00 47.00
M 138.00 72.00 
C 137.39 75.40 136.00 76.78 133.00 78.00
C 130.52 79.01 128.02 78.76 125.00 79.00
C 111.31 80.09 114.69 87.92 114.00 99.00 C 113.31 110.08 115.80 119.33 114.00 130.00
C 113.53 132.76 112.75 134.66 110.00 136.00
C 109.60 136.20 109.00 136.00 109.00 136.00
C 106.23 138.05 98.70 137.33 95.00 137.00
C 90.24 135.98 93.91 122.76 93.00 118.00 C 92.09 113.24 93.57 102.72 93.00 97.00 C 92.43 91.28 93.16 82.19 94.00 77.00
C 94.17 73.79 94.32 71.74 96.00 69.00
C 97.62 66.36 100.15 64.03 103.00 63.00
C 103.44 62.84 104.00 63.00 104.00 63.00
C 105.44 61.96 107.09 61.45 109.00 61.00
C 111.33 60.45 113.52 60.17 116.00 60.00
C 119.63 59.75 123.36 60.00 127.00 60.00
C 129.01 60.00 135.43 58.90 137.00 60.00
C 138.92 61.35 138.43 69.61 138.00 72.00
M 162.00 69.00 
C 165.68 84.82 167.69 102.31 173.00 117.00
C 174.38 101.69 178.43 87.01 181.00 72.00
C 181.49 69.98 181.49 67.70 183.00 66.00
C 183.81 64.07 186.26 61.95 188.00 61.00
C 188.47 60.13 190.21 60.12 191.00 60.00
C 193.67 59.59 198.37 59.40 201.00 60.00
C 203.59 60.59 205.58 62.96 207.00 65.00
C 216.77 79.10 212.52 101.18 218.00 117.00
C 223.72 101.39 224.91 83.49 229.00 67.00
C 229.93 63.25 230.84 60.85 235.00 60.00
C 237.32 59.53 248.19 58.71 250.00 60.00
C 252.22 61.58 250.21 63.59 250.00 65.00
C 249.37 83.63 242.95 103.86 239.00 122.00
C 238.30 125.21 237.58 126.49 236.00 129.00
C 229.24 143.78 209.02 137.20 204.00 125.00
C 203.28 123.26 202.42 121.15 202.00 119.00
C 200.38 110.73 198.97 102.42 198.00 94.00
C 197.59 92.06 196.37 89.35 196.00 87.00
C 195.92 86.48 196.04 80.55 195.00 83.00
C 194.62 83.89 194.13 87.35 194.00 88.00
C 192.45 105.84 190.21 144.49 163.00 136.00
C 158.76 134.68 154.61 131.41 153.00 127.00
C 147.18 111.03 146.69 92.62 143.00 76.00
C 142.79 75.07 142.23 73.38 142.00 72.00
C 141.34 68.08 140.11 64.11 140.00 60.00
C 145.33 60.00 150.67 60.00 156.00 60.00
C 160.90 61.09 161.06 64.95 162.00 69.00 Z"/>
</g>
<g fill="None" fill-opacity="0.0" stroke="#C4D7E3" stroke-opacity="0.07" stroke-width="0.3"><path d="
M 18.00 23.00 
C 18.00 22.96 19.00 23.00 19.00 23.00
C 22.01 20.77 29.05 22.00 33.00 22.00
C 31.10 20.59 18.79 19.30 18.00 23.00 Z"/>
</g>
<g fill="None" fill-opacity="0.0" stroke="#EF7C43" stroke-opacity="0.90" stroke-width="0.3"><path d="
M 227.00 54.00 
C 230.17 54.70 235.80 54.43 239.00 54.00 C 242.20 53.57 247.98 55.45 250.00 55.00
C 254.67 53.88 253.26 47.76 256.00 45.00
C 256.36 48.80 256.90 52.33 260.00 54.00
C 260.90 54.32 272.04 54.25 267.00 55.00
C 265.67 57.93 262.43 58.47 261.33 61.33 C 260.24 64.19 262.79 67.21 263.00 70.00
C 264.09 70.74 265.38 71.34 265.00 73.00
C 263.80 72.33 262.42 71.36 262.00 70.00
C 261.40 69.89 260.45 69.42 260.00 69.00
C 258.39 68.18 256.54 67.49 255.00 69.00
C 255.00 69.00 255.00 69.50 255.00 70.00
C 255.00 72.00 255.00 74.00 255.00 76.00
C 255.00 76.00 254.80 76.60 255.00 77.00
C 256.62 78.72 258.69 80.67 260.00 82.00
C 263.88 85.32 274.84 95.71 278.07 88.07 C 281.31 80.44 273.30 73.53 273.00 66.00
C 272.89 63.17 277.11 60.68 280.00 59.00
C 281.67 58.03 283.30 57.34 285.00 56.00
C 287.44 53.75 289.96 50.58 289.00 47.00
C 285.09 40.45 273.10 45.68 266.00 44.00
C 263.10 39.01 263.48 20.58 255.08 21.08 C 246.67 21.57 248.32 39.17 245.00 44.00
C 237.00 44.00 229.00 44.00 221.00 44.00
C 220.07 48.78 222.94 52.50 227.00 54.00 Z"/>
</g>
<g fill="None" fill-opacity="0.0" stroke="#14395D" stroke-opacity="0.97" stroke-width="0.3"><path d="
M 19.00 23.00 
C 21.84 54.38 17.29 86.52 19.00 118.00
C 19.66 130.10 29.77 136.11 41.00 137.00
C 46.34 136.91 53.98 136.41 60.00 136.00
C 64.85 135.67 68.78 134.32 73.00 132.00
C 75.70 130.13 79.74 126.59 82.00 124.00
C 86.62 117.79 87.85 110.70 88.00 103.00
C 88.06 100.00 88.00 97.00 88.00 94.00
C 88.00 90.08 87.84 86.63 87.00 83.00
C 86.55 81.64 85.55 79.64 85.00 78.00
C 84.41 76.22 84.04 74.65 83.00 73.00
C 80.42 69.52 74.42 65.03 71.00 63.00
C 68.40 61.79 65.87 61.34 63.00 61.00
C 61.35 60.80 59.06 60.15 58.00 60.00
C 51.67 60.00 45.33 60.00 39.00 60.00
C 37.03 49.28 42.07 36.12 38.00 26.00
C 37.32 24.77 34.91 23.31 34.00 22.00
C 34.00 22.00 33.50 22.00 33.00 22.00
C 29.05 22.00 22.01 20.77 19.00 23.00
M 56.00 79.00 
C 56.98 79.14 58.01 78.90 59.00 79.00
C 65.12 79.60 68.21 86.56 68.00 92.00
C 67.98 92.50 68.00 93.50 68.00 94.00
C 69.28 97.00 68.69 99.13 68.00 102.00
C 65.62 111.91 63.25 115.73 53.00 118.00
C 50.29 118.60 48.78 119.18 46.00 118.00
C 45.50 118.00 44.50 118.00 44.00 118.00
C 40.26 118.00 39.55 116.25 39.00 113.00
C 38.16 108.05 38.77 100.93 39.00 96.00 C 39.23 91.07 37.25 82.69 40.00 79.00
C 43.50 74.30 52.23 77.70 56.00 79.00 Z"/>
</g>
<g fill="None" fill-opacity="0.0" stroke="#899FAA" stroke-opacity="0.21" stroke-width="0.3"><path d="
M 38.00 26.00 
C 37.16 23.90 36.76 22.17 34.00 22.00
C 34.91 23.31 37.32 24.77 38.00 26.00 Z"/>
</g>
<g fill="None" fill-opacity="0.0" stroke="#7D8C9D" stroke-opacity="0.13" stroke-width="0.3"><path d="
M 19.00 118.00 
C 17.29 86.52 21.84 54.38 19.00 23.00
C 19.00 23.00 18.00 22.96 18.00 23.00
C 16.59 38.56 18.18 55.44 18.00 71.00 C 17.82 86.56 16.61 103.31 19.00 118.00 Z"/>
</g>
<g fill="None" fill-opacity="0.0" stroke="#F9CBB0" stroke-opacity="0.12" stroke-width="0.3"><path d="
M 285.00 56.00 
C 288.43 53.29 291.09 51.29 289.00 47.00
C 289.96 50.58 287.44 53.75 285.00 56.00 Z"/>
</g>
<g fill="None" fill-opacity="0.0" stroke="#FF8685" stroke-opacity="0.01" stroke-width="0.3"><path d="
M 250.00 55.00 
C 247.98 55.45 242.20 53.57 239.00 54.00 C 235.80 54.43 230.17 54.70 227.00 54.00
C 231.68 55.73 244.59 56.69 250.00 55.00 Z"/>
</g>
<g fill="None" fill-opacity="0.0" stroke="#E77C7B" stroke-opacity="0.01" stroke-width="0.3"><path d="
M 267.00 55.00 
C 272.04 54.25 260.90 54.32 260.00 54.00
C 261.90 55.03 264.42 55.39 267.00 55.00 Z"/>
</g>
<g fill="None" fill-opacity="0.0" stroke="#F4BB9A" stroke-opacity="0.21" stroke-width="0.3"><path d="
M 273.00 66.00 
C 273.37 64.19 278.49 60.24 280.00 59.00
C 277.11 60.68 272.89 63.17 273.00 66.00 Z"/>
</g>
<g fill="None" fill-opacity="0.0" stroke="#758093" stroke-opacity="0.12" stroke-width="0.3"><path d="
M 63.00 61.00 
C 61.57 60.66 60.04 60.08 58.00 60.00
C 59.06 60.15 61.35 60.80 63.00 61.00 Z"/>
</g>
<g fill="None" fill-opacity="0.0" stroke="#14395D" stroke-opacity="0.97" stroke-width="0.3"><path d="
M 109.00 61.00 
C 107.09 61.69 107.06 63.43 104.00 63.00
C 104.00 63.00 103.44 62.84 103.00 63.00
C 101.12 64.96 97.61 66.77 96.00 69.00
C 94.32 71.74 94.17 73.79 94.00 77.00
C 93.53 85.73 92.98 98.61 94.00 107.00 C 95.02 115.39 90.33 129.69 95.00 136.00
C 99.58 135.59 104.40 136.00 109.00 136.00
C 109.00 136.00 109.60 136.20 110.00 136.00
C 111.44 134.65 113.64 131.55 114.00 130.00
C 115.80 119.33 113.31 110.08 114.00 99.00 C 114.69 87.92 111.31 80.09 125.00 79.00
C 126.96 78.62 130.68 78.58 133.00 78.00
C 136.00 76.78 137.39 75.40 138.00 72.00
C 138.24 69.11 135.74 63.69 137.00 60.00
C 135.43 58.90 129.01 60.00 127.00 60.00
C 123.75 60.31 119.09 60.09 116.00 60.00
C 113.52 60.17 111.33 60.45 109.00 61.00 Z"/>
</g>
<g fill="None" fill-opacity="0.0" stroke="#476079" stroke-opacity="0.47" stroke-width="0.3"><path d="
M 127.00 60.00 
C 123.36 60.00 119.63 59.75 116.00 60.00
C 119.09 60.09 123.75 60.31 127.00 60.00 Z"/>
</g>
<g fill="None" fill-opacity="0.0" stroke="#485F75" stroke-opacity="0.56" stroke-width="0.3"><path d="
M 138.00 72.00 
C 138.43 69.61 138.92 61.35 137.00 60.00
C 135.74 63.69 138.24 69.11 138.00 72.00 Z"/>
</g>
<g fill="None" fill-opacity="0.0" stroke="#1A3D60" stroke-opacity="0.93" stroke-width="0.3"><path d="
M 142.00 72.00 
C 142.64 73.87 142.89 74.56 143.00 76.00
C 146.69 92.62 147.18 111.03 153.00 127.00
C 153.39 127.58 154.52 128.37 155.00 129.00
C 156.39 130.40 158.55 132.87 160.00 134.00
C 160.92 134.59 162.24 135.62 163.00 136.00
C 190.21 144.49 192.45 105.84 194.00 88.00
C 194.18 85.88 193.57 84.51 195.00 83.00
C 196.04 80.55 195.92 86.48 196.00 87.00
C 196.66 89.34 197.66 91.00 198.00 94.00
C 198.97 102.42 200.38 110.73 202.00 119.00
C 202.46 120.59 203.42 123.10 204.00 125.00
C 209.02 137.20 229.24 143.78 236.00 129.00
C 236.93 126.96 238.35 123.88 239.00 122.00
C 242.95 103.86 249.37 83.63 250.00 65.00
C 250.06 63.34 249.96 61.67 250.00 60.00
C 248.19 58.71 237.32 59.53 235.00 60.00
C 232.87 60.65 229.69 65.16 229.00 67.00
C 224.91 83.49 223.72 101.39 218.00 117.00
C 212.52 101.18 216.77 79.10 207.00 65.00
C 206.05 63.92 202.02 60.32 201.00 60.00
C 198.37 59.40 193.67 59.59 191.00 60.00
C 189.95 60.39 189.99 62.73 188.00 62.00
C 186.31 63.18 185.14 64.36 184.00 66.00
C 182.97 67.80 181.57 70.36 181.00 72.00
C 178.43 87.01 174.38 101.69 173.00 117.00
C 167.69 102.31 165.68 84.82 162.00 69.00
C 161.14 66.36 159.30 61.00 156.00 60.00
C 150.67 60.00 145.33 60.00 140.00 60.00
C 140.11 64.11 141.34 68.08 142.00 72.00 Z"/>
</g>
<g fill="None" fill-opacity="0.0" stroke="#718897" stroke-opacity="0.17" stroke-width="0.3"><path d="
M 162.00 69.00 
C 161.06 64.95 160.90 61.09 156.00 60.00
C 159.30 61.00 161.14 66.36 162.00 69.00 Z"/>
</g>
<g fill="None" fill-opacity="0.0" stroke="#5F7D8D" stroke-opacity="0.27" stroke-width="0.3"><path d="
M 188.00 61.00 
C 187.79 61.38 188.00 62.00 188.00 62.00
C 189.99 62.73 189.95 60.39 191.00 60.00
C 190.21 60.12 188.47 60.13 188.00 61.00 Z"/>
</g>
<g fill="None" fill-opacity="0.0" stroke="#AEB8C0" stroke-opacity="0.04" stroke-width="0.3"><path d="
M 207.00 65.00 
C 205.58 62.96 203.59 60.59 201.00 60.00
C 202.02 60.32 206.05 63.92 207.00 65.00 Z"/>
</g>
<g fill="None" fill-opacity="0.0" stroke="#637C9F" stroke-opacity="0.18" stroke-width="0.3"><path d="
M 229.00 67.00 
C 229.69 65.16 232.87 60.65 235.00 60.00
C 230.84 60.85 229.93 63.25 229.00 67.00 Z"/>
</g>
<g fill="None" fill-opacity="0.0" stroke="#A6ACB1" stroke-opacity="0.07" stroke-width="0.3"><path d="
M 250.00 65.00 
C 250.21 63.59 252.22 61.58 250.00 60.00
C 249.96 61.67 250.06 63.34 250.00 65.00 Z"/>
</g>
<g fill="None" fill-opacity="0.0" stroke="#919EAB" stroke-opacity="0.22" stroke-width="0.3"><path d="
M 104.00 63.00 
C 107.06 63.43 107.09 61.69 109.00 61.00
C 107.09 61.45 105.44 61.96 104.00 63.00 Z"/>
</g>
<g fill="None" fill-opacity="0.0" stroke="#9FB9C1" stroke-opacity="0.04" stroke-width="0.3"><path d="
M 183.00 66.00 
C 183.22 65.75 184.00 66.00 184.00 66.00
C 185.14 64.36 186.31 63.18 188.00 62.00
C 188.00 62.00 187.79 61.38 188.00 61.00
C 186.26 61.95 183.81 64.07 183.00 66.00 Z"/>
</g>
<g fill="None" fill-opacity="0.0" stroke="#8499B1" stroke-opacity="0.13" stroke-width="0.3"><path d="
M 83.00 73.00 
C 80.27 68.67 75.50 65.10 71.00 63.00
C 74.42 65.03 80.42 69.52 83.00 73.00 Z"/>
</g>
<g fill="None" fill-opacity="0.0" stroke="#839DB3" stroke-opacity="0.13" stroke-width="0.3"><path d="
M 96.00 69.00 
C 97.61 66.77 101.12 64.96 103.00 63.00
C 100.15 64.03 97.62 66.36 96.00 69.00 Z"/>
</g>
<g fill="None" fill-opacity="0.0" stroke="#657C8E" stroke-opacity="0.22" stroke-width="0.3"><path d="
M 181.00 72.00 
C 181.57 70.36 182.97 67.80 184.00 66.00
C 184.00 66.00 183.22 65.75 183.00 66.00
C 181.49 67.70 181.49 69.98 181.00 72.00 Z"/>
</g>
<g fill="None" fill-opacity="0.0" stroke="#EBAF89" stroke-opacity="0.12" stroke-width="0.3"><path d="
M 255.00 69.00 
C 256.54 67.49 258.39 68.18 260.00 69.00
C 258.43 67.56 256.34 65.59 255.00 69.00 Z"/>
</g>
<g fill="None" fill-opacity="0.0" stroke="#FBBFA5" stroke-opacity="0.13" stroke-width="0.3"><path d="
M 255.00 76.00 
C 255.00 74.00 255.00 72.00 255.00 70.00
C 253.61 71.78 253.59 74.19 255.00 76.00 Z"/>
</g>
<g fill="None" fill-opacity="0.0" stroke="#EEBD93" stroke-opacity="0.22" stroke-width="0.3"><path d="
M 263.00 70.00 
C 263.00 70.00 262.48 70.09 262.00 70.00
C 262.42 71.36 263.80 72.33 265.00 73.00
C 265.38 71.34 264.09 70.74 263.00 70.00 Z"/>
</g>
<g fill="None" fill-opacity="0.0" stroke="#677A90" stroke-opacity="0.34" stroke-width="0.3"><path d="
M 143.00 76.00 
C 142.89 74.56 142.64 73.87 142.00 72.00
C 142.23 73.38 142.79 75.07 143.00 76.00 Z"/>
</g>
<g fill="None" fill-opacity="0.0" stroke="#56718A" stroke-opacity="0.52" stroke-width="0.3"><path d="
M 40.00 79.00 
C 43.17 75.92 52.35 78.50 56.00 79.00
C 52.23 77.70 43.50 74.30 40.00 79.00 Z"/>
</g>
<g fill="None" fill-opacity="0.0" stroke="#708B9A" stroke-opacity="0.07" stroke-width="0.3"><path d="
M 95.00 137.00 
C 94.96 137.00 95.00 136.00 95.00 136.00
C 90.33 129.69 95.02 115.39 94.00 107.00 C 92.98 98.61 93.53 85.73 94.00 77.00
C 93.16 82.19 92.43 91.28 93.00 97.00 C 93.57 102.72 92.09 113.24 93.00 118.00 C 93.91 122.76 90.24 135.98 95.00 137.00 Z"/>
</g>
<g fill="None" fill-opacity="0.0" stroke="#F0BA90" stroke-opacity="0.21" stroke-width="0.3"><path d="
M 260.00 82.00 
C 258.69 80.67 256.62 78.72 255.00 77.00
C 256.06 79.16 258.22 80.48 260.00 82.00 Z"/>
</g>
<g fill="None" fill-opacity="0.0" stroke="#000000" stroke-opacity="0.00" stroke-width="0.3"><path d="
M 40.00 79.00 
C 37.25 82.69 39.23 91.07 39.00 96.00 C 38.77 100.93 38.16 108.05 39.00 113.00
C 39.43 114.42 42.73 117.46 44.00 118.00
C 44.50 118.00 45.50 118.00 46.00 118.00
C 48.30 118.00 50.71 118.22 53.00 118.00
C 63.25 115.73 65.62 111.91 68.00 102.00
C 68.30 99.42 68.00 96.60 68.00 94.00
C 68.00 93.50 67.98 92.50 68.00 92.00
C 66.39 87.38 64.60 80.68 59.00 79.00
C 58.01 78.90 56.98 79.14 56.00 79.00
C 52.35 78.50 43.17 75.92 40.00 79.00 Z"/>
</g>
<g fill="None" fill-opacity="0.0" stroke="#8E9FAC" stroke-opacity="0.11" stroke-width="0.3"><path d="
M 87.00 83.00 
C 86.48 80.77 85.83 79.81 85.00 78.00
C 85.55 79.64 86.55 81.64 87.00 83.00 Z"/>
</g>
<g fill="None" fill-opacity="0.0" stroke="#566C84" stroke-opacity="0.37" stroke-width="0.3"><path d="
M 125.00 79.00 
C 128.02 78.76 130.52 79.01 133.00 78.00
C 130.68 78.58 126.96 78.62 125.00 79.00 Z"/>
</g>
<g fill="None" fill-opacity="0.0" stroke="#708299" stroke-opacity="0.22" stroke-width="0.3"><path d="
M 68.00 92.00 
C 68.21 86.56 65.12 79.60 59.00 79.00
C 64.60 80.68 66.39 87.38 68.00 92.00 Z"/>
</g>
<g fill="None" fill-opacity="0.0" stroke="#899AAB" stroke-opacity="0.14" stroke-width="0.3"><path d="
M 194.00 88.00 
C 194.13 87.35 194.62 83.89 195.00 83.00
C 193.57 84.51 194.18 85.88 194.00 88.00 Z"/>
</g>
<g fill="None" fill-opacity="0.0" stroke="#8EA2B2" stroke-opacity="0.13" stroke-width="0.3"><path d="
M 198.00 94.00 
C 197.66 91.00 196.66 89.34 196.00 87.00
C 196.37 89.35 197.59 92.06 198.00 94.00 Z"/>
</g>
<g fill="None" fill-opacity="0.0" stroke="#50667E" stroke-opacity="0.55" stroke-width="0.3"><path d="
M 68.00 102.00 
C 68.69 99.13 69.28 97.00 68.00 94.00
C 68.00 96.60 68.30 99.42 68.00 102.00 Z"/>
</g>
<g fill="None" fill-opacity="0.0" stroke="#CFDCE3" stroke-opacity="0.06" stroke-width="0.3"><path d="
M 88.00 103.00 
C 88.34 100.15 88.28 96.89 88.00 94.00
C 88.00 97.00 88.06 100.00 88.00 103.00 Z"/>
</g>
<g fill="None" fill-opacity="0.0" stroke="#6C91A7" stroke-opacity="0.22" stroke-width="0.3"><path d="
M 44.00 118.00 
C 42.73 117.46 39.43 114.42 39.00 113.00
C 39.55 116.25 40.26 118.00 44.00 118.00 Z"/>
</g>
<g fill="None" fill-opacity="0.0" stroke="#93A7BA" stroke-opacity="0.14" stroke-width="0.3"><path d="
M 53.00 118.00 
C 50.71 118.22 48.30 118.00 46.00 118.00
C 48.78 119.18 50.29 118.60 53.00 118.00 Z"/>
</g>
<g fill="None" fill-opacity="0.0" stroke="#8D9DB3" stroke-opacity="0.16" stroke-width="0.3"><path d="
M 204.00 125.00 
C 203.42 123.10 202.46 120.59 202.00 119.00
C 202.42 121.15 203.28 123.26 204.00 125.00 Z"/>
</g>
<g fill="None" fill-opacity="0.0" stroke="#77899F" stroke-opacity="0.19" stroke-width="0.3"><path d="
M 236.00 129.00 
C 237.58 126.49 238.30 125.21 239.00 122.00
C 238.35 123.88 236.93 126.96 236.00 129.00 Z"/>
</g>
<g fill="None" fill-opacity="0.0" stroke="#8997AC" stroke-opacity="0.09" stroke-width="0.3"><path d="
M 73.00 132.00 
C 76.61 130.01 79.45 127.42 82.00 124.00
C 79.74 126.59 75.70 130.13 73.00 132.00 Z"/>
</g>
<g fill="None" fill-opacity="0.0" stroke="#A5B0C1" stroke-opacity="0.06" stroke-width="0.3"><path d="
M 163.00 136.00 
C 162.24 135.62 160.92 134.59 160.00 134.00
C 157.91 132.67 156.44 130.88 155.00 129.00
C 154.52 128.37 153.39 127.58 153.00 127.00
C 154.61 131.41 158.76 134.68 163.00 136.00 Z"/>
</g>
<g fill="None" fill-opacity="0.0" stroke="#395167" stroke-opacity="0.63" stroke-width="0.3"><path d="
M 160.00 134.00 
C 158.55 132.87 156.39 130.40 155.00 129.00
C 156.44 130.88 157.91 132.67 160.00 134.00 Z"/>
</g>
<g fill="None" fill-opacity="0.0" stroke="#90A2B7" stroke-opacity="0.10" stroke-width="0.3"><path d="
M 110.00 136.00 
C 112.75 134.66 113.53 132.76 114.00 130.00
C 113.64 131.55 111.44 134.65 110.00 136.00 Z"/>
</g>
<g fill="None" fill-opacity="0.0" stroke="#6C8394" stroke-opacity="0.28" stroke-width="0.3"><path d="
M 41.00 137.00 
C 47.28 137.50 54.42 137.00 60.00 136.00
C 53.98 136.41 46.34 136.91 41.00 137.00 Z"/>
</g>
<g fill="None" fill-opacity="0.0" stroke="#3E546D" stroke-opacity="0.44" stroke-width="0.3"><path d="
M 95.00 137.00 
C 98.70 137.33 106.23 138.05 109.00 136.00
C 104.40 136.00 99.58 135.59 95.00 136.00
C 95.00 136.00 94.96 137.00 95.00 137.00 Z"/>
</g>
<g fill="#000000" fill-opacity="0.00" stroke="None">
<path d="
M 0.00 159.00 
L 300.00 159.00
L 300.00 0.00
L 0.00 0.00
L 0.00 159.00
M 33.00 22.00 
C 33.50 22.00 34.00 22.00 34.00 22.00
C 36.76 22.17 37.16 23.90 38.00 26.00
C 42.07 36.12 37.03 49.28 39.00 60.00
C 45.33 60.00 51.67 60.00 58.00 60.00
C 60.04 60.08 61.57 60.66 63.00 61.00
C 65.87 61.34 68.40 61.79 71.00 63.00
C 75.50 65.10 80.27 68.67 83.00 73.00
C 84.04 74.65 84.41 76.22 85.00 78.00
C 85.83 79.81 86.48 80.77 87.00 83.00
C 87.84 86.63 88.00 90.08 88.00 94.00
C 88.28 96.89 88.34 100.15 88.00 103.00
C 87.85 110.70 86.62 117.79 82.00 124.00
C 79.45 127.42 76.61 130.01 73.00 132.00
C 68.78 134.32 64.85 135.67 60.00 136.00
C 54.42 137.00 47.28 137.50 41.00 137.00
C 29.77 136.11 19.66 130.10 19.00 118.00
C 16.61 103.31 17.82 86.56 18.00 71.00 C 18.18 55.44 16.59 38.56 18.00 23.00
C 18.79 19.30 31.10 20.59 33.00 22.00
M 289.00 47.00 
C 291.09 51.29 288.43 53.29 285.00 56.00
C 283.30 57.34 281.67 58.03 280.00 59.00
C 278.49 60.24 273.37 64.19 273.00 66.00
C 273.30 73.53 281.31 80.44 278.07 88.07 C 274.84 95.71 263.88 85.32 260.00 82.00
C 258.22 80.48 256.06 79.16 255.00 77.00
C 254.80 76.60 255.00 76.00 255.00 76.00
C 253.59 74.19 253.61 71.78 255.00 70.00
C 255.00 69.50 255.00 69.00 255.00 69.00
C 256.34 65.59 258.43 67.56 260.00 69.00
C 260.45 69.42 261.40 69.89 262.00 70.00
C 262.48 70.09 263.00 70.00 263.00 70.00
C 262.79 67.21 260.24 64.19 261.33 61.33 C 262.43 58.47 265.67 57.93 267.00 55.00
C 264.42 55.39 261.90 55.03 260.00 54.00
C 256.90 52.33 256.36 48.80 256.00 45.00
C 253.26 47.76 254.67 53.88 250.00 55.00
C 244.59 56.69 231.68 55.73 227.00 54.00
C 222.94 52.50 220.07 48.78 221.00 44.00
C 229.00 44.00 237.00 44.00 245.00 44.00
C 248.32 39.17 246.67 21.57 255.08 21.08 C 263.48 20.58 263.10 39.01 266.00 44.00
C 273.10 45.68 285.09 40.45 289.00 47.00
M 138.00 72.00 
C 137.39 75.40 136.00 76.78 133.00 78.00
C 130.52 79.01 128.02 78.76 125.00 79.00
C 111.31 80.09 114.69 87.92 114.00 99.00 C 113.31 110.08 115.80 119.33 114.00 130.00
C 113.53 132.76 112.75 134.66 110.00 136.00
C 109.60 136.20 109.00 136.00 109.00 136.00
C 106.23 138.05 98.70 137.33 95.00 137.00
C 90.24 135.98 93.91 122.76 93.00 118.00 C 92.09 113.24 93.57 102.72 93.00 97.00 C 92.43 91.28 93.16 82.19 94.00 77.00
C 94.17 73.79 94.32 71.74 96.00 69.00
C 97.62 66.36 100.15 64.03 103.00 63.00
C 103.44 62.84 104.00 63.00 104.00 63.00
C 105.44 61.96 107.09 61.45 109.00 61.00
C 111.33 60.45 113.52 60.17 116.00 60.00
C 119.63 59.75 123.36 60.00 127.00 60.00
C 129.01 60.00 135.43 58.90 137.00 60.00
C 138.92 61.35 138.43 69.61 138.00 72.00
M 162.00 69.00 
C 165.68 84.82 167.69 102.31 173.00 117.00
C 174.38 101.69 178.43 87.01 181.00 72.00
C 181.49 69.98 181.49 67.70 183.00 66.00
C 183.81 64.07 186.26 61.95 188.00 61.00
C 188.47 60.13 190.21 60.12 191.00 60.00
C 193.67 59.59 198.37 59.40 201.00 60.00
C 203.59 60.59 205.58 62.96 207.00 65.00
C 216.77 79.10 212.52 101.18 218.00 117.00
C 223.72 101.39 224.91 83.49 229.00 67.00
C 229.93 63.25 230.84 60.85 235.00 60.00
C 237.32 59.53 248.19 58.71 250.00 60.00
C 252.22 61.58 250.21 63.59 250.00 65.00
C 249.37 83.63 242.95 103.86 239.00 122.00
C 238.30 125.21 237.58 126.49 236.00 129.00
C 229.24 143.78 209.02 137.20 204.00 125.00
C 203.28 123.26 202.42 121.15 202.00 119.00
C 200.38 110.73 198.97 102.42 198.00 94.00
C 197.59 92.06 196.37 89.35 196.00 87.00
C 195.92 86.48 196.04 80.55 195.00 83.00
C 194.62 83.89 194.13 87.35 194.00 88.00
C 192.45 105.84 190.21 144.49 163.00 136.00
C 158.76 134.68 154.61 131.41 153.00 127.00
C 147.18 111.03 146.69 92.62 143.00 76.00
C 142.79 75.07 142.23 73.38 142.00 72.00
C 141.34 68.08 140.11 64.11 140.00 60.00
C 145.33 60.00 150.67 60.00 156.00 60.00
C 160.90 61.09 161.06 64.95 162.00 69.00 Z"/>
</g>
<g fill="#C4D7E3" fill-opacity="0.07" stroke="None">
<path d="
M 18.00 23.00 
C 18.00 22.96 19.00 23.00 19.00 23.00
C 22.01 20.77 29.05 22.00 33.00 22.00
C 31.10 20.59 18.79 19.30 18.00 23.00 Z"/>
</g>
<g fill="#EF7C43" fill-opacity="0.90" stroke="None">
<path d="
M 227.00 54.00 
C 230.17 54.70 235.80 54.43 239.00 54.00 C 242.20 53.57 247.98 55.45 250.00 55.00
C 254.67 53.88 253.26 47.76 256.00 45.00
C 256.36 48.80 256.90 52.33 260.00 54.00
C 260.90 54.32 272.04 54.25 267.00 55.00
C 265.67 57.93 262.43 58.47 261.33 61.33 C 260.24 64.19 262.79 67.21 263.00 70.00
C 264.09 70.74 265.38 71.34 265.00 73.00
C 263.80 72.33 262.42 71.36 262.00 70.00
C 261.40 69.89 260.45 69.42 260.00 69.00
C 258.39 68.18 256.54 67.49 255.00 69.00
C 255.00 69.00 255.00 69.50 255.00 70.00
C 255.00 72.00 255.00 74.00 255.00 76.00
C 255.00 76.00 254.80 76.60 255.00 77.00
C 256.62 78.72 258.69 80.67 260.00 82.00
C 263.88 85.32 274.84 95.71 278.07 88.07 C 281.31 80.44 273.30 73.53 273.00 66.00
C 272.89 63.17 277.11 60.68 280.00 59.00
C 281.67 58.03 283.30 57.34 285.00 56.00
C 287.44 53.75 289.96 50.58 289.00 47.00
C 285.09 40.45 273.10 45.68 266.00 44.00
C 263.10 39.01 263.48 20.58 255.08 21.08 C 246.67 21.57 248.32 39.17 245.00 44.00
C 237.00 44.00 229.00 44.00 221.00 44.00
C 220.07 48.78 222.94 52.50 227.00 54.00 Z"/>
</g>
<g fill="#14395D" fill-opacity="0.97" stroke="None">
<path d="
M 19.00 23.00 
C 21.84 54.38 17.29 86.52 19.00 118.00
C 19.66 130.10 29.77 136.11 41.00 137.00
C 46.34 136.91 53.98 136.41 60.00 136.00
C 64.85 135.67 68.78 134.32 73.00 132.00
C 75.70 130.13 79.74 126.59 82.00 124.00
C 86.62 117.79 87.85 110.70 88.00 103.00
C 88.06 100.00 88.00 97.00 88.00 94.00
C 88.00 90.08 87.84 86.63 87.00 83.00
C 86.55 81.64 85.55 79.64 85.00 78.00
C 84.41 76.22 84.04 74.65 83.00 73.00
C 80.42 69.52 74.42 65.03 71.00 63.00
C 68.40 61.79 65.87 61.34 63.00 61.00
C 61.35 60.80 59.06 60.15 58.00 60.00
C 51.67 60.00 45.33 60.00 39.00 60.00
C 37.03 49.28 42.07 36.12 38.00 26.00
C 37.32 24.77 34.91 23.31 34.00 22.00
C 34.00 22.00 33.50 22.00 33.00 22.00
C 29.05 22.00 22.01 20.77 19.00 23.00
M 56.00 79.00 
C 56.98 79.14 58.01 78.90 59.00 79.00
C 65.12 79.60 68.21 86.56 68.00 92.00
C 67.98 92.50 68.00 93.50 68.00 94.00
C 69.28 97.00 68.69 99.13 68.00 102.00
C 65.62 111.91 63.25 115.73 53.00 118.00
C 50.29 118.60 48.78 119.18 46.00 118.00
C 45.50 118.00 44.50 118.00 44.00 118.00
C 40.26 118.00 39.55 116.25 39.00 113.00
C 38.16 108.05 38.77 100.93 39.00 96.00 C 39.23 91.07 37.25 82.69 40.00 79.00
C 43.50 74.30 52.23 77.70 56.00 79.00 Z"/>
</g>
<g fill="#899FAA" fill-opacity="0.21" stroke="None">
<path d="
M 38.00 26.00 
C 37.16 23.90 36.76 22.17 34.00 22.00
C 34.91 23.31 37.32 24.77 38.00 26.00 Z"/>
</g>
<g fill="#7D8C9D" fill-opacity="0.13" stroke="None">
<path d="
M 19.00 118.00 
C 17.29 86.52 21.84 54.38 19.00 23.00
C 19.00 23.00 18.00 22.96 18.00 23.00
C 16.59 38.56 18.18 55.44 18.00 71.00 C 17.82 86.56 16.61 103.31 19.00 118.00 Z"/>
</g>
<g fill="#F9CBB0" fill-opacity="0.12" stroke="None">
<path d="
M 285.00 56.00 
C 288.43 53.29 291.09 51.29 289.00 47.00
C 289.96 50.58 287.44 53.75 285.00 56.00 Z"/>
</g>
<g fill="#FF8685" fill-opacity="0.01" stroke="None">
<path d="
M 250.00 55.00 
C 247.98 55.45 242.20 53.57 239.00 54.00 C 235.80 54.43 230.17 54.70 227.00 54.00
C 231.68 55.73 244.59 56.69 250.00 55.00 Z"/>
</g>
<g fill="#E77C7B" fill-opacity="0.01" stroke="None">
<path d="
M 267.00 55.00 
C 272.04 54.25 260.90 54.32 260.00 54.00
C 261.90 55.03 264.42 55.39 267.00 55.00 Z"/>
</g>
<g fill="#F4BB9A" fill-opacity="0.21" stroke="None">
<path d="
M 273.00 66.00 
C 273.37 64.19 278.49 60.24 280.00 59.00
C 277.11 60.68 272.89 63.17 273.00 66.00 Z"/>
</g>
<g fill="#758093" fill-opacity="0.12" stroke="None">
<path d="
M 63.00 61.00 
C 61.57 60.66 60.04 60.08 58.00 60.00
C 59.06 60.15 61.35 60.80 63.00 61.00 Z"/>
</g>
<g fill="#14395D" fill-opacity="0.97" stroke="None">
<path d="
M 109.00 61.00 
C 107.09 61.69 107.06 63.43 104.00 63.00
C 104.00 63.00 103.44 62.84 103.00 63.00
C 101.12 64.96 97.61 66.77 96.00 69.00
C 94.32 71.74 94.17 73.79 94.00 77.00
C 93.53 85.73 92.98 98.61 94.00 107.00 C 95.02 115.39 90.33 129.69 95.00 136.00
C 99.58 135.59 104.40 136.00 109.00 136.00
C 109.00 136.00 109.60 136.20 110.00 136.00
C 111.44 134.65 113.64 131.55 114.00 130.00
C 115.80 119.33 113.31 110.08 114.00 99.00 C 114.69 87.92 111.31 80.09 125.00 79.00
C 126.96 78.62 130.68 78.58 133.00 78.00
C 136.00 76.78 137.39 75.40 138.00 72.00
C 138.24 69.11 135.74 63.69 137.00 60.00
C 135.43 58.90 129.01 60.00 127.00 60.00
C 123.75 60.31 119.09 60.09 116.00 60.00
C 113.52 60.17 111.33 60.45 109.00 61.00 Z"/>
</g>
<g fill="#476079" fill-opacity="0.47" stroke="None">
<path d="
M 127.00 60.00 
C 123.36 60.00 119.63 59.75 116.00 60.00
C 119.09 60.09 123.75 60.31 127.00 60.00 Z"/>
</g>
<g fill="#485F75" fill-opacity="0.56" stroke="None">
<path d="
M 138.00 72.00 
C 138.43 69.61 138.92 61.35 137.00 60.00
C 135.74 63.69 138.24 69.11 138.00 72.00 Z"/>
</g>
<g fill="#1A3D60" fill-opacity="0.93" stroke="None">
<path d="
M 142.00 72.00 
C 142.64 73.87 142.89 74.56 143.00 76.00
C 146.69 92.62 147.18 111.03 153.00 127.00
C 153.39 127.58 154.52 128.37 155.00 129.00
C 156.39 130.40 158.55 132.87 160.00 134.00
C 160.92 134.59 162.24 135.62 163.00 136.00
C 190.21 144.49 192.45 105.84 194.00 88.00
C 194.18 85.88 193.57 84.51 195.00 83.00
C 196.04 80.55 195.92 86.48 196.00 87.00
C 196.66 89.34 197.66 91.00 198.00 94.00
C 198.97 102.42 200.38 110.73 202.00 119.00
C 202.46 120.59 203.42 123.10 204.00 125.00
C 209.02 137.20 229.24 143.78 236.00 129.00
C 236.93 126.96 238.35 123.88 239.00 122.00
C 242.95 103.86 249.37 83.63 250.00 65.00
C 250.06 63.34 249.96 61.67 250.00 60.00
C 248.19 58.71 237.32 59.53 235.00 60.00
C 232.87 60.65 229.69 65.16 229.00 67.00
C 224.91 83.49 223.72 101.39 218.00 117.00
C 212.52 101.18 216.77 79.10 207.00 65.00
C 206.05 63.92 202.02 60.32 201.00 60.00
C 198.37 59.40 193.67 59.59 191.00 60.00
C 189.95 60.39 189.99 62.73 188.00 62.00
C 186.31 63.18 185.14 64.36 184.00 66.00
C 182.97 67.80 181.57 70.36 181.00 72.00
C 178.43 87.01 174.38 101.69 173.00 117.00
C 167.69 102.31 165.68 84.82 162.00 69.00
C 161.14 66.36 159.30 61.00 156.00 60.00
C 150.67 60.00 145.33 60.00 140.00 60.00
C 140.11 64.11 141.34 68.08 142.00 72.00 Z"/>
</g>
<g fill="#718897" fill-opacity="0.17" stroke="None">
<path d="
M 162.00 69.00 
C 161.06 64.95 160.90 61.09 156.00 60.00
C 159.30 61.00 161.14 66.36 162.00 69.00 Z"/>
</g>
<g fill="#5F7D8D" fill-opacity="0.27" stroke="None">
<path d="
M 188.00 61.00 
C 187.79 61.38 188.00 62.00 188.00 62.00
C 189.99 62.73 189.95 60.39 191.00 60.00
C 190.21 60.12 188.47 60.13 188.00 61.00 Z"/>
</g>
<g fill="#AEB8C0" fill-opacity="0.04" stroke="None">
<path d="
M 207.00 65.00 
C 205.58 62.96 203.59 60.59 201.00 60.00
C 202.02 60.32 206.05 63.92 207.00 65.00 Z"/>
</g>
<g fill="#637C9F" fill-opacity="0.18" stroke="None">
<path d="
M 229.00 67.00 
C 229.69 65.16 232.87 60.65 235.00 60.00
C 230.84 60.85 229.93 63.25 229.00 67.00 Z"/>
</g>
<g fill="#A6ACB1" fill-opacity="0.07" stroke="None">
<path d="
M 250.00 65.00 
C 250.21 63.59 252.22 61.58 250.00 60.00
C 249.96 61.67 250.06 63.34 250.00 65.00 Z"/>
</g>
<g fill="#919EAB" fill-opacity="0.22" stroke="None">
<path d="
M 104.00 63.00 
C 107.06 63.43 107.09 61.69 109.00 61.00
C 107.09 61.45 105.44 61.96 104.00 63.00 Z"/>
</g>
<g fill="#9FB9C1" fill-opacity="0.04" stroke="None">
<path d="
M 183.00 66.00 
C 183.22 65.75 184.00 66.00 184.00 66.00
C 185.14 64.36 186.31 63.18 188.00 62.00
C 188.00 62.00 187.79 61.38 188.00 61.00
C 186.26 61.95 183.81 64.07 183.00 66.00 Z"/>
</g>
<g fill="#8499B1" fill-opacity="0.13" stroke="None">
<path d="
M 83.00 73.00 
C 80.27 68.67 75.50 65.10 71.00 63.00
C 74.42 65.03 80.42 69.52 83.00 73.00 Z"/>
</g>
<g fill="#839DB3" fill-opacity="0.13" stroke="None">
<path d="
M 96.00 69.00 
C 97.61 66.77 101.12 64.96 103.00 63.00
C 100.15 64.03 97.62 66.36 96.00 69.00 Z"/>
</g>
<g fill="#657C8E" fill-opacity="0.22" stroke="None">
<path d="
M 181.00 72.00 
C 181.57 70.36 182.97 67.80 184.00 66.00
C 184.00 66.00 183.22 65.75 183.00 66.00
C 181.49 67.70 181.49 69.98 181.00 72.00 Z"/>
</g>
<g fill="#EBAF89" fill-opacity="0.12" stroke="None">
<path d="
M 255.00 69.00 
C 256.54 67.49 258.39 68.18 260.00 69.00
C 258.43 67.56 256.34 65.59 255.00 69.00 Z"/>
</g>
<g fill="#FBBFA5" fill-opacity="0.13" stroke="None">
<path d="
M 255.00 76.00 
C 255.00 74.00 255.00 72.00 255.00 70.00
C 253.61 71.78 253.59 74.19 255.00 76.00 Z"/>
</g>
<g fill="#EEBD93" fill-opacity="0.22" stroke="None">
<path d="
M 263.00 70.00 
C 263.00 70.00 262.48 70.09 262.00 70.00
C 262.42 71.36 263.80 72.33 265.00 73.00
C 265.38 71.34 264.09 70.74 263.00 70.00 Z"/>
</g>
<g fill="#677A90" fill-opacity="0.34" stroke="None">
<path d="
M 143.00 76.00 
C 142.89 74.56 142.64 73.87 142.00 72.00
C 142.23 73.38 142.79 75.07 143.00 76.00 Z"/>
</g>
<g fill="#56718A" fill-opacity="0.52" stroke="None">
<path d="
M 40.00 79.00 
C 43.17 75.92 52.35 78.50 56.00 79.00
C 52.23 77.70 43.50 74.30 40.00 79.00 Z"/>
</g>
<g fill="#708B9A" fill-opacity="0.07" stroke="None">
<path d="
M 95.00 137.00 
C 94.96 137.00 95.00 136.00 95.00 136.00
C 90.33 129.69 95.02 115.39 94.00 107.00 C 92.98 98.61 93.53 85.73 94.00 77.00
C 93.16 82.19 92.43 91.28 93.00 97.00 C 93.57 102.72 92.09 113.24 93.00 118.00 C 93.91 122.76 90.24 135.98 95.00 137.00 Z"/>
</g>
<g fill="#F0BA90" fill-opacity="0.21" stroke="None">
<path d="
M 260.00 82.00 
C 258.69 80.67 256.62 78.72 255.00 77.00
C 256.06 79.16 258.22 80.48 260.00 82.00 Z"/>
</g>
<g fill="#000000" fill-opacity="0.00" stroke="None">
<path d="
M 40.00 79.00 
C 37.25 82.69 39.23 91.07 39.00 96.00 C 38.77 100.93 38.16 108.05 39.00 113.00
C 39.43 114.42 42.73 117.46 44.00 118.00
C 44.50 118.00 45.50 118.00 46.00 118.00
C 48.30 118.00 50.71 118.22 53.00 118.00
C 63.25 115.73 65.62 111.91 68.00 102.00
C 68.30 99.42 68.00 96.60 68.00 94.00
C 68.00 93.50 67.98 92.50 68.00 92.00
C 66.39 87.38 64.60 80.68 59.00 79.00
C 58.01 78.90 56.98 79.14 56.00 79.00
C 52.35 78.50 43.17 75.92 40.00 79.00 Z"/>
</g>
<g fill="#8E9FAC" fill-opacity="0.11" stroke="None">
<path d="
M 87.00 83.00 
C 86.48 80.77 85.83 79.81 85.00 78.00
C 85.55 79.64 86.55 81.64 87.00 83.00 Z"/>
</g>
<g fill="#566C84" fill-opacity="0.37" stroke="None">
<path d="
M 125.00 79.00 
C 128.02 78.76 130.52 79.01 133.00 78.00
C 130.68 78.58 126.96 78.62 125.00 79.00 Z"/>
</g>
<g fill="#708299" fill-opacity="0.22" stroke="None">
<path d="
M 68.00 92.00 
C 68.21 86.56 65.12 79.60 59.00 79.00
C 64.60 80.68 66.39 87.38 68.00 92.00 Z"/>
</g>
<g fill="#899AAB" fill-opacity="0.14" stroke="None">
<path d="
M 194.00 88.00 
C 194.13 87.35 194.62 83.89 195.00 83.00
C 193.57 84.51 194.18 85.88 194.00 88.00 Z"/>
</g>
<g fill="#8EA2B2" fill-opacity="0.13" stroke="None">
<path d="
M 198.00 94.00 
C 197.66 91.00 196.66 89.34 196.00 87.00
C 196.37 89.35 197.59 92.06 198.00 94.00 Z"/>
</g>
<g fill="#50667E" fill-opacity="0.55" stroke="None">
<path d="
M 68.00 102.00 
C 68.69 99.13 69.28 97.00 68.00 94.00
C 68.00 96.60 68.30 99.42 68.00 102.00 Z"/>
</g>
<g fill="#CFDCE3" fill-opacity="0.06" stroke="None">
<path d="
M 88.00 103.00 
C 88.34 100.15 88.28 96.89 88.00 94.00
C 88.00 97.00 88.06 100.00 88.00 103.00 Z"/>
</g>
<g fill="#6C91A7" fill-opacity="0.22" stroke="None">
<path d="
M 44.00 118.00 
C 42.73 117.46 39.43 114.42 39.00 113.00
C 39.55 116.25 40.26 118.00 44.00 118.00 Z"/>
</g>
<g fill="#93A7BA" fill-opacity="0.14" stroke="None">
<path d="
M 53.00 118.00 
C 50.71 118.22 48.30 118.00 46.00 118.00
C 48.78 119.18 50.29 118.60 53.00 118.00 Z"/>
</g>
<g fill="#8D9DB3" fill-opacity="0.16" stroke="None">
<path d="
M 204.00 125.00 
C 203.42 123.10 202.46 120.59 202.00 119.00
C 202.42 121.15 203.28 123.26 204.00 125.00 Z"/>
</g>
<g fill="#77899F" fill-opacity="0.19" stroke="None">
<path d="
M 236.00 129.00 
C 237.58 126.49 238.30 125.21 239.00 122.00
C 238.35 123.88 236.93 126.96 236.00 129.00 Z"/>
</g>
<g fill="#8997AC" fill-opacity="0.09" stroke="None">
<path d="
M 73.00 132.00 
C 76.61 130.01 79.45 127.42 82.00 124.00
C 79.74 126.59 75.70 130.13 73.00 132.00 Z"/>
</g>
<g fill="#A5B0C1" fill-opacity="0.06" stroke="None">
<path d="
M 163.00 136.00 
C 162.24 135.62 160.92 134.59 160.00 134.00
C 157.91 132.67 156.44 130.88 155.00 129.00
C 154.52 128.37 153.39 127.58 153.00 127.00
C 154.61 131.41 158.76 134.68 163.00 136.00 Z"/>
</g>
<g fill="#395167" fill-opacity="0.63" stroke="None">
<path d="
M 160.00 134.00 
C 158.55 132.87 156.39 130.40 155.00 129.00
C 156.44 130.88 157.91 132.67 160.00 134.00 Z"/>
</g>
<g fill="#90A2B7" fill-opacity="0.10" stroke="None">
<path d="
M 110.00 136.00 
C 112.75 134.66 113.53 132.76 114.00 130.00
C 113.64 131.55 111.44 134.65 110.00 136.00 Z"/>
</g>
<g fill="#6C8394" fill-opacity="0.28" stroke="None">
<path d="
M 41.00 137.00 
C 47.28 137.50 54.42 137.00 60.00 136.00
C 53.98 136.41 46.34 136.91 41.00 137.00 Z"/>
</g>
<g fill="#3E546D" fill-opacity="0.44" stroke="None">
<path d="
M 95.00 137.00 
C 98.70 137.33 106.23 138.05 109.00 136.00
C 104.40 136.00 99.58 135.59 95.00 136.00
C 95.00 136.00 94.96 137.00 95.00 137.00 Z"/>
</g>
</svg>