<svg xmlns="http://www.w3.org/2000/svg" xmlns:v="https://svgstorm.com"
viewBox = "0 0 538 787"
width="538"
height="787">
<g fill="None" fill-opacity="0.0" stroke="#F5E5CE" stroke-opacity="1.00" stroke-width="0.3"><path d="
M 0.00 787.00 
L 183.00 787.00
C 181.92 763.59 199.16 750.52 222.00 752.00 C 244.84 753.48 272.80 751.60 296.00 752.00 C 319.20 752.40 340.14 747.95 354.00 769.00
C 357.56 774.41 359.22 779.85 358.00 787.00
L 538.00 787.00
L 538.00 0.00
L 0.00 0.00
L 0.00 787.00
M 410.00 398.00 
C 410.00 398.50 410.00 399.00 410.00 399.00
C 412.67 403.18 414.03 407.65 420.03 408.97 C 426.02 410.29 426.77 415.12 426.00 423.00 C 425.23 430.88 427.71 435.74 418.00 434.00
C 412.84 433.70 408.06 431.92 403.00 431.00
C 395.94 429.71 381.31 421.09 383.00 413.00
C 382.83 412.67 382.26 412.24 382.00 412.00
C 374.97 405.49 378.77 395.66 378.00 386.00 C 377.23 376.34 378.40 365.75 378.00 355.00 C 377.60 344.25 378.27 337.35 378.00 325.00 C 377.73 312.65 387.71 318.78 399.00 317.00 C 410.29 315.22 412.31 325.84 410.00 337.00
C 416.14 335.58 427.92 336.67 426.07 343.08 C 424.22 349.48 429.85 362.59 419.99 360.99 C 410.13 359.39 409.38 363.85 410.00 373.00 C 410.62 382.15 409.54 389.06 410.00 398.00
M 151.00 434.00 
C 144.38 432.23 138.10 430.36 132.00 427.00
C 128.19 424.90 124.42 421.72 122.00 418.00
C 119.58 414.29 117.52 409.28 116.00 405.00
C 113.53 398.04 114.13 391.02 114.00 383.00 C 113.87 374.98 114.50 366.11 114.00 358.00 C 113.50 349.89 115.21 341.06 114.00 333.00 C 112.79 324.94 114.06 314.35 123.00 317.00 C 131.94 319.65 139.87 313.37 145.74 318.26 C 151.62 323.14 138.89 339.27 152.00 337.00 C 165.11 334.73 160.54 342.20 162.00 352.00 C 163.46 361.80 153.52 359.88 146.00 361.00
C 145.57 370.96 146.91 381.34 146.00 392.00 C 145.09 402.66 152.14 405.51 159.67 409.33 C 167.20 413.15 159.37 430.90 162.00 437.00
C 159.02 433.89 153.87 436.24 151.00 434.00
M 203.00 397.00 
C 203.12 398.55 203.17 398.02 204.00 399.00
C 210.22 406.37 214.89 412.95 226.00 409.00
C 231.44 406.16 233.57 402.27 234.00 396.00
C 234.41 389.95 233.42 382.96 234.00 377.00 C 234.58 371.04 232.90 362.53 234.00 357.00 C 235.10 351.47 231.19 341.66 235.00 338.00
C 244.14 337.17 254.86 337.17 264.00 338.00
C 268.02 341.86 263.83 352.18 265.00 358.00 C 266.17 363.82 264.42 372.61 265.00 379.00 C 265.58 385.39 265.03 394.26 264.00 400.00
C 263.27 410.70 257.31 417.69 250.00 425.00
C 245.31 429.69 241.65 431.96 235.00 433.00
C 227.96 434.10 220.36 434.40 213.00 434.00
C 207.90 434.73 204.28 437.15 200.00 432.00
C 199.77 431.72 199.35 431.13 199.00 431.00
C 188.60 434.59 177.53 417.16 176.00 410.00
C 174.56 406.33 174.08 404.17 174.00 400.00
C 174.00 400.01 173.00 400.00 173.00 400.00
C 172.80 400.14 171.66 389.03 172.00 384.00 C 172.34 378.97 172.18 370.33 172.00 364.00 C 171.82 357.67 172.82 351.40 172.00 344.00 C 171.18 336.60 176.30 335.88 183.00 337.00 C 189.70 338.12 195.78 336.82 202.00 336.00
C 205.92 355.10 204.06 377.82 203.00 397.00
M 306.00 396.00 
C 306.15 398.07 306.38 399.12 307.00 401.00
C 313.51 416.17 328.69 409.45 336.00 400.00
C 336.24 399.69 336.00 398.50 336.00 398.00
C 336.00 391.74 335.58 384.12 336.00 378.00 C 336.42 371.88 334.88 363.62 336.00 358.00 C 337.12 352.38 333.11 341.74 337.00 338.00
C 346.46 337.14 357.54 337.15 367.00 338.00
C 371.90 342.71 366.30 355.94 368.00 363.00 C 369.70 370.06 366.90 381.28 368.00 389.00 C 369.10 396.72 367.00 405.66 364.68 412.68 C 362.36 419.70 357.99 422.12 352.30 426.30 C 346.61 430.49 340.45 433.75 333.00 434.00
C 331.34 434.06 329.66 434.00 328.00 434.00
C 318.52 435.01 309.34 435.65 301.00 431.00
C 298.06 430.00 295.57 428.76 293.00 427.00
C 287.21 425.04 281.46 420.67 279.00 413.00
C 277.63 408.71 276.25 404.68 276.00 400.00
C 275.08 394.36 274.32 386.27 275.00 380.00 C 275.68 373.73 273.72 364.82 275.00 359.00 C 276.28 353.18 271.92 341.92 276.00 338.00
C 285.14 337.17 295.86 337.17 305.00 338.00
C 308.77 341.62 304.98 350.45 306.00 356.00 C 307.02 361.55 305.44 369.92 306.00 376.00 C 306.56 382.08 305.54 389.77 306.00 396.00
M 271.00 451.00 
C 271.74 452.18 271.78 463.88 271.00 465.00
C 268.80 468.14 259.30 465.61 255.93 465.07 C 252.56 464.53 245.62 467.61 242.00 466.00 C 238.37 464.38 232.24 467.80 233.00 461.00
C 231.89 463.41 231.25 467.37 227.00 466.00
C 227.33 460.60 222.90 468.18 219.00 466.00 C 215.10 463.82 211.25 467.68 208.00 465.00
C 207.51 464.93 207.00 465.00 207.00 465.00
C 204.90 463.68 198.16 465.52 194.77 464.23 C 191.38 462.94 186.09 468.28 183.70 462.30 C 181.30 456.33 186.36 452.42 191.00 454.00 C 195.65 455.58 199.04 453.59 203.22 454.78 C 207.40 455.97 211.93 451.28 215.00 457.00
C 219.52 451.24 226.56 456.32 232.00 455.00
C 232.35 455.23 233.00 455.00 233.00 455.00
C 234.98 453.46 236.97 454.60 238.00 457.00
C 241.21 452.88 246.19 453.72 250.00 456.00
C 250.11 454.24 249.87 450.69 253.00 451.00
C 254.87 452.68 252.48 454.30 254.00 456.00
C 255.78 456.19 255.79 454.75 257.00 456.00
C 257.24 456.25 258.00 456.00 258.00 456.00
C 260.14 454.42 262.70 456.06 265.00 455.00
C 265.22 453.64 269.08 447.92 271.00 451.00
M 364.00 462.00 
C 364.86 460.80 364.43 452.63 367.75 456.26 C 371.06 459.89 366.76 464.02 365.00 465.00
C 362.64 466.31 359.17 466.43 358.00 463.00
C 356.15 467.51 344.56 468.11 347.00 461.00
C 346.47 469.48 338.61 463.63 334.26 464.74 C 329.91 465.86 323.15 466.13 321.00 460.00
C 320.45 462.01 320.72 467.00 316.00 466.00
C 315.22 463.08 314.06 463.18 312.00 465.00
C 307.34 466.29 307.68 466.87 304.00 469.00
C 304.00 464.33 304.00 459.67 304.00 455.00
C 306.97 455.68 308.97 455.63 312.00 455.00
C 313.96 455.09 313.50 456.15 315.00 457.00
C 315.75 450.82 323.22 455.92 326.00 455.00
C 326.39 454.80 327.00 455.00 327.00 455.00
C 327.24 453.96 337.79 454.65 341.00 455.00
C 344.41 455.38 345.27 456.96 349.00 455.00
C 351.51 453.68 352.42 453.68 353.00 450.00
C 359.41 449.65 354.04 458.62 362.00 455.00
C 362.61 457.22 360.38 462.04 364.00 462.00
M 155.00 465.00 
C 155.00 460.33 155.00 455.67 155.00 451.00
C 170.26 445.72 170.29 470.27 155.00 465.00
M 298.00 458.00 
C 298.46 461.12 297.80 463.53 295.00 465.00
C 290.07 467.58 284.58 465.00 278.00 466.00 C 271.41 467.00 277.10 448.40 282.74 453.40 C 288.38 458.41 296.71 449.24 298.00 458.00
M 176.00 455.00 
C 182.61 457.07 177.61 468.44 171.00 465.00 C 164.39 461.56 170.18 453.18 176.00 455.00
M 383.00 465.00 
C 380.77 463.40 383.59 457.55 379.00 458.00
C 378.39 460.22 380.62 465.04 377.00 465.00
C 374.77 463.40 377.59 457.55 373.00 458.00
C 372.64 460.61 374.52 465.95 370.00 465.00
C 370.00 461.67 370.00 458.33 370.00 455.00
C 376.66 454.36 390.92 455.63 383.00 465.00 Z"/>
</g>
<g fill="None" fill-opacity="0.0" stroke="#CED8D3" stroke-opacity="1.00" stroke-width="0.3"><path d="
M 382.00 412.00 
C 381.08 408.76 380.24 405.45 380.00 402.00
C 375.22 375.34 381.50 345.52 379.00 318.00
C 389.00 318.00 399.00 318.00 409.00 318.00
C 409.00 324.67 409.00 331.33 409.00 338.00
C 412.31 338.17 425.38 336.47 424.97 341.03 C 424.56 345.59 427.36 356.65 424.00 359.00
C 420.64 361.35 412.36 356.65 409.00 359.00
C 410.12 371.20 407.50 383.85 409.00 396.00
C 409.19 397.58 409.29 396.93 410.00 398.00
C 409.54 389.06 410.62 382.15 410.00 373.00 C 409.38 363.85 410.13 359.39 419.99 360.99 C 429.85 362.59 424.22 349.48 426.07 343.08 C 427.92 336.67 416.14 335.58 410.00 337.00
C 412.31 325.84 410.29 315.22 399.00 317.00 C 387.71 318.78 377.73 312.65 378.00 325.00 C 378.27 337.35 377.60 344.25 378.00 355.00 C 378.40 365.75 377.23 376.34 378.00 386.00 C 378.77 395.66 374.97 405.49 382.00 412.00 Z"/>
</g>
<g fill="None" fill-opacity="0.0" stroke="#CBD5CF" stroke-opacity="1.00" stroke-width="0.3"><path d="
M 116.00 405.00 
C 115.78 403.41 116.00 401.61 116.00 400.00
C 115.38 394.18 114.43 386.48 115.00 380.00 C 115.57 373.52 114.31 365.22 115.00 359.00 C 115.69 352.78 113.74 343.43 115.00 338.00 C 116.26 332.57 111.85 320.91 116.00 318.00
C 119.22 315.74 125.92 319.10 130.00 318.00 C 134.08 316.90 140.69 318.83 145.00 318.00
C 145.00 324.67 145.00 331.33 145.00 338.00
C 149.34 339.44 157.76 335.63 161.00 339.00
C 161.32 342.54 162.70 357.11 160.00 359.00
C 156.64 361.35 148.36 356.65 145.00 359.00
C 145.91 370.91 143.78 383.13 145.00 395.00
C 147.09 404.42 150.36 406.37 158.00 411.00
C 158.73 411.44 160.21 410.65 161.00 411.00
C 159.74 418.20 163.57 429.22 159.00 434.00
C 157.51 434.72 152.67 434.23 151.00 434.00
C 153.87 436.24 159.02 433.89 162.00 437.00
C 159.37 430.90 167.20 413.15 159.67 409.33 C 152.14 405.51 145.09 402.66 146.00 392.00 C 146.91 381.34 145.57 370.96 146.00 361.00
C 153.52 359.88 163.46 361.80 162.00 352.00 C 160.54 342.20 165.11 334.73 152.00 337.00 C 138.89 339.27 151.62 323.14 145.74 318.26 C 139.87 313.37 131.94 319.65 123.00 317.00 C 114.06 314.35 112.79 324.94 114.00 333.00 C 115.21 341.06 113.50 349.89 114.00 358.00 C 114.50 366.11 113.87 374.98 114.00 383.00 C 114.13 391.02 113.53 398.04 116.00 405.00 Z"/>
</g>
<g fill="None" fill-opacity="0.0" stroke="#516D75" stroke-opacity="1.00" stroke-width="0.3"><path d="
M 116.00 400.00 
C 116.00 372.67 116.00 345.33 116.00 318.00
C 111.85 320.91 116.26 332.57 115.00 338.00 C 113.74 343.43 115.69 352.78 115.00 359.00 C 114.31 365.22 115.57 373.52 115.00 380.00 C 114.43 386.48 115.38 394.18 116.00 400.00 Z"/>
</g>
<g fill="None" fill-opacity="0.0" stroke="#073E5A" stroke-opacity="1.00" stroke-width="0.3"><path d="
M 116.00 400.00 
C 116.00 401.61 115.78 403.41 116.00 405.00
C 117.52 409.28 119.58 414.29 122.00 418.00
C 124.28 420.97 129.14 425.02 132.00 427.00
C 138.10 430.36 144.38 432.23 151.00 434.00
C 152.67 434.23 157.51 434.72 159.00 434.00
C 161.91 431.94 159.28 425.24 160.00 422.00 C 160.72 418.76 160.40 413.09 158.00 411.00
C 150.36 406.37 147.09 404.42 145.00 395.00
C 144.08 390.83 142.98 381.57 144.00 377.00 C 145.02 372.43 141.35 361.56 145.00 359.00
C 148.36 356.65 156.64 361.35 160.00 359.00
C 160.45 352.37 159.40 345.61 160.00 339.00
C 156.85 339.00 146.76 340.52 145.00 338.00
C 145.00 331.33 145.00 324.67 145.00 318.00
C 140.69 318.83 134.08 316.90 130.00 318.00 C 125.92 319.10 119.22 315.74 116.00 318.00
C 116.00 345.33 116.00 372.67 116.00 400.00 Z"/>
</g>
<g fill="None" fill-opacity="0.0" stroke="#37545C" stroke-opacity="1.00" stroke-width="0.3"><path d="
M 380.00 402.00 
C 378.13 374.46 381.41 346.57 380.00 319.00
C 389.33 319.00 398.67 319.00 408.00 319.00
C 408.66 325.16 406.68 332.66 409.00 338.00
C 409.00 331.33 409.00 324.67 409.00 318.00
C 399.00 318.00 389.00 318.00 379.00 318.00
C 381.50 345.52 375.22 375.34 380.00 402.00 Z"/>
</g>
<g fill="None" fill-opacity="0.0" stroke="#063D5B" stroke-opacity="1.00" stroke-width="0.3"><path d="
M 380.00 402.00 
C 380.24 405.45 381.08 408.76 382.00 412.00
C 382.26 412.24 382.83 412.67 383.00 413.00
C 386.86 420.74 395.16 428.07 403.00 431.00
C 408.06 431.92 412.84 433.70 418.00 434.00
C 419.26 434.07 422.94 434.61 424.00 434.00
C 422.09 427.53 427.43 415.46 422.00 411.00
C 417.07 408.19 410.15 406.38 410.00 399.00
C 410.00 399.00 410.00 398.50 410.00 398.00
C 409.29 396.93 409.19 397.58 409.00 396.00
C 407.41 392.10 407.21 382.44 408.00 378.00 C 408.79 373.56 405.47 361.47 409.00 359.00
C 412.36 356.65 420.64 361.35 424.00 359.00
C 424.00 352.33 424.00 345.67 424.00 339.00
C 419.17 338.35 413.01 340.31 409.00 338.00
C 406.68 332.66 408.66 325.16 408.00 319.00
C 398.67 319.00 389.33 319.00 380.00 319.00
C 381.41 346.57 378.13 374.46 380.00 402.00 Z"/>
</g>
<g fill="None" fill-opacity="0.0" stroke="#D3DBD5" stroke-opacity="1.00" stroke-width="0.3"><path d="
M 173.00 400.00 
C 171.26 380.77 171.26 358.23 173.00 339.00
C 178.35 333.43 186.09 341.05 194.00 338.00 C 201.91 334.95 204.35 343.82 203.00 351.00 C 201.65 358.18 203.51 365.75 203.00 373.00 C 202.49 380.25 203.00 387.73 203.00 395.00
C 203.00 395.50 202.96 396.50 203.00 397.00
C 204.06 377.82 205.92 355.10 202.00 336.00
C 195.78 336.82 189.70 338.12 183.00 337.00 C 176.30 335.88 171.18 336.60 172.00 344.00 C 172.82 351.40 171.82 357.67 172.00 364.00 C 172.18 370.33 172.34 378.97 172.00 384.00 C 171.66 389.03 172.80 400.14 173.00 400.00 Z"/>
</g>
<g fill="None" fill-opacity="0.0" stroke="#5E7D88" stroke-opacity="1.00" stroke-width="0.3"><path d="
M 160.00 339.00 
C 160.50 339.00 161.00 339.00 161.00 339.00
C 157.76 335.63 149.34 339.44 145.00 338.00
C 146.76 340.52 156.85 339.00 160.00 339.00 Z"/>
</g>
<g fill="None" fill-opacity="0.0" stroke="#577179" stroke-opacity="1.00" stroke-width="0.3"><path d="
M 173.00 339.00 
C 173.00 338.96 174.00 339.00 174.00 339.00
C 183.33 339.00 192.67 339.00 202.00 339.00
C 202.67 357.50 200.67 377.32 203.00 395.00
C 203.00 387.73 202.49 380.25 203.00 373.00 C 203.51 365.75 201.65 358.18 203.00 351.00 C 204.35 343.82 201.91 334.95 194.00 338.00 C 186.09 341.05 178.35 333.43 173.00 339.00 Z"/>
</g>
<g fill="None" fill-opacity="0.0" stroke="#869A9E" stroke-opacity="1.00" stroke-width="0.3"><path d="
M 234.00 396.00 
C 237.15 378.45 235.00 357.44 235.00 339.00
C 235.00 338.50 235.00 338.00 235.00 338.00
C 231.19 341.66 235.10 351.47 234.00 357.00 C 232.90 362.53 234.58 371.04 234.00 377.00 C 233.42 382.96 234.41 389.95 234.00 396.00 Z"/>
</g>
<g fill="None" fill-opacity="0.0" stroke="#5F7C84" stroke-opacity="1.00" stroke-width="0.3"><path d="
M 235.00 339.00 
C 244.15 339.83 254.85 339.82 264.00 339.00
C 264.00 338.50 264.00 338.00 264.00 338.00
C 254.86 337.17 244.14 337.17 235.00 338.00
C 235.00 338.00 235.00 338.50 235.00 339.00 Z"/>
</g>
<g fill="None" fill-opacity="0.0" stroke="#8C9A9B" stroke-opacity="1.00" stroke-width="0.3"><path d="
M 264.00 339.00 
C 264.00 359.17 265.37 379.88 264.00 400.00
C 265.03 394.26 265.58 385.39 265.00 379.00 C 264.42 372.61 266.17 363.82 265.00 358.00 C 263.83 352.18 268.02 341.86 264.00 338.00
C 264.00 338.00 264.00 338.50 264.00 339.00 Z"/>
</g>
<g fill="None" fill-opacity="0.0" stroke="#8C9B99" stroke-opacity="1.00" stroke-width="0.3"><path d="
M 276.00 400.00 
C 274.90 379.80 276.00 359.23 276.00 339.00
C 276.00 338.50 276.00 338.00 276.00 338.00
C 271.92 341.92 276.28 353.18 275.00 359.00 C 273.72 364.82 275.68 373.73 275.00 380.00 C 274.32 386.27 275.08 394.36 276.00 400.00 Z"/>
</g>
<g fill="None" fill-opacity="0.0" stroke="#5F7C85" stroke-opacity="1.00" stroke-width="0.3"><path d="
M 276.00 339.00 
C 285.15 339.83 295.85 339.82 305.00 339.00
C 305.00 338.50 305.00 338.00 305.00 338.00
C 295.86 337.17 285.14 337.17 276.00 338.00
C 276.00 338.00 276.00 338.50 276.00 339.00 Z"/>
</g>
<g fill="None" fill-opacity="0.0" stroke="#9DAEB4" stroke-opacity="1.00" stroke-width="0.3"><path d="
M 305.00 339.00 
C 305.00 357.38 302.76 378.59 306.00 396.00
C 305.54 389.77 306.56 382.08 306.00 376.00 C 305.44 369.92 307.02 361.55 306.00 356.00 C 304.98 350.45 308.77 341.62 305.00 338.00
C 305.00 338.00 305.00 338.50 305.00 339.00 Z"/>
</g>
<g fill="None" fill-opacity="0.0" stroke="#CED8D4" stroke-opacity="1.00" stroke-width="0.3"><path d="
M 336.00 398.00 
C 339.48 389.82 336.24 378.36 337.00 369.00 C 337.76 359.64 337.00 348.52 337.00 339.00
C 337.00 338.50 337.00 338.00 337.00 338.00
C 333.11 341.74 337.12 352.38 336.00 358.00 C 334.88 363.62 336.42 371.88 336.00 378.00 C 335.58 384.12 336.00 391.74 336.00 398.00 Z"/>
</g>
<g fill="None" fill-opacity="0.0" stroke="#607E87" stroke-opacity="1.00" stroke-width="0.3"><path d="
M 337.00 339.00 
C 337.25 339.25 338.00 339.00 338.00 339.00
C 347.33 339.00 356.67 339.00 366.00 339.00
C 366.50 339.00 367.00 339.00 367.00 339.00
C 367.00 338.50 367.00 338.00 367.00 338.00
C 357.54 337.15 346.46 337.14 337.00 338.00
C 337.00 338.00 337.00 338.50 337.00 339.00 Z"/>
</g>
<g fill="None" fill-opacity="0.0" stroke="#C3CCC8" stroke-opacity="1.00" stroke-width="0.3"><path d="
M 367.00 339.00 
C 367.00 359.33 369.47 382.66 366.00 402.00
C 364.90 418.16 347.72 431.51 333.00 434.00
C 340.45 433.75 346.61 430.49 352.30 426.30 C 357.99 422.12 362.36 419.70 364.68 412.68 C 367.00 405.66 369.10 396.72 368.00 389.00 C 366.90 381.28 369.70 370.06 368.00 363.00 C 366.30 355.94 371.90 342.71 367.00 338.00
C 367.00 338.00 367.00 338.50 367.00 339.00 Z"/>
</g>
<g fill="None" fill-opacity="0.0" stroke="#5D767C" stroke-opacity="1.00" stroke-width="0.3"><path d="
M 424.00 359.00 
C 427.36 356.65 424.56 345.59 424.97 341.03 C 425.38 336.47 412.31 338.17 409.00 338.00
C 413.01 340.31 419.17 338.35 424.00 339.00
C 424.00 345.67 424.00 352.33 424.00 359.00 Z"/>
</g>
<g fill="None" fill-opacity="0.0" stroke="#465F63" stroke-opacity="1.00" stroke-width="0.3"><path d="
M 160.00 359.00 
C 162.70 357.11 161.32 342.54 161.00 339.00
C 161.00 339.00 160.50 339.00 160.00 339.00
C 159.40 345.61 160.45 352.37 160.00 359.00 Z"/>
</g>
<g fill="None" fill-opacity="0.0" stroke="#36545D" stroke-opacity="1.00" stroke-width="0.3"><path d="
M 173.00 400.00 
C 173.00 400.00 174.00 400.01 174.00 400.00
C 173.60 379.86 175.82 359.05 174.00 339.00
C 174.00 339.00 173.00 338.96 173.00 339.00
C 171.26 358.23 171.26 380.77 173.00 400.00 Z"/>
</g>
<g fill="None" fill-opacity="0.0" stroke="#073E5B" stroke-opacity="1.00" stroke-width="0.3"><path d="
M 174.00 400.00 
C 174.08 404.17 174.56 406.33 176.00 410.00
C 177.12 412.85 178.10 415.44 180.00 418.00
C 182.61 421.00 186.96 424.89 190.00 427.00
C 192.96 428.63 195.91 429.84 199.00 431.00
C 199.35 431.13 199.77 431.72 200.00 432.00
C 203.70 433.50 208.92 433.78 213.00 434.00
C 220.36 434.40 227.96 434.10 235.00 433.00
C 239.51 431.63 245.97 427.99 250.00 425.00
C 257.31 417.69 263.27 410.70 264.00 400.00
C 265.37 379.88 264.00 359.17 264.00 339.00
C 254.85 339.82 244.15 339.83 235.00 339.00
C 235.00 357.44 237.15 378.45 234.00 396.00
C 233.57 402.27 231.44 406.16 226.00 409.00
C 216.04 414.20 207.37 408.86 204.00 399.00
C 203.17 398.02 203.12 398.55 203.00 397.00
C 202.96 396.50 203.00 395.50 203.00 395.00
C 200.67 377.32 202.67 357.50 202.00 339.00
C 192.67 339.00 183.33 339.00 174.00 339.00
C 175.82 359.05 173.60 379.86 174.00 400.00 Z"/>
</g>
<g fill="None" fill-opacity="0.0" stroke="#073D5B" stroke-opacity="1.00" stroke-width="0.3"><path d="
M 276.00 400.00 
C 276.25 404.68 277.63 408.71 279.00 413.00
C 281.92 418.40 287.87 423.48 293.00 427.00
C 295.57 428.76 298.06 430.00 301.00 431.00
C 309.73 433.99 318.43 434.00 328.00 434.00
C 329.66 434.00 331.34 434.06 333.00 434.00
C 347.72 431.51 364.90 418.16 366.00 402.00
C 367.42 381.13 364.12 359.83 366.00 339.00
C 356.67 339.00 347.33 339.00 338.00 339.00
C 338.90 348.91 338.04 360.13 338.00 370.00 C 337.96 379.87 339.84 391.60 336.00 400.00
C 330.36 412.35 312.11 416.37 307.00 401.00
C 306.38 399.12 306.15 398.07 306.00 396.00
C 302.76 378.59 305.00 357.38 305.00 339.00
C 295.85 339.82 285.15 339.83 276.00 339.00
C 276.00 359.23 274.90 379.80 276.00 400.00 Z"/>
</g>
<g fill="None" fill-opacity="0.0" stroke="#405D66" stroke-opacity="1.00" stroke-width="0.3"><path d="
M 336.00 398.00 
C 336.00 398.50 336.24 399.69 336.00 400.00
C 339.84 391.60 337.96 379.87 338.00 370.00 C 338.04 360.13 338.90 348.91 338.00 339.00
C 338.00 339.00 337.25 339.25 337.00 339.00
C 337.00 348.52 337.76 359.64 337.00 369.00 C 336.24 378.36 339.48 389.82 336.00 398.00 Z"/>
</g>
<g fill="None" fill-opacity="0.0" stroke="#3B555E" stroke-opacity="1.00" stroke-width="0.3"><path d="
M 366.00 402.00 
C 369.47 382.66 367.00 359.33 367.00 339.00
C 367.00 339.00 366.50 339.00 366.00 339.00
C 364.12 359.83 367.42 381.13 366.00 402.00 Z"/>
</g>
<g fill="None" fill-opacity="0.0" stroke="#3C5860" stroke-opacity="1.00" stroke-width="0.3"><path d="
M 145.00 395.00 
C 143.78 383.13 145.91 370.91 145.00 359.00
C 141.35 361.56 145.02 372.43 144.00 377.00 C 142.98 381.57 144.08 390.83 145.00 395.00 Z"/>
</g>
<g fill="None" fill-opacity="0.0" stroke="#4F6A71" stroke-opacity="1.00" stroke-width="0.3"><path d="
M 409.00 396.00 
C 407.50 383.85 410.12 371.20 409.00 359.00
C 405.47 361.47 408.79 373.56 408.00 378.00 C 407.21 382.44 407.41 392.10 409.00 396.00 Z"/>
</g>
<g fill="None" fill-opacity="0.0" stroke="#BAC7C4" stroke-opacity="1.00" stroke-width="0.3"><path d="
M 226.00 409.00 
C 214.89 412.95 210.22 406.37 204.00 399.00
C 207.37 408.86 216.04 414.20 226.00 409.00 Z"/>
</g>
<g fill="None" fill-opacity="0.0" stroke="#C7D0CC" stroke-opacity="1.00" stroke-width="0.3"><path d="
M 422.00 411.00 
C 422.76 411.43 424.20 410.66 425.00 411.00
C 424.34 418.50 426.33 427.33 424.00 434.00
C 422.94 434.61 419.26 434.07 418.00 434.00
C 427.71 435.74 425.23 430.88 426.00 423.00 C 426.77 415.12 426.02 410.29 420.03 408.97 C 414.03 407.65 412.67 403.18 410.00 399.00
C 410.15 406.38 417.07 408.19 422.00 411.00 Z"/>
</g>
<g fill="None" fill-opacity="0.0" stroke="#AABAB8" stroke-opacity="1.00" stroke-width="0.3"><path d="
M 307.00 401.00 
C 312.11 416.37 330.36 412.35 336.00 400.00
C 328.69 409.45 313.51 416.17 307.00 401.00 Z"/>
</g>
<g fill="None" fill-opacity="0.0" stroke="#D0D7D0" stroke-opacity="1.00" stroke-width="0.3"><path d="
M 199.00 431.00 
C 195.91 429.84 192.96 428.63 190.00 427.00
C 186.04 424.82 182.72 421.65 180.00 418.00
C 178.10 415.44 177.12 412.85 176.00 410.00
C 177.53 417.16 188.60 434.59 199.00 431.00 Z"/>
</g>
<g fill="None" fill-opacity="0.0" stroke="#2F4E54" stroke-opacity="1.00" stroke-width="0.3"><path d="
M 159.00 434.00 
C 163.57 429.22 159.74 418.20 161.00 411.00
C 160.21 410.65 158.73 411.44 158.00 411.00
C 160.40 413.09 160.72 418.76 160.00 422.00 C 159.28 425.24 161.91 431.94 159.00 434.00 Z"/>
</g>
<g fill="None" fill-opacity="0.0" stroke="#49626B" stroke-opacity="1.00" stroke-width="0.3"><path d="
M 424.00 434.00 
C 426.33 427.33 424.34 418.50 425.00 411.00
C 424.20 410.66 422.76 411.43 422.00 411.00
C 427.43 415.46 422.09 427.53 424.00 434.00 Z"/>
</g>
<g fill="None" fill-opacity="0.0" stroke="#BFCBC7" stroke-opacity="1.00" stroke-width="0.3"><path d="
M 293.00 427.00 
C 287.87 423.48 281.92 418.40 279.00 413.00
C 281.46 420.67 287.21 425.04 293.00 427.00 Z"/>
</g>
<g fill="None" fill-opacity="0.0" stroke="#CCD4CE" stroke-opacity="1.00" stroke-width="0.3"><path d="
M 403.00 431.00 
C 395.16 428.07 386.86 420.74 383.00 413.00
C 381.31 421.09 395.94 429.71 403.00 431.00 Z"/>
</g>
<g fill="None" fill-opacity="0.0" stroke="#829A9B" stroke-opacity="1.00" stroke-width="0.3"><path d="
M 132.00 427.00 
C 129.14 425.02 124.28 420.97 122.00 418.00
C 124.42 421.72 128.19 424.90 132.00 427.00 Z"/>
</g>
<g fill="None" fill-opacity="0.0" stroke="#6E8585" stroke-opacity="1.00" stroke-width="0.3"><path d="
M 190.00 427.00 
C 186.96 424.89 182.61 421.00 180.00 418.00
C 182.72 421.65 186.04 424.82 190.00 427.00 Z"/>
</g>
<g fill="None" fill-opacity="0.0" stroke="#B4C1BD" stroke-opacity="1.00" stroke-width="0.3"><path d="
M 235.00 433.00 
C 241.65 431.96 245.31 429.69 250.00 425.00
C 245.97 427.99 239.51 431.63 235.00 433.00 Z"/>
</g>
<g fill="None" fill-opacity="0.0" stroke="#AFBCB9" stroke-opacity="1.00" stroke-width="0.3"><path d="
M 328.00 434.00 
C 318.43 434.00 309.73 433.99 301.00 431.00
C 309.34 435.65 318.52 435.01 328.00 434.00 Z"/>
</g>
<g fill="None" fill-opacity="0.0" stroke="#D2D7D2" stroke-opacity="1.00" stroke-width="0.3"><path d="
M 213.00 434.00 
C 208.92 433.78 203.70 433.50 200.00 432.00
C 204.28 437.15 207.90 434.73 213.00 434.00 Z"/>
</g>
<g fill="None" fill-opacity="0.0" stroke="#EEC6A2" stroke-opacity="1.00" stroke-width="0.3"><path d="
M 265.00 455.00 
C 264.59 457.46 268.16 462.89 265.00 465.00
C 260.01 466.46 251.69 462.58 257.00 456.00
C 255.79 454.75 255.78 456.19 254.00 456.00
C 254.14 458.23 254.91 463.76 253.00 465.00
C 252.65 465.23 251.35 465.23 251.00 465.00
C 249.14 463.79 249.87 458.15 250.00 456.00
C 246.19 453.72 241.21 452.88 238.00 457.00
C 236.97 454.60 234.98 453.46 233.00 455.00
C 238.88 454.20 236.56 461.48 237.00 465.00
C 232.57 466.10 234.36 460.51 234.00 458.00
C 229.57 456.90 231.36 462.49 231.00 465.00
C 225.94 465.84 228.72 458.92 228.00 456.00
C 229.28 455.72 231.50 456.76 232.00 455.00
C 226.56 456.32 219.52 451.24 215.00 457.00
C 211.93 451.28 207.40 455.97 203.22 454.78 C 199.04 453.59 195.65 455.58 191.00 454.00 C 186.36 452.42 181.30 456.33 183.70 462.30 C 186.09 468.28 191.38 462.94 194.77 464.23 C 198.16 465.52 204.90 463.68 207.00 465.00
C 203.68 459.98 210.87 464.24 212.00 462.00
C 202.03 462.67 208.10 450.29 214.00 457.00
C 212.96 459.86 208.64 454.77 209.00 459.00
C 216.90 457.28 215.16 467.62 208.00 465.00
C 211.25 467.68 215.10 463.82 219.00 466.00 C 222.90 468.18 227.33 460.60 227.00 466.00
C 231.25 467.37 231.89 463.41 233.00 461.00
C 232.24 467.80 238.37 464.38 242.00 466.00 C 245.62 467.61 252.56 464.53 255.93 465.07 C 259.30 465.61 268.80 468.14 271.00 465.00
C 270.00 465.00 269.00 465.00 268.00 465.00
C 268.00 460.33 268.00 455.67 268.00 451.00
C 269.00 451.00 270.00 451.00 271.00 451.00
C 269.08 447.92 265.22 453.64 265.00 455.00
M 194.00 460.00 
C 194.04 460.50 194.11 461.52 194.00 462.00
C 192.69 467.91 182.43 464.25 184.01 458.99 C 185.59 453.73 193.59 454.69 194.00 460.00
M 204.00 457.00 
C 202.96 459.86 198.64 454.77 199.00 459.00
C 208.62 459.29 200.45 469.95 196.00 463.00
C 196.92 460.78 201.38 465.20 201.00 461.00
C 191.29 462.27 198.83 450.11 204.00 457.00
M 226.00 460.00 
C 226.11 461.76 225.81 461.85 225.00 463.00
C 221.57 467.88 214.18 463.69 216.33 458.33 C 218.48 452.97 225.71 455.36 226.00 460.00
M 248.00 459.00 
C 244.56 456.78 239.76 458.64 243.00 463.00
C 245.34 463.12 246.68 459.69 249.00 462.00
C 246.92 467.26 238.49 465.45 239.01 459.99 C 239.53 454.53 247.39 453.11 248.00 459.00 Z"/>
</g>
<g fill="None" fill-opacity="0.0" stroke="#EDC5A1" stroke-opacity="1.00" stroke-width="0.3"><path d="
M 349.00 455.00 
C 352.34 456.52 350.47 462.35 351.00 465.00
C 346.57 466.10 348.36 460.51 348.00 458.00
C 343.57 456.90 345.36 462.49 345.00 465.00
C 340.57 466.10 342.36 460.51 342.00 458.00
C 337.57 456.91 339.36 462.49 339.00 465.00
C 333.94 465.84 336.72 458.92 336.00 456.00
C 337.57 455.61 340.22 456.94 341.00 455.00
C 337.79 454.65 327.24 453.96 327.00 455.00
C 335.31 454.25 334.61 462.96 327.00 462.00
C 328.27 465.02 331.88 460.54 333.00 463.00
C 327.77 469.47 319.87 459.90 326.00 455.00
C 323.22 455.92 315.75 450.82 315.00 457.00
C 313.50 456.15 313.96 455.09 312.00 455.00
C 315.23 456.79 314.44 463.01 312.00 465.00
C 314.06 463.18 315.22 463.08 316.00 466.00
C 320.72 467.00 320.45 462.01 321.00 460.00
C 323.15 466.13 329.91 465.86 334.26 464.74 C 338.61 463.63 346.47 469.48 347.00 461.00
C 344.56 468.11 356.15 467.51 358.00 463.00
C 359.17 466.43 362.64 466.31 365.00 465.00
C 358.89 466.96 355.05 458.41 360.00 456.00
C 361.79 457.19 360.17 465.08 364.00 462.00
C 360.38 462.04 362.61 457.22 362.00 455.00
C 354.04 458.62 359.41 449.65 353.00 450.00
C 352.42 453.68 351.51 453.68 349.00 455.00
M 356.00 451.00 
C 357.21 452.21 354.94 455.27 353.32 453.66 C 351.70 452.05 354.88 449.88 356.00 451.00
M 323.00 456.00 
C 320.31 458.06 318.69 461.28 318.00 465.00
C 314.17 464.64 316.77 458.70 316.00 456.00
C 318.67 456.49 320.27 456.46 323.00 456.00
M 353.00 465.00 
C 353.00 462.00 353.00 459.00 353.00 456.00
C 357.52 454.66 357.68 466.32 353.00 465.00 Z"/>
</g>
<g fill="None" fill-opacity="0.0" stroke="#B7774B" stroke-opacity="1.00" stroke-width="0.3"><path d="
M 155.00 465.00 
C 170.29 470.27 170.26 445.72 155.00 451.00
C 155.00 455.67 155.00 460.33 155.00 465.00
M 159.00 462.00 
C 158.08 458.64 159.07 451.77 162.74 455.26 C 166.41 458.74 162.18 462.32 159.00 462.00 Z"/>
</g>
<g fill="None" fill-opacity="0.0" stroke="#CE9970" stroke-opacity="1.00" stroke-width="0.3"><path d="
M 250.00 456.00 
C 249.87 458.15 249.14 463.79 251.00 465.00
C 250.04 462.84 250.91 457.52 252.00 456.00
C 254.08 458.10 252.50 462.15 253.00 465.00
C 254.91 463.76 254.14 458.23 254.00 456.00
C 252.48 454.30 254.87 452.68 253.00 451.00
C 249.87 450.69 250.11 454.24 250.00 456.00 Z"/>
</g>
<g fill="None" fill-opacity="0.0" stroke="#AC7444" stroke-opacity="1.00" stroke-width="0.3"><path d="
M 271.00 465.00 
C 271.78 463.88 271.74 452.18 271.00 451.00
C 270.00 451.00 269.00 451.00 268.00 451.00
C 268.00 455.67 268.00 460.33 268.00 465.00
C 269.00 465.00 270.00 465.00 271.00 465.00 Z"/>
</g>
<g fill="None" fill-opacity="0.0" stroke="#AC7950" stroke-opacity="1.00" stroke-width="0.3"><path d="
M 356.00 451.00 
C 354.88 449.88 351.70 452.05 353.32 453.66 C 354.94 455.27 357.21 452.21 356.00 451.00 Z"/>
</g>
<g fill="None" fill-opacity="0.0" stroke="#EDC8A5" stroke-opacity="1.00" stroke-width="0.3"><path d="
M 295.00 465.00 
C 280.06 469.43 293.55 446.05 298.00 458.00
C 296.71 449.24 288.38 458.41 282.74 453.40 C 277.10 448.40 271.41 467.00 278.00 466.00 C 284.58 465.00 290.07 467.58 295.00 465.00
M 286.00 455.00 
C 286.00 458.33 286.00 461.67 286.00 465.00
C 282.00 464.34 275.91 466.30 276.01 459.99 C 276.10 453.68 281.96 455.91 286.00 455.00 Z"/>
</g>
<g fill="None" fill-opacity="0.0" stroke="#F6DDBD" stroke-opacity="1.00" stroke-width="0.3"><path d="
M 159.00 462.00 
C 162.18 462.32 166.41 458.74 162.74 455.26 C 159.07 451.77 158.08 458.64 159.00 462.00 Z"/>
</g>
<g fill="None" fill-opacity="0.0" stroke="#B9774B" stroke-opacity="1.00" stroke-width="0.3"><path d="
M 176.00 455.00 
C 170.18 453.18 164.39 461.56 171.00 465.00 C 177.61 468.44 182.61 457.07 176.00 455.00
M 172.00 458.00 
C 180.90 458.00 170.68 467.74 172.00 458.00 Z"/>
</g>
<g fill="None" fill-opacity="0.0" stroke="#AD6E45" stroke-opacity="1.00" stroke-width="0.3"><path d="
M 194.00 462.00 
C 190.47 464.60 184.28 461.59 188.00 457.00
C 191.08 456.48 190.64 461.23 194.00 460.00
C 193.59 454.69 185.59 453.73 184.01 458.99 C 182.43 464.25 192.69 467.91 194.00 462.00 Z"/>
</g>
<g fill="None" fill-opacity="0.0" stroke="#B0744A" stroke-opacity="1.00" stroke-width="0.3"><path d="
M 204.00 457.00 
C 198.83 450.11 191.29 462.27 201.00 461.00
C 201.38 465.20 196.92 460.78 196.00 463.00
C 200.45 469.95 208.62 459.29 199.00 459.00
C 198.64 454.77 202.96 459.86 204.00 457.00 Z"/>
</g>
<g fill="None" fill-opacity="0.0" stroke="#B2774D" stroke-opacity="1.00" stroke-width="0.3"><path d="
M 207.00 465.00 
C 207.00 465.00 207.51 464.93 208.00 465.00
C 215.16 467.62 216.90 457.28 209.00 459.00
C 208.64 454.77 212.96 459.86 214.00 457.00
C 208.10 450.29 202.03 462.67 212.00 462.00
C 210.87 464.24 203.68 459.98 207.00 465.00 Z"/>
</g>
<g fill="None" fill-opacity="0.0" stroke="#B27043" stroke-opacity="1.00" stroke-width="0.3"><path d="
M 225.00 463.00 
C 223.17 464.37 216.37 461.45 219.00 457.00
C 222.73 455.68 222.45 461.12 226.00 460.00
C 225.71 455.36 218.48 452.97 216.33 458.33 C 214.18 463.69 221.57 467.88 225.00 463.00 Z"/>
</g>
<g fill="None" fill-opacity="0.0" stroke="#B27345" stroke-opacity="1.00" stroke-width="0.3"><path d="
M 233.00 455.00 
C 233.00 455.00 232.35 455.23 232.00 455.00
C 231.50 456.76 229.28 455.72 228.00 456.00
C 228.72 458.92 225.94 465.84 231.00 465.00
C 231.36 462.49 229.57 456.90 234.00 458.00
C 234.36 460.51 232.57 466.10 237.00 465.00
C 236.56 461.48 238.88 454.20 233.00 455.00 Z"/>
</g>
<g fill="None" fill-opacity="0.0" stroke="#AF7347" stroke-opacity="1.00" stroke-width="0.3"><path d="
M 248.00 459.00 
C 247.39 453.11 239.53 454.53 239.01 459.99 C 238.49 465.45 246.92 467.26 249.00 462.00
C 246.68 459.69 245.34 463.12 243.00 463.00
C 239.76 458.64 244.56 456.78 248.00 459.00 Z"/>
</g>
<g fill="None" fill-opacity="0.0" stroke="#CB9165" stroke-opacity="1.00" stroke-width="0.3"><path d="
M 258.00 456.00 
C 259.00 456.01 260.00 455.99 261.00 456.00
C 257.75 456.53 256.45 463.59 261.03 462.97 C 265.60 462.36 259.64 455.32 265.00 456.00
C 265.00 459.00 265.00 462.00 265.00 465.00
C 268.16 462.89 264.59 457.46 265.00 455.00
C 262.70 456.06 260.14 454.42 258.00 456.00
M 262.00 458.00 
C 263.31 459.31 261.29 463.40 259.32 461.66 C 257.34 459.91 260.53 456.53 262.00 458.00 Z"/>
</g>
<g fill="None" fill-opacity="0.0" stroke="#B27345" stroke-opacity="1.00" stroke-width="0.3"><path d="
M 286.00 455.00 
C 281.96 455.91 276.10 453.68 276.01 459.99 C 275.91 466.30 282.00 464.34 286.00 465.00
C 286.00 461.67 286.00 458.33 286.00 455.00
M 282.00 458.00 
C 284.03 458.92 282.88 463.74 280.30 462.64 C 277.72 461.54 279.61 456.91 282.00 458.00 Z"/>
</g>
<g fill="None" fill-opacity="0.0" stroke="#B16F42" stroke-opacity="1.00" stroke-width="0.3"><path d="
M 295.00 465.00 
C 297.80 463.53 298.46 461.12 298.00 458.00
C 293.55 446.05 280.06 469.43 295.00 465.00
M 295.00 458.00 
C 296.32 459.32 294.32 464.46 291.77 462.21 C 289.22 459.97 292.96 455.96 295.00 458.00 Z"/>
</g>
<g fill="None" fill-opacity="0.0" stroke="#B37345" stroke-opacity="1.00" stroke-width="0.3"><path d="
M 312.00 465.00 
C 314.44 463.01 315.23 456.79 312.00 455.00
C 308.97 455.63 306.97 455.68 304.00 455.00
C 304.00 459.67 304.00 464.33 304.00 469.00
C 307.68 466.87 307.34 466.29 312.00 465.00
M 310.00 458.00 
C 312.03 458.92 310.88 463.74 308.30 462.64 C 305.72 461.54 307.61 456.91 310.00 458.00 Z"/>
</g>
<g fill="None" fill-opacity="0.0" stroke="#B87B4E" stroke-opacity="1.00" stroke-width="0.3"><path d="
M 327.00 455.00 
C 327.00 455.00 326.39 454.80 326.00 455.00
C 319.87 459.90 327.77 469.47 333.00 463.00
C 331.88 460.54 328.27 465.02 327.00 462.00
C 334.61 462.96 335.31 454.25 327.00 455.00 Z"/>
</g>
<g fill="None" fill-opacity="0.0" stroke="#B27243" stroke-opacity="1.00" stroke-width="0.3"><path d="
M 349.00 455.00 
C 345.27 456.96 344.41 455.38 341.00 455.00
C 340.22 456.94 337.57 455.61 336.00 456.00
C 336.72 458.92 333.94 465.84 339.00 465.00
C 339.36 462.49 337.57 456.91 342.00 458.00
C 342.36 460.51 340.57 466.10 345.00 465.00
C 345.36 462.49 343.57 456.90 348.00 458.00
C 348.36 460.51 346.57 466.10 351.00 465.00
C 350.47 462.35 352.34 456.52 349.00 455.00 Z"/>
</g>
<g fill="None" fill-opacity="0.0" stroke="#B7764A" stroke-opacity="1.00" stroke-width="0.3"><path d="
M 364.00 462.00 
C 360.17 465.08 361.79 457.19 360.00 456.00
C 355.05 458.41 358.89 466.96 365.00 465.00
C 366.76 464.02 371.06 459.89 367.75 456.26 C 364.43 452.63 364.86 460.80 364.00 462.00 Z"/>
</g>
<g fill="None" fill-opacity="0.0" stroke="#B37648" stroke-opacity="1.00" stroke-width="0.3"><path d="
M 383.00 465.00 
C 390.92 455.63 376.66 454.36 370.00 455.00
C 370.00 458.33 370.00 461.67 370.00 465.00
C 374.52 465.95 372.64 460.61 373.00 458.00
C 377.59 457.55 374.77 463.40 377.00 465.00
C 380.62 465.04 378.39 460.22 379.00 458.00
C 383.59 457.55 380.77 463.40 383.00 465.00 Z"/>
</g>
<g fill="None" fill-opacity="0.0" stroke="#A96837" stroke-opacity="1.00" stroke-width="0.3"><path d="
M 251.00 465.00 
C 251.35 465.23 252.65 465.23 253.00 465.00
C 252.50 462.15 254.08 458.10 252.00 456.00
C 250.91 457.52 250.04 462.84 251.00 465.00 Z"/>
</g>
<g fill="None" fill-opacity="0.0" stroke="#AE6839" stroke-opacity="1.00" stroke-width="0.3"><path d="
M 265.00 465.00 
C 265.00 462.00 265.00 459.00 265.00 456.00
C 259.64 455.32 265.60 462.36 261.03 462.97 C 256.45 463.59 257.75 456.53 261.00 456.00
C 260.00 455.99 259.00 456.01 258.00 456.00
C 258.00 456.00 257.24 456.25 257.00 456.00
C 251.69 462.58 260.01 466.46 265.00 465.00 Z"/>
</g>
<g fill="None" fill-opacity="0.0" stroke="#AF6F42" stroke-opacity="1.00" stroke-width="0.3"><path d="
M 323.00 456.00 
C 320.27 456.46 318.67 456.49 316.00 456.00
C 316.77 458.70 314.17 464.64 318.00 465.00
C 318.69 461.28 320.31 458.06 323.00 456.00 Z"/>
</g>
<g fill="None" fill-opacity="0.0" stroke="#B07143" stroke-opacity="1.00" stroke-width="0.3"><path d="
M 353.00 465.00 
C 357.68 466.32 357.52 454.66 353.00 456.00
C 353.00 459.00 353.00 462.00 353.00 465.00 Z"/>
</g>
<g fill="None" fill-opacity="0.0" stroke="#D9A06F" stroke-opacity="1.00" stroke-width="0.3"><path d="
M 194.00 462.00 
C 194.11 461.52 194.04 460.50 194.00 460.00
C 190.64 461.23 191.08 456.48 188.00 457.00
C 184.28 461.59 190.47 464.60 194.00 462.00 Z"/>
</g>
<g fill="None" fill-opacity="0.0" stroke="#D89F72" stroke-opacity="1.00" stroke-width="0.3"><path d="
M 225.00 463.00 
C 225.81 461.85 226.11 461.76 226.00 460.00
C 222.45 461.12 222.73 455.68 219.00 457.00
C 216.37 461.45 223.17 464.37 225.00 463.00 Z"/>
</g>
<g fill="None" fill-opacity="0.0" stroke="#EEC9A1" stroke-opacity="1.00" stroke-width="0.3"><path d="
M 172.00 458.00 
C 170.68 467.74 180.90 458.00 172.00 458.00 Z"/>
</g>
<g fill="None" fill-opacity="0.0" stroke="#F5D9B5" stroke-opacity="1.00" stroke-width="0.3"><path d="
M 262.00 458.00 
C 260.53 456.53 257.34 459.91 259.32 461.66 C 261.29 463.40 263.31 459.31 262.00 458.00 Z"/>
</g>
<g fill="None" fill-opacity="0.0" stroke="#F6CDA4" stroke-opacity="1.00" stroke-width="0.3"><path d="
M 282.00 458.00 
C 279.61 456.91 277.72 461.54 280.30 462.64 C 282.88 463.74 284.03 458.92 282.00 458.00 Z"/>
</g>
<g fill="None" fill-opacity="0.0" stroke="#F1C89F" stroke-opacity="1.00" stroke-width="0.3"><path d="
M 295.00 458.00 
C 292.96 455.96 289.22 459.97 291.77 462.21 C 294.32 464.46 296.32 459.32 295.00 458.00 Z"/>
</g>
<g fill="None" fill-opacity="0.0" stroke="#F6CCA6" stroke-opacity="1.00" stroke-width="0.3"><path d="
M 310.00 458.00 
C 307.61 456.91 305.72 461.54 308.30 462.64 C 310.88 463.74 312.03 458.92 310.00 458.00 Z"/>
</g>
<g fill="None" fill-opacity="0.0" stroke="#0B3F5B" stroke-opacity="1.00" stroke-width="0.3"><path d="
M 183.00 787.00 
L 356.00 787.00
C 355.85 784.01 356.20 780.99 356.00 778.00
C 355.79 774.99 355.26 771.72 354.00 769.00
C 340.14 747.95 319.20 752.40 296.00 752.00 C 272.80 751.60 244.84 753.48 222.00 752.00 C 199.16 750.52 181.92 763.59 183.00 787.00
M 249.00 772.00 
C 249.63 770.52 249.80 760.71 253.00 764.00
C 253.48 769.29 252.83 771.73 257.00 774.00
C 255.00 774.00 253.00 774.00 251.00 774.00
C 250.51 773.94 249.43 774.18 249.00 774.00
C 245.80 772.67 243.63 771.32 240.00 774.00
C 242.01 769.51 241.98 761.84 247.00 760.00
C 244.59 764.20 248.61 767.78 249.00 772.00
M 224.00 767.00 
C 215.36 759.82 215.30 777.15 224.00 770.00
C 223.38 776.24 214.53 774.50 214.08 768.92 C 213.63 763.35 223.37 760.24 224.00 767.00
M 234.00 774.00 
C 231.05 772.65 227.74 770.74 225.00 774.00
C 224.46 769.90 227.30 766.77 228.00 763.00
C 232.73 763.88 232.39 770.38 234.00 774.00
M 241.00 763.00 
C 237.26 764.99 238.78 770.39 237.00 774.00
C 235.30 770.18 236.72 765.23 233.00 763.00
C 235.67 763.00 238.33 763.00 241.00 763.00
M 267.00 767.00 
C 269.55 763.42 276.01 761.08 277.00 767.00
C 272.34 763.43 269.72 766.31 271.00 772.00
C 278.59 772.24 267.70 766.65 277.00 768.00
C 278.75 774.56 269.66 775.82 268.00 770.00
C 265.97 775.46 257.82 775.09 257.03 768.97 C 256.23 762.86 266.12 760.66 267.00 767.00
M 285.00 763.00 
C 290.85 764.92 287.70 776.48 281.33 773.67 C 274.96 770.86 278.55 760.88 285.00 763.00
M 300.00 773.00 
C 298.23 775.03 294.52 773.53 292.00 774.00
C 294.17 770.26 300.53 762.67 292.00 767.00
C 291.54 762.62 299.19 761.42 298.97 766.03 C 298.76 770.64 294.14 771.50 300.00 773.00
M 306.00 763.00 
C 310.58 764.32 309.55 775.49 303.99 773.99 C 298.43 772.49 300.44 761.39 306.00 763.00
M 317.00 773.00 
C 315.23 775.03 311.52 773.53 309.00 774.00
C 309.24 770.22 315.86 769.95 314.00 765.00
C 308.68 769.97 309.88 760.75 315.22 763.78 C 320.57 766.81 310.75 771.89 317.00 773.00
M 325.00 763.00 
C 319.78 766.88 322.81 765.16 325.77 769.23 C 328.73 773.31 318.41 776.42 318.00 772.00
C 318.92 769.78 323.38 774.20 323.00 770.00
C 315.73 771.95 316.74 760.06 325.00 763.00 Z"/>
</g>
<g fill="None" fill-opacity="0.0" stroke="#A4C0CB" stroke-opacity="1.00" stroke-width="0.3"><path d="
M 249.00 774.00 
C 248.75 773.75 249.06 772.49 249.00 772.00
C 248.61 767.78 244.59 764.20 247.00 760.00
C 241.98 761.84 242.01 769.51 240.00 774.00
C 243.63 771.32 245.80 772.67 249.00 774.00 Z"/>
</g>
<g fill="None" fill-opacity="0.0" stroke="#ABCBD8" stroke-opacity="1.00" stroke-width="0.3"><path d="
M 224.00 767.00 
C 223.37 760.24 213.63 763.35 214.08 768.92 C 214.53 774.50 223.38 776.24 224.00 770.00
C 215.30 777.15 215.36 759.82 224.00 767.00 Z"/>
</g>
<g fill="None" fill-opacity="0.0" stroke="#A7C3CE" stroke-opacity="1.00" stroke-width="0.3"><path d="
M 234.00 774.00 
C 232.39 770.38 232.73 763.88 228.00 763.00
C 227.30 766.77 224.46 769.90 225.00 774.00
C 227.74 770.74 231.05 772.65 234.00 774.00 Z"/>
</g>
<g fill="None" fill-opacity="0.0" stroke="#ABCDDB" stroke-opacity="1.00" stroke-width="0.3"><path d="
M 241.00 763.00 
C 238.33 763.00 235.67 763.00 233.00 763.00
C 236.72 765.23 235.30 770.18 237.00 774.00
C 238.78 770.39 237.26 764.99 241.00 763.00 Z"/>
</g>
<g fill="None" fill-opacity="0.0" stroke="#6C8998" stroke-opacity="1.00" stroke-width="0.3"><path d="
M 249.00 772.00 
C 249.06 772.49 248.75 773.75 249.00 774.00
C 249.43 774.18 250.51 773.94 251.00 774.00
C 251.23 773.66 251.00 773.00 251.00 773.00
C 251.00 770.31 250.12 765.82 252.00 764.00
C 252.26 763.75 253.00 764.00 253.00 764.00
C 249.80 760.71 249.63 770.52 249.00 772.00 Z"/>
</g>
<g fill="None" fill-opacity="0.0" stroke="#AAC6D3" stroke-opacity="1.00" stroke-width="0.3"><path d="
M 267.00 767.00 
C 266.12 760.66 256.23 762.86 257.03 768.97 C 257.82 775.09 265.97 775.46 268.00 770.00
C 269.66 775.82 278.75 774.56 277.00 768.00
C 267.70 766.65 278.59 772.24 271.00 772.00
C 269.72 766.31 272.34 763.43 277.00 767.00
C 276.01 761.08 269.55 763.42 267.00 767.00
M 264.00 765.00 
C 266.77 766.54 264.74 773.48 261.32 771.66 C 257.90 769.84 260.68 763.16 264.00 765.00 Z"/>
</g>
<g fill="None" fill-opacity="0.0" stroke="#B3D1DC" stroke-opacity="1.00" stroke-width="0.3"><path d="
M 285.00 763.00 
C 278.55 760.88 274.96 770.86 281.33 773.67 C 287.70 776.48 290.85 764.92 285.00 763.00
M 284.00 765.00 
C 287.51 766.07 286.24 773.35 281.99 771.99 C 277.74 770.63 280.89 764.05 284.00 765.00 Z"/>
</g>
<g fill="None" fill-opacity="0.0" stroke="#A8C8D7" stroke-opacity="1.00" stroke-width="0.3"><path d="
M 300.00 773.00 
C 294.14 771.50 298.76 770.64 298.97 766.03 C 299.19 761.42 291.54 762.62 292.00 767.00
C 300.53 762.67 294.17 770.26 292.00 774.00
C 294.52 773.53 298.23 775.03 300.00 773.00 Z"/>
</g>
<g fill="None" fill-opacity="0.0" stroke="#B3CFDC" stroke-opacity="1.00" stroke-width="0.3"><path d="
M 306.00 763.00 
C 300.44 761.39 298.43 772.49 303.99 773.99 C 309.55 775.49 310.58 764.32 306.00 763.00
M 305.00 765.00 
C 306.45 767.17 307.27 773.03 303.00 772.00
C 303.26 769.65 301.97 765.93 305.00 765.00 Z"/>
</g>
<g fill="None" fill-opacity="0.0" stroke="#A8C4D1" stroke-opacity="1.00" stroke-width="0.3"><path d="
M 317.00 773.00 
C 310.75 771.89 320.57 766.81 315.22 763.78 C 309.88 760.75 308.68 769.97 314.00 765.00
C 315.86 769.95 309.24 770.22 309.00 774.00
C 311.52 773.53 315.23 775.03 317.00 773.00 Z"/>
</g>
<g fill="None" fill-opacity="0.0" stroke="#A2C1CE" stroke-opacity="1.00" stroke-width="0.3"><path d="
M 325.00 763.00 
C 316.74 760.06 315.73 771.95 323.00 770.00
C 323.38 774.20 318.92 769.78 318.00 772.00
C 318.41 776.42 328.73 773.31 325.77 769.23 C 322.81 765.16 319.78 766.88 325.00 763.00 Z"/>
</g>
<g fill="None" fill-opacity="0.0" stroke="#E2FAFD" stroke-opacity="1.00" stroke-width="0.3"><path d="
M 251.00 773.00 
C 253.57 772.72 251.75 766.81 252.00 764.00
C 250.12 765.82 251.00 770.31 251.00 773.00 Z"/>
</g>
<g fill="None" fill-opacity="0.0" stroke="#90B6C6" stroke-opacity="1.00" stroke-width="0.3"><path d="
M 251.00 773.00 
C 251.00 773.00 251.23 773.66 251.00 774.00
C 253.00 774.00 255.00 774.00 257.00 774.00
C 252.83 771.73 253.48 769.29 253.00 764.00
C 253.00 764.00 252.26 763.75 252.00 764.00
C 251.75 766.81 253.57 772.72 251.00 773.00 Z"/>
</g>
<g fill="None" fill-opacity="0.0" stroke="#1F4557" stroke-opacity="1.00" stroke-width="0.3"><path d="
M 264.00 765.00 
C 260.68 763.16 257.90 769.84 261.32 771.66 C 264.74 773.48 266.77 766.54 264.00 765.00 Z"/>
</g>
<g fill="None" fill-opacity="0.0" stroke="#244B60" stroke-opacity="1.00" stroke-width="0.3"><path d="
M 284.00 765.00 
C 280.89 764.05 277.74 770.63 281.99 771.99 C 286.24 773.35 287.51 766.07 284.00 765.00 Z"/>
</g>
<g fill="None" fill-opacity="0.0" stroke="#234758" stroke-opacity="1.00" stroke-width="0.3"><path d="
M 305.00 765.00 
C 301.97 765.93 303.26 769.65 303.00 772.00
C 307.27 773.03 306.45 767.17 305.00 765.00 Z"/>
</g>
<g fill="None" fill-opacity="0.0" stroke="#D7DED6" stroke-opacity="1.00" stroke-width="0.3"><path d="
M 356.00 778.00 
C 356.43 780.40 357.75 783.92 357.00 787.00
L 358.00 787.00
C 359.22 779.85 357.56 774.41 354.00 769.00
C 355.26 771.72 355.79 774.99 356.00 778.00 Z"/>
</g>
<g fill="None" fill-opacity="0.0" stroke="#5F7980" stroke-opacity="1.00" stroke-width="0.3"><path d="
M 356.00 787.00 
L 357.00 787.00
C 357.75 783.92 356.43 780.40 356.00 778.00
C 356.20 780.99 355.85 784.01 356.00 787.00 Z"/>
</g>
<g fill="#F5E5CE" fill-opacity="1.00" stroke="None">
<path d="
M 0.00 787.00 
L 183.00 787.00
C 181.92 763.59 199.16 750.52 222.00 752.00 C 244.84 753.48 272.80 751.60 296.00 752.00 C 319.20 752.40 340.14 747.95 354.00 769.00
C 357.56 774.41 359.22 779.85 358.00 787.00
L 538.00 787.00
L 538.00 0.00
L 0.00 0.00
L 0.00 787.00
M 410.00 398.00 
C 410.00 398.50 410.00 399.00 410.00 399.00
C 412.67 403.18 414.03 407.65 420.03 408.97 C 426.02 410.29 426.77 415.12 426.00 423.00 C 425.23 430.88 427.71 435.74 418.00 434.00
C 412.84 433.70 408.06 431.92 403.00 431.00
C 395.94 429.71 381.31 421.09 383.00 413.00
C 382.83 412.67 382.26 412.24 382.00 412.00
C 374.97 405.49 378.77 395.66 378.00 386.00 C 377.23 376.34 378.40 365.75 378.00 355.00 C 377.60 344.25 378.27 337.35 378.00 325.00 C 377.73 312.65 387.71 318.78 399.00 317.00 C 410.29 315.22 412.31 325.84 410.00 337.00
C 416.14 335.58 427.92 336.67 426.07 343.08 C 424.22 349.48 429.85 362.59 419.99 360.99 C 410.13 359.39 409.38 363.85 410.00 373.00 C 410.62 382.15 409.54 389.06 410.00 398.00
M 151.00 434.00 
C 144.38 432.23 138.10 430.36 132.00 427.00
C 128.19 424.90 124.42 421.72 122.00 418.00
C 119.58 414.29 117.52 409.28 116.00 405.00
C 113.53 398.04 114.13 391.02 114.00 383.00 C 113.87 374.98 114.50 366.11 114.00 358.00 C 113.50 349.89 115.21 341.06 114.00 333.00 C 112.79 324.94 114.06 314.35 123.00 317.00 C 131.94 319.65 139.87 313.37 145.74 318.26 C 151.62 323.14 138.89 339.27 152.00 337.00 C 165.11 334.73 160.54 342.20 162.00 352.00 C 163.46 361.80 153.52 359.88 146.00 361.00
C 145.57 370.96 146.91 381.34 146.00 392.00 C 145.09 402.66 152.14 405.51 159.67 409.33 C 167.20 413.15 159.37 430.90 162.00 437.00
C 159.02 433.89 153.87 436.24 151.00 434.00
M 203.00 397.00 
C 203.12 398.55 203.17 398.02 204.00 399.00
C 210.22 406.37 214.89 412.95 226.00 409.00
C 231.44 406.16 233.57 402.27 234.00 396.00
C 234.41 389.95 233.42 382.96 234.00 377.00 C 234.58 371.04 232.90 362.53 234.00 357.00 C 235.10 351.47 231.19 341.66 235.00 338.00
C 244.14 337.17 254.86 337.17 264.00 338.00
C 268.02 341.86 263.83 352.18 265.00 358.00 C 266.17 363.82 264.42 372.61 265.00 379.00 C 265.58 385.39 265.03 394.26 264.00 400.00
C 263.27 410.70 257.31 417.69 250.00 425.00
C 245.31 429.69 241.65 431.96 235.00 433.00
C 227.96 434.10 220.36 434.40 213.00 434.00
C 207.90 434.73 204.28 437.15 200.00 432.00
C 199.77 431.72 199.35 431.13 199.00 431.00
C 188.60 434.59 177.53 417.16 176.00 410.00
C 174.56 406.33 174.08 404.17 174.00 400.00
C 174.00 400.01 173.00 400.00 173.00 400.00
C 172.80 400.14 171.66 389.03 172.00 384.00 C 172.34 378.97 172.18 370.33 172.00 364.00 C 171.82 357.67 172.82 351.40 172.00 344.00 C 171.18 336.60 176.30 335.88 183.00 337.00 C 189.70 338.12 195.78 336.82 202.00 336.00
C 205.92 355.10 204.06 377.82 203.00 397.00
M 306.00 396.00 
C 306.15 398.07 306.38 399.12 307.00 401.00
C 313.51 416.17 328.69 409.45 336.00 400.00
C 336.24 399.69 336.00 398.50 336.00 398.00
C 336.00 391.74 335.58 384.12 336.00 378.00 C 336.42 371.88 334.88 363.62 336.00 358.00 C 337.12 352.38 333.11 341.74 337.00 338.00
C 346.46 337.14 357.54 337.15 367.00 338.00
C 371.90 342.71 366.30 355.94 368.00 363.00 C 369.70 370.06 366.90 381.28 368.00 389.00 C 369.10 396.72 367.00 405.66 364.68 412.68 C 362.36 419.70 357.99 422.12 352.30 426.30 C 346.61 430.49 340.45 433.75 333.00 434.00
C 331.34 434.06 329.66 434.00 328.00 434.00
C 318.52 435.01 309.34 435.65 301.00 431.00
C 298.06 430.00 295.57 428.76 293.00 427.00
C 287.21 425.04 281.46 420.67 279.00 413.00
C 277.63 408.71 276.25 404.68 276.00 400.00
C 275.08 394.36 274.32 386.27 275.00 380.00 C 275.68 373.73 273.72 364.82 275.00 359.00 C 276.28 353.18 271.92 341.92 276.00 338.00
C 285.14 337.17 295.86 337.17 305.00 338.00
C 308.77 341.62 304.98 350.45 306.00 356.00 C 307.02 361.55 305.44 369.92 306.00 376.00 C 306.56 382.08 305.54 389.77 306.00 396.00
M 271.00 451.00 
C 271.74 452.18 271.78 463.88 271.00 465.00
C 268.80 468.14 259.30 465.61 255.93 465.07 C 252.56 464.53 245.62 467.61 242.00 466.00 C 238.37 464.38 232.24 467.80 233.00 461.00
C 231.89 463.41 231.25 467.37 227.00 466.00
C 227.33 460.60 222.90 468.18 219.00 466.00 C 215.10 463.82 211.25 467.68 208.00 465.00
C 207.51 464.93 207.00 465.00 207.00 465.00
C 204.90 463.68 198.16 465.52 194.77 464.23 C 191.38 462.94 186.09 468.28 183.70 462.30 C 181.30 456.33 186.36 452.42 191.00 454.00 C 195.65 455.58 199.04 453.59 203.22 454.78 C 207.40 455.97 211.93 451.28 215.00 457.00
C 219.52 451.24 226.56 456.32 232.00 455.00
C 232.35 455.23 233.00 455.00 233.00 455.00
C 234.98 453.46 236.97 454.60 238.00 457.00
C 241.21 452.88 246.19 453.72 250.00 456.00
C 250.11 454.24 249.87 450.69 253.00 451.00
C 254.87 452.68 252.48 454.30 254.00 456.00
C 255.78 456.19 255.79 454.75 257.00 456.00
C 257.24 456.25 258.00 456.00 258.00 456.00
C 260.14 454.42 262.70 456.06 265.00 455.00
C 265.22 453.64 269.08 447.92 271.00 451.00
M 364.00 462.00 
C 364.86 460.80 364.43 452.63 367.75 456.26 C 371.06 459.89 366.76 464.02 365.00 465.00
C 362.64 466.31 359.17 466.43 358.00 463.00
C 356.15 467.51 344.56 468.11 347.00 461.00
C 346.47 469.48 338.61 463.63 334.26 464.74 C 329.91 465.86 323.15 466.13 321.00 460.00
C 320.45 462.01 320.72 467.00 316.00 466.00
C 315.22 463.08 314.06 463.18 312.00 465.00
C 307.34 466.29 307.68 466.87 304.00 469.00
C 304.00 464.33 304.00 459.67 304.00 455.00
C 306.97 455.68 308.97 455.63 312.00 455.00
C 313.96 455.09 313.50 456.15 315.00 457.00
C 315.75 450.82 323.22 455.92 326.00 455.00
C 326.39 454.80 327.00 455.00 327.00 455.00
C 327.24 453.96 337.79 454.65 341.00 455.00
C 344.41 455.38 345.27 456.96 349.00 455.00
C 351.51 453.68 352.42 453.68 353.00 450.00
C 359.41 449.65 354.04 458.62 362.00 455.00
C 362.61 457.22 360.38 462.04 364.00 462.00
M 155.00 465.00 
C 155.00 460.33 155.00 455.67 155.00 451.00
C 170.26 445.72 170.29 470.27 155.00 465.00
M 298.00 458.00 
C 298.46 461.12 297.80 463.53 295.00 465.00
C 290.07 467.58 284.58 465.00 278.00 466.00 C 271.41 467.00 277.10 448.40 282.74 453.40 C 288.38 458.41 296.71 449.24 298.00 458.00
M 176.00 455.00 
C 182.61 457.07 177.61 468.44 171.00 465.00 C 164.39 461.56 170.18 453.18 176.00 455.00
M 383.00 465.00 
C 380.77 463.40 383.59 457.55 379.00 458.00
C 378.39 460.22 380.62 465.04 377.00 465.00
C 374.77 463.40 377.59 457.55 373.00 458.00
C 372.64 460.61 374.52 465.95 370.00 465.00
C 370.00 461.67 370.00 458.33 370.00 455.00
C 376.66 454.36 390.92 455.63 383.00 465.00 Z"/>
</g>
<g fill="#CED8D3" fill-opacity="1.00" stroke="None">
<path d="
M 382.00 412.00 
C 381.08 408.76 380.24 405.45 380.00 402.00
C 375.22 375.34 381.50 345.52 379.00 318.00
C 389.00 318.00 399.00 318.00 409.00 318.00
C 409.00 324.67 409.00 331.33 409.00 338.00
C 412.31 338.17 425.38 336.47 424.97 341.03 C 424.56 345.59 427.36 356.65 424.00 359.00
C 420.64 361.35 412.36 356.65 409.00 359.00
C 410.12 371.20 407.50 383.85 409.00 396.00
C 409.19 397.58 409.29 396.93 410.00 398.00
C 409.54 389.06 410.62 382.15 410.00 373.00 C 409.38 363.85 410.13 359.39 419.99 360.99 C 429.85 362.59 424.22 349.48 426.07 343.08 C 427.92 336.67 416.14 335.58 410.00 337.00
C 412.31 325.84 410.29 315.22 399.00 317.00 C 387.71 318.78 377.73 312.65 378.00 325.00 C 378.27 337.35 377.60 344.25 378.00 355.00 C 378.40 365.75 377.23 376.34 378.00 386.00 C 378.77 395.66 374.97 405.49 382.00 412.00 Z"/>
</g>
<g fill="#CBD5CF" fill-opacity="1.00" stroke="None">
<path d="
M 116.00 405.00 
C 115.78 403.41 116.00 401.61 116.00 400.00
C 115.38 394.18 114.43 386.48 115.00 380.00 C 115.57 373.52 114.31 365.22 115.00 359.00 C 115.69 352.78 113.74 343.43 115.00 338.00 C 116.26 332.57 111.85 320.91 116.00 318.00
C 119.22 315.74 125.92 319.10 130.00 318.00 C 134.08 316.90 140.69 318.83 145.00 318.00
C 145.00 324.67 145.00 331.33 145.00 338.00
C 149.34 339.44 157.76 335.63 161.00 339.00
C 161.32 342.54 162.70 357.11 160.00 359.00
C 156.64 361.35 148.36 356.65 145.00 359.00
C 145.91 370.91 143.78 383.13 145.00 395.00
C 147.09 404.42 150.36 406.37 158.00 411.00
C 158.73 411.44 160.21 410.65 161.00 411.00
C 159.74 418.20 163.57 429.22 159.00 434.00
C 157.51 434.72 152.67 434.23 151.00 434.00
C 153.87 436.24 159.02 433.89 162.00 437.00
C 159.37 430.90 167.20 413.15 159.67 409.33 C 152.14 405.51 145.09 402.66 146.00 392.00 C 146.91 381.34 145.57 370.96 146.00 361.00
C 153.52 359.88 163.46 361.80 162.00 352.00 C 160.54 342.20 165.11 334.73 152.00 337.00 C 138.89 339.27 151.62 323.14 145.74 318.26 C 139.87 313.37 131.94 319.65 123.00 317.00 C 114.06 314.35 112.79 324.94 114.00 333.00 C 115.21 341.06 113.50 349.89 114.00 358.00 C 114.50 366.11 113.87 374.98 114.00 383.00 C 114.13 391.02 113.53 398.04 116.00 405.00 Z"/>
</g>
<g fill="#516D75" fill-opacity="1.00" stroke="None">
<path d="
M 116.00 400.00 
C 116.00 372.67 116.00 345.33 116.00 318.00
C 111.85 320.91 116.26 332.57 115.00 338.00 C 113.74 343.43 115.69 352.78 115.00 359.00 C 114.31 365.22 115.57 373.52 115.00 380.00 C 114.43 386.48 115.38 394.18 116.00 400.00 Z"/>
</g>
<g fill="#073E5A" fill-opacity="1.00" stroke="None">
<path d="
M 116.00 400.00 
C 116.00 401.61 115.78 403.41 116.00 405.00
C 117.52 409.28 119.58 414.29 122.00 418.00
C 124.28 420.97 129.14 425.02 132.00 427.00
C 138.10 430.36 144.38 432.23 151.00 434.00
C 152.67 434.23 157.51 434.72 159.00 434.00
C 161.91 431.94 159.28 425.24 160.00 422.00 C 160.72 418.76 160.40 413.09 158.00 411.00
C 150.36 406.37 147.09 404.42 145.00 395.00
C 144.08 390.83 142.98 381.57 144.00 377.00 C 145.02 372.43 141.35 361.56 145.00 359.00
C 148.36 356.65 156.64 361.35 160.00 359.00
C 160.45 352.37 159.40 345.61 160.00 339.00
C 156.85 339.00 146.76 340.52 145.00 338.00
C 145.00 331.33 145.00 324.67 145.00 318.00
C 140.69 318.83 134.08 316.90 130.00 318.00 C 125.92 319.10 119.22 315.74 116.00 318.00
C 116.00 345.33 116.00 372.67 116.00 400.00 Z"/>
</g>
<g fill="#37545C" fill-opacity="1.00" stroke="None">
<path d="
M 380.00 402.00 
C 378.13 374.46 381.41 346.57 380.00 319.00
C 389.33 319.00 398.67 319.00 408.00 319.00
C 408.66 325.16 406.68 332.66 409.00 338.00
C 409.00 331.33 409.00 324.67 409.00 318.00
C 399.00 318.00 389.00 318.00 379.00 318.00
C 381.50 345.52 375.22 375.34 380.00 402.00 Z"/>
</g>
<g fill="#063D5B" fill-opacity="1.00" stroke="None">
<path d="
M 380.00 402.00 
C 380.24 405.45 381.08 408.76 382.00 412.00
C 382.26 412.24 382.83 412.67 383.00 413.00
C 386.86 420.74 395.16 428.07 403.00 431.00
C 408.06 431.92 412.84 433.70 418.00 434.00
C 419.26 434.07 422.94 434.61 424.00 434.00
C 422.09 427.53 427.43 415.46 422.00 411.00
C 417.07 408.19 410.15 406.38 410.00 399.00
C 410.00 399.00 410.00 398.50 410.00 398.00
C 409.29 396.93 409.19 397.58 409.00 396.00
C 407.41 392.10 407.21 382.44 408.00 378.00 C 408.79 373.56 405.47 361.47 409.00 359.00
C 412.36 356.65 420.64 361.35 424.00 359.00
C 424.00 352.33 424.00 345.67 424.00 339.00
C 419.17 338.35 413.01 340.31 409.00 338.00
C 406.68 332.66 408.66 325.16 408.00 319.00
C 398.67 319.00 389.33 319.00 380.00 319.00
C 381.41 346.57 378.13 374.46 380.00 402.00 Z"/>
</g>
<g fill="#D3DBD5" fill-opacity="1.00" stroke="None">
<path d="
M 173.00 400.00 
C 171.26 380.77 171.26 358.23 173.00 339.00
C 178.35 333.43 186.09 341.05 194.00 338.00 C 201.91 334.95 204.35 343.82 203.00 351.00 C 201.65 358.18 203.51 365.75 203.00 373.00 C 202.49 380.25 203.00 387.73 203.00 395.00
C 203.00 395.50 202.96 396.50 203.00 397.00
C 204.06 377.82 205.92 355.10 202.00 336.00
C 195.78 336.82 189.70 338.12 183.00 337.00 C 176.30 335.88 171.18 336.60 172.00 344.00 C 172.82 351.40 171.82 357.67 172.00 364.00 C 172.18 370.33 172.34 378.97 172.00 384.00 C 171.66 389.03 172.80 400.14 173.00 400.00 Z"/>
</g>
<g fill="#5E7D88" fill-opacity="1.00" stroke="None">
<path d="
M 160.00 339.00 
C 160.50 339.00 161.00 339.00 161.00 339.00
C 157.76 335.63 149.34 339.44 145.00 338.00
C 146.76 340.52 156.85 339.00 160.00 339.00 Z"/>
</g>
<g fill="#577179" fill-opacity="1.00" stroke="None">
<path d="
M 173.00 339.00 
C 173.00 338.96 174.00 339.00 174.00 339.00
C 183.33 339.00 192.67 339.00 202.00 339.00
C 202.67 357.50 200.67 377.32 203.00 395.00
C 203.00 387.73 202.49 380.25 203.00 373.00 C 203.51 365.75 201.65 358.18 203.00 351.00 C 204.35 343.82 201.91 334.95 194.00 338.00 C 186.09 341.05 178.35 333.43 173.00 339.00 Z"/>
</g>
<g fill="#869A9E" fill-opacity="1.00" stroke="None">
<path d="
M 234.00 396.00 
C 237.15 378.45 235.00 357.44 235.00 339.00
C 235.00 338.50 235.00 338.00 235.00 338.00
C 231.19 341.66 235.10 351.47 234.00 357.00 C 232.90 362.53 234.58 371.04 234.00 377.00 C 233.42 382.96 234.41 389.95 234.00 396.00 Z"/>
</g>
<g fill="#5F7C84" fill-opacity="1.00" stroke="None">
<path d="
M 235.00 339.00 
C 244.15 339.83 254.85 339.82 264.00 339.00
C 264.00 338.50 264.00 338.00 264.00 338.00
C 254.86 337.17 244.14 337.17 235.00 338.00
C 235.00 338.00 235.00 338.50 235.00 339.00 Z"/>
</g>
<g fill="#8C9A9B" fill-opacity="1.00" stroke="None">
<path d="
M 264.00 339.00 
C 264.00 359.17 265.37 379.88 264.00 400.00
C 265.03 394.26 265.58 385.39 265.00 379.00 C 264.42 372.61 266.17 363.82 265.00 358.00 C 263.83 352.18 268.02 341.86 264.00 338.00
C 264.00 338.00 264.00 338.50 264.00 339.00 Z"/>
</g>
<g fill="#8C9B99" fill-opacity="1.00" stroke="None">
<path d="
M 276.00 400.00 
C 274.90 379.80 276.00 359.23 276.00 339.00
C 276.00 338.50 276.00 338.00 276.00 338.00
C 271.92 341.92 276.28 353.18 275.00 359.00 C 273.72 364.82 275.68 373.73 275.00 380.00 C 274.32 386.27 275.08 394.36 276.00 400.00 Z"/>
</g>
<g fill="#5F7C85" fill-opacity="1.00" stroke="None">
<path d="
M 276.00 339.00 
C 285.15 339.83 295.85 339.82 305.00 339.00
C 305.00 338.50 305.00 338.00 305.00 338.00
C 295.86 337.17 285.14 337.17 276.00 338.00
C 276.00 338.00 276.00 338.50 276.00 339.00 Z"/>
</g>
<g fill="#9DAEB4" fill-opacity="1.00" stroke="None">
<path d="
M 305.00 339.00 
C 305.00 357.38 302.76 378.59 306.00 396.00
C 305.54 389.77 306.56 382.08 306.00 376.00 C 305.44 369.92 307.02 361.55 306.00 356.00 C 304.98 350.45 308.77 341.62 305.00 338.00
C 305.00 338.00 305.00 338.50 305.00 339.00 Z"/>
</g>
<g fill="#CED8D4" fill-opacity="1.00" stroke="None">
<path d="
M 336.00 398.00 
C 339.48 389.82 336.24 378.36 337.00 369.00 C 337.76 359.64 337.00 348.52 337.00 339.00
C 337.00 338.50 337.00 338.00 337.00 338.00
C 333.11 341.74 337.12 352.38 336.00 358.00 C 334.88 363.62 336.42 371.88 336.00 378.00 C 335.58 384.12 336.00 391.74 336.00 398.00 Z"/>
</g>
<g fill="#607E87" fill-opacity="1.00" stroke="None">
<path d="
M 337.00 339.00 
C 337.25 339.25 338.00 339.00 338.00 339.00
C 347.33 339.00 356.67 339.00 366.00 339.00
C 366.50 339.00 367.00 339.00 367.00 339.00
C 367.00 338.50 367.00 338.00 367.00 338.00
C 357.54 337.15 346.46 337.14 337.00 338.00
C 337.00 338.00 337.00 338.50 337.00 339.00 Z"/>
</g>
<g fill="#C3CCC8" fill-opacity="1.00" stroke="None">
<path d="
M 367.00 339.00 
C 367.00 359.33 369.47 382.66 366.00 402.00
C 364.90 418.16 347.72 431.51 333.00 434.00
C 340.45 433.75 346.61 430.49 352.30 426.30 C 357.99 422.12 362.36 419.70 364.68 412.68 C 367.00 405.66 369.10 396.72 368.00 389.00 C 366.90 381.28 369.70 370.06 368.00 363.00 C 366.30 355.94 371.90 342.71 367.00 338.00
C 367.00 338.00 367.00 338.50 367.00 339.00 Z"/>
</g>
<g fill="#5D767C" fill-opacity="1.00" stroke="None">
<path d="
M 424.00 359.00 
C 427.36 356.65 424.56 345.59 424.97 341.03 C 425.38 336.47 412.31 338.17 409.00 338.00
C 413.01 340.31 419.17 338.35 424.00 339.00
C 424.00 345.67 424.00 352.33 424.00 359.00 Z"/>
</g>
<g fill="#465F63" fill-opacity="1.00" stroke="None">
<path d="
M 160.00 359.00 
C 162.70 357.11 161.32 342.54 161.00 339.00
C 161.00 339.00 160.50 339.00 160.00 339.00
C 159.40 345.61 160.45 352.37 160.00 359.00 Z"/>
</g>
<g fill="#36545D" fill-opacity="1.00" stroke="None">
<path d="
M 173.00 400.00 
C 173.00 400.00 174.00 400.01 174.00 400.00
C 173.60 379.86 175.82 359.05 174.00 339.00
C 174.00 339.00 173.00 338.96 173.00 339.00
C 171.26 358.23 171.26 380.77 173.00 400.00 Z"/>
</g>
<g fill="#073E5B" fill-opacity="1.00" stroke="None">
<path d="
M 174.00 400.00 
C 174.08 404.17 174.56 406.33 176.00 410.00
C 177.12 412.85 178.10 415.44 180.00 418.00
C 182.61 421.00 186.96 424.89 190.00 427.00
C 192.96 428.63 195.91 429.84 199.00 431.00
C 199.35 431.13 199.77 431.72 200.00 432.00
C 203.70 433.50 208.92 433.78 213.00 434.00
C 220.36 434.40 227.96 434.10 235.00 433.00
C 239.51 431.63 245.97 427.99 250.00 425.00
C 257.31 417.69 263.27 410.70 264.00 400.00
C 265.37 379.88 264.00 359.17 264.00 339.00
C 254.85 339.82 244.15 339.83 235.00 339.00
C 235.00 357.44 237.15 378.45 234.00 396.00
C 233.57 402.27 231.44 406.16 226.00 409.00
C 216.04 414.20 207.37 408.86 204.00 399.00
C 203.17 398.02 203.12 398.55 203.00 397.00
C 202.96 396.50 203.00 395.50 203.00 395.00
C 200.67 377.32 202.67 357.50 202.00 339.00
C 192.67 339.00 183.33 339.00 174.00 339.00
C 175.82 359.05 173.60 379.86 174.00 400.00 Z"/>
</g>
<g fill="#073D5B" fill-opacity="1.00" stroke="None">
<path d="
M 276.00 400.00 
C 276.25 404.68 277.63 408.71 279.00 413.00
C 281.92 418.40 287.87 423.48 293.00 427.00
C 295.57 428.76 298.06 430.00 301.00 431.00
C 309.73 433.99 318.43 434.00 328.00 434.00
C 329.66 434.00 331.34 434.06 333.00 434.00
C 347.72 431.51 364.90 418.16 366.00 402.00
C 367.42 381.13 364.12 359.83 366.00 339.00
C 356.67 339.00 347.33 339.00 338.00 339.00
C 338.90 348.91 338.04 360.13 338.00 370.00 C 337.96 379.87 339.84 391.60 336.00 400.00
C 330.36 412.35 312.11 416.37 307.00 401.00
C 306.38 399.12 306.15 398.07 306.00 396.00
C 302.76 378.59 305.00 357.38 305.00 339.00
C 295.85 339.82 285.15 339.83 276.00 339.00
C 276.00 359.23 274.90 379.80 276.00 400.00 Z"/>
</g>
<g fill="#405D66" fill-opacity="1.00" stroke="None">
<path d="
M 336.00 398.00 
C 336.00 398.50 336.24 399.69 336.00 400.00
C 339.84 391.60 337.96 379.87 338.00 370.00 C 338.04 360.13 338.90 348.91 338.00 339.00
C 338.00 339.00 337.25 339.25 337.00 339.00
C 337.00 348.52 337.76 359.64 337.00 369.00 C 336.24 378.36 339.48 389.82 336.00 398.00 Z"/>
</g>
<g fill="#3B555E" fill-opacity="1.00" stroke="None">
<path d="
M 366.00 402.00 
C 369.47 382.66 367.00 359.33 367.00 339.00
C 367.00 339.00 366.50 339.00 366.00 339.00
C 364.12 359.83 367.42 381.13 366.00 402.00 Z"/>
</g>
<g fill="#3C5860" fill-opacity="1.00" stroke="None">
<path d="
M 145.00 395.00 
C 143.78 383.13 145.91 370.91 145.00 359.00
C 141.35 361.56 145.02 372.43 144.00 377.00 C 142.98 381.57 144.08 390.83 145.00 395.00 Z"/>
</g>
<g fill="#4F6A71" fill-opacity="1.00" stroke="None">
<path d="
M 409.00 396.00 
C 407.50 383.85 410.12 371.20 409.00 359.00
C 405.47 361.47 408.79 373.56 408.00 378.00 C 407.21 382.44 407.41 392.10 409.00 396.00 Z"/>
</g>
<g fill="#BAC7C4" fill-opacity="1.00" stroke="None">
<path d="
M 226.00 409.00 
C 214.89 412.95 210.22 406.37 204.00 399.00
C 207.37 408.86 216.04 414.20 226.00 409.00 Z"/>
</g>
<g fill="#C7D0CC" fill-opacity="1.00" stroke="None">
<path d="
M 422.00 411.00 
C 422.76 411.43 424.20 410.66 425.00 411.00
C 424.34 418.50 426.33 427.33 424.00 434.00
C 422.94 434.61 419.26 434.07 418.00 434.00
C 427.71 435.74 425.23 430.88 426.00 423.00 C 426.77 415.12 426.02 410.29 420.03 408.97 C 414.03 407.65 412.67 403.18 410.00 399.00
C 410.15 406.38 417.07 408.19 422.00 411.00 Z"/>
</g>
<g fill="#AABAB8" fill-opacity="1.00" stroke="None">
<path d="
M 307.00 401.00 
C 312.11 416.37 330.36 412.35 336.00 400.00
C 328.69 409.45 313.51 416.17 307.00 401.00 Z"/>
</g>
<g fill="#D0D7D0" fill-opacity="1.00" stroke="None">
<path d="
M 199.00 431.00 
C 195.91 429.84 192.96 428.63 190.00 427.00
C 186.04 424.82 182.72 421.65 180.00 418.00
C 178.10 415.44 177.12 412.85 176.00 410.00
C 177.53 417.16 188.60 434.59 199.00 431.00 Z"/>
</g>
<g fill="#2F4E54" fill-opacity="1.00" stroke="None">
<path d="
M 159.00 434.00 
C 163.57 429.22 159.74 418.20 161.00 411.00
C 160.21 410.65 158.73 411.44 158.00 411.00
C 160.40 413.09 160.72 418.76 160.00 422.00 C 159.28 425.24 161.91 431.94 159.00 434.00 Z"/>
</g>
<g fill="#49626B" fill-opacity="1.00" stroke="None">
<path d="
M 424.00 434.00 
C 426.33 427.33 424.34 418.50 425.00 411.00
C 424.20 410.66 422.76 411.43 422.00 411.00
C 427.43 415.46 422.09 427.53 424.00 434.00 Z"/>
</g>
<g fill="#BFCBC7" fill-opacity="1.00" stroke="None">
<path d="
M 293.00 427.00 
C 287.87 423.48 281.92 418.40 279.00 413.00
C 281.46 420.67 287.21 425.04 293.00 427.00 Z"/>
</g>
<g fill="#CCD4CE" fill-opacity="1.00" stroke="None">
<path d="
M 403.00 431.00 
C 395.16 428.07 386.86 420.74 383.00 413.00
C 381.31 421.09 395.94 429.71 403.00 431.00 Z"/>
</g>
<g fill="#829A9B" fill-opacity="1.00" stroke="None">
<path d="
M 132.00 427.00 
C 129.14 425.02 124.28 420.97 122.00 418.00
C 124.42 421.72 128.19 424.90 132.00 427.00 Z"/>
</g>
<g fill="#6E8585" fill-opacity="1.00" stroke="None">
<path d="
M 190.00 427.00 
C 186.96 424.89 182.61 421.00 180.00 418.00
C 182.72 421.65 186.04 424.82 190.00 427.00 Z"/>
</g>
<g fill="#B4C1BD" fill-opacity="1.00" stroke="None">
<path d="
M 235.00 433.00 
C 241.65 431.96 245.31 429.69 250.00 425.00
C 245.97 427.99 239.51 431.63 235.00 433.00 Z"/>
</g>
<g fill="#AFBCB9" fill-opacity="1.00" stroke="None">
<path d="
M 328.00 434.00 
C 318.43 434.00 309.73 433.99 301.00 431.00
C 309.34 435.65 318.52 435.01 328.00 434.00 Z"/>
</g>
<g fill="#D2D7D2" fill-opacity="1.00" stroke="None">
<path d="
M 213.00 434.00 
C 208.92 433.78 203.70 433.50 200.00 432.00
C 204.28 437.15 207.90 434.73 213.00 434.00 Z"/>
</g>
<g fill="#EEC6A2" fill-opacity="1.00" stroke="None">
<path d="
M 265.00 455.00 
C 264.59 457.46 268.16 462.89 265.00 465.00
C 260.01 466.46 251.69 462.58 257.00 456.00
C 255.79 454.75 255.78 456.19 254.00 456.00
C 254.14 458.23 254.91 463.76 253.00 465.00
C 252.65 465.23 251.35 465.23 251.00 465.00
C 249.14 463.79 249.87 458.15 250.00 456.00
C 246.19 453.72 241.21 452.88 238.00 457.00
C 236.97 454.60 234.98 453.46 233.00 455.00
C 238.88 454.20 236.56 461.48 237.00 465.00
C 232.57 466.10 234.36 460.51 234.00 458.00
C 229.57 456.90 231.36 462.49 231.00 465.00
C 225.94 465.84 228.72 458.92 228.00 456.00
C 229.28 455.72 231.50 456.76 232.00 455.00
C 226.56 456.32 219.52 451.24 215.00 457.00
C 211.93 451.28 207.40 455.97 203.22 454.78 C 199.04 453.59 195.65 455.58 191.00 454.00 C 186.36 452.42 181.30 456.33 183.70 462.30 C 186.09 468.28 191.38 462.94 194.77 464.23 C 198.16 465.52 204.90 463.68 207.00 465.00
C 203.68 459.98 210.87 464.24 212.00 462.00
C 202.03 462.67 208.10 450.29 214.00 457.00
C 212.96 459.86 208.64 454.77 209.00 459.00
C 216.90 457.28 215.16 467.62 208.00 465.00
C 211.25 467.68 215.10 463.82 219.00 466.00 C 222.90 468.18 227.33 460.60 227.00 466.00
C 231.25 467.37 231.89 463.41 233.00 461.00
C 232.24 467.80 238.37 464.38 242.00 466.00 C 245.62 467.61 252.56 464.53 255.93 465.07 C 259.30 465.61 268.80 468.14 271.00 465.00
C 270.00 465.00 269.00 465.00 268.00 465.00
C 268.00 460.33 268.00 455.67 268.00 451.00
C 269.00 451.00 270.00 451.00 271.00 451.00
C 269.08 447.92 265.22 453.64 265.00 455.00
M 194.00 460.00 
C 194.04 460.50 194.11 461.52 194.00 462.00
C 192.69 467.91 182.43 464.25 184.01 458.99 C 185.59 453.73 193.59 454.69 194.00 460.00
M 204.00 457.00 
C 202.96 459.86 198.64 454.77 199.00 459.00
C 208.62 459.29 200.45 469.95 196.00 463.00
C 196.92 460.78 201.38 465.20 201.00 461.00
C 191.29 462.27 198.83 450.11 204.00 457.00
M 226.00 460.00 
C 226.11 461.76 225.81 461.85 225.00 463.00
C 221.57 467.88 214.18 463.69 216.33 458.33 C 218.48 452.97 225.71 455.36 226.00 460.00
M 248.00 459.00 
C 244.56 456.78 239.76 458.64 243.00 463.00
C 245.34 463.12 246.68 459.69 249.00 462.00
C 246.92 467.26 238.49 465.45 239.01 459.99 C 239.53 454.53 247.39 453.11 248.00 459.00 Z"/>
</g>
<g fill="#EDC5A1" fill-opacity="1.00" stroke="None">
<path d="
M 349.00 455.00 
C 352.34 456.52 350.47 462.35 351.00 465.00
C 346.57 466.10 348.36 460.51 348.00 458.00
C 343.57 456.90 345.36 462.49 345.00 465.00
C 340.57 466.10 342.36 460.51 342.00 458.00
C 337.57 456.91 339.36 462.49 339.00 465.00
C 333.94 465.84 336.72 458.92 336.00 456.00
C 337.57 455.61 340.22 456.94 341.00 455.00
C 337.79 454.65 327.24 453.96 327.00 455.00
C 335.31 454.25 334.61 462.96 327.00 462.00
C 328.27 465.02 331.88 460.54 333.00 463.00
C 327.77 469.47 319.87 459.90 326.00 455.00
C 323.22 455.92 315.75 450.82 315.00 457.00
C 313.50 456.15 313.96 455.09 312.00 455.00
C 315.23 456.79 314.44 463.01 312.00 465.00
C 314.06 463.18 315.22 463.08 316.00 466.00
C 320.72 467.00 320.45 462.01 321.00 460.00
C 323.15 466.13 329.91 465.86 334.26 464.74 C 338.61 463.63 346.47 469.48 347.00 461.00
C 344.56 468.11 356.15 467.51 358.00 463.00
C 359.17 466.43 362.64 466.31 365.00 465.00
C 358.89 466.96 355.05 458.41 360.00 456.00
C 361.79 457.19 360.17 465.08 364.00 462.00
C 360.38 462.04 362.61 457.22 362.00 455.00
C 354.04 458.62 359.41 449.65 353.00 450.00
C 352.42 453.68 351.51 453.68 349.00 455.00
M 356.00 451.00 
C 357.21 452.21 354.94 455.27 353.32 453.66 C 351.70 452.05 354.88 449.88 356.00 451.00
M 323.00 456.00 
C 320.31 458.06 318.69 461.28 318.00 465.00
C 314.17 464.64 316.77 458.70 316.00 456.00
C 318.67 456.49 320.27 456.46 323.00 456.00
M 353.00 465.00 
C 353.00 462.00 353.00 459.00 353.00 456.00
C 357.52 454.66 357.68 466.32 353.00 465.00 Z"/>
</g>
<g fill="#B7774B" fill-opacity="1.00" stroke="None">
<path d="
M 155.00 465.00 
C 170.29 470.27 170.26 445.72 155.00 451.00
C 155.00 455.67 155.00 460.33 155.00 465.00
M 159.00 462.00 
C 158.08 458.64 159.07 451.77 162.74 455.26 C 166.41 458.74 162.18 462.32 159.00 462.00 Z"/>
</g>
<g fill="#CE9970" fill-opacity="1.00" stroke="None">
<path d="
M 250.00 456.00 
C 249.87 458.15 249.14 463.79 251.00 465.00
C 250.04 462.84 250.91 457.52 252.00 456.00
C 254.08 458.10 252.50 462.15 253.00 465.00
C 254.91 463.76 254.14 458.23 254.00 456.00
C 252.48 454.30 254.87 452.68 253.00 451.00
C 249.87 450.69 250.11 454.24 250.00 456.00 Z"/>
</g>
<g fill="#AC7444" fill-opacity="1.00" stroke="None">
<path d="
M 271.00 465.00 
C 271.78 463.88 271.74 452.18 271.00 451.00
C 270.00 451.00 269.00 451.00 268.00 451.00
C 268.00 455.67 268.00 460.33 268.00 465.00
C 269.00 465.00 270.00 465.00 271.00 465.00 Z"/>
</g>
<g fill="#AC7950" fill-opacity="1.00" stroke="None">
<path d="
M 356.00 451.00 
C 354.88 449.88 351.70 452.05 353.32 453.66 C 354.94 455.27 357.21 452.21 356.00 451.00 Z"/>
</g>
<g fill="#EDC8A5" fill-opacity="1.00" stroke="None">
<path d="
M 295.00 465.00 
C 280.06 469.43 293.55 446.05 298.00 458.00
C 296.71 449.24 288.38 458.41 282.74 453.40 C 277.10 448.40 271.41 467.00 278.00 466.00 C 284.58 465.00 290.07 467.58 295.00 465.00
M 286.00 455.00 
C 286.00 458.33 286.00 461.67 286.00 465.00
C 282.00 464.34 275.91 466.30 276.01 459.99 C 276.10 453.68 281.96 455.91 286.00 455.00 Z"/>
</g>
<g fill="#F6DDBD" fill-opacity="1.00" stroke="None">
<path d="
M 159.00 462.00 
C 162.18 462.32 166.41 458.74 162.74 455.26 C 159.07 451.77 158.08 458.64 159.00 462.00 Z"/>
</g>
<g fill="#B9774B" fill-opacity="1.00" stroke="None">
<path d="
M 176.00 455.00 
C 170.18 453.18 164.39 461.56 171.00 465.00 C 177.61 468.44 182.61 457.07 176.00 455.00
M 172.00 458.00 
C 180.90 458.00 170.68 467.74 172.00 458.00 Z"/>
</g>
<g fill="#AD6E45" fill-opacity="1.00" stroke="None">
<path d="
M 194.00 462.00 
C 190.47 464.60 184.28 461.59 188.00 457.00
C 191.08 456.48 190.64 461.23 194.00 460.00
C 193.59 454.69 185.59 453.73 184.01 458.99 C 182.43 464.25 192.69 467.91 194.00 462.00 Z"/>
</g>
<g fill="#B0744A" fill-opacity="1.00" stroke="None">
<path d="
M 204.00 457.00 
C 198.83 450.11 191.29 462.27 201.00 461.00
C 201.38 465.20 196.92 460.78 196.00 463.00
C 200.45 469.95 208.62 459.29 199.00 459.00
C 198.64 454.77 202.96 459.86 204.00 457.00 Z"/>
</g>
<g fill="#B2774D" fill-opacity="1.00" stroke="None">
<path d="
M 207.00 465.00 
C 207.00 465.00 207.51 464.93 208.00 465.00
C 215.16 467.62 216.90 457.28 209.00 459.00
C 208.64 454.77 212.96 459.86 214.00 457.00
C 208.10 450.29 202.03 462.67 212.00 462.00
C 210.87 464.24 203.68 459.98 207.00 465.00 Z"/>
</g>
<g fill="#B27043" fill-opacity="1.00" stroke="None">
<path d="
M 225.00 463.00 
C 223.17 464.37 216.37 461.45 219.00 457.00
C 222.73 455.68 222.45 461.12 226.00 460.00
C 225.71 455.36 218.48 452.97 216.33 458.33 C 214.18 463.69 221.57 467.88 225.00 463.00 Z"/>
</g>
<g fill="#B27345" fill-opacity="1.00" stroke="None">
<path d="
M 233.00 455.00 
C 233.00 455.00 232.35 455.23 232.00 455.00
C 231.50 456.76 229.28 455.72 228.00 456.00
C 228.72 458.92 225.94 465.84 231.00 465.00
C 231.36 462.49 229.57 456.90 234.00 458.00
C 234.36 460.51 232.57 466.10 237.00 465.00
C 236.56 461.48 238.88 454.20 233.00 455.00 Z"/>
</g>
<g fill="#AF7347" fill-opacity="1.00" stroke="None">
<path d="
M 248.00 459.00 
C 247.39 453.11 239.53 454.53 239.01 459.99 C 238.49 465.45 246.92 467.26 249.00 462.00
C 246.68 459.69 245.34 463.12 243.00 463.00
C 239.76 458.64 244.56 456.78 248.00 459.00 Z"/>
</g>
<g fill="#CB9165" fill-opacity="1.00" stroke="None">
<path d="
M 258.00 456.00 
C 259.00 456.01 260.00 455.99 261.00 456.00
C 257.75 456.53 256.45 463.59 261.03 462.97 C 265.60 462.36 259.64 455.32 265.00 456.00
C 265.00 459.00 265.00 462.00 265.00 465.00
C 268.16 462.89 264.59 457.46 265.00 455.00
C 262.70 456.06 260.14 454.42 258.00 456.00
M 262.00 458.00 
C 263.31 459.31 261.29 463.40 259.32 461.66 C 257.34 459.91 260.53 456.53 262.00 458.00 Z"/>
</g>
<g fill="#B27345" fill-opacity="1.00" stroke="None">
<path d="
M 286.00 455.00 
C 281.96 455.91 276.10 453.68 276.01 459.99 C 275.91 466.30 282.00 464.34 286.00 465.00
C 286.00 461.67 286.00 458.33 286.00 455.00
M 282.00 458.00 
C 284.03 458.92 282.88 463.74 280.30 462.64 C 277.72 461.54 279.61 456.91 282.00 458.00 Z"/>
</g>
<g fill="#B16F42" fill-opacity="1.00" stroke="None">
<path d="
M 295.00 465.00 
C 297.80 463.53 298.46 461.12 298.00 458.00
C 293.55 446.05 280.06 469.43 295.00 465.00
M 295.00 458.00 
C 296.32 459.32 294.32 464.46 291.77 462.21 C 289.22 459.97 292.96 455.96 295.00 458.00 Z"/>
</g>
<g fill="#B37345" fill-opacity="1.00" stroke="None">
<path d="
M 312.00 465.00 
C 314.44 463.01 315.23 456.79 312.00 455.00
C 308.97 455.63 306.97 455.68 304.00 455.00
C 304.00 459.67 304.00 464.33 304.00 469.00
C 307.68 466.87 307.34 466.29 312.00 465.00
M 310.00 458.00 
C 312.03 458.92 310.88 463.74 308.30 462.64 C 305.72 461.54 307.61 456.91 310.00 458.00 Z"/>
</g>
<g fill="#B87B4E" fill-opacity="1.00" stroke="None">
<path d="
M 327.00 455.00 
C 327.00 455.00 326.39 454.80 326.00 455.00
C 319.87 459.90 327.77 469.47 333.00 463.00
C 331.88 460.54 328.27 465.02 327.00 462.00
C 334.61 462.96 335.31 454.25 327.00 455.00 Z"/>
</g>
<g fill="#B27243" fill-opacity="1.00" stroke="None">
<path d="
M 349.00 455.00 
C 345.27 456.96 344.41 455.38 341.00 455.00
C 340.22 456.94 337.57 455.61 336.00 456.00
C 336.72 458.92 333.94 465.84 339.00 465.00
C 339.36 462.49 337.57 456.91 342.00 458.00
C 342.36 460.51 340.57 466.10 345.00 465.00
C 345.36 462.49 343.57 456.90 348.00 458.00
C 348.36 460.51 346.57 466.10 351.00 465.00
C 350.47 462.35 352.34 456.52 349.00 455.00 Z"/>
</g>
<g fill="#B7764A" fill-opacity="1.00" stroke="None">
<path d="
M 364.00 462.00 
C 360.17 465.08 361.79 457.19 360.00 456.00
C 355.05 458.41 358.89 466.96 365.00 465.00
C 366.76 464.02 371.06 459.89 367.75 456.26 C 364.43 452.63 364.86 460.80 364.00 462.00 Z"/>
</g>
<g fill="#B37648" fill-opacity="1.00" stroke="None">
<path d="
M 383.00 465.00 
C 390.92 455.63 376.66 454.36 370.00 455.00
C 370.00 458.33 370.00 461.67 370.00 465.00
C 374.52 465.95 372.64 460.61 373.00 458.00
C 377.59 457.55 374.77 463.40 377.00 465.00
C 380.62 465.04 378.39 460.22 379.00 458.00
C 383.59 457.55 380.77 463.40 383.00 465.00 Z"/>
</g>
<g fill="#A96837" fill-opacity="1.00" stroke="None">
<path d="
M 251.00 465.00 
C 251.35 465.23 252.65 465.23 253.00 465.00
C 252.50 462.15 254.08 458.10 252.00 456.00
C 250.91 457.52 250.04 462.84 251.00 465.00 Z"/>
</g>
<g fill="#AE6839" fill-opacity="1.00" stroke="None">
<path d="
M 265.00 465.00 
C 265.00 462.00 265.00 459.00 265.00 456.00
C 259.64 455.32 265.60 462.36 261.03 462.97 C 256.45 463.59 257.75 456.53 261.00 456.00
C 260.00 455.99 259.00 456.01 258.00 456.00
C 258.00 456.00 257.24 456.25 257.00 456.00
C 251.69 462.58 260.01 466.46 265.00 465.00 Z"/>
</g>
<g fill="#AF6F42" fill-opacity="1.00" stroke="None">
<path d="
M 323.00 456.00 
C 320.27 456.46 318.67 456.49 316.00 456.00
C 316.77 458.70 314.17 464.64 318.00 465.00
C 318.69 461.28 320.31 458.06 323.00 456.00 Z"/>
</g>
<g fill="#B07143" fill-opacity="1.00" stroke="None">
<path d="
M 353.00 465.00 
C 357.68 466.32 357.52 454.66 353.00 456.00
C 353.00 459.00 353.00 462.00 353.00 465.00 Z"/>
</g>
<g fill="#D9A06F" fill-opacity="1.00" stroke="None">
<path d="
M 194.00 462.00 
C 194.11 461.52 194.04 460.50 194.00 460.00
C 190.64 461.23 191.08 456.48 188.00 457.00
C 184.28 461.59 190.47 464.60 194.00 462.00 Z"/>
</g>
<g fill="#D89F72" fill-opacity="1.00" stroke="None">
<path d="
M 225.00 463.00 
C 225.81 461.85 226.11 461.76 226.00 460.00
C 222.45 461.12 222.73 455.68 219.00 457.00
C 216.37 461.45 223.17 464.37 225.00 463.00 Z"/>
</g>
<g fill="#EEC9A1" fill-opacity="1.00" stroke="None">
<path d="
M 172.00 458.00 
C 170.68 467.74 180.90 458.00 172.00 458.00 Z"/>
</g>
<g fill="#F5D9B5" fill-opacity="1.00" stroke="None">
<path d="
M 262.00 458.00 
C 260.53 456.53 257.34 459.91 259.32 461.66 C 261.29 463.40 263.31 459.31 262.00 458.00 Z"/>
</g>
<g fill="#F6CDA4" fill-opacity="1.00" stroke="None">
<path d="
M 282.00 458.00 
C 279.61 456.91 277.72 461.54 280.30 462.64 C 282.88 463.74 284.03 458.92 282.00 458.00 Z"/>
</g>
<g fill="#F1C89F" fill-opacity="1.00" stroke="None">
<path d="
M 295.00 458.00 
C 292.96 455.96 289.22 459.97 291.77 462.21 C 294.32 464.46 296.32 459.32 295.00 458.00 Z"/>
</g>
<g fill="#F6CCA6" fill-opacity="1.00" stroke="None">
<path d="
M 310.00 458.00 
C 307.61 456.91 305.72 461.54 308.30 462.64 C 310.88 463.74 312.03 458.92 310.00 458.00 Z"/>
</g>
<g fill="#0B3F5B" fill-opacity="1.00" stroke="None">
<path d="
M 183.00 787.00 
L 356.00 787.00
C 355.85 784.01 356.20 780.99 356.00 778.00
C 355.79 774.99 355.26 771.72 354.00 769.00
C 340.14 747.95 319.20 752.40 296.00 752.00 C 272.80 751.60 244.84 753.48 222.00 752.00 C 199.16 750.52 181.92 763.59 183.00 787.00
M 249.00 772.00 
C 249.63 770.52 249.80 760.71 253.00 764.00
C 253.48 769.29 252.83 771.73 257.00 774.00
C 255.00 774.00 253.00 774.00 251.00 774.00
C 250.51 773.94 249.43 774.18 249.00 774.00
C 245.80 772.67 243.63 771.32 240.00 774.00
C 242.01 769.51 241.98 761.84 247.00 760.00
C 244.59 764.20 248.61 767.78 249.00 772.00
M 224.00 767.00 
C 215.36 759.82 215.30 777.15 224.00 770.00
C 223.38 776.24 214.53 774.50 214.08 768.92 C 213.63 763.35 223.37 760.24 224.00 767.00
M 234.00 774.00 
C 231.05 772.65 227.74 770.74 225.00 774.00
C 224.46 769.90 227.30 766.77 228.00 763.00
C 232.73 763.88 232.39 770.38 234.00 774.00
M 241.00 763.00 
C 237.26 764.99 238.78 770.39 237.00 774.00
C 235.30 770.18 236.72 765.23 233.00 763.00
C 235.67 763.00 238.33 763.00 241.00 763.00
M 267.00 767.00 
C 269.55 763.42 276.01 761.08 277.00 767.00
C 272.34 763.43 269.72 766.31 271.00 772.00
C 278.59 772.24 267.70 766.65 277.00 768.00
C 278.75 774.56 269.66 775.82 268.00 770.00
C 265.97 775.46 257.82 775.09 257.03 768.97 C 256.23 762.86 266.12 760.66 267.00 767.00
M 285.00 763.00 
C 290.85 764.92 287.70 776.48 281.33 773.67 C 274.96 770.86 278.55 760.88 285.00 763.00
M 300.00 773.00 
C 298.23 775.03 294.52 773.53 292.00 774.00
C 294.17 770.26 300.53 762.67 292.00 767.00
C 291.54 762.62 299.19 761.42 298.97 766.03 C 298.76 770.64 294.14 771.50 300.00 773.00
M 306.00 763.00 
C 310.58 764.32 309.55 775.49 303.99 773.99 C 298.43 772.49 300.44 761.39 306.00 763.00
M 317.00 773.00 
C 315.23 775.03 311.52 773.53 309.00 774.00
C 309.24 770.22 315.86 769.95 314.00 765.00
C 308.68 769.97 309.88 760.75 315.22 763.78 C 320.57 766.81 310.75 771.89 317.00 773.00
M 325.00 763.00 
C 319.78 766.88 322.81 765.16 325.77 769.23 C 328.73 773.31 318.41 776.42 318.00 772.00
C 318.92 769.78 323.38 774.20 323.00 770.00
C 315.73 771.95 316.74 760.06 325.00 763.00 Z"/>
</g>
<g fill="#A4C0CB" fill-opacity="1.00" stroke="None">
<path d="
M 249.00 774.00 
C 248.75 773.75 249.06 772.49 249.00 772.00
C 248.61 767.78 244.59 764.20 247.00 760.00
C 241.98 761.84 242.01 769.51 240.00 774.00
C 243.63 771.32 245.80 772.67 249.00 774.00 Z"/>
</g>
<g fill="#ABCBD8" fill-opacity="1.00" stroke="None">
<path d="
M 224.00 767.00 
C 223.37 760.24 213.63 763.35 214.08 768.92 C 214.53 774.50 223.38 776.24 224.00 770.00
C 215.30 777.15 215.36 759.82 224.00 767.00 Z"/>
</g>
<g fill="#A7C3CE" fill-opacity="1.00" stroke="None">
<path d="
M 234.00 774.00 
C 232.39 770.38 232.73 763.88 228.00 763.00
C 227.30 766.77 224.46 769.90 225.00 774.00
C 227.74 770.74 231.05 772.65 234.00 774.00 Z"/>
</g>
<g fill="#ABCDDB" fill-opacity="1.00" stroke="None">
<path d="
M 241.00 763.00 
C 238.33 763.00 235.67 763.00 233.00 763.00
C 236.72 765.23 235.30 770.18 237.00 774.00
C 238.78 770.39 237.26 764.99 241.00 763.00 Z"/>
</g>
<g fill="#6C8998" fill-opacity="1.00" stroke="None">
<path d="
M 249.00 772.00 
C 249.06 772.49 248.75 773.75 249.00 774.00
C 249.43 774.18 250.51 773.94 251.00 774.00
C 251.23 773.66 251.00 773.00 251.00 773.00
C 251.00 770.31 250.12 765.82 252.00 764.00
C 252.26 763.75 253.00 764.00 253.00 764.00
C 249.80 760.71 249.63 770.52 249.00 772.00 Z"/>
</g>
<g fill="#AAC6D3" fill-opacity="1.00" stroke="None">
<path d="
M 267.00 767.00 
C 266.12 760.66 256.23 762.86 257.03 768.97 C 257.82 775.09 265.97 775.46 268.00 770.00
C 269.66 775.82 278.75 774.56 277.00 768.00
C 267.70 766.65 278.59 772.24 271.00 772.00
C 269.72 766.31 272.34 763.43 277.00 767.00
C 276.01 761.08 269.55 763.42 267.00 767.00
M 264.00 765.00 
C 266.77 766.54 264.74 773.48 261.32 771.66 C 257.90 769.84 260.68 763.16 264.00 765.00 Z"/>
</g>
<g fill="#B3D1DC" fill-opacity="1.00" stroke="None">
<path d="
M 285.00 763.00 
C 278.55 760.88 274.96 770.86 281.33 773.67 C 287.70 776.48 290.85 764.92 285.00 763.00
M 284.00 765.00 
C 287.51 766.07 286.24 773.35 281.99 771.99 C 277.74 770.63 280.89 764.05 284.00 765.00 Z"/>
</g>
<g fill="#A8C8D7" fill-opacity="1.00" stroke="None">
<path d="
M 300.00 773.00 
C 294.14 771.50 298.76 770.64 298.97 766.03 C 299.19 761.42 291.54 762.62 292.00 767.00
C 300.53 762.67 294.17 770.26 292.00 774.00
C 294.52 773.53 298.23 775.03 300.00 773.00 Z"/>
</g>
<g fill="#B3CFDC" fill-opacity="1.00" stroke="None">
<path d="
M 306.00 763.00 
C 300.44 761.39 298.43 772.49 303.99 773.99 C 309.55 775.49 310.58 764.32 306.00 763.00
M 305.00 765.00 
C 306.45 767.17 307.27 773.03 303.00 772.00
C 303.26 769.65 301.97 765.93 305.00 765.00 Z"/>
</g>
<g fill="#A8C4D1" fill-opacity="1.00" stroke="None">
<path d="
M 317.00 773.00 
C 310.75 771.89 320.57 766.81 315.22 763.78 C 309.88 760.75 308.68 769.97 314.00 765.00
C 315.86 769.95 309.24 770.22 309.00 774.00
C 311.52 773.53 315.23 775.03 317.00 773.00 Z"/>
</g>
<g fill="#A2C1CE" fill-opacity="1.00" stroke="None">
<path d="
M 325.00 763.00 
C 316.74 760.06 315.73 771.95 323.00 770.00
C 323.38 774.20 318.92 769.78 318.00 772.00
C 318.41 776.42 328.73 773.31 325.77 769.23 C 322.81 765.16 319.78 766.88 325.00 763.00 Z"/>
</g>
<g fill="#E2FAFD" fill-opacity="1.00" stroke="None">
<path d="
M 251.00 773.00 
C 253.57 772.72 251.75 766.81 252.00 764.00
C 250.12 765.82 251.00 770.31 251.00 773.00 Z"/>
</g>
<g fill="#90B6C6" fill-opacity="1.00" stroke="None">
<path d="
M 251.00 773.00 
C 251.00 773.00 251.23 773.66 251.00 774.00
C 253.00 774.00 255.00 774.00 257.00 774.00
C 252.83 771.73 253.48 769.29 253.00 764.00
C 253.00 764.00 252.26 763.75 252.00 764.00
C 251.75 766.81 253.57 772.72 251.00 773.00 Z"/>
</g>
<g fill="#1F4557" fill-opacity="1.00" stroke="None">
<path d="
M 264.00 765.00 
C 260.68 763.16 257.90 769.84 261.32 771.66 C 264.74 773.48 266.77 766.54 264.00 765.00 Z"/>
</g>
<g fill="#244B60" fill-opacity="1.00" stroke="None">
<path d="
M 284.00 765.00 
C 280.89 764.05 277.74 770.63 281.99 771.99 C 286.24 773.35 287.51 766.07 284.00 765.00 Z"/>
</g>
<g fill="#234758" fill-opacity="1.00" stroke="None">
<path d="
M 305.00 765.00 
C 301.97 765.93 303.26 769.65 303.00 772.00
C 307.27 773.03 306.45 767.17 305.00 765.00 Z"/>
</g>
<g fill="#D7DED6" fill-opacity="1.00" stroke="None">
<path d="
M 356.00 778.00 
C 356.43 780.40 357.75 783.92 357.00 787.00
L 358.00 787.00
C 359.22 779.85 357.56 774.41 354.00 769.00
C 355.26 771.72 355.79 774.99 356.00 778.00 Z"/>
</g>
<g fill="#5F7980" fill-opacity="1.00" stroke="None">
<path d="
M 356.00 787.00 
L 357.00 787.00
C 357.75 783.92 356.43 780.40 356.00 778.00
C 356.20 780.99 355.85 784.01 356.00 787.00 Z"/>
</g>
</svg>