<svg xmlns="http://www.w3.org/2000/svg" xmlns:v="https://svgstorm.com"
viewBox = "0 0 527 751"
width="527"
height="751">
<g fill="None" fill-opacity="0.0" stroke="#981B1E" stroke-opacity="1.00" stroke-width="0.3"><path d="
M 0.00 751.00 
L 527.00 751.00
L 527.00 0.00
L 262.00 0.00
C 262.01 8.67 261.99 17.33 262.00 26.00 C 262.01 34.67 261.99 43.33 262.00 52.00 C 262.01 60.67 261.97 69.32 262.00 78.00 C 262.03 86.68 261.93 95.30 262.00 104.00 C 262.07 112.71 261.86 122.36 262.00 131.00 C 262.14 139.64 261.67 148.58 262.00 157.00 C 262.33 165.42 261.27 174.97 262.00 183.00 C 262.73 191.03 260.37 201.79 262.00 209.00 C 263.63 216.21 258.07 230.23 263.00 235.00
C 263.32 234.76 264.00 235.00 264.00 235.00
C 268.41 228.23 275.67 224.47 283.08 221.08 C 290.48 217.68 305.04 227.15 297.00 236.00
C 323.67 236.00 350.33 236.00 377.00 236.00
C 379.95 238.06 378.00 252.26 378.00 256.00
C 379.54 255.63 380.40 257.43 382.00 257.00
C 382.22 266.87 381.67 277.38 386.00 285.00
C 381.25 292.75 382.53 303.97 382.00 314.00 C 381.47 324.03 382.29 337.02 382.00 347.00 C 381.71 356.98 381.88 370.26 382.78 379.22 C 383.68 388.18 380.75 395.27 381.59 402.75 C 382.43 410.24 375.29 419.70 379.00 427.00
C 375.02 433.33 370.99 440.63 364.25 447.25 C 357.51 453.86 354.45 461.28 346.23 466.23 C 338.01 471.18 331.83 476.68 322.75 479.75 C 313.68 482.83 303.37 486.33 293.33 487.33 C 283.29 488.33 268.44 490.11 258.33 488.67 C 248.22 487.23 238.13 486.94 228.78 483.22 C 219.42 479.50 209.36 478.32 204.00 470.00
C 197.96 471.64 192.52 465.94 189.00 462.00
C 169.17 448.54 157.41 434.82 150.01 410.99 C 142.61 387.16 145.29 353.49 145.00 326.00 C 144.71 298.51 145.21 264.12 145.00 236.00
C 171.67 236.00 198.33 236.00 225.00 236.00
C 218.23 226.46 231.21 218.39 239.67 221.33 C 248.13 224.27 252.49 230.60 260.00 235.00
C 260.00 156.67 260.00 78.33 260.00 0.00
L 0.00 0.00
L 0.00 751.00
M 184.00 523.00 
C 186.19 513.77 203.73 508.56 204.00 520.00 C 204.27 531.44 192.57 536.68 183.00 536.00
C 184.15 538.90 178.84 555.60 174.33 551.67 C 169.81 547.73 174.82 536.63 177.92 531.92 C 181.03 527.22 180.83 516.90 180.00 512.00
C 182.83 514.76 181.15 520.28 184.00 523.00
M 301.00 528.00 
C 298.09 527.41 295.94 529.59 293.00 529.00
C 288.32 535.08 285.99 553.12 298.00 544.00
C 295.99 539.50 302.24 525.86 307.74 531.26 C 313.25 536.65 295.68 542.78 300.78 547.22 C 305.88 551.67 312.07 540.65 315.00 538.00
C 314.48 544.99 302.95 555.57 298.00 546.00
C 293.52 550.21 287.49 548.85 286.00 543.00
C 285.59 546.46 277.93 553.53 276.08 547.92 C 274.24 542.30 280.52 537.69 279.00 532.00
C 271.22 533.86 270.62 544.44 265.00 549.00
C 265.59 543.48 268.69 538.64 269.00 533.00
C 262.64 536.36 255.40 558.46 247.00 546.00
C 241.40 546.12 233.41 555.94 231.00 546.00
C 227.11 549.99 219.75 552.22 217.00 546.00
C 212.59 550.48 204.75 550.62 206.00 544.00 C 207.25 537.38 214.39 535.68 207.00 532.00
C 203.73 540.29 199.38 550.98 190.00 554.00
C 197.28 547.37 207.10 537.26 205.00 526.00
C 209.92 524.91 206.37 533.04 212.00 532.00
C 211.56 538.34 203.46 550.03 213.22 546.22 C 222.99 542.42 214.35 528.77 227.00 530.00
C 231.54 538.33 218.91 538.52 219.08 545.08 C 219.25 551.64 228.76 546.65 230.92 541.92 C 233.08 537.19 236.87 529.94 240.00 527.00
C 237.60 533.40 240.33 539.64 241.00 546.00
C 250.60 546.33 242.29 532.37 250.75 530.75 C 259.21 529.14 253.98 538.03 249.25 543.25 C 244.52 548.47 260.19 548.32 260.75 540.75 C 261.32 533.19 270.91 527.67 271.00 537.00
C 271.22 533.49 279.33 526.54 280.92 532.08 C 282.50 537.63 276.57 542.34 278.00 548.00
C 285.07 546.69 294.18 527.99 283.00 528.00
C 290.68 528.87 290.70 521.36 295.00 517.00
C 297.23 522.06 292.74 528.31 301.00 528.00
M 163.00 518.00 
C 165.38 520.82 162.92 523.97 163.00 527.00
C 168.19 521.24 164.74 530.69 169.00 531.00
C 170.09 535.02 163.88 535.96 165.00 540.00
C 163.68 537.59 160.48 537.86 158.00 537.00
C 156.56 532.68 161.82 535.19 163.00 533.00
C 160.60 533.05 158.96 531.03 157.00 530.00
C 163.43 527.40 157.53 524.91 155.00 521.00
C 158.52 520.14 160.35 520.36 163.00 518.00
M 288.00 570.00 
C 290.09 561.61 306.60 552.06 305.00 564.00 C 303.40 575.94 295.30 582.95 303.00 594.00
C 290.41 586.24 304.87 570.37 303.00 559.00
C 289.24 562.79 286.15 580.06 277.00 589.00
C 280.92 578.55 282.05 574.94 286.93 563.93 C 291.80 552.92 275.95 549.55 275.00 563.00
C 278.89 563.91 280.63 559.31 284.00 559.00
C 281.93 565.97 271.37 565.92 273.78 559.78 C 276.19 553.64 281.69 549.21 287.69 552.31 C 293.70 555.41 285.83 566.46 288.00 570.00
M 371.00 576.00 
C 369.24 582.47 359.59 595.00 354.00 585.00
C 351.14 586.59 347.09 589.27 344.26 586.74 C 341.42 584.21 335.64 591.88 335.00 585.00
C 330.04 588.59 325.14 588.74 324.00 582.00
C 323.51 585.87 315.83 591.16 315.00 585.00
C 305.19 592.78 305.61 582.18 308.31 575.31 C 311.00 568.43 322.95 565.70 320.07 574.07 C 317.20 582.45 316.12 588.20 322.75 581.75 C 329.38 575.31 329.07 566.58 322.00 566.00
C 329.68 566.87 329.70 559.36 334.00 555.00
C 336.16 557.22 334.74 562.02 333.00 564.00
C 334.33 566.50 338.74 563.43 340.00 566.00
C 337.73 567.72 334.66 566.73 332.00 567.00
C 330.10 573.35 324.41 579.94 328.00 587.00
C 337.55 582.94 332.55 573.98 342.25 569.25 C 351.94 564.52 348.78 580.49 345.00 586.00
C 355.27 587.47 353.25 575.95 356.33 570.33 C 359.41 564.71 358.58 556.30 365.75 552.75 C 372.93 549.20 367.67 562.81 366.22 568.22 C 364.78 573.64 355.62 578.15 356.79 584.23 C 357.95 590.31 369.31 579.71 371.00 576.00
M 209.00 558.00 
C 216.12 556.45 217.59 563.22 215.00 569.00
C 212.40 567.22 216.27 558.33 210.97 559.03 C 205.67 559.72 209.84 567.04 207.00 569.00
C 205.22 564.55 204.78 558.92 209.00 558.00
M 225.00 557.00 
C 231.58 558.69 227.70 572.01 221.00 569.00 C 214.30 565.98 218.90 555.43 225.00 557.00
M 244.00 561.00 
C 241.75 560.43 237.34 556.77 238.00 562.00
C 249.76 560.55 239.79 575.98 236.00 566.00
C 238.52 567.37 242.73 569.14 242.00 564.00
C 229.99 565.38 241.31 550.14 244.00 561.00
M 248.00 564.00 
C 248.24 568.72 252.31 567.62 255.00 566.00
C 252.34 574.30 240.50 564.47 247.75 558.75 C 255.01 553.04 259.38 568.05 248.00 564.00
M 266.00 558.00 
C 268.16 560.76 266.45 565.49 267.00 569.00
C 258.90 572.10 255.41 563.80 259.00 558.00
C 258.86 568.44 266.14 568.31 266.00 558.00 Z"/>
</g>
<g fill="None" fill-opacity="0.0" stroke="#E6A295" stroke-opacity="1.00" stroke-width="0.3"><path d="
M 189.00 462.00 
C 221.94 484.37 275.41 483.82 311.22 472.22 C 347.04 460.62 377.00 428.18 377.00 390.00
C 377.00 338.67 377.00 287.33 377.00 236.00
C 350.33 236.00 323.67 236.00 297.00 236.00
C 305.04 227.15 290.48 217.68 283.08 221.08 C 275.67 224.47 268.41 228.23 264.00 235.00
C 267.23 236.28 270.40 237.49 274.00 238.00
C 272.27 239.23 269.00 239.91 267.00 239.00
C 271.21 241.93 269.77 253.78 278.00 253.00
C 275.29 249.24 270.44 245.53 270.00 240.00
C 304.87 237.64 340.43 237.78 376.00 238.00
C 377.12 274.42 374.51 320.55 376.00 356.00 C 377.49 391.45 374.02 423.35 349.25 447.25 C 324.48 471.14 295.21 478.00 262.00 478.00 C 228.79 478.00 199.17 471.44 174.25 447.75 C 149.33 424.06 145.65 392.51 147.00 357.00 C 148.35 321.49 145.99 274.55 147.00 238.00
C 182.22 237.81 217.44 237.60 252.00 240.00
C 252.06 245.70 246.46 249.14 244.00 253.00
C 253.61 253.31 250.50 237.11 260.00 239.00
C 260.09 242.21 253.91 248.40 261.03 248.97 C 268.15 249.54 262.69 242.10 262.00 239.00
C 263.00 239.00 264.00 239.00 265.00 239.00
C 259.50 237.48 253.42 240.36 248.00 238.00
C 253.17 236.07 258.87 235.62 263.00 235.00
C 258.07 230.23 263.63 216.21 262.00 209.00 C 260.37 201.79 262.73 191.03 262.00 183.00 C 261.27 174.97 262.33 165.42 262.00 157.00 C 261.67 148.58 262.14 139.64 262.00 131.00 C 261.86 122.36 262.07 112.71 262.00 104.00 C 261.93 95.30 262.03 86.68 262.00 78.00 C 261.97 69.32 262.01 60.67 262.00 52.00 C 261.99 43.33 262.01 34.67 262.00 26.00 C 261.99 17.33 262.01 8.67 262.00 0.00
L 260.00 0.00
C 260.00 78.33 260.00 156.67 260.00 235.00
C 252.49 230.60 248.13 224.27 239.67 221.33 C 231.21 218.39 218.23 226.46 225.00 236.00
C 198.33 236.00 171.67 236.00 145.00 236.00
C 145.21 264.12 144.71 298.51 145.00 326.00 C 145.29 353.49 142.61 387.16 150.01 410.99 C 157.41 434.82 169.17 448.54 189.00 462.00
M 255.00 236.00 
C 246.57 233.33 234.75 240.11 227.26 234.74 C 219.76 229.37 231.89 219.28 238.07 222.93 C 244.25 226.57 252.26 228.41 255.00 236.00
M 267.00 236.00 
C 269.64 228.81 277.34 227.13 283.08 223.08 C 288.81 219.02 302.40 228.19 295.23 234.23 C 288.06 240.27 275.50 233.38 267.00 236.00
M 263.00 244.00 
C 263.55 252.07 254.89 243.51 263.00 244.00 Z"/>
</g>
<g fill="None" fill-opacity="0.0" stroke="#982424" stroke-opacity="1.00" stroke-width="0.3"><path d="
M 255.00 236.00 
C 252.26 228.41 244.25 226.57 238.07 222.93 C 231.89 219.28 219.76 229.37 227.26 234.74 C 234.75 240.11 246.57 233.33 255.00 236.00 Z"/>
</g>
<g fill="None" fill-opacity="0.0" stroke="#982423" stroke-opacity="1.00" stroke-width="0.3"><path d="
M 267.00 236.00 
C 275.50 233.38 288.06 240.27 295.23 234.23 C 302.40 228.19 288.81 219.02 283.08 223.08 C 277.34 227.13 269.64 228.81 267.00 236.00 Z"/>
</g>
<g fill="None" fill-opacity="0.0" stroke="#F8D6BE" stroke-opacity="1.00" stroke-width="0.3"><path d="
M 265.00 239.00 
C 265.46 239.13 266.53 238.89 267.00 239.00
C 269.00 239.91 272.27 239.23 274.00 238.00
C 270.40 237.49 267.23 236.28 264.00 235.00
C 264.00 235.00 263.32 234.76 263.00 235.00
C 258.87 235.62 253.17 236.07 248.00 238.00
C 253.42 240.36 259.50 237.48 265.00 239.00 Z"/>
</g>
<g fill="None" fill-opacity="0.0" stroke="#BF887C" stroke-opacity="1.00" stroke-width="0.3"><path d="
M 377.00 390.00 
C 381.19 346.76 378.00 300.13 378.00 256.00
C 378.00 252.26 379.95 238.06 377.00 236.00
C 377.00 287.33 377.00 338.67 377.00 390.00 Z"/>
</g>
<g fill="None" fill-opacity="0.0" stroke="#991C22" stroke-opacity="1.00" stroke-width="0.3"><path d="
M 267.00 239.00 
C 266.53 238.89 265.46 239.13 265.00 239.00
C 264.00 239.00 263.00 239.00 262.00 239.00
C 262.69 242.10 268.15 249.54 261.03 248.97 C 253.91 248.40 260.09 242.21 260.00 239.00
C 250.50 237.11 253.61 253.31 244.00 253.00
C 246.46 249.14 252.06 245.70 252.00 240.00
C 217.44 237.60 182.22 237.81 147.00 238.00
C 145.99 274.55 148.35 321.49 147.00 357.00 C 145.65 392.51 149.33 424.06 174.25 447.75 C 199.17 471.44 228.79 478.00 262.00 478.00 C 295.21 478.00 324.48 471.14 349.25 447.25 C 374.02 423.35 377.49 391.45 376.00 356.00 C 374.51 320.55 377.12 274.42 376.00 238.00
C 340.43 237.78 304.87 237.64 270.00 240.00
C 270.44 245.53 275.29 249.24 278.00 253.00
C 269.77 253.78 271.21 241.93 267.00 239.00
M 214.00 333.00 
C 215.13 333.99 218.66 332.25 220.00 333.00
C 220.00 336.00 220.00 339.00 220.00 342.00
C 208.70 338.48 210.37 362.76 220.00 363.00
C 220.00 366.33 220.00 369.67 220.00 373.00
C 193.74 373.85 202.10 342.29 201.00 325.00
C 204.39 320.15 219.42 324.91 214.00 333.00
M 330.00 342.00 
C 328.87 342.99 325.34 341.25 324.00 342.00
C 325.37 348.76 320.22 360.53 329.00 363.00
C 330.29 364.33 333.29 370.79 330.00 373.00
C 323.60 377.29 313.53 365.82 312.00 361.00
C 308.87 351.11 313.28 342.86 311.00 332.00 C 308.72 321.14 327.91 320.33 324.00 333.00
C 330.77 330.31 333.05 337.50 330.00 342.00
M 238.00 358.00 
C 240.43 364.58 249.64 364.63 250.92 356.92 C 252.21 349.22 250.12 340.78 251.00 333.00
C 255.00 333.00 259.00 333.00 263.00 333.00
C 263.78 350.03 266.64 373.22 244.00 373.00 C 221.36 372.78 224.54 350.02 225.00 333.00
C 229.00 333.00 233.00 333.00 237.00 333.00
C 239.92 335.04 237.14 341.56 238.00 345.00 C 238.86 348.44 237.20 354.37 238.00 358.00
M 281.00 359.00 
C 283.77 364.91 293.89 364.59 293.97 356.97 C 294.06 349.36 293.96 340.71 294.00 333.00
C 298.00 333.00 302.00 333.00 306.00 333.00
C 306.74 349.97 309.61 373.09 287.00 373.00 C 264.39 372.91 267.51 349.97 268.00 333.00
C 272.00 333.00 276.00 333.00 280.00 333.00
C 283.06 335.14 279.99 341.38 281.00 345.00 C 282.01 348.62 279.87 355.23 281.00 359.00 Z"/>
</g>
<g fill="None" fill-opacity="0.0" stroke="#A04E42" stroke-opacity="1.00" stroke-width="0.3"><path d="
M 263.00 244.00 
C 254.89 243.51 263.55 252.07 263.00 244.00 Z"/>
</g>
<g fill="None" fill-opacity="0.0" stroke="#6A1415" stroke-opacity="1.00" stroke-width="0.3"><path d="
M 377.00 390.00 
C 377.00 428.18 347.04 460.62 311.22 472.22 C 275.41 483.82 221.94 484.37 189.00 462.00
C 192.52 465.94 197.96 471.64 204.00 470.00
C 209.36 478.32 219.42 479.50 228.78 483.22 C 238.13 486.94 248.22 487.23 258.33 488.67 C 268.44 490.11 283.29 488.33 293.33 487.33 C 303.37 486.33 313.68 482.83 322.75 479.75 C 331.83 476.68 338.01 471.18 346.23 466.23 C 354.45 461.28 357.51 453.86 364.25 447.25 C 370.99 440.63 375.02 433.33 379.00 427.00
C 375.29 419.70 382.43 410.24 381.59 402.75 C 380.75 395.27 383.68 388.18 382.78 379.22 C 381.88 370.26 381.71 356.98 382.00 347.00 C 382.29 337.02 381.47 324.03 382.00 314.00 C 382.53 303.97 381.25 292.75 386.00 285.00
C 381.67 277.38 382.22 266.87 382.00 257.00
C 380.40 257.43 379.54 255.63 378.00 256.00
C 378.00 300.13 381.19 346.76 377.00 390.00 Z"/>
</g>
<g fill="None" fill-opacity="0.0" stroke="#BE766A" stroke-opacity="1.00" stroke-width="0.3"><path d="
M 201.00 325.00 
C 205.00 325.00 209.00 325.00 213.00 325.00
C 213.56 327.52 211.81 331.30 214.00 333.00
C 219.42 324.91 204.39 320.15 201.00 325.00 Z"/>
</g>
<g fill="None" fill-opacity="0.0" stroke="#D68E82" stroke-opacity="1.00" stroke-width="0.3"><path d="
M 312.00 361.00 
C 309.92 349.37 313.56 336.72 312.00 325.00
C 315.67 325.00 319.33 325.00 323.00 325.00
C 321.94 330.26 323.37 336.05 330.00 334.00
C 330.00 336.67 330.00 339.33 330.00 342.00
C 333.05 337.50 330.77 330.31 324.00 333.00
C 327.91 320.33 308.72 321.14 311.00 332.00 C 313.28 342.86 308.87 351.11 312.00 361.00 Z"/>
</g>
<g fill="None" fill-opacity="0.0" stroke="#F5DEC3" stroke-opacity="1.00" stroke-width="0.3"><path d="
M 214.00 333.00 
C 211.81 331.30 213.56 327.52 213.00 325.00
C 209.00 325.00 205.00 325.00 201.00 325.00
C 202.10 342.29 193.74 373.85 220.00 373.00
C 220.00 369.67 220.00 366.33 220.00 363.00
C 210.37 362.76 208.70 338.48 220.00 342.00
C 220.00 339.00 220.00 336.00 220.00 333.00
C 218.66 332.25 215.13 333.99 214.00 333.00 Z"/>
</g>
<g fill="None" fill-opacity="0.0" stroke="#F4E0C4" stroke-opacity="1.00" stroke-width="0.3"><path d="
M 312.00 361.00 
C 313.53 365.82 323.60 377.29 330.00 373.00
C 329.60 369.71 330.95 365.86 329.00 363.00
C 320.22 360.53 325.37 348.76 324.00 342.00
C 325.34 341.25 328.87 342.99 330.00 342.00
C 330.00 339.33 330.00 336.67 330.00 334.00
C 323.37 336.05 321.94 330.26 323.00 325.00
C 319.33 325.00 315.67 325.00 312.00 325.00
C 313.56 336.72 309.92 349.37 312.00 361.00 Z"/>
</g>
<g fill="None" fill-opacity="0.0" stroke="#F5DEC3" stroke-opacity="1.00" stroke-width="0.3"><path d="
M 238.00 358.00 
C 235.31 350.72 237.93 341.07 237.00 333.00
C 233.00 333.00 229.00 333.00 225.00 333.00
C 224.54 350.02 221.36 372.78 244.00 373.00 C 266.64 373.22 263.78 350.03 263.00 333.00
C 259.00 333.00 255.00 333.00 251.00 333.00
C 250.12 340.78 252.21 349.22 250.92 356.92 C 249.64 364.63 240.43 364.58 238.00 358.00 Z"/>
</g>
<g fill="None" fill-opacity="0.0" stroke="#BD7A6C" stroke-opacity="1.00" stroke-width="0.3"><path d="
M 238.00 358.00 
C 237.20 354.37 238.86 348.44 238.00 345.00 C 237.14 341.56 239.92 335.04 237.00 333.00
C 237.93 341.07 235.31 350.72 238.00 358.00 Z"/>
</g>
<g fill="None" fill-opacity="0.0" stroke="#F4DEC3" stroke-opacity="1.00" stroke-width="0.3"><path d="
M 281.00 359.00 
C 277.61 351.75 281.46 341.13 280.00 333.00
C 276.00 333.00 272.00 333.00 268.00 333.00
C 267.51 349.97 264.39 372.91 287.00 373.00 C 309.61 373.09 306.74 349.97 306.00 333.00
C 302.00 333.00 298.00 333.00 294.00 333.00
C 293.96 340.71 294.06 349.36 293.97 356.97 C 293.89 364.59 283.77 364.91 281.00 359.00 Z"/>
</g>
<g fill="None" fill-opacity="0.0" stroke="#D89186" stroke-opacity="1.00" stroke-width="0.3"><path d="
M 281.00 359.00 
C 279.87 355.23 282.01 348.62 281.00 345.00 C 279.99 341.38 283.06 335.14 280.00 333.00
C 281.46 341.13 277.61 351.75 281.00 359.00 Z"/>
</g>
<g fill="None" fill-opacity="0.0" stroke="#CB7870" stroke-opacity="1.00" stroke-width="0.3"><path d="
M 330.00 373.00 
C 333.29 370.79 330.29 364.33 329.00 363.00
C 330.95 365.86 329.60 369.71 330.00 373.00 Z"/>
</g>
<g fill="None" fill-opacity="0.0" stroke="#E49589" stroke-opacity="1.00" stroke-width="0.3"><path d="
M 184.00 523.00 
C 181.15 520.28 182.83 514.76 180.00 512.00
C 180.83 516.90 181.03 527.22 177.92 531.92 C 174.82 536.63 169.81 547.73 174.33 551.67 C 178.84 555.60 184.15 538.90 183.00 536.00
C 192.57 536.68 204.27 531.44 204.00 520.00 C 203.73 508.56 186.19 513.77 184.00 523.00
M 183.00 534.00 
C 179.13 526.70 194.77 508.66 201.74 516.26 C 208.72 523.85 191.00 538.64 183.00 534.00
M 176.00 551.00 
C 172.33 544.33 178.10 537.30 180.00 531.00
C 182.49 537.28 180.10 545.57 176.00 551.00 Z"/>
</g>
<g fill="None" fill-opacity="0.0" stroke="#972423" stroke-opacity="1.00" stroke-width="0.3"><path d="
M 183.00 534.00 
C 191.00 538.64 208.72 523.85 201.74 516.26 C 194.77 508.66 179.13 526.70 183.00 534.00 Z"/>
</g>
<g fill="None" fill-opacity="0.0" stroke="#E3988B" stroke-opacity="1.00" stroke-width="0.3"><path d="
M 301.00 528.00 
C 292.74 528.31 297.23 522.06 295.00 517.00
C 290.70 521.36 290.68 528.87 283.00 528.00
C 294.18 527.99 285.07 546.69 278.00 548.00
C 276.57 542.34 282.50 537.63 280.92 532.08 C 279.33 526.54 271.22 533.49 271.00 537.00
C 270.91 527.67 261.32 533.19 260.75 540.75 C 260.19 548.32 244.52 548.47 249.25 543.25 C 253.98 538.03 259.21 529.14 250.75 530.75 C 242.29 532.37 250.60 546.33 241.00 546.00
C 240.33 539.64 237.60 533.40 240.00 527.00
C 236.87 529.94 233.08 537.19 230.92 541.92 C 228.76 546.65 219.25 551.64 219.08 545.08 C 218.91 538.52 231.54 538.33 227.00 530.00
C 214.35 528.77 222.99 542.42 213.22 546.22 C 203.46 550.03 211.56 538.34 212.00 532.00
C 206.37 533.04 209.92 524.91 205.00 526.00
C 207.10 537.26 197.28 547.37 190.00 554.00
C 199.38 550.98 203.73 540.29 207.00 532.00
C 214.39 535.68 207.25 537.38 206.00 544.00 C 204.75 550.62 212.59 550.48 217.00 546.00
C 219.75 552.22 227.11 549.99 231.00 546.00
C 233.41 555.94 241.40 546.12 247.00 546.00
C 255.40 558.46 262.64 536.36 269.00 533.00
C 268.69 538.64 265.59 543.48 265.00 549.00
C 270.62 544.44 271.22 533.86 279.00 532.00
C 280.52 537.69 274.24 542.30 276.08 547.92 C 277.93 553.53 285.59 546.46 286.00 543.00
C 287.49 548.85 293.52 550.21 298.00 546.00
C 302.95 555.57 314.48 544.99 315.00 538.00
C 312.07 540.65 305.88 551.67 300.78 547.22 C 295.68 542.78 313.25 536.65 307.74 531.26 C 302.24 525.86 295.99 539.50 298.00 544.00
C 285.99 553.12 288.32 535.08 293.00 529.00
C 295.94 529.59 298.09 527.41 301.00 528.00
M 225.00 531.00 
C 227.27 534.59 222.76 538.05 221.00 541.00
C 218.16 537.82 221.72 532.67 225.00 531.00
M 254.00 532.00 
C 254.94 536.13 250.76 538.86 248.00 541.00
C 248.10 537.41 249.82 532.47 254.00 532.00
M 306.00 532.00 
C 306.30 535.87 302.99 539.04 300.00 541.00
C 300.56 537.62 301.13 531.38 306.00 532.00
M 237.00 536.00 
C 238.28 539.15 239.18 542.45 239.00 546.00
C 236.32 546.54 234.22 545.08 232.00 544.00
C 234.01 541.46 234.34 537.76 237.00 536.00 Z"/>
</g>
<g fill="None" fill-opacity="0.0" stroke="#D2847C" stroke-opacity="1.00" stroke-width="0.3"><path d="
M 163.00 518.00 
C 160.35 520.36 158.52 520.14 155.00 521.00
C 157.53 524.91 163.43 527.40 157.00 530.00
C 158.96 531.03 160.60 533.05 163.00 533.00
C 161.82 535.19 156.56 532.68 158.00 537.00
C 160.48 537.86 163.68 537.59 165.00 540.00
C 163.88 535.96 170.09 535.02 169.00 531.00
C 164.74 530.69 168.19 521.24 163.00 527.00
C 162.92 523.97 165.38 520.82 163.00 518.00 Z"/>
</g>
<g fill="None" fill-opacity="0.0" stroke="#932D28" stroke-opacity="1.00" stroke-width="0.3"><path d="
M 176.00 551.00 
C 180.10 545.57 182.49 537.28 180.00 531.00
C 178.10 537.30 172.33 544.33 176.00 551.00 Z"/>
</g>
<g fill="None" fill-opacity="0.0" stroke="#983630" stroke-opacity="1.00" stroke-width="0.3"><path d="
M 225.00 531.00 
C 221.72 532.67 218.16 537.82 221.00 541.00
C 222.76 538.05 227.27 534.59 225.00 531.00 Z"/>
</g>
<g fill="None" fill-opacity="0.0" stroke="#96302B" stroke-opacity="1.00" stroke-width="0.3"><path d="
M 254.00 532.00 
C 249.82 532.47 248.10 537.41 248.00 541.00
C 250.76 538.86 254.94 536.13 254.00 532.00 Z"/>
</g>
<g fill="None" fill-opacity="0.0" stroke="#93322C" stroke-opacity="1.00" stroke-width="0.3"><path d="
M 306.00 532.00 
C 301.13 531.38 300.56 537.62 300.00 541.00
C 302.99 539.04 306.30 535.87 306.00 532.00 Z"/>
</g>
<g fill="None" fill-opacity="0.0" stroke="#95312C" stroke-opacity="1.00" stroke-width="0.3"><path d="
M 237.00 536.00 
C 234.34 537.76 234.01 541.46 232.00 544.00
C 234.22 545.08 236.32 546.54 239.00 546.00
C 239.18 542.45 238.28 539.15 237.00 536.00 Z"/>
</g>
<g fill="None" fill-opacity="0.0" stroke="#E49589" stroke-opacity="1.00" stroke-width="0.3"><path d="
M 288.00 570.00 
C 285.83 566.46 293.70 555.41 287.69 552.31 C 281.69 549.21 276.19 553.64 273.78 559.78 C 271.37 565.92 281.93 565.97 284.00 559.00
C 280.63 559.31 278.89 563.91 275.00 563.00
C 275.95 549.55 291.80 552.92 286.93 563.93 C 282.05 574.94 280.92 578.55 277.00 589.00
C 286.15 580.06 289.24 562.79 303.00 559.00
C 304.87 570.37 290.41 586.24 303.00 594.00
C 295.30 582.95 303.40 575.94 305.00 564.00 C 306.60 552.06 290.09 561.61 288.00 570.00 Z"/>
</g>
<g fill="None" fill-opacity="0.0" stroke="#E3978A" stroke-opacity="1.00" stroke-width="0.3"><path d="
M 371.00 576.00 
C 369.31 579.71 357.95 590.31 356.79 584.23 C 355.62 578.15 364.78 573.64 366.22 568.22 C 367.67 562.81 372.93 549.20 365.75 552.75 C 358.58 556.30 359.41 564.71 356.33 570.33 C 353.25 575.95 355.27 587.47 345.00 586.00
C 348.78 580.49 351.94 564.52 342.25 569.25 C 332.55 573.98 337.55 582.94 328.00 587.00
C 324.41 579.94 330.10 573.35 332.00 567.00
C 334.66 566.73 337.73 567.72 340.00 566.00
C 338.74 563.43 334.33 566.50 333.00 564.00
C 334.74 562.02 336.16 557.22 334.00 555.00
C 329.70 559.36 329.68 566.87 322.00 566.00
C 329.07 566.58 329.38 575.31 322.75 581.75 C 316.12 588.20 317.20 582.45 320.07 574.07 C 322.95 565.70 311.00 568.43 308.31 575.31 C 305.61 582.18 305.19 592.78 315.00 585.00
C 315.83 591.16 323.51 585.87 324.00 582.00
C 325.14 588.74 330.04 588.59 335.00 585.00
C 335.64 591.88 341.42 584.21 344.26 586.74 C 347.09 589.27 351.14 586.59 354.00 585.00
C 359.59 595.00 369.24 582.47 371.00 576.00
M 368.00 553.00 
C 369.09 561.69 363.49 570.97 358.00 578.00
C 356.64 569.89 361.44 558.91 368.00 553.00
M 319.00 570.00 
C 316.06 574.85 315.82 585.08 308.00 586.00
C 306.85 579.18 311.51 570.00 319.00 570.00
M 348.00 570.00 
C 345.29 575.34 343.92 584.13 337.00 587.00
C 334.24 580.44 340.66 570.11 348.00 570.00 Z"/>
</g>
<g fill="None" fill-opacity="0.0" stroke="#952B28" stroke-opacity="1.00" stroke-width="0.3"><path d="
M 368.00 553.00 
C 361.44 558.91 356.64 569.89 358.00 578.00
C 363.49 570.97 369.09 561.69 368.00 553.00 Z"/>
</g>
<g fill="None" fill-opacity="0.0" stroke="#B5685C" stroke-opacity="1.00" stroke-width="0.3"><path d="
M 207.00 569.00 
C 205.84 566.95 207.65 556.47 209.00 558.00
C 204.78 558.92 205.22 564.55 207.00 569.00 Z"/>
</g>
<g fill="None" fill-opacity="0.0" stroke="#EBA497" stroke-opacity="1.00" stroke-width="0.3"><path d="
M 209.00 558.00 
C 207.65 556.47 205.84 566.95 207.00 569.00
C 209.84 567.04 205.67 559.72 210.97 559.03 C 216.27 558.33 212.40 567.22 215.00 569.00
C 217.59 563.22 216.12 556.45 209.00 558.00 Z"/>
</g>
<g fill="None" fill-opacity="0.0" stroke="#E89D91" stroke-opacity="1.00" stroke-width="0.3"><path d="
M 225.00 557.00 
C 218.90 555.43 214.30 565.98 221.00 569.00 C 227.70 572.01 231.58 558.69 225.00 557.00
M 225.00 559.00 
C 228.57 560.55 226.62 569.34 222.30 567.64 C 217.99 565.95 219.53 556.62 225.00 559.00 Z"/>
</g>
<g fill="None" fill-opacity="0.0" stroke="#E5978B" stroke-opacity="1.00" stroke-width="0.3"><path d="
M 244.00 561.00 
C 241.31 550.14 229.99 565.38 242.00 564.00
C 242.73 569.14 238.52 567.37 236.00 566.00
C 239.79 575.98 249.76 560.55 238.00 562.00
C 237.34 556.77 241.75 560.43 244.00 561.00 Z"/>
</g>
<g fill="None" fill-opacity="0.0" stroke="#E2998B" stroke-opacity="1.00" stroke-width="0.3"><path d="
M 248.00 564.00 
C 259.38 568.05 255.01 553.04 247.75 558.75 C 240.50 564.47 252.34 574.30 255.00 566.00
C 252.31 567.62 248.24 568.72 248.00 564.00
M 254.00 562.00 
C 243.85 564.56 251.72 554.38 254.00 562.00 Z"/>
</g>
<g fill="None" fill-opacity="0.0" stroke="#E49589" stroke-opacity="1.00" stroke-width="0.3"><path d="
M 266.00 558.00 
C 266.14 568.31 258.86 568.44 259.00 558.00
C 255.41 563.80 258.90 572.10 267.00 569.00
C 266.45 565.49 268.16 560.76 266.00 558.00 Z"/>
</g>
<g fill="None" fill-opacity="0.0" stroke="#99312C" stroke-opacity="1.00" stroke-width="0.3"><path d="
M 225.00 559.00 
C 219.53 556.62 217.99 565.95 222.30 567.64 C 226.62 569.34 228.57 560.55 225.00 559.00 Z"/>
</g>
<g fill="None" fill-opacity="0.0" stroke="#993932" stroke-opacity="1.00" stroke-width="0.3"><path d="
M 254.00 562.00 
C 251.72 554.38 243.85 564.56 254.00 562.00 Z"/>
</g>
<g fill="None" fill-opacity="0.0" stroke="#942724" stroke-opacity="1.00" stroke-width="0.3"><path d="
M 319.00 570.00 
C 311.51 570.00 306.85 579.18 308.00 586.00
C 315.82 585.08 316.06 574.85 319.00 570.00 Z"/>
</g>
<g fill="None" fill-opacity="0.0" stroke="#962927" stroke-opacity="1.00" stroke-width="0.3"><path d="
M 348.00 570.00 
C 340.66 570.11 334.24 580.44 337.00 587.00
C 343.92 584.13 345.29 575.34 348.00 570.00 Z"/>
</g>
<g fill="#981B1E" fill-opacity="1.00" stroke="None">
<path d="
M 0.00 751.00 
L 527.00 751.00
L 527.00 0.00
L 262.00 0.00
C 262.01 8.67 261.99 17.33 262.00 26.00 C 262.01 34.67 261.99 43.33 262.00 52.00 C 262.01 60.67 261.97 69.32 262.00 78.00 C 262.03 86.68 261.93 95.30 262.00 104.00 C 262.07 112.71 261.86 122.36 262.00 131.00 C 262.14 139.64 261.67 148.58 262.00 157.00 C 262.33 165.42 261.27 174.97 262.00 183.00 C 262.73 191.03 260.37 201.79 262.00 209.00 C 263.63 216.21 258.07 230.23 263.00 235.00
C 263.32 234.76 264.00 235.00 264.00 235.00
C 268.41 228.23 275.67 224.47 283.08 221.08 C 290.48 217.68 305.04 227.15 297.00 236.00
C 323.67 236.00 350.33 236.00 377.00 236.00
C 379.95 238.06 378.00 252.26 378.00 256.00
C 379.54 255.63 380.40 257.43 382.00 257.00
C 382.22 266.87 381.67 277.38 386.00 285.00
C 381.25 292.75 382.53 303.97 382.00 314.00 C 381.47 324.03 382.29 337.02 382.00 347.00 C 381.71 356.98 381.88 370.26 382.78 379.22 C 383.68 388.18 380.75 395.27 381.59 402.75 C 382.43 410.24 375.29 419.70 379.00 427.00
C 375.02 433.33 370.99 440.63 364.25 447.25 C 357.51 453.86 354.45 461.28 346.23 466.23 C 338.01 471.18 331.83 476.68 322.75 479.75 C 313.68 482.83 303.37 486.33 293.33 487.33 C 283.29 488.33 268.44 490.11 258.33 488.67 C 248.22 487.23 238.13 486.94 228.78 483.22 C 219.42 479.50 209.36 478.32 204.00 470.00
C 197.96 471.64 192.52 465.94 189.00 462.00
C 169.17 448.54 157.41 434.82 150.01 410.99 C 142.61 387.16 145.29 353.49 145.00 326.00 C 144.71 298.51 145.21 264.12 145.00 236.00
C 171.67 236.00 198.33 236.00 225.00 236.00
C 218.23 226.46 231.21 218.39 239.67 221.33 C 248.13 224.27 252.49 230.60 260.00 235.00
C 260.00 156.67 260.00 78.33 260.00 0.00
L 0.00 0.00
L 0.00 751.00
M 184.00 523.00 
C 186.19 513.77 203.73 508.56 204.00 520.00 C 204.27 531.44 192.57 536.68 183.00 536.00
C 184.15 538.90 178.84 555.60 174.33 551.67 C 169.81 547.73 174.82 536.63 177.92 531.92 C 181.03 527.22 180.83 516.90 180.00 512.00
C 182.83 514.76 181.15 520.28 184.00 523.00
M 301.00 528.00 
C 298.09 527.41 295.94 529.59 293.00 529.00
C 288.32 535.08 285.99 553.12 298.00 544.00
C 295.99 539.50 302.24 525.86 307.74 531.26 C 313.25 536.65 295.68 542.78 300.78 547.22 C 305.88 551.67 312.07 540.65 315.00 538.00
C 314.48 544.99 302.95 555.57 298.00 546.00
C 293.52 550.21 287.49 548.85 286.00 543.00
C 285.59 546.46 277.93 553.53 276.08 547.92 C 274.24 542.30 280.52 537.69 279.00 532.00
C 271.22 533.86 270.62 544.44 265.00 549.00
C 265.59 543.48 268.69 538.64 269.00 533.00
C 262.64 536.36 255.40 558.46 247.00 546.00
C 241.40 546.12 233.41 555.94 231.00 546.00
C 227.11 549.99 219.75 552.22 217.00 546.00
C 212.59 550.48 204.75 550.62 206.00 544.00 C 207.25 537.38 214.39 535.68 207.00 532.00
C 203.73 540.29 199.38 550.98 190.00 554.00
C 197.28 547.37 207.10 537.26 205.00 526.00
C 209.92 524.91 206.37 533.04 212.00 532.00
C 211.56 538.34 203.46 550.03 213.22 546.22 C 222.99 542.42 214.35 528.77 227.00 530.00
C 231.54 538.33 218.91 538.52 219.08 545.08 C 219.25 551.64 228.76 546.65 230.92 541.92 C 233.08 537.19 236.87 529.94 240.00 527.00
C 237.60 533.40 240.33 539.64 241.00 546.00
C 250.60 546.33 242.29 532.37 250.75 530.75 C 259.21 529.14 253.98 538.03 249.25 543.25 C 244.52 548.47 260.19 548.32 260.75 540.75 C 261.32 533.19 270.91 527.67 271.00 537.00
C 271.22 533.49 279.33 526.54 280.92 532.08 C 282.50 537.63 276.57 542.34 278.00 548.00
C 285.07 546.69 294.18 527.99 283.00 528.00
C 290.68 528.87 290.70 521.36 295.00 517.00
C 297.23 522.06 292.74 528.31 301.00 528.00
M 163.00 518.00 
C 165.38 520.82 162.92 523.97 163.00 527.00
C 168.19 521.24 164.74 530.69 169.00 531.00
C 170.09 535.02 163.88 535.96 165.00 540.00
C 163.68 537.59 160.48 537.86 158.00 537.00
C 156.56 532.68 161.82 535.19 163.00 533.00
C 160.60 533.05 158.96 531.03 157.00 530.00
C 163.43 527.40 157.53 524.91 155.00 521.00
C 158.52 520.14 160.35 520.36 163.00 518.00
M 288.00 570.00 
C 290.09 561.61 306.60 552.06 305.00 564.00 C 303.40 575.94 295.30 582.95 303.00 594.00
C 290.41 586.24 304.87 570.37 303.00 559.00
C 289.24 562.79 286.15 580.06 277.00 589.00
C 280.92 578.55 282.05 574.94 286.93 563.93 C 291.80 552.92 275.95 549.55 275.00 563.00
C 278.89 563.91 280.63 559.31 284.00 559.00
C 281.93 565.97 271.37 565.92 273.78 559.78 C 276.19 553.64 281.69 549.21 287.69 552.31 C 293.70 555.41 285.83 566.46 288.00 570.00
M 371.00 576.00 
C 369.24 582.47 359.59 595.00 354.00 585.00
C 351.14 586.59 347.09 589.27 344.26 586.74 C 341.42 584.21 335.64 591.88 335.00 585.00
C 330.04 588.59 325.14 588.74 324.00 582.00
C 323.51 585.87 315.83 591.16 315.00 585.00
C 305.19 592.78 305.61 582.18 308.31 575.31 C 311.00 568.43 322.95 565.70 320.07 574.07 C 317.20 582.45 316.12 588.20 322.75 581.75 C 329.38 575.31 329.07 566.58 322.00 566.00
C 329.68 566.87 329.70 559.36 334.00 555.00
C 336.16 557.22 334.74 562.02 333.00 564.00
C 334.33 566.50 338.74 563.43 340.00 566.00
C 337.73 567.72 334.66 566.73 332.00 567.00
C 330.10 573.35 324.41 579.94 328.00 587.00
C 337.55 582.94 332.55 573.98 342.25 569.25 C 351.94 564.52 348.78 580.49 345.00 586.00
C 355.27 587.47 353.25 575.95 356.33 570.33 C 359.41 564.71 358.58 556.30 365.75 552.75 C 372.93 549.20 367.67 562.81 366.22 568.22 C 364.78 573.64 355.62 578.15 356.79 584.23 C 357.95 590.31 369.31 579.71 371.00 576.00
M 209.00 558.00 
C 216.12 556.45 217.59 563.22 215.00 569.00
C 212.40 567.22 216.27 558.33 210.97 559.03 C 205.67 559.72 209.84 567.04 207.00 569.00
C 205.22 564.55 204.78 558.92 209.00 558.00
M 225.00 557.00 
C 231.58 558.69 227.70 572.01 221.00 569.00 C 214.30 565.98 218.90 555.43 225.00 557.00
M 244.00 561.00 
C 241.75 560.43 237.34 556.77 238.00 562.00
C 249.76 560.55 239.79 575.98 236.00 566.00
C 238.52 567.37 242.73 569.14 242.00 564.00
C 229.99 565.38 241.31 550.14 244.00 561.00
M 248.00 564.00 
C 248.24 568.72 252.31 567.62 255.00 566.00
C 252.34 574.30 240.50 564.47 247.75 558.75 C 255.01 553.04 259.38 568.05 248.00 564.00
M 266.00 558.00 
C 268.16 560.76 266.45 565.49 267.00 569.00
C 258.90 572.10 255.41 563.80 259.00 558.00
C 258.86 568.44 266.14 568.31 266.00 558.00 Z"/>
</g>
<g fill="#E6A295" fill-opacity="1.00" stroke="None">
<path d="
M 189.00 462.00 
C 221.94 484.37 275.41 483.82 311.22 472.22 C 347.04 460.62 377.00 428.18 377.00 390.00
C 377.00 338.67 377.00 287.33 377.00 236.00
C 350.33 236.00 323.67 236.00 297.00 236.00
C 305.04 227.15 290.48 217.68 283.08 221.08 C 275.67 224.47 268.41 228.23 264.00 235.00
C 267.23 236.28 270.40 237.49 274.00 238.00
C 272.27 239.23 269.00 239.91 267.00 239.00
C 271.21 241.93 269.77 253.78 278.00 253.00
C 275.29 249.24 270.44 245.53 270.00 240.00
C 304.87 237.64 340.43 237.78 376.00 238.00
C 377.12 274.42 374.51 320.55 376.00 356.00 C 377.49 391.45 374.02 423.35 349.25 447.25 C 324.48 471.14 295.21 478.00 262.00 478.00 C 228.79 478.00 199.17 471.44 174.25 447.75 C 149.33 424.06 145.65 392.51 147.00 357.00 C 148.35 321.49 145.99 274.55 147.00 238.00
C 182.22 237.81 217.44 237.60 252.00 240.00
C 252.06 245.70 246.46 249.14 244.00 253.00
C 253.61 253.31 250.50 237.11 260.00 239.00
C 260.09 242.21 253.91 248.40 261.03 248.97 C 268.15 249.54 262.69 242.10 262.00 239.00
C 263.00 239.00 264.00 239.00 265.00 239.00
C 259.50 237.48 253.42 240.36 248.00 238.00
C 253.17 236.07 258.87 235.62 263.00 235.00
C 258.07 230.23 263.63 216.21 262.00 209.00 C 260.37 201.79 262.73 191.03 262.00 183.00 C 261.27 174.97 262.33 165.42 262.00 157.00 C 261.67 148.58 262.14 139.64 262.00 131.00 C 261.86 122.36 262.07 112.71 262.00 104.00 C 261.93 95.30 262.03 86.68 262.00 78.00 C 261.97 69.32 262.01 60.67 262.00 52.00 C 261.99 43.33 262.01 34.67 262.00 26.00 C 261.99 17.33 262.01 8.67 262.00 0.00
L 260.00 0.00
C 260.00 78.33 260.00 156.67 260.00 235.00
C 252.49 230.60 248.13 224.27 239.67 221.33 C 231.21 218.39 218.23 226.46 225.00 236.00
C 198.33 236.00 171.67 236.00 145.00 236.00
C 145.21 264.12 144.71 298.51 145.00 326.00 C 145.29 353.49 142.61 387.16 150.01 410.99 C 157.41 434.82 169.17 448.54 189.00 462.00
M 255.00 236.00 
C 246.57 233.33 234.75 240.11 227.26 234.74 C 219.76 229.37 231.89 219.28 238.07 222.93 C 244.25 226.57 252.26 228.41 255.00 236.00
M 267.00 236.00 
C 269.64 228.81 277.34 227.13 283.08 223.08 C 288.81 219.02 302.40 228.19 295.23 234.23 C 288.06 240.27 275.50 233.38 267.00 236.00
M 263.00 244.00 
C 263.55 252.07 254.89 243.51 263.00 244.00 Z"/>
</g>
<g fill="#982424" fill-opacity="1.00" stroke="None">
<path d="
M 255.00 236.00 
C 252.26 228.41 244.25 226.57 238.07 222.93 C 231.89 219.28 219.76 229.37 227.26 234.74 C 234.75 240.11 246.57 233.33 255.00 236.00 Z"/>
</g>
<g fill="#982423" fill-opacity="1.00" stroke="None">
<path d="
M 267.00 236.00 
C 275.50 233.38 288.06 240.27 295.23 234.23 C 302.40 228.19 288.81 219.02 283.08 223.08 C 277.34 227.13 269.64 228.81 267.00 236.00 Z"/>
</g>
<g fill="#F8D6BE" fill-opacity="1.00" stroke="None">
<path d="
M 265.00 239.00 
C 265.46 239.13 266.53 238.89 267.00 239.00
C 269.00 239.91 272.27 239.23 274.00 238.00
C 270.40 237.49 267.23 236.28 264.00 235.00
C 264.00 235.00 263.32 234.76 263.00 235.00
C 258.87 235.62 253.17 236.07 248.00 238.00
C 253.42 240.36 259.50 237.48 265.00 239.00 Z"/>
</g>
<g fill="#BF887C" fill-opacity="1.00" stroke="None">
<path d="
M 377.00 390.00 
C 381.19 346.76 378.00 300.13 378.00 256.00
C 378.00 252.26 379.95 238.06 377.00 236.00
C 377.00 287.33 377.00 338.67 377.00 390.00 Z"/>
</g>
<g fill="#991C22" fill-opacity="1.00" stroke="None">
<path d="
M 267.00 239.00 
C 266.53 238.89 265.46 239.13 265.00 239.00
C 264.00 239.00 263.00 239.00 262.00 239.00
C 262.69 242.10 268.15 249.54 261.03 248.97 C 253.91 248.40 260.09 242.21 260.00 239.00
C 250.50 237.11 253.61 253.31 244.00 253.00
C 246.46 249.14 252.06 245.70 252.00 240.00
C 217.44 237.60 182.22 237.81 147.00 238.00
C 145.99 274.55 148.35 321.49 147.00 357.00 C 145.65 392.51 149.33 424.06 174.25 447.75 C 199.17 471.44 228.79 478.00 262.00 478.00 C 295.21 478.00 324.48 471.14 349.25 447.25 C 374.02 423.35 377.49 391.45 376.00 356.00 C 374.51 320.55 377.12 274.42 376.00 238.00
C 340.43 237.78 304.87 237.64 270.00 240.00
C 270.44 245.53 275.29 249.24 278.00 253.00
C 269.77 253.78 271.21 241.93 267.00 239.00
M 214.00 333.00 
C 215.13 333.99 218.66 332.25 220.00 333.00
C 220.00 336.00 220.00 339.00 220.00 342.00
C 208.70 338.48 210.37 362.76 220.00 363.00
C 220.00 366.33 220.00 369.67 220.00 373.00
C 193.74 373.85 202.10 342.29 201.00 325.00
C 204.39 320.15 219.42 324.91 214.00 333.00
M 330.00 342.00 
C 328.87 342.99 325.34 341.25 324.00 342.00
C 325.37 348.76 320.22 360.53 329.00 363.00
C 330.29 364.33 333.29 370.79 330.00 373.00
C 323.60 377.29 313.53 365.82 312.00 361.00
C 308.87 351.11 313.28 342.86 311.00 332.00 C 308.72 321.14 327.91 320.33 324.00 333.00
C 330.77 330.31 333.05 337.50 330.00 342.00
M 238.00 358.00 
C 240.43 364.58 249.64 364.63 250.92 356.92 C 252.21 349.22 250.12 340.78 251.00 333.00
C 255.00 333.00 259.00 333.00 263.00 333.00
C 263.78 350.03 266.64 373.22 244.00 373.00 C 221.36 372.78 224.54 350.02 225.00 333.00
C 229.00 333.00 233.00 333.00 237.00 333.00
C 239.92 335.04 237.14 341.56 238.00 345.00 C 238.86 348.44 237.20 354.37 238.00 358.00
M 281.00 359.00 
C 283.77 364.91 293.89 364.59 293.97 356.97 C 294.06 349.36 293.96 340.71 294.00 333.00
C 298.00 333.00 302.00 333.00 306.00 333.00
C 306.74 349.97 309.61 373.09 287.00 373.00 C 264.39 372.91 267.51 349.97 268.00 333.00
C 272.00 333.00 276.00 333.00 280.00 333.00
C 283.06 335.14 279.99 341.38 281.00 345.00 C 282.01 348.62 279.87 355.23 281.00 359.00 Z"/>
</g>
<g fill="#A04E42" fill-opacity="1.00" stroke="None">
<path d="
M 263.00 244.00 
C 254.89 243.51 263.55 252.07 263.00 244.00 Z"/>
</g>
<g fill="#6A1415" fill-opacity="1.00" stroke="None">
<path d="
M 377.00 390.00 
C 377.00 428.18 347.04 460.62 311.22 472.22 C 275.41 483.82 221.94 484.37 189.00 462.00
C 192.52 465.94 197.96 471.64 204.00 470.00
C 209.36 478.32 219.42 479.50 228.78 483.22 C 238.13 486.94 248.22 487.23 258.33 488.67 C 268.44 490.11 283.29 488.33 293.33 487.33 C 303.37 486.33 313.68 482.83 322.75 479.75 C 331.83 476.68 338.01 471.18 346.23 466.23 C 354.45 461.28 357.51 453.86 364.25 447.25 C 370.99 440.63 375.02 433.33 379.00 427.00
C 375.29 419.70 382.43 410.24 381.59 402.75 C 380.75 395.27 383.68 388.18 382.78 379.22 C 381.88 370.26 381.71 356.98 382.00 347.00 C 382.29 337.02 381.47 324.03 382.00 314.00 C 382.53 303.97 381.25 292.75 386.00 285.00
C 381.67 277.38 382.22 266.87 382.00 257.00
C 380.40 257.43 379.54 255.63 378.00 256.00
C 378.00 300.13 381.19 346.76 377.00 390.00 Z"/>
</g>
<g fill="#BE766A" fill-opacity="1.00" stroke="None">
<path d="
M 201.00 325.00 
C 205.00 325.00 209.00 325.00 213.00 325.00
C 213.56 327.52 211.81 331.30 214.00 333.00
C 219.42 324.91 204.39 320.15 201.00 325.00 Z"/>
</g>
<g fill="#D68E82" fill-opacity="1.00" stroke="None">
<path d="
M 312.00 361.00 
C 309.92 349.37 313.56 336.72 312.00 325.00
C 315.67 325.00 319.33 325.00 323.00 325.00
C 321.94 330.26 323.37 336.05 330.00 334.00
C 330.00 336.67 330.00 339.33 330.00 342.00
C 333.05 337.50 330.77 330.31 324.00 333.00
C 327.91 320.33 308.72 321.14 311.00 332.00 C 313.28 342.86 308.87 351.11 312.00 361.00 Z"/>
</g>
<g fill="#F5DEC3" fill-opacity="1.00" stroke="None">
<path d="
M 214.00 333.00 
C 211.81 331.30 213.56 327.52 213.00 325.00
C 209.00 325.00 205.00 325.00 201.00 325.00
C 202.10 342.29 193.74 373.85 220.00 373.00
C 220.00 369.67 220.00 366.33 220.00 363.00
C 210.37 362.76 208.70 338.48 220.00 342.00
C 220.00 339.00 220.00 336.00 220.00 333.00
C 218.66 332.25 215.13 333.99 214.00 333.00 Z"/>
</g>
<g fill="#F4E0C4" fill-opacity="1.00" stroke="None">
<path d="
M 312.00 361.00 
C 313.53 365.82 323.60 377.29 330.00 373.00
C 329.60 369.71 330.95 365.86 329.00 363.00
C 320.22 360.53 325.37 348.76 324.00 342.00
C 325.34 341.25 328.87 342.99 330.00 342.00
C 330.00 339.33 330.00 336.67 330.00 334.00
C 323.37 336.05 321.94 330.26 323.00 325.00
C 319.33 325.00 315.67 325.00 312.00 325.00
C 313.56 336.72 309.92 349.37 312.00 361.00 Z"/>
</g>
<g fill="#F5DEC3" fill-opacity="1.00" stroke="None">
<path d="
M 238.00 358.00 
C 235.31 350.72 237.93 341.07 237.00 333.00
C 233.00 333.00 229.00 333.00 225.00 333.00
C 224.54 350.02 221.36 372.78 244.00 373.00 C 266.64 373.22 263.78 350.03 263.00 333.00
C 259.00 333.00 255.00 333.00 251.00 333.00
C 250.12 340.78 252.21 349.22 250.92 356.92 C 249.64 364.63 240.43 364.58 238.00 358.00 Z"/>
</g>
<g fill="#BD7A6C" fill-opacity="1.00" stroke="None">
<path d="
M 238.00 358.00 
C 237.20 354.37 238.86 348.44 238.00 345.00 C 237.14 341.56 239.92 335.04 237.00 333.00
C 237.93 341.07 235.31 350.72 238.00 358.00 Z"/>
</g>
<g fill="#F4DEC3" fill-opacity="1.00" stroke="None">
<path d="
M 281.00 359.00 
C 277.61 351.75 281.46 341.13 280.00 333.00
C 276.00 333.00 272.00 333.00 268.00 333.00
C 267.51 349.97 264.39 372.91 287.00 373.00 C 309.61 373.09 306.74 349.97 306.00 333.00
C 302.00 333.00 298.00 333.00 294.00 333.00
C 293.96 340.71 294.06 349.36 293.97 356.97 C 293.89 364.59 283.77 364.91 281.00 359.00 Z"/>
</g>
<g fill="#D89186" fill-opacity="1.00" stroke="None">
<path d="
M 281.00 359.00 
C 279.87 355.23 282.01 348.62 281.00 345.00 C 279.99 341.38 283.06 335.14 280.00 333.00
C 281.46 341.13 277.61 351.75 281.00 359.00 Z"/>
</g>
<g fill="#CB7870" fill-opacity="1.00" stroke="None">
<path d="
M 330.00 373.00 
C 333.29 370.79 330.29 364.33 329.00 363.00
C 330.95 365.86 329.60 369.71 330.00 373.00 Z"/>
</g>
<g fill="#E49589" fill-opacity="1.00" stroke="None">
<path d="
M 184.00 523.00 
C 181.15 520.28 182.83 514.76 180.00 512.00
C 180.83 516.90 181.03 527.22 177.92 531.92 C 174.82 536.63 169.81 547.73 174.33 551.67 C 178.84 555.60 184.15 538.90 183.00 536.00
C 192.57 536.68 204.27 531.44 204.00 520.00 C 203.73 508.56 186.19 513.77 184.00 523.00
M 183.00 534.00 
C 179.13 526.70 194.77 508.66 201.74 516.26 C 208.72 523.85 191.00 538.64 183.00 534.00
M 176.00 551.00 
C 172.33 544.33 178.10 537.30 180.00 531.00
C 182.49 537.28 180.10 545.57 176.00 551.00 Z"/>
</g>
<g fill="#972423" fill-opacity="1.00" stroke="None">
<path d="
M 183.00 534.00 
C 191.00 538.64 208.72 523.85 201.74 516.26 C 194.77 508.66 179.13 526.70 183.00 534.00 Z"/>
</g>
<g fill="#E3988B" fill-opacity="1.00" stroke="None">
<path d="
M 301.00 528.00 
C 292.74 528.31 297.23 522.06 295.00 517.00
C 290.70 521.36 290.68 528.87 283.00 528.00
C 294.18 527.99 285.07 546.69 278.00 548.00
C 276.57 542.34 282.50 537.63 280.92 532.08 C 279.33 526.54 271.22 533.49 271.00 537.00
C 270.91 527.67 261.32 533.19 260.75 540.75 C 260.19 548.32 244.52 548.47 249.25 543.25 C 253.98 538.03 259.21 529.14 250.75 530.75 C 242.29 532.37 250.60 546.33 241.00 546.00
C 240.33 539.64 237.60 533.40 240.00 527.00
C 236.87 529.94 233.08 537.19 230.92 541.92 C 228.76 546.65 219.25 551.64 219.08 545.08 C 218.91 538.52 231.54 538.33 227.00 530.00
C 214.35 528.77 222.99 542.42 213.22 546.22 C 203.46 550.03 211.56 538.34 212.00 532.00
C 206.37 533.04 209.92 524.91 205.00 526.00
C 207.10 537.26 197.28 547.37 190.00 554.00
C 199.38 550.98 203.73 540.29 207.00 532.00
C 214.39 535.68 207.25 537.38 206.00 544.00 C 204.75 550.62 212.59 550.48 217.00 546.00
C 219.75 552.22 227.11 549.99 231.00 546.00
C 233.41 555.94 241.40 546.12 247.00 546.00
C 255.40 558.46 262.64 536.36 269.00 533.00
C 268.69 538.64 265.59 543.48 265.00 549.00
C 270.62 544.44 271.22 533.86 279.00 532.00
C 280.52 537.69 274.24 542.30 276.08 547.92 C 277.93 553.53 285.59 546.46 286.00 543.00
C 287.49 548.85 293.52 550.21 298.00 546.00
C 302.95 555.57 314.48 544.99 315.00 538.00
C 312.07 540.65 305.88 551.67 300.78 547.22 C 295.68 542.78 313.25 536.65 307.74 531.26 C 302.24 525.86 295.99 539.50 298.00 544.00
C 285.99 553.12 288.32 535.08 293.00 529.00
C 295.94 529.59 298.09 527.41 301.00 528.00
M 225.00 531.00 
C 227.27 534.59 222.76 538.05 221.00 541.00
C 218.16 537.82 221.72 532.67 225.00 531.00
M 254.00 532.00 
C 254.94 536.13 250.76 538.86 248.00 541.00
C 248.10 537.41 249.82 532.47 254.00 532.00
M 306.00 532.00 
C 306.30 535.87 302.99 539.04 300.00 541.00
C 300.56 537.62 301.13 531.38 306.00 532.00
M 237.00 536.00 
C 238.28 539.15 239.18 542.45 239.00 546.00
C 236.32 546.54 234.22 545.08 232.00 544.00
C 234.01 541.46 234.34 537.76 237.00 536.00 Z"/>
</g>
<g fill="#D2847C" fill-opacity="1.00" stroke="None">
<path d="
M 163.00 518.00 
C 160.35 520.36 158.52 520.14 155.00 521.00
C 157.53 524.91 163.43 527.40 157.00 530.00
C 158.96 531.03 160.60 533.05 163.00 533.00
C 161.82 535.19 156.56 532.68 158.00 537.00
C 160.48 537.86 163.68 537.59 165.00 540.00
C 163.88 535.96 170.09 535.02 169.00 531.00
C 164.74 530.69 168.19 521.24 163.00 527.00
C 162.92 523.97 165.38 520.82 163.00 518.00 Z"/>
</g>
<g fill="#932D28" fill-opacity="1.00" stroke="None">
<path d="
M 176.00 551.00 
C 180.10 545.57 182.49 537.28 180.00 531.00
C 178.10 537.30 172.33 544.33 176.00 551.00 Z"/>
</g>
<g fill="#983630" fill-opacity="1.00" stroke="None">
<path d="
M 225.00 531.00 
C 221.72 532.67 218.16 537.82 221.00 541.00
C 222.76 538.05 227.27 534.59 225.00 531.00 Z"/>
</g>
<g fill="#96302B" fill-opacity="1.00" stroke="None">
<path d="
M 254.00 532.00 
C 249.82 532.47 248.10 537.41 248.00 541.00
C 250.76 538.86 254.94 536.13 254.00 532.00 Z"/>
</g>
<g fill="#93322C" fill-opacity="1.00" stroke="None">
<path d="
M 306.00 532.00 
C 301.13 531.38 300.56 537.62 300.00 541.00
C 302.99 539.04 306.30 535.87 306.00 532.00 Z"/>
</g>
<g fill="#95312C" fill-opacity="1.00" stroke="None">
<path d="
M 237.00 536.00 
C 234.34 537.76 234.01 541.46 232.00 544.00
C 234.22 545.08 236.32 546.54 239.00 546.00
C 239.18 542.45 238.28 539.15 237.00 536.00 Z"/>
</g>
<g fill="#E49589" fill-opacity="1.00" stroke="None">
<path d="
M 288.00 570.00 
C 285.83 566.46 293.70 555.41 287.69 552.31 C 281.69 549.21 276.19 553.64 273.78 559.78 C 271.37 565.92 281.93 565.97 284.00 559.00
C 280.63 559.31 278.89 563.91 275.00 563.00
C 275.95 549.55 291.80 552.92 286.93 563.93 C 282.05 574.94 280.92 578.55 277.00 589.00
C 286.15 580.06 289.24 562.79 303.00 559.00
C 304.87 570.37 290.41 586.24 303.00 594.00
C 295.30 582.95 303.40 575.94 305.00 564.00 C 306.60 552.06 290.09 561.61 288.00 570.00 Z"/>
</g>
<g fill="#E3978A" fill-opacity="1.00" stroke="None">
<path d="
M 371.00 576.00 
C 369.31 579.71 357.95 590.31 356.79 584.23 C 355.62 578.15 364.78 573.64 366.22 568.22 C 367.67 562.81 372.93 549.20 365.75 552.75 C 358.58 556.30 359.41 564.71 356.33 570.33 C 353.25 575.95 355.27 587.47 345.00 586.00
C 348.78 580.49 351.94 564.52 342.25 569.25 C 332.55 573.98 337.55 582.94 328.00 587.00
C 324.41 579.94 330.10 573.35 332.00 567.00
C 334.66 566.73 337.73 567.72 340.00 566.00
C 338.74 563.43 334.33 566.50 333.00 564.00
C 334.74 562.02 336.16 557.22 334.00 555.00
C 329.70 559.36 329.68 566.87 322.00 566.00
C 329.07 566.58 329.38 575.31 322.75 581.75 C 316.12 588.20 317.20 582.45 320.07 574.07 C 322.95 565.70 311.00 568.43 308.31 575.31 C 305.61 582.18 305.19 592.78 315.00 585.00
C 315.83 591.16 323.51 585.87 324.00 582.00
C 325.14 588.74 330.04 588.59 335.00 585.00
C 335.64 591.88 341.42 584.21 344.26 586.74 C 347.09 589.27 351.14 586.59 354.00 585.00
C 359.59 595.00 369.24 582.47 371.00 576.00
M 368.00 553.00 
C 369.09 561.69 363.49 570.97 358.00 578.00
C 356.64 569.89 361.44 558.91 368.00 553.00
M 319.00 570.00 
C 316.06 574.85 315.82 585.08 308.00 586.00
C 306.85 579.18 311.51 570.00 319.00 570.00
M 348.00 570.00 
C 345.29 575.34 343.92 584.13 337.00 587.00
C 334.24 580.44 340.66 570.11 348.00 570.00 Z"/>
</g>
<g fill="#952B28" fill-opacity="1.00" stroke="None">
<path d="
M 368.00 553.00 
C 361.44 558.91 356.64 569.89 358.00 578.00
C 363.49 570.97 369.09 561.69 368.00 553.00 Z"/>
</g>
<g fill="#B5685C" fill-opacity="1.00" stroke="None">
<path d="
M 207.00 569.00 
C 205.84 566.95 207.65 556.47 209.00 558.00
C 204.78 558.92 205.22 564.55 207.00 569.00 Z"/>
</g>
<g fill="#EBA497" fill-opacity="1.00" stroke="None">
<path d="
M 209.00 558.00 
C 207.65 556.47 205.84 566.95 207.00 569.00
C 209.84 567.04 205.67 559.72 210.97 559.03 C 216.27 558.33 212.40 567.22 215.00 569.00
C 217.59 563.22 216.12 556.45 209.00 558.00 Z"/>
</g>
<g fill="#E89D91" fill-opacity="1.00" stroke="None">
<path d="
M 225.00 557.00 
C 218.90 555.43 214.30 565.98 221.00 569.00 C 227.70 572.01 231.58 558.69 225.00 557.00
M 225.00 559.00 
C 228.57 560.55 226.62 569.34 222.30 567.64 C 217.99 565.95 219.53 556.62 225.00 559.00 Z"/>
</g>
<g fill="#E5978B" fill-opacity="1.00" stroke="None">
<path d="
M 244.00 561.00 
C 241.31 550.14 229.99 565.38 242.00 564.00
C 242.73 569.14 238.52 567.37 236.00 566.00
C 239.79 575.98 249.76 560.55 238.00 562.00
C 237.34 556.77 241.75 560.43 244.00 561.00 Z"/>
</g>
<g fill="#E2998B" fill-opacity="1.00" stroke="None">
<path d="
M 248.00 564.00 
C 259.38 568.05 255.01 553.04 247.75 558.75 C 240.50 564.47 252.34 574.30 255.00 566.00
C 252.31 567.62 248.24 568.72 248.00 564.00
M 254.00 562.00 
C 243.85 564.56 251.72 554.38 254.00 562.00 Z"/>
</g>
<g fill="#E49589" fill-opacity="1.00" stroke="None">
<path d="
M 266.00 558.00 
C 266.14 568.31 258.86 568.44 259.00 558.00
C 255.41 563.80 258.90 572.10 267.00 569.00
C 266.45 565.49 268.16 560.76 266.00 558.00 Z"/>
</g>
<g fill="#99312C" fill-opacity="1.00" stroke="None">
<path d="
M 225.00 559.00 
C 219.53 556.62 217.99 565.95 222.30 567.64 C 226.62 569.34 228.57 560.55 225.00 559.00 Z"/>
</g>
<g fill="#993932" fill-opacity="1.00" stroke="None">
<path d="
M 254.00 562.00 
C 251.72 554.38 243.85 564.56 254.00 562.00 Z"/>
</g>
<g fill="#942724" fill-opacity="1.00" stroke="None">
<path d="
M 319.00 570.00 
C 311.51 570.00 306.85 579.18 308.00 586.00
C 315.82 585.08 316.06 574.85 319.00 570.00 Z"/>
</g>
<g fill="#962927" fill-opacity="1.00" stroke="None">
<path d="
M 348.00 570.00 
C 340.66 570.11 334.24 580.44 337.00 587.00
C 343.92 584.13 345.29 575.34 348.00 570.00 Z"/>
</g>
</svg>