<svg xmlns="http://www.w3.org/2000/svg" xmlns:v="https://svgstorm.com"
viewBox = "0 0 300 226"
width="300"
height="226">
<g fill="None" fill-opacity="0.0" stroke="#000000" stroke-opacity="0.00" stroke-width="0.3"><path d="
M 0.00 226.00 
L 300.00 226.00
L 300.00 0.00
L 0.00 0.00
L 0.00 226.00
M 114.00 63.00 
C 112.61 56.49 112.33 42.43 114.00 36.00
C 115.65 29.64 120.79 32.23 124.00 35.00
C 133.94 43.58 142.30 55.52 153.00 63.00
C 153.00 54.77 150.99 42.87 153.00 35.00 C 155.01 27.13 166.64 37.17 169.75 41.25 C 172.87 45.32 179.19 50.90 183.75 55.25 C 188.30 59.61 193.03 65.22 198.10 69.90 C 203.17 74.58 207.10 78.78 212.75 84.25 C 218.41 89.72 219.59 91.65 226.75 98.25 C 233.91 104.84 228.66 111.62 218.00 110.00 C 207.34 108.38 199.41 110.00 189.00 110.00
C 176.67 110.00 164.33 110.00 152.00 110.00
C 140.72 110.00 132.59 109.03 121.00 110.00 C 109.41 110.97 101.57 107.54 89.00 110.00 C 76.43 112.46 74.56 101.13 76.00 91.00 C 77.44 80.87 75.20 67.33 76.00 59.00 C 76.80 50.67 73.17 32.21 81.01 32.01 C 88.85 31.81 91.99 43.46 97.75 47.25 C 103.51 51.04 109.53 58.20 114.00 63.00
M 75.00 139.00 
C 79.07 140.00 78.27 147.89 72.99 146.99 C 67.71 146.10 70.15 137.81 75.00 139.00
M 253.00 139.00 
C 253.00 152.67 253.00 166.33 253.00 180.00
C 243.61 181.80 246.81 166.62 247.00 160.00 C 247.19 153.38 243.20 137.24 253.00 139.00
M 167.00 144.00 
C 168.99 147.50 167.75 151.84 167.00 155.00
C 163.95 155.66 157.65 156.35 157.03 149.97 C 156.40 143.60 163.61 142.31 167.00 144.00
M 207.00 151.00 
C 212.06 152.07 219.50 148.70 223.00 153.00
C 227.00 157.92 225.38 166.53 229.00 172.00
C 234.77 165.16 233.15 150.62 245.00 151.00
C 240.93 157.88 238.80 168.28 235.01 175.01 C 231.22 181.74 231.17 194.55 220.00 193.00
C 230.87 180.39 220.97 166.69 216.00 153.00
C 215.69 153.24 215.00 153.00 215.00 153.00
C 215.90 158.61 210.82 156.68 207.00 157.00
C 207.34 163.63 204.07 178.06 215.00 174.00
C 218.88 180.70 206.78 181.42 202.75 177.25 C 198.73 173.07 200.26 162.79 200.00 157.00
C 196.11 158.10 194.03 155.85 195.00 152.00
C 204.90 155.53 195.64 139.57 207.00 143.00
C 207.00 145.67 207.00 148.33 207.00 151.00
M 194.00 154.00 
C 192.45 155.55 192.17 158.18 190.00 159.00
C 187.30 152.83 171.40 155.98 180.00 163.00
C 190.52 158.55 199.15 171.64 191.25 178.25 C 183.35 184.85 167.11 178.84 174.00 171.00
C 173.60 176.10 190.91 177.56 188.92 171.92 C 186.93 166.28 179.47 168.81 174.75 165.25 C 170.04 161.68 170.11 155.03 176.75 151.75 C 183.39 148.47 187.80 151.87 194.00 154.00
M 66.00 160.00 
C 67.36 163.99 69.00 178.46 65.00 180.00
C 63.55 180.56 61.50 179.58 60.00 180.00
C 60.00 173.00 60.00 166.00 60.00 159.00
C 46.82 149.76 45.36 170.18 47.00 180.00
C 33.03 183.40 48.13 158.41 36.75 156.25 C 25.37 154.09 27.97 173.23 28.00 180.00
C 17.98 182.71 23.41 169.28 22.00 164.00 C 20.59 158.72 22.78 145.35 28.00 154.00
C 32.35 149.45 41.67 149.87 44.00 156.00
C 50.02 148.24 63.77 149.80 66.00 160.00
M 76.00 180.00 
C 68.09 182.08 70.07 174.53 70.00 169.00 C 69.93 163.47 70.05 156.65 70.00 151.00
C 81.88 152.81 73.49 170.80 76.00 180.00
M 103.00 155.00 
C 120.23 141.70 130.15 163.58 126.00 180.00
C 111.95 183.57 126.85 161.19 115.75 157.25 C 104.66 153.31 105.29 172.78 106.00 180.00
C 95.87 182.16 100.50 166.74 101.00 161.00
C 98.07 154.84 89.41 155.23 88.03 162.03 C 86.65 168.83 92.25 182.12 81.00 180.00
C 83.28 171.16 81.37 161.25 82.00 152.00
C 88.64 155.28 97.07 147.06 103.00 155.00
M 146.00 151.00 
C 160.34 153.12 161.40 182.75 141.99 180.99 C 122.58 179.23 124.04 147.75 146.00 151.00
M 285.00 167.00 
C 278.16 169.24 270.26 167.40 263.00 168.00
C 262.01 171.64 265.28 172.79 267.00 175.00
C 275.04 169.99 287.71 174.84 277.77 179.77 C 267.83 184.70 260.35 178.49 257.23 170.77 C 254.10 163.05 257.82 152.79 267.08 151.08 C 276.34 149.37 287.63 156.33 285.00 167.00 Z"/>
</g>
<g fill="None" fill-opacity="0.0" stroke="#1F03D4" stroke-opacity="0.96" stroke-width="0.3"><path d="
M 152.00 110.00 
C 153.05 109.25 153.31 104.24 153.00 103.00
C 152.11 100.23 146.23 97.43 144.25 94.75 C 142.27 92.07 138.35 88.35 136.00 86.00
C 129.43 79.43 119.85 72.97 115.00 65.00
C 114.71 64.52 114.33 63.35 114.00 63.00
C 109.53 58.20 103.51 51.04 97.75 47.25 C 91.99 43.46 88.85 31.81 81.01 32.01 C 73.17 32.21 76.80 50.67 76.00 59.00 C 75.20 67.33 77.44 80.87 76.00 91.00 C 74.56 101.13 76.43 112.46 89.00 110.00 C 101.57 107.54 109.41 110.97 121.00 110.00 C 132.59 109.03 140.72 110.00 152.00 110.00 Z"/>
</g>
<g fill="None" fill-opacity="0.0" stroke="#FAC423" stroke-opacity="0.98" stroke-width="0.3"><path d="
M 114.00 36.00 
C 114.84 34.31 116.84 44.15 116.00 48.00 C 115.16 51.85 116.39 60.68 116.00 65.00
C 121.24 72.50 129.58 79.58 136.00 86.00
C 140.12 90.12 151.57 97.27 153.00 103.00
C 153.31 104.24 153.05 109.25 152.00 110.00
C 164.33 110.00 176.67 110.00 189.00 110.00
C 196.87 106.57 186.14 97.23 182.25 93.75 C 178.36 90.28 172.06 83.41 167.75 79.25 C 163.45 75.08 157.63 68.96 153.00 65.00
C 144.07 57.36 131.10 47.02 125.00 37.00
C 124.59 36.33 124.36 35.66 124.00 35.00
C 120.79 32.23 115.65 29.64 114.00 36.00 Z"/>
</g>
<g fill="None" fill-opacity="0.0" stroke="#FB1C12" stroke-opacity="0.94" stroke-width="0.3"><path d="
M 153.00 63.00 
C 153.00 63.50 153.00 64.00 153.00 64.00
C 153.00 64.50 153.00 65.00 153.00 65.00
C 157.63 68.96 163.45 75.08 167.75 79.25 C 172.06 83.41 178.36 90.28 182.25 93.75 C 186.14 97.23 196.87 106.57 189.00 110.00
C 199.41 110.00 207.34 108.38 218.00 110.00 C 228.66 111.62 233.91 104.84 226.75 98.25 C 219.59 91.65 218.41 89.72 212.75 84.25 C 207.10 78.78 203.17 74.58 198.10 69.90 C 193.03 65.22 188.30 59.61 183.75 55.25 C 179.19 50.90 172.87 45.32 169.75 41.25 C 166.64 37.17 155.01 27.13 153.00 35.00 C 150.99 42.87 153.00 54.77 153.00 63.00 Z"/>
</g>
<g fill="None" fill-opacity="0.0" stroke="#EFBF3C" stroke-opacity="0.50" stroke-width="0.3"><path d="
M 114.00 36.00 
C 112.33 42.43 112.61 56.49 114.00 63.00
C 114.33 63.35 114.71 64.52 115.00 65.00
C 115.40 65.20 116.00 65.00 116.00 65.00
C 116.39 60.68 115.16 51.85 116.00 48.00 C 116.84 44.15 114.84 34.31 114.00 36.00 Z"/>
</g>
<g fill="None" fill-opacity="0.0" stroke="#ECC045" stroke-opacity="0.05" stroke-width="0.3"><path d="
M 125.00 37.00 
C 133.21 45.79 143.19 57.15 153.00 64.00
C 153.00 64.00 153.00 63.50 153.00 63.00
C 142.30 55.52 133.94 43.58 124.00 35.00
C 124.36 35.66 124.59 36.33 125.00 37.00 Z"/>
</g>
<g fill="None" fill-opacity="0.0" stroke="#F5C332" stroke-opacity="0.70" stroke-width="0.3"><path d="
M 153.00 65.00 
C 153.00 65.00 153.00 64.50 153.00 64.00
C 143.19 57.15 133.21 45.79 125.00 37.00
C 131.10 47.02 144.07 57.36 153.00 65.00 Z"/>
</g>
<g fill="None" fill-opacity="0.0" stroke="#9C7777" stroke-opacity="1.00" stroke-width="0.3"><path d="
M 136.00 86.00 
C 129.58 79.58 121.24 72.50 116.00 65.00
C 116.00 65.00 115.40 65.20 115.00 65.00
C 119.85 72.97 129.43 79.43 136.00 86.00 Z"/>
</g>
<g fill="None" fill-opacity="0.0" stroke="#815B7D" stroke-opacity="1.00" stroke-width="0.3"><path d="
M 153.00 103.00 
C 151.57 97.27 140.12 90.12 136.00 86.00
C 138.35 88.35 142.27 92.07 144.25 94.75 C 146.23 97.43 152.11 100.23 153.00 103.00 Z"/>
</g>
<g fill="None" fill-opacity="0.0" stroke="#000000" stroke-opacity="0.85" stroke-width="0.3"><path d="
M 75.00 139.00 
C 70.15 137.81 67.71 146.10 72.99 146.99 C 78.27 147.89 79.07 140.00 75.00 139.00 Z"/>
</g>
<g fill="None" fill-opacity="0.0" stroke="#000000" stroke-opacity="0.94" stroke-width="0.3"><path d="
M 253.00 139.00 
C 243.20 137.24 247.19 153.38 247.00 160.00 C 246.81 166.62 243.61 181.80 253.00 180.00
C 253.00 166.33 253.00 152.67 253.00 139.00 Z"/>
</g>
<g fill="None" fill-opacity="0.0" stroke="#010101" stroke-opacity="0.49" stroke-width="0.3"><path d="
M 167.00 144.00 
C 163.61 142.31 156.40 143.60 157.03 149.97 C 157.65 156.35 163.95 155.66 167.00 155.00
C 167.75 151.84 168.99 147.50 167.00 144.00
M 166.00 148.00 
C 166.09 151.87 163.52 151.43 161.00 152.00
C 160.09 146.12 162.74 148.55 166.00 148.00 Z"/>
</g>
<g fill="None" fill-opacity="0.0" stroke="#000000" stroke-opacity="0.87" stroke-width="0.3"><path d="
M 215.00 153.00 
C 212.90 151.44 208.52 153.17 207.00 151.00
C 207.00 148.33 207.00 145.67 207.00 143.00
C 195.64 139.57 204.90 155.53 195.00 152.00
C 194.03 155.85 196.11 158.10 200.00 157.00
C 200.26 162.79 198.73 173.07 202.75 177.25 C 206.78 181.42 218.88 180.70 215.00 174.00
C 204.07 178.06 207.34 163.63 207.00 157.00
C 210.82 156.68 215.90 158.61 215.00 153.00 Z"/>
</g>
<g fill="None" fill-opacity="0.0" stroke="#020202" stroke-opacity="0.78" stroke-width="0.3"><path d="
M 166.00 148.00 
C 162.74 148.55 160.09 146.12 161.00 152.00
C 163.52 151.43 166.09 151.87 166.00 148.00 Z"/>
</g>
<g fill="None" fill-opacity="0.0" stroke="#000000" stroke-opacity="0.91" stroke-width="0.3"><path d="
M 194.00 154.00 
C 187.80 151.87 183.39 148.47 176.75 151.75 C 170.11 155.03 170.04 161.68 174.75 165.25 C 179.47 168.81 186.93 166.28 188.92 171.92 C 190.91 177.56 173.60 176.10 174.00 171.00
C 167.11 178.84 183.35 184.85 191.25 178.25 C 199.15 171.64 190.52 158.55 180.00 163.00
C 171.40 155.98 187.30 152.83 190.00 159.00
C 192.17 158.18 192.45 155.55 194.00 154.00 Z"/>
</g>
<g fill="None" fill-opacity="0.0" stroke="#000000" stroke-opacity="0.94" stroke-width="0.3"><path d="
M 65.00 180.00 
C 63.45 173.76 66.62 165.33 66.00 160.00
C 63.77 149.80 50.02 148.24 44.00 156.00
C 41.67 149.87 32.35 149.45 28.00 154.00
C 22.78 145.35 20.59 158.72 22.00 164.00 C 23.41 169.28 17.98 182.71 28.00 180.00
C 27.97 173.23 25.37 154.09 36.75 156.25 C 48.13 158.41 33.03 183.40 47.00 180.00
C 45.36 170.18 46.82 149.76 60.00 159.00
C 60.00 166.00 60.00 173.00 60.00 180.00
C 61.50 179.58 63.55 180.56 65.00 180.00 Z"/>
</g>
<g fill="None" fill-opacity="0.0" stroke="#000000" stroke-opacity="0.87" stroke-width="0.3"><path d="
M 76.00 180.00 
C 73.49 170.80 81.88 152.81 70.00 151.00
C 70.05 156.65 69.93 163.47 70.00 169.00 C 70.07 174.53 68.09 182.08 76.00 180.00 Z"/>
</g>
<g fill="None" fill-opacity="0.0" stroke="#000000" stroke-opacity="0.91" stroke-width="0.3"><path d="
M 103.00 155.00 
C 97.07 147.06 88.64 155.28 82.00 152.00
C 81.37 161.25 83.28 171.16 81.00 180.00
C 92.25 182.12 86.65 168.83 88.03 162.03 C 89.41 155.23 98.07 154.84 101.00 161.00
C 100.50 166.74 95.87 182.16 106.00 180.00
C 105.29 172.78 104.66 153.31 115.75 157.25 C 126.85 161.19 111.95 183.57 126.00 180.00
C 130.15 163.58 120.23 141.70 103.00 155.00 Z"/>
</g>
<g fill="None" fill-opacity="0.0" stroke="#000000" stroke-opacity="0.90" stroke-width="0.3"><path d="
M 146.00 151.00 
C 124.04 147.75 122.58 179.23 141.99 180.99 C 161.40 182.75 160.34 153.12 146.00 151.00
M 151.00 169.00 
C 149.69 171.00 147.24 172.80 146.00 175.00
C 143.72 174.45 141.19 173.19 139.00 175.00
C 134.26 170.37 130.96 161.95 138.25 157.25 C 145.54 152.55 151.82 162.24 151.00 169.00 Z"/>
</g>
<g fill="None" fill-opacity="0.0" stroke="#000000" stroke-opacity="0.31" stroke-width="0.3"><path d="
M 215.00 153.00 
C 215.00 153.00 215.69 153.24 216.00 153.00
C 217.63 151.73 221.13 151.35 223.00 153.00
C 219.50 148.70 212.06 152.07 207.00 151.00
C 208.52 153.17 212.90 151.44 215.00 153.00 Z"/>
</g>
<g fill="None" fill-opacity="0.0" stroke="#000000" stroke-opacity="0.93" stroke-width="0.3"><path d="
M 223.00 153.00 
C 221.13 151.35 217.63 151.73 216.00 153.00
C 220.97 166.69 230.87 180.39 220.00 193.00
C 231.17 194.55 231.22 181.74 235.01 175.01 C 238.80 168.28 240.93 157.88 245.00 151.00
C 233.15 150.62 234.77 165.16 229.00 172.00
C 225.38 166.53 227.00 157.92 223.00 153.00 Z"/>
</g>
<g fill="None" fill-opacity="0.0" stroke="#000000" stroke-opacity="0.89" stroke-width="0.3"><path d="
M 285.00 167.00 
C 287.63 156.33 276.34 149.37 267.08 151.08 C 257.82 152.79 254.10 163.05 257.23 170.77 C 260.35 178.49 267.83 184.70 277.77 179.77 C 287.71 174.84 275.04 169.99 267.00 175.00
C 265.28 172.79 262.01 171.64 263.00 168.00
C 270.26 167.40 278.16 169.24 285.00 167.00
M 279.00 159.00 
C 276.44 165.01 267.39 160.69 262.00 162.00
C 265.38 154.89 272.49 154.97 279.00 159.00 Z"/>
</g>
<g fill="None" fill-opacity="0.0" stroke="#000000" stroke-opacity="0.04" stroke-width="0.3"><path d="
M 151.00 169.00 
C 151.82 162.24 145.54 152.55 138.25 157.25 C 130.96 161.95 134.26 170.37 139.00 175.00
C 141.19 173.19 143.72 174.45 146.00 175.00
C 147.24 172.80 149.69 171.00 151.00 169.00 Z"/>
</g>
<g fill="None" fill-opacity="0.0" stroke="#000000" stroke-opacity="0.07" stroke-width="0.3"><path d="
M 279.00 159.00 
C 272.49 154.97 265.38 154.89 262.00 162.00
C 267.39 160.69 276.44 165.01 279.00 159.00 Z"/>
</g>
<g fill="None" fill-opacity="0.0" stroke="#000000" stroke-opacity="0.50" stroke-width="0.3"><path d="
M 65.00 180.00 
C 69.00 178.46 67.36 163.99 66.00 160.00
C 66.62 165.33 63.45 173.76 65.00 180.00 Z"/>
</g>
<g fill="#000000" fill-opacity="0.00" stroke="None">
<path d="
M 0.00 226.00 
L 300.00 226.00
L 300.00 0.00
L 0.00 0.00
L 0.00 226.00
M 114.00 63.00 
C 112.61 56.49 112.33 42.43 114.00 36.00
C 115.65 29.64 120.79 32.23 124.00 35.00
C 133.94 43.58 142.30 55.52 153.00 63.00
C 153.00 54.77 150.99 42.87 153.00 35.00 C 155.01 27.13 166.64 37.17 169.75 41.25 C 172.87 45.32 179.19 50.90 183.75 55.25 C 188.30 59.61 193.03 65.22 198.10 69.90 C 203.17 74.58 207.10 78.78 212.75 84.25 C 218.41 89.72 219.59 91.65 226.75 98.25 C 233.91 104.84 228.66 111.62 218.00 110.00 C 207.34 108.38 199.41 110.00 189.00 110.00
C 176.67 110.00 164.33 110.00 152.00 110.00
C 140.72 110.00 132.59 109.03 121.00 110.00 C 109.41 110.97 101.57 107.54 89.00 110.00 C 76.43 112.46 74.56 101.13 76.00 91.00 C 77.44 80.87 75.20 67.33 76.00 59.00 C 76.80 50.67 73.17 32.21 81.01 32.01 C 88.85 31.81 91.99 43.46 97.75 47.25 C 103.51 51.04 109.53 58.20 114.00 63.00
M 75.00 139.00 
C 79.07 140.00 78.27 147.89 72.99 146.99 C 67.71 146.10 70.15 137.81 75.00 139.00
M 253.00 139.00 
C 253.00 152.67 253.00 166.33 253.00 180.00
C 243.61 181.80 246.81 166.62 247.00 160.00 C 247.19 153.38 243.20 137.24 253.00 139.00
M 167.00 144.00 
C 168.99 147.50 167.75 151.84 167.00 155.00
C 163.95 155.66 157.65 156.35 157.03 149.97 C 156.40 143.60 163.61 142.31 167.00 144.00
M 207.00 151.00 
C 212.06 152.07 219.50 148.70 223.00 153.00
C 227.00 157.92 225.38 166.53 229.00 172.00
C 234.77 165.16 233.15 150.62 245.00 151.00
C 240.93 157.88 238.80 168.28 235.01 175.01 C 231.22 181.74 231.17 194.55 220.00 193.00
C 230.87 180.39 220.97 166.69 216.00 153.00
C 215.69 153.24 215.00 153.00 215.00 153.00
C 215.90 158.61 210.82 156.68 207.00 157.00
C 207.34 163.63 204.07 178.06 215.00 174.00
C 218.88 180.70 206.78 181.42 202.75 177.25 C 198.73 173.07 200.26 162.79 200.00 157.00
C 196.11 158.10 194.03 155.85 195.00 152.00
C 204.90 155.53 195.64 139.57 207.00 143.00
C 207.00 145.67 207.00 148.33 207.00 151.00
M 194.00 154.00 
C 192.45 155.55 192.17 158.18 190.00 159.00
C 187.30 152.83 171.40 155.98 180.00 163.00
C 190.52 158.55 199.15 171.64 191.25 178.25 C 183.35 184.85 167.11 178.84 174.00 171.00
C 173.60 176.10 190.91 177.56 188.92 171.92 C 186.93 166.28 179.47 168.81 174.75 165.25 C 170.04 161.68 170.11 155.03 176.75 151.75 C 183.39 148.47 187.80 151.87 194.00 154.00
M 66.00 160.00 
C 67.36 163.99 69.00 178.46 65.00 180.00
C 63.55 180.56 61.50 179.58 60.00 180.00
C 60.00 173.00 60.00 166.00 60.00 159.00
C 46.82 149.76 45.36 170.18 47.00 180.00
C 33.03 183.40 48.13 158.41 36.75 156.25 C 25.37 154.09 27.97 173.23 28.00 180.00
C 17.98 182.71 23.41 169.28 22.00 164.00 C 20.59 158.72 22.78 145.35 28.00 154.00
C 32.35 149.45 41.67 149.87 44.00 156.00
C 50.02 148.24 63.77 149.80 66.00 160.00
M 76.00 180.00 
C 68.09 182.08 70.07 174.53 70.00 169.00 C 69.93 163.47 70.05 156.65 70.00 151.00
C 81.88 152.81 73.49 170.80 76.00 180.00
M 103.00 155.00 
C 120.23 141.70 130.15 163.58 126.00 180.00
C 111.95 183.57 126.85 161.19 115.75 157.25 C 104.66 153.31 105.29 172.78 106.00 180.00
C 95.87 182.16 100.50 166.74 101.00 161.00
C 98.07 154.84 89.41 155.23 88.03 162.03 C 86.65 168.83 92.25 182.12 81.00 180.00
C 83.28 171.16 81.37 161.25 82.00 152.00
C 88.64 155.28 97.07 147.06 103.00 155.00
M 146.00 151.00 
C 160.34 153.12 161.40 182.75 141.99 180.99 C 122.58 179.23 124.04 147.75 146.00 151.00
M 285.00 167.00 
C 278.16 169.24 270.26 167.40 263.00 168.00
C 262.01 171.64 265.28 172.79 267.00 175.00
C 275.04 169.99 287.71 174.84 277.77 179.77 C 267.83 184.70 260.35 178.49 257.23 170.77 C 254.10 163.05 257.82 152.79 267.08 151.08 C 276.34 149.37 287.63 156.33 285.00 167.00 Z"/>
</g>
<g fill="#1F03D4" fill-opacity="0.96" stroke="None">
<path d="
M 152.00 110.00 
C 153.05 109.25 153.31 104.24 153.00 103.00
C 152.11 100.23 146.23 97.43 144.25 94.75 C 142.27 92.07 138.35 88.35 136.00 86.00
C 129.43 79.43 119.85 72.97 115.00 65.00
C 114.71 64.52 114.33 63.35 114.00 63.00
C 109.53 58.20 103.51 51.04 97.75 47.25 C 91.99 43.46 88.85 31.81 81.01 32.01 C 73.17 32.21 76.80 50.67 76.00 59.00 C 75.20 67.33 77.44 80.87 76.00 91.00 C 74.56 101.13 76.43 112.46 89.00 110.00 C 101.57 107.54 109.41 110.97 121.00 110.00 C 132.59 109.03 140.72 110.00 152.00 110.00 Z"/>
</g>
<g fill="#FAC423" fill-opacity="0.98" stroke="None">
<path d="
M 114.00 36.00 
C 114.84 34.31 116.84 44.15 116.00 48.00 C 115.16 51.85 116.39 60.68 116.00 65.00
C 121.24 72.50 129.58 79.58 136.00 86.00
C 140.12 90.12 151.57 97.27 153.00 103.00
C 153.31 104.24 153.05 109.25 152.00 110.00
C 164.33 110.00 176.67 110.00 189.00 110.00
C 196.87 106.57 186.14 97.23 182.25 93.75 C 178.36 90.28 172.06 83.41 167.75 79.25 C 163.45 75.08 157.63 68.96 153.00 65.00
C 144.07 57.36 131.10 47.02 125.00 37.00
C 124.59 36.33 124.36 35.66 124.00 35.00
C 120.79 32.23 115.65 29.64 114.00 36.00 Z"/>
</g>
<g fill="#FB1C12" fill-opacity="0.94" stroke="None">
<path d="
M 153.00 63.00 
C 153.00 63.50 153.00 64.00 153.00 64.00
C 153.00 64.50 153.00 65.00 153.00 65.00
C 157.63 68.96 163.45 75.08 167.75 79.25 C 172.06 83.41 178.36 90.28 182.25 93.75 C 186.14 97.23 196.87 106.57 189.00 110.00
C 199.41 110.00 207.34 108.38 218.00 110.00 C 228.66 111.62 233.91 104.84 226.75 98.25 C 219.59 91.65 218.41 89.72 212.75 84.25 C 207.10 78.78 203.17 74.58 198.10 69.90 C 193.03 65.22 188.30 59.61 183.75 55.25 C 179.19 50.90 172.87 45.32 169.75 41.25 C 166.64 37.17 155.01 27.13 153.00 35.00 C 150.99 42.87 153.00 54.77 153.00 63.00 Z"/>
</g>
<g fill="#EFBF3C" fill-opacity="0.50" stroke="None">
<path d="
M 114.00 36.00 
C 112.33 42.43 112.61 56.49 114.00 63.00
C 114.33 63.35 114.71 64.52 115.00 65.00
C 115.40 65.20 116.00 65.00 116.00 65.00
C 116.39 60.68 115.16 51.85 116.00 48.00 C 116.84 44.15 114.84 34.31 114.00 36.00 Z"/>
</g>
<g fill="#ECC045" fill-opacity="0.05" stroke="None">
<path d="
M 125.00 37.00 
C 133.21 45.79 143.19 57.15 153.00 64.00
C 153.00 64.00 153.00 63.50 153.00 63.00
C 142.30 55.52 133.94 43.58 124.00 35.00
C 124.36 35.66 124.59 36.33 125.00 37.00 Z"/>
</g>
<g fill="#F5C332" fill-opacity="0.70" stroke="None">
<path d="
M 153.00 65.00 
C 153.00 65.00 153.00 64.50 153.00 64.00
C 143.19 57.15 133.21 45.79 125.00 37.00
C 131.10 47.02 144.07 57.36 153.00 65.00 Z"/>
</g>
<g fill="#9C7777" fill-opacity="1.00" stroke="None">
<path d="
M 136.00 86.00 
C 129.58 79.58 121.24 72.50 116.00 65.00
C 116.00 65.00 115.40 65.20 115.00 65.00
C 119.85 72.97 129.43 79.43 136.00 86.00 Z"/>
</g>
<g fill="#815B7D" fill-opacity="1.00" stroke="None">
<path d="
M 153.00 103.00 
C 151.57 97.27 140.12 90.12 136.00 86.00
C 138.35 88.35 142.27 92.07 144.25 94.75 C 146.23 97.43 152.11 100.23 153.00 103.00 Z"/>
</g>
<g fill="#000000" fill-opacity="0.85" stroke="None">
<path d="
M 75.00 139.00 
C 70.15 137.81 67.71 146.10 72.99 146.99 C 78.27 147.89 79.07 140.00 75.00 139.00 Z"/>
</g>
<g fill="#000000" fill-opacity="0.94" stroke="None">
<path d="
M 253.00 139.00 
C 243.20 137.24 247.19 153.38 247.00 160.00 C 246.81 166.62 243.61 181.80 253.00 180.00
C 253.00 166.33 253.00 152.67 253.00 139.00 Z"/>
</g>
<g fill="#010101" fill-opacity="0.49" stroke="None">
<path d="
M 167.00 144.00 
C 163.61 142.31 156.40 143.60 157.03 149.97 C 157.65 156.35 163.95 155.66 167.00 155.00
C 167.75 151.84 168.99 147.50 167.00 144.00
M 166.00 148.00 
C 166.09 151.87 163.52 151.43 161.00 152.00
C 160.09 146.12 162.74 148.55 166.00 148.00 Z"/>
</g>
<g fill="#000000" fill-opacity="0.87" stroke="None">
<path d="
M 215.00 153.00 
C 212.90 151.44 208.52 153.17 207.00 151.00
C 207.00 148.33 207.00 145.67 207.00 143.00
C 195.64 139.57 204.90 155.53 195.00 152.00
C 194.03 155.85 196.11 158.10 200.00 157.00
C 200.26 162.79 198.73 173.07 202.75 177.25 C 206.78 181.42 218.88 180.70 215.00 174.00
C 204.07 178.06 207.34 163.63 207.00 157.00
C 210.82 156.68 215.90 158.61 215.00 153.00 Z"/>
</g>
<g fill="#020202" fill-opacity="0.78" stroke="None">
<path d="
M 166.00 148.00 
C 162.74 148.55 160.09 146.12 161.00 152.00
C 163.52 151.43 166.09 151.87 166.00 148.00 Z"/>
</g>
<g fill="#000000" fill-opacity="0.91" stroke="None">
<path d="
M 194.00 154.00 
C 187.80 151.87 183.39 148.47 176.75 151.75 C 170.11 155.03 170.04 161.68 174.75 165.25 C 179.47 168.81 186.93 166.28 188.92 171.92 C 190.91 177.56 173.60 176.10 174.00 171.00
C 167.11 178.84 183.35 184.85 191.25 178.25 C 199.15 171.64 190.52 158.55 180.00 163.00
C 171.40 155.98 187.30 152.83 190.00 159.00
C 192.17 158.18 192.45 155.55 194.00 154.00 Z"/>
</g>
<g fill="#000000" fill-opacity="0.94" stroke="None">
<path d="
M 65.00 180.00 
C 63.45 173.76 66.62 165.33 66.00 160.00
C 63.77 149.80 50.02 148.24 44.00 156.00
C 41.67 149.87 32.35 149.45 28.00 154.00
C 22.78 145.35 20.59 158.72 22.00 164.00 C 23.41 169.28 17.98 182.71 28.00 180.00
C 27.97 173.23 25.37 154.09 36.75 156.25 C 48.13 158.41 33.03 183.40 47.00 180.00
C 45.36 170.18 46.82 149.76 60.00 159.00
C 60.00 166.00 60.00 173.00 60.00 180.00
C 61.50 179.58 63.55 180.56 65.00 180.00 Z"/>
</g>
<g fill="#000000" fill-opacity="0.87" stroke="None">
<path d="
M 76.00 180.00 
C 73.49 170.80 81.88 152.81 70.00 151.00
C 70.05 156.65 69.93 163.47 70.00 169.00 C 70.07 174.53 68.09 182.08 76.00 180.00 Z"/>
</g>
<g fill="#000000" fill-opacity="0.91" stroke="None">
<path d="
M 103.00 155.00 
C 97.07 147.06 88.64 155.28 82.00 152.00
C 81.37 161.25 83.28 171.16 81.00 180.00
C 92.25 182.12 86.65 168.83 88.03 162.03 C 89.41 155.23 98.07 154.84 101.00 161.00
C 100.50 166.74 95.87 182.16 106.00 180.00
C 105.29 172.78 104.66 153.31 115.75 157.25 C 126.85 161.19 111.95 183.57 126.00 180.00
C 130.15 163.58 120.23 141.70 103.00 155.00 Z"/>
</g>
<g fill="#000000" fill-opacity="0.90" stroke="None">
<path d="
M 146.00 151.00 
C 124.04 147.75 122.58 179.23 141.99 180.99 C 161.40 182.75 160.34 153.12 146.00 151.00
M 151.00 169.00 
C 149.69 171.00 147.24 172.80 146.00 175.00
C 143.72 174.45 141.19 173.19 139.00 175.00
C 134.26 170.37 130.96 161.95 138.25 157.25 C 145.54 152.55 151.82 162.24 151.00 169.00 Z"/>
</g>
<g fill="#000000" fill-opacity="0.31" stroke="None">
<path d="
M 215.00 153.00 
C 215.00 153.00 215.69 153.24 216.00 153.00
C 217.63 151.73 221.13 151.35 223.00 153.00
C 219.50 148.70 212.06 152.07 207.00 151.00
C 208.52 153.17 212.90 151.44 215.00 153.00 Z"/>
</g>
<g fill="#000000" fill-opacity="0.93" stroke="None">
<path d="
M 223.00 153.00 
C 221.13 151.35 217.63 151.73 216.00 153.00
C 220.97 166.69 230.87 180.39 220.00 193.00
C 231.17 194.55 231.22 181.74 235.01 175.01 C 238.80 168.28 240.93 157.88 245.00 151.00
C 233.15 150.62 234.77 165.16 229.00 172.00
C 225.38 166.53 227.00 157.92 223.00 153.00 Z"/>
</g>
<g fill="#000000" fill-opacity="0.89" stroke="None">
<path d="
M 285.00 167.00 
C 287.63 156.33 276.34 149.37 267.08 151.08 C 257.82 152.79 254.10 163.05 257.23 170.77 C 260.35 178.49 267.83 184.70 277.77 179.77 C 287.71 174.84 275.04 169.99 267.00 175.00
C 265.28 172.79 262.01 171.64 263.00 168.00
C 270.26 167.40 278.16 169.24 285.00 167.00
M 279.00 159.00 
C 276.44 165.01 267.39 160.69 262.00 162.00
C 265.38 154.89 272.49 154.97 279.00 159.00 Z"/>
</g>
<g fill="#000000" fill-opacity="0.04" stroke="None">
<path d="
M 151.00 169.00 
C 151.82 162.24 145.54 152.55 138.25 157.25 C 130.96 161.95 134.26 170.37 139.00 175.00
C 141.19 173.19 143.72 174.45 146.00 175.00
C 147.24 172.80 149.69 171.00 151.00 169.00 Z"/>
</g>
<g fill="#000000" fill-opacity="0.07" stroke="None">
<path d="
M 279.00 159.00 
C 272.49 154.97 265.38 154.89 262.00 162.00
C 267.39 160.69 276.44 165.01 279.00 159.00 Z"/>
</g>
<g fill="#000000" fill-opacity="0.50" stroke="None">
<path d="
M 65.00 180.00 
C 69.00 178.46 67.36 163.99 66.00 160.00
C 66.62 165.33 63.45 173.76 65.00 180.00 Z"/>
</g>
</svg>
