<svg xmlns="http://www.w3.org/2000/svg" xmlns:v="https://svgstorm.com"
viewBox = "0 0 300 246"
width="300"
height="246">
<g fill="None" fill-opacity="0.0" stroke="#000000" stroke-opacity="0.00" stroke-width="0.3"><path d="
M 0.00 246.00 
L 300.00 246.00
L 300.00 0.00
L 0.00 0.00
L 0.00 246.00
M 117.00 10.00 
C 117.29 10.53 117.66 11.58 118.00 12.00
C 120.09 14.61 122.25 16.99 124.00 20.00
C 134.70 33.69 146.30 46.57 156.00 61.00
C 156.91 62.35 157.27 63.76 158.00 65.00
C 159.92 67.53 163.67 70.86 166.00 74.00
C 169.64 78.89 173.26 83.96 177.00 89.00
C 181.74 95.37 188.15 101.27 191.00 109.00
C 192.28 112.46 192.87 116.20 193.00 120.00
C 193.28 121.90 193.27 123.16 193.00 125.00
C 192.92 127.38 192.44 128.87 192.00 131.00
C 191.41 133.88 191.47 138.11 189.00 140.00
C 188.91 140.48 189.00 141.00 189.00 141.00
C 188.80 146.27 185.23 150.70 185.00 156.00
C 176.70 153.05 173.12 142.29 167.00 136.00
C 166.76 135.68 167.00 135.00 167.00 135.00
C 155.06 126.65 145.65 108.76 137.00 97.00
C 136.31 96.07 135.70 94.85 135.00 94.00
C 133.42 92.08 131.55 90.12 130.00 88.00
C 128.93 86.53 127.94 84.14 127.00 83.00
C 125.47 81.14 124.22 79.96 123.00 78.00
C 117.52 70.85 110.68 64.34 107.00 56.00
C 101.84 44.32 104.57 33.46 108.00 22.00
C 108.80 19.31 110.24 16.34 111.00 14.00
C 111.52 11.65 111.44 9.35 112.00 7.00
C 114.16 6.47 116.24 8.11 117.00 10.00
M 202.00 53.00 
C 202.65 53.90 203.40 55.18 204.00 56.00
C 207.38 58.89 209.57 62.85 210.00 68.00
C 210.19 70.22 210.19 72.78 210.00 75.00
C 209.52 80.73 206.56 85.58 205.00 91.00
C 204.14 94.00 204.74 97.03 202.00 99.00
C 201.84 99.44 202.00 100.00 202.00 100.00
C 202.22 107.82 191.88 94.83 189.08 89.92 C 186.28 85.01 178.66 77.53 175.23 71.77 C 171.80 66.01 163.29 59.60 163.00 52.00
C 162.98 51.50 163.00 51.00 163.00 51.00
C 160.92 48.19 162.57 44.66 163.00 42.00
C 163.53 32.19 168.82 23.42 171.00 14.00
C 183.01 24.56 192.20 40.13 202.00 53.00
M 99.00 64.00 
C 99.41 64.62 99.62 65.41 100.00 66.00
C 100.48 66.74 100.58 67.09 101.00 68.00
C 103.67 71.74 107.29 75.14 110.00 79.00
C 110.79 79.75 110.88 79.74 111.00 81.00
C 112.67 83.34 115.21 85.62 117.00 88.00
C 120.29 92.38 123.74 97.84 127.00 102.00
C 127.49 102.63 128.47 103.35 129.00 104.00
C 140.64 118.25 128.46 135.94 126.00 151.00
C 122.05 151.16 120.50 146.69 118.00 144.00
C 117.23 142.74 116.89 141.16 116.00 140.00
C 110.52 132.85 104.52 124.83 99.00 118.00
C 98.47 117.34 97.55 116.69 97.00 116.00
C 92.65 110.57 87.10 105.22 86.00 98.00
C 84.40 87.51 89.95 76.46 93.00 67.00
C 93.41 65.74 93.81 62.46 95.00 62.00
C 96.92 61.26 98.15 62.70 99.00 64.00
M 36.00 184.00 
C 36.22 184.36 36.00 185.00 36.00 185.00
C 38.39 186.56 39.45 188.74 41.00 191.00
C 44.25 195.73 47.81 199.83 50.00 205.00
C 51.25 206.68 53.34 207.00 54.00 210.00
C 58.16 204.38 53.11 190.57 55.00 184.00 C 56.89 177.43 50.85 164.57 60.00 162.00
C 64.83 160.64 68.46 162.84 70.00 167.00
C 73.25 175.81 70.54 191.45 71.00 201.00 C 71.46 210.55 73.86 225.54 64.00 230.00
C 61.80 231.00 57.50 231.71 55.00 231.00
C 44.82 229.94 36.98 214.00 32.00 206.00
C 31.78 205.64 32.00 205.00 32.00 205.00
C 30.18 203.73 27.93 200.47 27.00 201.00
C 27.45 202.30 27.00 204.61 27.00 206.00
C 27.00 211.68 28.04 219.20 26.00 224.00
C 26.00 224.50 26.08 225.51 26.00 226.00
C 25.56 228.69 22.66 230.99 20.00 231.00
C 17.99 231.65 16.36 230.61 15.00 230.00
C 8.42 227.06 10.83 216.16 11.00 209.00 C 11.17 201.84 9.78 190.37 11.00 183.00 C 12.22 175.63 7.93 163.70 11.00 157.00
C 10.26 155.56 17.32 154.80 18.75 159.25 C 20.19 163.69 20.89 162.51 24.30 167.70 C 27.71 172.88 32.56 178.46 36.00 184.00
M 95.00 169.00 
C 95.20 170.11 95.16 171.88 95.00 173.00
C 94.22 178.38 88.18 181.05 83.00 180.00
C 76.48 178.68 76.48 171.48 77.00 166.00
C 80.13 165.53 80.27 161.06 84.00 162.00
C 85.21 161.84 87.85 161.61 89.00 162.00
C 91.33 162.97 94.57 166.59 95.00 169.00
M 123.00 174.00 
C 123.02 174.50 123.00 175.50 123.00 176.00
C 123.00 178.67 123.00 181.33 123.00 184.00
C 126.08 184.72 130.01 182.99 133.00 184.00
C 142.62 187.25 132.47 203.78 123.00 197.00
C 124.09 203.86 120.32 213.27 126.00 218.00
C 129.63 218.10 132.47 217.23 136.00 217.00
C 135.48 219.23 137.54 220.73 137.00 223.00
C 137.68 224.98 140.32 227.10 139.00 230.00
C 136.67 229.56 134.98 231.24 133.00 232.00
C 132.57 232.17 131.42 231.82 131.00 232.00
C 128.21 233.19 122.68 233.98 120.00 232.00
C 119.68 232.24 119.00 232.00 119.00 232.00
C 116.60 231.44 114.84 230.38 113.00 229.00
C 108.80 225.84 107.43 222.13 107.00 217.00
C 106.92 216.02 107.00 214.98 107.00 214.00
C 106.15 210.11 107.38 204.37 107.00 201.00
C 106.74 199.72 107.20 198.29 107.00 197.00
C 105.33 197.00 103.67 197.00 102.00 197.00
C 99.61 195.99 100.05 196.38 99.00 194.00
C 98.66 193.24 98.21 192.82 98.00 192.00
C 97.46 189.88 98.44 188.44 99.00 187.00
C 99.20 185.57 99.00 185.87 100.00 185.00
C 101.80 183.44 104.54 184.13 107.00 184.00
C 107.00 182.67 107.00 181.33 107.00 180.00
C 107.25 178.26 105.86 176.35 107.00 174.00
C 107.24 173.06 106.81 171.95 107.00 171.00
C 111.91 172.34 121.23 167.94 123.00 174.00
M 179.00 187.00 
C 179.37 188.07 179.21 190.88 179.00 192.00
C 178.83 192.91 178.26 194.04 178.00 195.00
C 176.58 200.25 175.82 198.73 171.00 200.00
C 164.99 202.14 161.57 204.67 160.00 211.00
C 158.30 217.88 162.05 230.47 152.00 231.00
C 151.08 231.05 149.91 231.13 149.00 231.00
C 140.57 229.77 142.32 215.04 143.00 209.00 C 143.68 202.96 139.68 186.19 146.00 184.00
C 150.48 182.45 161.01 183.02 159.00 190.00
C 161.35 189.15 162.23 185.76 165.00 186.00
C 168.43 184.05 177.70 179.80 179.00 187.00
M 218.00 186.00 
C 219.09 186.32 219.95 186.43 221.00 187.00
C 223.82 188.55 227.45 192.27 229.00 195.00
C 232.25 200.71 232.72 208.67 231.00 215.00
C 228.67 223.60 221.59 229.98 213.00 232.00
C 212.53 232.11 212.00 232.00 212.00 232.00
C 209.19 234.08 202.83 233.20 200.00 232.00
C 199.50 232.00 198.46 232.13 198.00 232.00
C 195.71 231.36 193.78 230.21 192.00 229.00
C 191.37 228.57 190.62 228.38 190.00 228.00
C 185.51 225.27 182.33 220.78 181.00 216.00
C 179.73 211.46 179.03 206.71 180.00 202.00
C 181.80 193.29 189.63 184.49 199.00 183.00
C 201.78 182.56 205.18 182.89 208.00 183.00
C 212.69 183.18 214.29 184.24 218.00 186.00
M 285.00 197.00 
C 285.09 198.31 284.82 199.70 285.00 201.00
C 285.72 206.31 288.54 220.22 285.00 225.00
C 285.00 225.50 285.00 226.00 285.00 226.00
C 285.00 226.50 285.00 227.00 285.00 227.00
C 284.33 229.53 282.48 230.63 280.00 231.00
C 278.65 231.20 276.33 231.29 275.00 231.00
C 272.39 230.43 270.48 227.46 270.00 225.00
C 268.40 216.88 271.44 207.89 269.00 200.00
C 266.08 199.77 264.32 196.25 261.00 197.00
C 257.92 197.39 255.64 201.95 254.00 204.00
C 253.95 204.50 254.00 205.00 254.00 205.00
C 254.00 212.13 257.43 229.66 248.00 231.00
C 243.64 231.62 240.62 230.71 239.00 227.00
C 236.87 222.12 237.59 210.46 238.00 205.00 C 238.41 199.54 235.03 186.18 241.00 184.00
C 242.66 183.40 247.26 183.65 249.00 184.00
C 250.61 184.33 253.33 184.69 253.00 187.00
C 254.82 187.55 255.47 185.25 257.00 185.00
C 261.38 183.26 264.99 182.62 270.00 183.00
C 277.56 183.58 284.48 188.96 285.00 197.00
M 93.00 186.00 
C 95.71 188.61 94.00 199.10 94.00 203.00
C 94.00 207.00 94.00 211.00 94.00 215.00
C 94.00 218.21 94.77 222.60 93.00 225.00
C 93.00 225.50 93.00 226.00 93.00 226.00
C 93.00 226.50 93.00 227.00 93.00 227.00
C 92.22 229.93 89.89 230.93 87.00 231.00
C 86.03 231.02 84.96 231.09 84.00 231.00
C 75.26 230.15 75.78 216.15 77.00 210.00 C 78.22 203.85 73.10 186.52 80.00 184.00
C 82.29 182.89 92.18 183.25 93.00 186.00 Z"/>
</g>
<g fill="None" fill-opacity="0.0" stroke="#E33526" stroke-opacity="0.97" stroke-width="0.3"><path d="
M 111.00 14.00 
C 110.37 16.86 108.99 19.57 108.00 22.00
C 104.57 33.46 101.84 44.32 107.00 56.00
C 109.94 61.00 114.33 66.20 118.00 71.00
C 119.90 73.06 122.25 74.78 124.00 77.00
C 125.71 79.16 126.50 81.81 127.00 83.00
C 127.94 84.14 128.93 86.53 130.00 88.00
C 132.04 90.21 133.50 91.58 135.00 94.00
C 135.70 94.85 136.31 96.07 137.00 97.00
C 140.18 100.47 143.35 103.14 146.00 107.00
C 149.19 110.66 152.39 113.81 155.00 118.00
C 155.22 118.36 155.00 119.00 155.00 119.00
C 157.72 120.90 159.34 123.26 161.00 126.00
C 161.94 127.55 162.78 129.41 164.00 131.00
C 166.56 133.77 168.85 135.90 171.00 139.00
C 171.69 140.00 172.36 141.02 173.00 142.00
C 175.02 144.31 177.36 146.27 179.00 149.00
C 180.20 151.00 180.71 155.16 184.00 155.00
C 185.34 150.36 186.38 144.88 189.00 141.00
C 189.00 141.00 188.91 140.48 189.00 140.00
C 189.59 136.82 191.11 133.73 192.00 131.00
C 192.44 128.87 192.92 127.38 193.00 125.00
C 193.06 123.35 193.06 121.65 193.00 120.00
C 192.87 116.20 192.28 112.46 191.00 109.00
C 190.23 107.37 188.10 104.80 187.00 103.00
C 184.06 99.24 180.10 96.50 178.00 92.00
C 177.62 91.18 177.40 89.64 177.00 89.00
C 172.73 82.21 165.27 77.05 161.00 70.00
C 160.11 68.53 158.95 66.62 158.00 65.00
C 157.27 63.76 156.91 62.35 156.00 61.00
C 150.91 54.95 145.68 49.41 141.00 43.00
C 138.77 40.59 136.74 38.86 135.00 36.00
C 131.75 30.64 127.15 25.42 124.00 20.00
C 122.25 16.99 120.09 14.61 118.00 12.00
C 119.22 13.00 112.47 8.19 117.00 10.00
C 116.24 8.11 114.16 6.47 112.00 7.00
C 111.44 9.35 111.52 11.65 111.00 14.00 Z"/>
</g>
<g fill="None" fill-opacity="0.0" stroke="#C6554A" stroke-opacity="0.35" stroke-width="0.3"><path d="
M 118.00 12.00 
C 117.66 11.58 117.29 10.53 117.00 10.00
C 112.47 8.19 119.22 13.00 118.00 12.00 Z"/>
</g>
<g fill="None" fill-opacity="0.0" stroke="#DE8D7E" stroke-opacity="0.08" stroke-width="0.3"><path d="
M 108.00 22.00 
C 108.99 19.57 110.37 16.86 111.00 14.00
C 110.24 16.34 108.80 19.31 108.00 22.00 Z"/>
</g>
<g fill="None" fill-opacity="0.0" stroke="#FBD51B" stroke-opacity="0.93" stroke-width="0.3"><path d="
M 163.00 42.00 
C 162.84 44.98 163.00 48.02 163.00 51.00
C 163.00 51.00 162.98 51.50 163.00 52.00
C 165.80 57.35 170.69 65.70 174.77 70.23 C 178.85 74.76 185.51 82.39 187.92 87.08 C 190.34 91.76 199.85 104.06 202.00 100.00
C 202.00 100.00 201.84 99.44 202.00 99.00
C 203.02 96.12 203.87 93.42 205.00 91.00
C 206.56 85.58 209.52 80.73 210.00 75.00
C 209.99 73.61 209.99 69.32 210.00 68.00
C 209.57 62.85 207.38 58.89 204.00 56.00
C 203.60 55.66 202.37 53.82 202.00 53.00
C 192.20 40.13 183.01 24.56 171.00 14.00
C 168.82 23.42 163.53 32.19 163.00 42.00 Z"/>
</g>
<g fill="None" fill-opacity="0.0" stroke="#DE7F74" stroke-opacity="0.09" stroke-width="0.3"><path d="
M 135.00 36.00 
C 136.80 38.35 139.18 40.50 141.00 43.00
C 145.68 49.41 150.91 54.95 156.00 61.00
C 146.30 46.57 134.70 33.69 124.00 20.00
C 127.15 25.42 131.75 30.64 135.00 36.00 Z"/>
</g>
<g fill="None" fill-opacity="0.0" stroke="#BC3F35" stroke-opacity="0.56" stroke-width="0.3"><path d="
M 141.00 43.00 
C 139.18 40.50 136.80 38.35 135.00 36.00
C 136.74 38.86 138.77 40.59 141.00 43.00 Z"/>
</g>
<g fill="None" fill-opacity="0.0" stroke="#F3E693" stroke-opacity="0.09" stroke-width="0.3"><path d="
M 163.00 51.00 
C 163.00 48.02 162.84 44.98 163.00 42.00
C 162.57 44.66 160.92 48.19 163.00 51.00 Z"/>
</g>
<g fill="None" fill-opacity="0.0" stroke="#F1E372" stroke-opacity="0.14" stroke-width="0.3"><path d="
M 202.00 100.00 
C 199.85 104.06 190.34 91.76 187.92 87.08 C 185.51 82.39 178.85 74.76 174.77 70.23 C 170.69 65.70 165.80 57.35 163.00 52.00
C 163.29 59.60 171.80 66.01 175.23 71.77 C 178.66 77.53 186.28 85.01 189.08 89.92 C 191.88 94.83 202.22 107.82 202.00 100.00 Z"/>
</g>
<g fill="None" fill-opacity="0.0" stroke="#E5D24A" stroke-opacity="0.33" stroke-width="0.3"><path d="
M 204.00 56.00 
C 203.40 55.18 202.65 53.90 202.00 53.00
C 202.37 53.82 203.60 55.66 204.00 56.00 Z"/>
</g>
<g fill="None" fill-opacity="0.0" stroke="#DA7970" stroke-opacity="0.06" stroke-width="0.3"><path d="
M 123.00 78.00 
C 122.38 77.00 121.67 75.89 121.00 75.00
C 120.01 73.68 118.97 72.26 118.00 71.00
C 114.33 66.20 109.94 61.00 107.00 56.00
C 110.68 64.34 117.52 70.85 123.00 78.00 Z"/>
</g>
<g fill="None" fill-opacity="0.0" stroke="#A3E3EE" stroke-opacity="0.07" stroke-width="0.3"><path d="
M 93.00 67.00 
C 93.62 65.63 96.40 64.49 95.00 62.00
C 93.81 62.46 93.41 65.74 93.00 67.00 Z"/>
</g>
<g fill="None" fill-opacity="0.0" stroke="#1BA7AF" stroke-opacity="0.92" stroke-width="0.3"><path d="
M 93.00 67.00 
C 89.95 76.46 84.40 87.51 86.00 98.00
C 87.09 102.22 91.77 108.68 95.00 112.00
C 97.14 114.20 98.31 116.47 99.00 118.00
C 104.52 124.83 110.52 132.85 116.00 140.00
C 116.65 140.47 120.62 142.12 121.00 145.00
C 119.72 145.53 119.14 144.03 118.00 144.00
C 120.50 146.69 122.05 151.16 126.00 151.00
C 128.46 135.94 140.64 118.25 129.00 104.00
C 128.70 103.71 127.36 102.73 127.00 102.00
C 123.74 97.84 120.29 92.38 117.00 88.00
C 114.98 86.43 111.33 84.44 111.00 81.00
C 110.88 79.74 110.79 79.75 110.00 79.00
C 106.82 75.96 102.90 72.08 101.00 68.00
C 100.58 67.09 100.48 66.74 100.00 66.00
C 100.46 66.23 95.17 62.47 99.00 64.00
C 98.15 62.70 96.92 61.26 95.00 62.00
C 96.40 64.49 93.62 65.63 93.00 67.00 Z"/>
</g>
<g fill="None" fill-opacity="0.0" stroke="#4B9BA9" stroke-opacity="0.31" stroke-width="0.3"><path d="
M 100.00 66.00 
C 99.62 65.41 99.41 64.62 99.00 64.00
C 95.17 62.47 100.46 66.23 100.00 66.00 Z"/>
</g>
<g fill="None" fill-opacity="0.0" stroke="#E9A49C" stroke-opacity="0.06" stroke-width="0.3"><path d="
M 161.00 70.00 
C 162.24 71.50 164.71 72.63 166.00 74.00
C 163.67 70.86 159.92 67.53 158.00 65.00
C 158.95 66.62 160.11 68.53 161.00 70.00 Z"/>
</g>
<g fill="None" fill-opacity="0.0" stroke="#75CDD1" stroke-opacity="0.06" stroke-width="0.3"><path d="
M 110.00 79.00 
C 107.29 75.14 103.67 71.74 101.00 68.00
C 102.90 72.08 106.82 75.96 110.00 79.00 Z"/>
</g>
<g fill="None" fill-opacity="0.0" stroke="#EFE061" stroke-opacity="0.27" stroke-width="0.3"><path d="
M 210.00 75.00 
C 210.19 72.78 210.19 70.22 210.00 68.00
C 209.99 69.32 209.99 73.61 210.00 75.00 Z"/>
</g>
<g fill="None" fill-opacity="0.0" stroke="#D1695F" stroke-opacity="0.31" stroke-width="0.3"><path d="
M 177.00 89.00 
C 173.26 83.96 169.64 78.89 166.00 74.00
C 164.71 72.63 162.24 71.50 161.00 70.00
C 165.27 77.05 172.73 82.21 177.00 89.00 Z"/>
</g>
<g fill="None" fill-opacity="0.0" stroke="#C33C33" stroke-opacity="0.59" stroke-width="0.3"><path d="
M 121.00 75.00 
C 121.82 75.76 123.24 76.28 124.00 77.00
C 122.25 74.78 119.90 73.06 118.00 71.00
C 118.97 72.26 120.01 73.68 121.00 75.00 Z"/>
</g>
<g fill="None" fill-opacity="0.0" stroke="#C4544D" stroke-opacity="0.33" stroke-width="0.3"><path d="
M 123.00 78.00 
C 124.22 79.96 125.47 81.14 127.00 83.00
C 126.50 81.81 125.71 79.16 124.00 77.00
C 123.24 76.28 121.82 75.76 121.00 75.00
C 121.67 75.89 122.38 77.00 123.00 78.00 Z"/>
</g>
<g fill="None" fill-opacity="0.0" stroke="#43ADB0" stroke-opacity="0.30" stroke-width="0.3"><path d="
M 117.00 88.00 
C 115.21 85.62 112.67 83.34 111.00 81.00
C 111.33 84.44 114.98 86.43 117.00 88.00 Z"/>
</g>
<g fill="None" fill-opacity="0.0" stroke="#D28A85" stroke-opacity="0.05" stroke-width="0.3"><path d="
M 135.00 94.00 
C 133.50 91.58 132.04 90.21 130.00 88.00
C 131.55 90.12 133.42 92.08 135.00 94.00 Z"/>
</g>
<g fill="None" fill-opacity="0.0" stroke="#DA786D" stroke-opacity="0.07" stroke-width="0.3"><path d="
M 178.00 92.00 
C 180.62 95.75 184.51 98.94 187.00 103.00
C 188.10 104.80 190.23 107.37 191.00 109.00
C 188.15 101.27 181.74 95.37 177.00 89.00
C 177.40 89.64 177.62 91.18 178.00 92.00 Z"/>
</g>
<g fill="None" fill-opacity="0.0" stroke="#EDDB76" stroke-opacity="0.17" stroke-width="0.3"><path d="
M 202.00 99.00 
C 204.74 97.03 204.14 94.00 205.00 91.00
C 203.87 93.42 203.02 96.12 202.00 99.00 Z"/>
</g>
<g fill="None" fill-opacity="0.0" stroke="#C14238" stroke-opacity="0.52" stroke-width="0.3"><path d="
M 187.00 103.00 
C 184.51 98.94 180.62 95.75 178.00 92.00
C 180.10 96.50 184.06 99.24 187.00 103.00 Z"/>
</g>
<g fill="None" fill-opacity="0.0" stroke="#DA8070" stroke-opacity="0.09" stroke-width="0.3"><path d="
M 167.00 135.00 
C 166.26 133.59 164.93 132.22 164.00 131.00
C 162.78 129.41 161.94 127.55 161.00 126.00
C 159.21 123.66 156.86 121.43 155.00 119.00
C 155.00 119.00 155.22 118.36 155.00 118.00
C 151.35 115.62 148.45 110.57 146.00 107.00
C 143.35 103.14 140.18 100.47 137.00 97.00
C 145.65 108.76 155.06 126.65 167.00 135.00 Z"/>
</g>
<g fill="None" fill-opacity="0.0" stroke="#70D6D7" stroke-opacity="0.06" stroke-width="0.3"><path d="
M 97.00 116.00 
C 96.31 114.85 95.92 113.23 95.00 112.00
C 91.77 108.68 87.09 102.22 86.00 98.00
C 87.10 105.22 92.65 110.57 97.00 116.00 Z"/>
</g>
<g fill="None" fill-opacity="0.0" stroke="#40A4A6" stroke-opacity="0.39" stroke-width="0.3"><path d="
M 129.00 104.00 
C 128.47 103.35 127.49 102.63 127.00 102.00
C 127.36 102.73 128.70 103.71 129.00 104.00 Z"/>
</g>
<g fill="None" fill-opacity="0.0" stroke="#C33A33" stroke-opacity="0.67" stroke-width="0.3"><path d="
M 155.00 118.00 
C 152.39 113.81 149.19 110.66 146.00 107.00
C 148.45 110.57 151.35 115.62 155.00 118.00 Z"/>
</g>
<g fill="None" fill-opacity="0.0" stroke="#3AA2A4" stroke-opacity="0.42" stroke-width="0.3"><path d="
M 97.00 116.00 
C 97.55 116.69 98.47 117.34 99.00 118.00
C 98.31 116.47 97.14 114.20 95.00 112.00
C 95.92 113.23 96.31 114.85 97.00 116.00 Z"/>
</g>
<g fill="None" fill-opacity="0.0" stroke="#BD3F34" stroke-opacity="0.54" stroke-width="0.3"><path d="
M 161.00 126.00 
C 159.34 123.26 157.72 120.90 155.00 119.00
C 156.86 121.43 159.21 123.66 161.00 126.00 Z"/>
</g>
<g fill="None" fill-opacity="0.0" stroke="#FEFFDF" stroke-opacity="0.00" stroke-width="0.3"><path d="
M 193.00 125.00 
C 193.27 123.16 193.28 121.90 193.00 120.00
C 193.06 121.65 193.06 123.35 193.00 125.00 Z"/>
</g>
<g fill="None" fill-opacity="0.0" stroke="#C34339" stroke-opacity="0.49" stroke-width="0.3"><path d="
M 167.00 135.00 
C 167.00 135.00 166.76 135.68 167.00 136.00
C 168.16 137.00 170.01 137.94 171.00 139.00
C 168.85 135.90 166.56 133.77 164.00 131.00
C 164.93 132.22 166.26 133.59 167.00 135.00 Z"/>
</g>
<g fill="None" fill-opacity="0.0" stroke="#DE7E6E" stroke-opacity="0.08" stroke-width="0.3"><path d="
M 189.00 140.00 
C 191.47 138.11 191.41 133.88 192.00 131.00
C 191.11 133.73 189.59 136.82 189.00 140.00 Z"/>
</g>
<g fill="None" fill-opacity="0.0" stroke="#DD7D6E" stroke-opacity="0.09" stroke-width="0.3"><path d="
M 189.00 141.00 
C 186.38 144.88 185.34 150.36 184.00 155.00
C 180.71 155.16 180.20 151.00 179.00 149.00
C 177.08 146.50 174.76 144.71 173.00 142.00
C 172.36 141.02 171.69 140.00 171.00 139.00
C 170.01 137.94 168.16 137.00 167.00 136.00
C 173.12 142.29 176.70 153.05 185.00 156.00
C 185.23 150.70 188.80 146.27 189.00 141.00 Z"/>
</g>
<g fill="None" fill-opacity="0.0" stroke="#3BA2A5" stroke-opacity="0.45" stroke-width="0.3"><path d="
M 116.00 140.00 
C 116.89 141.16 117.23 142.74 118.00 144.00
C 119.14 144.03 119.72 145.53 121.00 145.00
C 120.62 142.12 116.65 140.47 116.00 140.00 Z"/>
</g>
<g fill="None" fill-opacity="0.0" stroke="#C33E36" stroke-opacity="0.59" stroke-width="0.3"><path d="
M 179.00 149.00 
C 177.36 146.27 175.02 144.31 173.00 142.00
C 174.76 144.71 177.08 146.50 179.00 149.00 Z"/>
</g>
<g fill="None" fill-opacity="0.0" stroke="#D5847A" stroke-opacity="0.06" stroke-width="0.3"><path d="
M 11.00 157.00 
C 11.14 156.68 12.66 156.02 13.00 156.00
C 15.08 155.86 17.18 158.32 18.00 160.00
C 18.20 160.40 18.00 161.00 18.00 161.00
C 21.18 163.07 23.00 166.90 25.00 170.00
C 26.50 172.32 27.68 174.80 29.00 177.00
C 30.72 179.25 33.13 181.85 35.00 184.00
C 35.41 184.19 36.00 184.00 36.00 184.00
C 32.56 178.46 27.71 172.88 24.30 167.70 C 20.89 162.51 20.19 163.69 18.75 159.25 C 17.32 154.80 10.26 155.56 11.00 157.00 Z"/>
</g>
<g fill="None" fill-opacity="0.0" stroke="#E03728" stroke-opacity="0.95" stroke-width="0.3"><path d="
M 11.00 157.00 
C 7.93 163.70 12.22 175.63 11.00 183.00 C 9.78 190.37 11.17 201.84 11.00 209.00 C 10.83 216.16 8.42 227.06 15.00 230.00
C 15.34 230.11 18.71 229.76 20.00 230.00
C 22.88 229.63 22.53 228.58 24.00 227.00
C 23.29 226.20 25.86 220.56 25.00 218.00 C 24.14 215.44 25.45 210.09 25.00 207.00 C 24.55 203.91 25.34 199.23 25.00 196.00
C 26.28 195.73 27.72 196.77 28.00 198.00
C 29.34 199.23 32.47 204.27 32.00 205.00
C 32.00 205.00 31.78 205.64 32.00 206.00
C 37.82 209.80 41.90 218.49 46.00 224.00
C 47.64 225.88 51.09 228.84 53.00 230.00
C 53.29 230.11 54.92 230.98 55.00 231.00
C 57.50 231.71 61.80 231.00 64.00 230.00
C 68.19 225.81 55.82 214.72 54.00 211.00
C 52.18 208.95 50.57 206.34 50.00 205.00
C 47.81 199.83 44.25 195.73 41.00 191.00
C 39.34 189.38 34.40 187.58 36.00 185.00
C 36.00 185.00 36.22 184.36 36.00 184.00
C 36.00 184.00 35.41 184.19 35.00 184.00
C 32.57 182.90 30.33 179.21 29.00 177.00
C 27.68 174.80 26.50 172.32 25.00 170.00
C 22.57 167.01 20.10 164.38 18.00 161.00
C 18.00 161.00 18.20 160.40 18.00 160.00
C 17.26 159.22 13.70 156.06 13.00 156.00
C 12.66 156.02 11.14 156.68 11.00 157.00 Z"/>
</g>
<g fill="None" fill-opacity="0.0" stroke="#BA4843" stroke-opacity="0.47" stroke-width="0.3"><path d="
M 18.00 160.00 
C 17.18 158.32 15.08 155.86 13.00 156.00
C 13.70 156.06 17.26 159.22 18.00 160.00 Z"/>
</g>
<g fill="None" fill-opacity="0.0" stroke="#BF4A41" stroke-opacity="0.43" stroke-width="0.3"><path d="
M 25.00 170.00 
C 23.00 166.90 21.18 163.07 18.00 161.00
C 20.10 164.38 22.57 167.01 25.00 170.00 Z"/>
</g>
<g fill="None" fill-opacity="0.0" stroke="#D27D72" stroke-opacity="0.13" stroke-width="0.3"><path d="
M 54.00 210.00 
C 54.10 210.48 54.00 211.00 54.00 211.00
C 55.82 214.72 68.19 225.81 64.00 230.00
C 73.86 225.54 71.46 210.55 71.00 201.00 C 70.54 191.45 73.25 175.81 70.00 167.00
C 67.47 184.16 73.38 203.00 70.00 220.00
C 69.89 220.53 69.23 222.58 69.00 223.00
C 68.34 224.17 67.59 225.30 66.00 225.00
C 66.55 223.18 64.25 222.53 64.00 221.00
C 60.71 216.62 55.98 212.21 56.00 206.00 C 56.02 199.78 55.54 187.89 56.00 182.00 C 56.46 176.11 53.41 164.57 60.00 162.00
C 50.85 164.57 56.89 177.43 55.00 184.00 C 53.11 190.57 58.16 204.38 54.00 210.00 Z"/>
</g>
<g fill="None" fill-opacity="0.0" stroke="#E13527" stroke-opacity="0.96" stroke-width="0.3"><path d="
M 64.00 221.00 
C 65.11 222.10 67.56 224.69 69.00 223.00
C 69.23 222.58 69.89 220.53 70.00 220.00
C 70.47 212.59 69.26 202.26 69.00 194.00 C 68.74 185.74 70.92 174.25 70.00 167.00
C 68.46 162.84 64.83 160.64 60.00 162.00
C 53.41 164.57 56.46 176.11 56.00 182.00 C 55.54 187.89 56.02 199.78 56.00 206.00 C 55.98 212.21 60.71 216.62 64.00 221.00 Z"/>
</g>
<g fill="None" fill-opacity="0.0" stroke="#D16863" stroke-opacity="0.17" stroke-width="0.3"><path d="
M 83.00 180.00 
C 75.59 177.39 76.80 163.80 84.00 162.00
C 80.27 161.06 80.13 165.53 77.00 166.00
C 76.48 171.48 76.48 178.68 83.00 180.00 Z"/>
</g>
<g fill="None" fill-opacity="0.0" stroke="#DD3D2E" stroke-opacity="0.88" stroke-width="0.3"><path d="
M 83.00 180.00 
C 88.18 181.05 94.22 178.38 95.00 173.00
C 95.02 175.06 92.81 170.07 93.00 168.00
C 93.05 167.50 93.00 167.00 93.00 167.00
C 91.54 165.44 88.20 164.40 89.00 163.00
C 88.77 162.84 89.00 162.00 89.00 162.00
C 87.85 161.61 85.21 161.84 84.00 162.00
C 76.80 163.80 75.59 177.39 83.00 180.00 Z"/>
</g>
<g fill="None" fill-opacity="0.0" stroke="#E09795" stroke-opacity="0.05" stroke-width="0.3"><path d="
M 89.00 163.00 
C 90.58 164.10 92.15 165.25 93.00 167.00
C 93.00 167.00 93.05 167.50 93.00 168.00
C 93.22 168.44 94.84 168.70 95.00 169.00
C 94.57 166.59 91.33 162.97 89.00 162.00
C 89.00 162.00 88.77 162.84 89.00 163.00 Z"/>
</g>
<g fill="None" fill-opacity="0.0" stroke="#B6423A" stroke-opacity="0.46" stroke-width="0.3"><path d="
M 93.00 167.00 
C 92.15 165.25 90.58 164.10 89.00 163.00
C 88.20 164.40 91.54 165.44 93.00 167.00 Z"/>
</g>
<g fill="None" fill-opacity="0.0" stroke="#BD3C2F" stroke-opacity="0.81" stroke-width="0.3"><path d="
M 70.00 220.00 
C 73.38 203.00 67.47 184.16 70.00 167.00
C 70.92 174.25 68.74 185.74 69.00 194.00 C 69.26 202.26 70.47 212.59 70.00 220.00 Z"/>
</g>
<g fill="None" fill-opacity="0.0" stroke="#B74336" stroke-opacity="0.44" stroke-width="0.3"><path d="
M 95.00 173.00 
C 95.16 171.88 95.20 170.11 95.00 169.00
C 94.84 168.70 93.22 168.44 93.00 168.00
C 92.81 170.07 95.02 175.06 95.00 173.00 Z"/>
</g>
<g fill="None" fill-opacity="0.0" stroke="#E03729" stroke-opacity="0.93" stroke-width="0.3"><path d="
M 107.00 174.00 
C 106.52 175.87 107.30 178.09 107.00 180.00
C 107.00 181.33 107.00 182.67 107.00 184.00
C 104.54 184.13 101.80 183.44 100.00 185.00
C 99.87 185.04 100.99 193.91 99.00 194.00
C 100.05 196.38 99.61 195.99 102.00 197.00
C 103.86 197.43 106.79 192.33 107.92 198.08 C 109.05 203.84 107.09 211.95 107.00 217.00
C 107.43 222.13 108.80 225.84 113.00 229.00
C 114.99 230.13 117.18 230.54 119.00 232.00
C 119.00 232.00 119.68 232.24 120.00 232.00
C 122.71 229.99 128.29 230.85 131.00 232.00
C 131.42 231.82 132.57 232.17 133.00 232.00
C 132.96 232.02 134.94 230.06 135.00 230.00
C 136.10 228.84 136.81 227.56 137.00 226.00
C 136.80 225.09 137.05 223.94 137.00 223.00
C 137.54 220.73 135.48 219.23 136.00 217.00
C 132.47 217.23 129.63 218.10 126.00 218.00
C 123.84 217.94 122.87 218.47 122.00 215.00
C 121.39 212.58 119.52 193.02 126.01 196.01 C 132.50 199.00 140.62 187.94 133.00 184.00
C 130.01 182.99 126.08 184.72 123.00 184.00
C 118.75 183.00 122.23 173.03 123.00 174.00
C 121.23 167.94 111.91 172.34 107.00 171.00
C 106.81 171.95 107.24 173.06 107.00 174.00 Z"/>
</g>
<g fill="None" fill-opacity="0.0" stroke="#C3352E" stroke-opacity="0.62" stroke-width="0.3"><path d="
M 123.00 184.00 
C 120.85 182.08 122.17 177.95 123.00 176.00
C 123.00 175.50 123.02 174.50 123.00 174.00
C 122.23 173.03 118.75 183.00 123.00 184.00 Z"/>
</g>
<g fill="None" fill-opacity="0.0" stroke="#FFFFFF" stroke-opacity="0.00" stroke-width="0.3"><path d="
M 107.00 180.00 
C 107.30 178.09 106.52 175.87 107.00 174.00
C 105.86 176.35 107.25 178.26 107.00 180.00 Z"/>
</g>
<g fill="None" fill-opacity="0.0" stroke="#D7645D" stroke-opacity="0.09" stroke-width="0.3"><path d="
M 123.00 184.00 
C 123.00 181.33 123.00 178.67 123.00 176.00
C 122.17 177.95 120.85 182.08 123.00 184.00 Z"/>
</g>
<g fill="None" fill-opacity="0.0" stroke="#B93E34" stroke-opacity="0.55" stroke-width="0.3"><path d="
M 35.00 184.00 
C 33.13 181.85 30.72 179.25 29.00 177.00
C 30.33 179.21 32.57 182.90 35.00 184.00 Z"/>
</g>
<g fill="None" fill-opacity="0.0" stroke="#D27C78" stroke-opacity="0.06" stroke-width="0.3"><path d="
M 165.00 186.00 
C 166.63 185.41 168.25 185.36 170.00 185.00
C 172.58 184.47 174.96 182.79 177.00 186.00
C 177.17 186.27 177.74 186.88 178.00 187.00
C 178.41 187.19 179.00 187.00 179.00 187.00
C 177.70 179.80 168.43 184.05 165.00 186.00 Z"/>
</g>
<g fill="None" fill-opacity="0.0" stroke="#DC837A" stroke-opacity="0.10" stroke-width="0.3"><path d="
M 180.00 202.00 
C 180.40 200.75 182.26 197.30 183.00 196.00
C 184.75 192.92 188.26 190.04 191.00 188.00
C 192.91 186.58 197.20 183.47 199.00 183.00
C 189.63 184.49 181.80 193.29 180.00 202.00 Z"/>
</g>
<g fill="None" fill-opacity="0.0" stroke="#E03829" stroke-opacity="0.93" stroke-width="0.3"><path d="
M 191.00 188.00 
C 188.85 189.87 184.51 193.76 183.00 196.00
C 182.26 197.30 180.40 200.75 180.00 202.00
C 179.03 206.71 179.73 211.46 181.00 216.00
C 181.45 217.01 183.32 219.91 184.00 221.00
C 185.55 223.13 191.53 228.60 192.00 229.00
C 193.78 230.21 195.71 231.36 198.00 232.00
C 195.91 229.89 209.94 230.47 212.00 232.00
C 212.00 232.00 212.53 232.11 213.00 232.00
C 219.51 226.78 227.67 223.58 231.00 215.00
C 232.72 208.67 232.25 200.71 229.00 195.00
C 227.64 192.98 222.93 188.39 221.00 187.00
C 219.95 186.43 219.09 186.32 218.00 186.00
C 214.94 185.11 210.77 183.40 208.00 183.00
C 205.18 182.89 201.78 182.56 199.00 183.00
C 197.20 183.47 192.91 186.58 191.00 188.00
M 208.00 196.00 
C 209.14 196.15 210.95 196.51 212.00 197.00
C 214.09 197.97 215.65 199.84 216.00 202.00
C 216.08 202.49 215.97 203.50 216.00 204.00
C 216.17 206.72 216.35 209.65 215.00 212.00
C 218.49 212.11 214.99 214.14 213.75 216.75 C 212.51 219.37 209.04 218.00 209.00 218.00
C 205.63 219.50 202.35 218.15 199.00 217.00
C 198.40 216.79 194.26 216.01 195.00 213.00
C 196.25 213.30 196.71 214.83 198.00 215.00
C 195.92 211.65 194.39 209.31 195.00 205.00
C 195.52 201.31 199.28 196.97 203.00 196.00
C 205.34 195.15 205.77 195.39 208.00 196.00 Z"/>
</g>
<g fill="None" fill-opacity="0.0" stroke="#D77C76" stroke-opacity="0.11" stroke-width="0.3"><path d="
M 218.00 186.00 
C 214.29 184.24 212.69 183.18 208.00 183.00
C 210.77 183.40 214.94 185.11 218.00 186.00 Z"/>
</g>
<g fill="None" fill-opacity="0.0" stroke="#E03627" stroke-opacity="0.95" stroke-width="0.3"><path d="
M 257.00 185.00 
C 256.23 185.47 255.53 187.31 255.00 188.00
C 252.53 187.85 250.76 185.21 249.00 184.00
C 247.26 183.65 242.66 183.40 241.00 184.00
C 236.50 186.33 238.95 198.87 239.00 204.00 C 239.05 209.13 237.52 221.63 239.00 227.00
C 240.62 230.71 243.64 231.62 248.00 231.00
C 249.65 230.45 251.51 226.34 252.00 225.00
C 253.23 219.45 249.70 210.48 253.00 206.00
C 253.22 205.70 253.88 205.26 254.00 205.00
C 254.00 205.00 253.95 204.50 254.00 204.00
C 254.35 200.28 257.28 197.17 261.00 197.00
C 264.32 196.25 266.08 199.77 269.00 200.00
C 271.44 207.89 268.40 216.88 270.00 225.00
C 270.22 225.73 274.25 230.76 275.00 231.00
C 276.33 231.29 278.65 231.20 280.00 231.00
C 281.01 230.75 284.17 227.88 285.00 227.00
C 285.00 227.00 285.00 226.50 285.00 226.00
C 281.34 221.06 284.27 206.37 285.00 201.00
C 284.82 199.70 285.09 198.31 285.00 197.00
C 284.74 195.62 282.91 192.48 282.00 191.00
C 281.19 189.88 278.07 186.77 277.00 186.00
C 275.15 184.87 271.72 183.28 270.00 183.00
C 264.99 182.62 261.38 183.26 257.00 185.00 Z"/>
</g>
<g fill="None" fill-opacity="0.0" stroke="#D97A71" stroke-opacity="0.09" stroke-width="0.3"><path d="
M 277.00 186.00 
C 279.00 187.23 280.81 189.05 282.00 191.00
C 282.91 192.48 284.74 195.62 285.00 197.00
C 284.48 188.96 277.56 183.58 270.00 183.00
C 271.72 183.28 275.15 184.87 277.00 186.00 Z"/>
</g>
<g fill="None" fill-opacity="0.0" stroke="#DF9289" stroke-opacity="0.06" stroke-width="0.3"><path d="
M 84.00 231.00 
C 76.98 228.96 77.03 218.39 78.00 212.00 C 78.97 205.61 75.99 193.48 78.00 187.00
C 78.15 186.53 79.69 184.15 80.00 184.00
C 73.10 186.52 78.22 203.85 77.00 210.00 C 75.78 216.15 75.26 230.15 84.00 231.00 Z"/>
</g>
<g fill="None" fill-opacity="0.0" stroke="#BD4D43" stroke-opacity="0.29" stroke-width="0.3"><path d="
M 78.00 187.00 
C 79.75 183.76 90.58 183.89 92.00 187.00
C 92.09 187.19 93.00 187.00 93.00 187.00
C 93.00 186.50 93.00 186.00 93.00 186.00
C 92.18 183.25 82.29 182.89 80.00 184.00
C 79.69 184.15 78.15 186.53 78.00 187.00 Z"/>
</g>
<g fill="None" fill-opacity="0.0" stroke="#CE635B" stroke-opacity="0.15" stroke-width="0.3"><path d="
M 122.00 215.00 
C 122.42 216.19 124.38 218.30 126.00 218.00
C 120.32 213.27 124.09 203.86 123.00 197.00
C 132.47 203.78 142.62 187.25 133.00 184.00
C 140.62 187.94 132.50 199.00 126.01 196.01 C 119.52 193.02 121.39 212.58 122.00 215.00 Z"/>
</g>
<g fill="None" fill-opacity="0.0" stroke="#D45F55" stroke-opacity="0.19" stroke-width="0.3"><path d="
M 149.00 231.00 
C 144.20 229.23 143.39 222.71 144.00 218.00 C 144.61 213.29 143.13 204.46 144.00 200.00 C 144.87 195.54 141.43 186.36 146.00 184.00
C 139.68 186.19 143.68 202.96 143.00 209.00 C 142.32 215.04 140.57 229.77 149.00 231.00 Z"/>
</g>
<g fill="None" fill-opacity="0.0" stroke="#E1382A" stroke-opacity="0.93" stroke-width="0.3"><path d="
M 149.00 231.00 
C 149.91 231.13 151.08 231.05 152.00 231.00
C 160.24 229.12 157.74 216.61 160.00 211.00
C 161.57 204.67 164.99 202.14 171.00 200.00
C 173.74 199.02 177.29 199.19 177.00 195.00
C 176.79 192.64 176.28 188.24 177.00 186.00
C 175.86 184.39 171.68 184.88 170.00 185.00
C 168.25 185.36 166.63 185.41 165.00 186.00
C 162.23 185.76 161.35 189.15 159.00 190.00
C 161.01 183.02 150.48 182.45 146.00 184.00
C 141.43 186.36 144.87 195.54 144.00 200.00 C 143.13 204.46 144.61 213.29 144.00 218.00 C 143.39 222.71 144.20 229.23 149.00 231.00 Z"/>
</g>
<g fill="None" fill-opacity="0.0" stroke="#C1443E" stroke-opacity="0.56" stroke-width="0.3"><path d="
M 170.00 185.00 
C 171.68 184.88 175.86 184.39 177.00 186.00
C 174.96 182.79 172.58 184.47 170.00 185.00 Z"/>
</g>
<g fill="None" fill-opacity="0.0" stroke="#D36960" stroke-opacity="0.28" stroke-width="0.3"><path d="
M 239.00 227.00 
C 237.52 221.63 239.05 209.13 239.00 204.00 C 238.95 198.87 236.50 186.33 241.00 184.00
C 235.03 186.18 238.41 199.54 238.00 205.00 C 237.59 210.46 236.87 222.12 239.00 227.00 Z"/>
</g>
<g fill="None" fill-opacity="0.0" stroke="#D57C76" stroke-opacity="0.10" stroke-width="0.3"><path d="
M 257.00 185.00 
C 255.47 185.25 254.82 187.55 253.00 187.00
C 253.33 184.69 250.61 184.33 249.00 184.00
C 250.76 185.21 252.53 187.85 255.00 188.00
C 255.53 187.31 256.23 185.47 257.00 185.00 Z"/>
</g>
<g fill="None" fill-opacity="0.0" stroke="#D27569" stroke-opacity="0.27" stroke-width="0.3"><path d="
M 41.00 191.00 
C 39.45 188.74 38.39 186.56 36.00 185.00
C 34.40 187.58 39.34 189.38 41.00 191.00 Z"/>
</g>
<g fill="None" fill-opacity="0.0" stroke="#E13628" stroke-opacity="0.96" stroke-width="0.3"><path d="
M 78.00 187.00 
C 75.99 193.48 78.97 205.61 78.00 212.00 C 77.03 218.39 76.98 228.96 84.00 231.00
C 84.96 231.09 86.03 231.02 87.00 231.00
C 88.47 230.56 91.68 228.16 93.00 227.00
C 93.00 227.00 93.00 226.50 93.00 226.00
C 89.82 221.70 92.44 212.71 92.00 207.00 C 91.56 201.29 91.47 192.87 92.00 187.00
C 90.58 183.89 79.75 183.76 78.00 187.00 Z"/>
</g>
<g fill="None" fill-opacity="0.0" stroke="#C24636" stroke-opacity="0.44" stroke-width="0.3"><path d="
M 99.00 187.00 
C 98.87 187.96 97.98 191.79 98.00 192.00
C 98.21 192.82 98.66 193.24 99.00 194.00
C 100.99 193.91 99.87 185.04 100.00 185.00
C 99.00 185.87 99.20 185.57 99.00 187.00 Z"/>
</g>
<g fill="None" fill-opacity="0.0" stroke="#FFD1D1" stroke-opacity="0.02" stroke-width="0.3"><path d="
M 93.00 187.00 
C 93.00 192.33 93.00 197.67 93.00 203.00
C 93.00 202.96 94.00 203.00 94.00 203.00
C 94.00 199.10 95.71 188.61 93.00 186.00
C 93.00 186.00 93.00 186.50 93.00 187.00 Z"/>
</g>
<g fill="None" fill-opacity="0.0" stroke="#AF3A32" stroke-opacity="0.29" stroke-width="0.3"><path d="
M 177.00 195.00 
C 177.00 195.03 178.00 195.00 178.00 195.00
C 178.26 194.04 178.83 192.91 179.00 192.00
C 179.02 191.71 178.15 187.95 178.00 187.00
C 177.74 186.88 177.17 186.27 177.00 186.00
C 176.28 188.24 176.79 192.64 177.00 195.00 Z"/>
</g>
<g fill="None" fill-opacity="0.0" stroke="#BD4342" stroke-opacity="0.55" stroke-width="0.3"><path d="
M 282.00 191.00 
C 280.81 189.05 279.00 187.23 277.00 186.00
C 278.07 186.77 281.19 189.88 282.00 191.00 Z"/>
</g>
<g fill="None" fill-opacity="0.0" stroke="#B23F34" stroke-opacity="0.67" stroke-width="0.3"><path d="
M 93.00 226.00 
C 93.00 226.00 93.00 225.50 93.00 225.00
C 93.00 221.67 93.00 218.33 93.00 215.00
C 93.00 211.00 93.00 207.00 93.00 203.00
C 93.00 197.67 93.00 192.33 93.00 187.00
C 93.00 187.00 92.09 187.19 92.00 187.00
C 91.47 192.87 91.56 201.29 92.00 207.00 C 92.44 212.71 89.82 221.70 93.00 226.00 Z"/>
</g>
<g fill="None" fill-opacity="0.0" stroke="#D2D4B4" stroke-opacity="0.01" stroke-width="0.3"><path d="
M 98.00 192.00 
C 97.98 191.79 98.87 187.96 99.00 187.00
C 98.44 188.44 97.46 189.88 98.00 192.00 Z"/>
</g>
<g fill="None" fill-opacity="0.0" stroke="#FFFFFF" stroke-opacity="0.00" stroke-width="0.3"><path d="
M 179.00 192.00 
C 179.21 190.88 179.37 188.07 179.00 187.00
C 179.00 187.00 178.41 187.19 178.00 187.00
C 178.15 187.95 179.02 191.71 179.00 192.00 Z"/>
</g>
<g fill="None" fill-opacity="0.0" stroke="#F0A69E" stroke-opacity="0.04" stroke-width="0.3"><path d="
M 229.00 195.00 
C 227.45 192.27 223.82 188.55 221.00 187.00
C 222.93 188.39 227.64 192.98 229.00 195.00 Z"/>
</g>
<g fill="None" fill-opacity="0.0" stroke="#C13B33" stroke-opacity="0.67" stroke-width="0.3"><path d="
M 183.00 196.00 
C 184.51 193.76 188.85 189.87 191.00 188.00
C 188.26 190.04 184.75 192.92 183.00 196.00 Z"/>
</g>
<g fill="None" fill-opacity="0.0" stroke="#E58D81" stroke-opacity="0.08" stroke-width="0.3"><path d="
M 171.00 200.00 
C 175.82 198.73 176.58 200.25 178.00 195.00
C 178.00 195.00 177.00 195.03 177.00 195.00
C 177.29 199.19 173.74 199.02 171.00 200.00 Z"/>
</g>
<g fill="None" fill-opacity="0.0" stroke="#C33E32" stroke-opacity="0.56" stroke-width="0.3"><path d="
M 203.00 196.00 
C 203.47 195.88 204.50 196.00 205.00 196.00
C 205.50 196.00 206.50 196.00 207.00 196.00
C 207.50 196.00 208.00 196.00 208.00 196.00
C 205.77 195.39 205.34 195.15 203.00 196.00 Z"/>
</g>
<g fill="None" fill-opacity="0.0" stroke="#B82D23" stroke-opacity="0.52" stroke-width="0.3"><path d="
M 24.00 227.00 
C 24.21 226.77 25.95 226.13 26.00 226.00
C 26.08 225.51 26.00 224.50 26.00 224.00
C 26.00 218.00 26.00 212.00 26.00 206.00
C 26.00 204.61 25.55 202.31 26.00 201.00
C 25.50 198.70 25.69 196.94 28.00 198.00
C 27.72 196.77 26.28 195.73 25.00 196.00
C 25.34 199.23 24.55 203.91 25.00 207.00 C 25.45 210.09 24.14 215.44 25.00 218.00 C 25.86 220.56 23.29 226.20 24.00 227.00 Z"/>
</g>
<g fill="None" fill-opacity="0.0" stroke="#B13C30" stroke-opacity="0.34" stroke-width="0.3"><path d="
M 102.00 197.00 
C 103.67 197.00 105.33 197.00 107.00 197.00
C 107.20 198.29 106.74 199.72 107.00 201.00
C 107.82 204.95 107.00 209.96 107.00 214.00
C 107.00 214.98 106.92 216.02 107.00 217.00
C 107.09 211.95 109.05 203.84 107.92 198.08 C 106.79 192.33 103.86 197.43 102.00 197.00 Z"/>
</g>
<g fill="None" fill-opacity="0.0" stroke="#E9978F" stroke-opacity="0.06" stroke-width="0.3"><path d="
M 195.00 205.00 
C 195.84 201.02 201.68 197.15 205.00 196.00
C 204.50 196.00 203.47 195.88 203.00 196.00
C 199.28 196.97 195.52 201.31 195.00 205.00 Z"/>
</g>
<g fill="None" fill-opacity="0.0" stroke="#000000" stroke-opacity="0.00" stroke-width="0.3"><path d="
M 195.00 205.00 
C 194.39 209.31 195.92 211.65 198.00 215.00
C 198.19 215.30 198.81 216.87 199.00 217.00
C 202.35 218.15 205.63 219.50 209.00 218.00
C 209.61 217.73 210.45 217.33 211.00 217.00
C 212.64 216.00 214.08 214.43 215.00 213.00
C 215.09 212.52 215.00 212.00 215.00 212.00
C 216.35 209.65 216.17 206.72 216.00 204.00
C 214.44 203.91 209.56 196.85 207.00 196.00
C 206.50 196.00 205.50 196.00 205.00 196.00
C 201.68 197.15 195.84 201.02 195.00 205.00 Z"/>
</g>
<g fill="None" fill-opacity="0.0" stroke="#E68279" stroke-opacity="0.10" stroke-width="0.3"><path d="
M 216.00 204.00 
C 215.97 203.50 216.08 202.49 216.00 202.00
C 215.63 201.14 212.88 197.53 212.00 197.00
C 210.95 196.51 209.14 196.15 208.00 196.00
C 208.00 196.00 207.50 196.00 207.00 196.00
C 209.56 196.85 214.44 203.91 216.00 204.00 Z"/>
</g>
<g fill="None" fill-opacity="0.0" stroke="#C5584F" stroke-opacity="0.18" stroke-width="0.3"><path d="
M 26.00 201.00 
C 26.05 200.85 27.00 201.00 27.00 201.00
C 27.93 200.47 30.18 203.73 32.00 205.00
C 32.47 204.27 29.34 199.23 28.00 198.00
C 25.69 196.94 25.50 198.70 26.00 201.00 Z"/>
</g>
<g fill="None" fill-opacity="0.0" stroke="#C33D33" stroke-opacity="0.67" stroke-width="0.3"><path d="
M 216.00 202.00 
C 215.65 199.84 214.09 197.97 212.00 197.00
C 212.88 197.53 215.63 201.14 216.00 202.00 Z"/>
</g>
<g fill="None" fill-opacity="0.0" stroke="#E27E79" stroke-opacity="0.08" stroke-width="0.3"><path d="
M 254.00 204.00 
C 255.64 201.95 257.92 197.39 261.00 197.00
C 257.28 197.17 254.35 200.28 254.00 204.00 Z"/>
</g>
<g fill="None" fill-opacity="0.0" stroke="#FFFFFF" stroke-opacity="0.00" stroke-width="0.3"><path d="
M 26.00 206.00 
C 26.05 206.15 27.00 206.00 27.00 206.00
C 27.00 204.61 27.45 202.30 27.00 201.00
C 27.00 201.00 26.05 200.85 26.00 201.00
C 25.55 202.31 26.00 204.61 26.00 206.00 Z"/>
</g>
<g fill="None" fill-opacity="0.0" stroke="#FFFFFF" stroke-opacity="0.00" stroke-width="0.3"><path d="
M 107.00 214.00 
C 107.00 209.96 107.82 204.95 107.00 201.00
C 107.38 204.37 106.15 210.11 107.00 214.00 Z"/>
</g>
<g fill="None" fill-opacity="0.0" stroke="#C1352A" stroke-opacity="0.76" stroke-width="0.3"><path d="
M 285.00 226.00 
C 285.00 226.00 285.00 225.50 285.00 225.00
C 285.00 217.00 285.00 209.00 285.00 201.00
C 284.27 206.37 281.34 221.06 285.00 226.00 Z"/>
</g>
<g fill="None" fill-opacity="0.0" stroke="#DC7365" stroke-opacity="0.02" stroke-width="0.3"><path d="
M 285.00 225.00 
C 288.54 220.22 285.72 206.31 285.00 201.00
C 285.00 209.00 285.00 217.00 285.00 225.00 Z"/>
</g>
<g fill="None" fill-opacity="0.0" stroke="#FFDABB" stroke-opacity="0.03" stroke-width="0.3"><path d="
M 93.00 215.00 
C 93.00 214.96 94.00 215.00 94.00 215.00
C 94.00 211.00 94.00 207.00 94.00 203.00
C 94.00 203.00 93.00 202.96 93.00 203.00
C 93.00 207.00 93.00 211.00 93.00 215.00 Z"/>
</g>
<g fill="None" fill-opacity="0.0" stroke="#C5664A" stroke-opacity="0.34" stroke-width="0.3"><path d="
M 54.00 211.00 
C 54.00 211.00 54.10 210.48 54.00 210.00
C 53.34 207.00 51.25 206.68 50.00 205.00
C 50.57 206.34 52.18 208.95 54.00 211.00 Z"/>
</g>
<g fill="None" fill-opacity="0.0" stroke="#D67870" stroke-opacity="0.12" stroke-width="0.3"><path d="
M 253.00 206.00 
C 252.09 212.30 254.07 219.40 252.00 225.00
C 251.51 226.34 249.65 230.45 248.00 231.00
C 257.43 229.66 254.00 212.13 254.00 205.00
C 253.88 205.26 253.22 205.70 253.00 206.00 Z"/>
</g>
<g fill="None" fill-opacity="0.0" stroke="#CE9D99" stroke-opacity="0.01" stroke-width="0.3"><path d="
M 26.00 224.00 
C 28.04 219.20 27.00 211.68 27.00 206.00
C 27.00 206.00 26.05 206.15 26.00 206.00
C 26.00 212.00 26.00 218.00 26.00 224.00 Z"/>
</g>
<g fill="None" fill-opacity="0.0" stroke="#DC7C74" stroke-opacity="0.10" stroke-width="0.3"><path d="
M 55.00 231.00 
C 54.92 230.98 53.29 230.11 53.00 230.00
C 49.96 228.86 47.88 226.52 46.00 224.00
C 41.90 218.49 37.82 209.80 32.00 206.00
C 36.98 214.00 44.82 229.94 55.00 231.00 Z"/>
</g>
<g fill="None" fill-opacity="0.0" stroke="#C1362D" stroke-opacity="0.73" stroke-width="0.3"><path d="
M 252.00 225.00 
C 254.07 219.40 252.09 212.30 253.00 206.00
C 249.70 210.48 253.23 219.45 252.00 225.00 Z"/>
</g>
<g fill="None" fill-opacity="0.0" stroke="#DB7A72" stroke-opacity="0.18" stroke-width="0.3"><path d="
M 152.00 231.00 
C 162.05 230.47 158.30 217.88 160.00 211.00
C 157.74 216.61 160.24 229.12 152.00 231.00 Z"/>
</g>
<g fill="None" fill-opacity="0.0" stroke="#C64A3E" stroke-opacity="0.42" stroke-width="0.3"><path d="
M 215.00 213.00 
C 214.40 216.06 212.49 216.65 211.00 217.00
C 210.45 217.33 209.61 217.73 209.00 218.00
C 209.04 218.00 212.51 219.37 213.75 216.75 C 214.99 214.14 218.49 212.11 215.00 212.00
C 215.00 212.00 215.09 212.52 215.00 213.00 Z"/>
</g>
<g fill="None" fill-opacity="0.0" stroke="#C5433D" stroke-opacity="0.47" stroke-width="0.3"><path d="
M 199.00 217.00 
C 198.81 216.87 198.19 215.30 198.00 215.00
C 196.71 214.83 196.25 213.30 195.00 213.00
C 194.26 216.01 198.40 216.79 199.00 217.00 Z"/>
</g>
<g fill="None" fill-opacity="0.0" stroke="#E8A3A2" stroke-opacity="0.04" stroke-width="0.3"><path d="
M 211.00 217.00 
C 212.49 216.65 214.40 216.06 215.00 213.00
C 214.08 214.43 212.64 216.00 211.00 217.00 Z"/>
</g>
<g fill="None" fill-opacity="0.0" stroke="#FFC1C1" stroke-opacity="0.02" stroke-width="0.3"><path d="
M 93.00 225.00 
C 94.77 222.60 94.00 218.21 94.00 215.00
C 94.00 215.00 93.00 214.96 93.00 215.00
C 93.00 218.33 93.00 221.67 93.00 225.00 Z"/>
</g>
<g fill="None" fill-opacity="0.0" stroke="#C2453E" stroke-opacity="0.57" stroke-width="0.3"><path d="
M 126.00 218.00 
C 124.38 218.30 122.42 216.19 122.00 215.00
C 122.87 218.47 123.84 217.94 126.00 218.00 Z"/>
</g>
<g fill="None" fill-opacity="0.0" stroke="#DE756C" stroke-opacity="0.08" stroke-width="0.3"><path d="
M 213.00 232.00 
C 221.59 229.98 228.67 223.60 231.00 215.00
C 227.67 223.58 219.51 226.78 213.00 232.00 Z"/>
</g>
<g fill="None" fill-opacity="0.0" stroke="#DF7F79" stroke-opacity="0.10" stroke-width="0.3"><path d="
M 190.00 228.00 
C 188.01 226.14 185.41 223.28 184.00 221.00
C 183.32 219.91 181.45 217.01 181.00 216.00
C 182.33 220.78 185.51 225.27 190.00 228.00 Z"/>
</g>
<g fill="None" fill-opacity="0.0" stroke="#B63B31" stroke-opacity="0.66" stroke-width="0.3"><path d="
M 69.00 223.00 
C 67.56 224.69 65.11 222.10 64.00 221.00
C 64.25 222.53 66.55 223.18 66.00 225.00
C 67.59 225.30 68.34 224.17 69.00 223.00 Z"/>
</g>
<g fill="None" fill-opacity="0.0" stroke="#C24942" stroke-opacity="0.38" stroke-width="0.3"><path d="
M 190.00 228.00 
C 190.62 228.38 191.37 228.57 192.00 229.00
C 191.53 228.60 185.55 223.13 184.00 221.00
C 185.41 223.28 188.01 226.14 190.00 228.00 Z"/>
</g>
<g fill="None" fill-opacity="0.0" stroke="#CE6D62" stroke-opacity="0.09" stroke-width="0.3"><path d="
M 137.00 226.00 
C 137.63 228.88 137.76 228.06 135.00 230.00
C 134.94 230.06 132.96 232.02 133.00 232.00
C 134.98 231.24 136.67 229.56 139.00 230.00
C 140.32 227.10 137.68 224.98 137.00 223.00
C 137.05 223.94 136.80 225.09 137.00 226.00 Z"/>
</g>
<g fill="None" fill-opacity="0.0" stroke="#C54137" stroke-opacity="0.54" stroke-width="0.3"><path d="
M 53.00 230.00 
C 51.09 228.84 47.64 225.88 46.00 224.00
C 47.88 226.52 49.96 228.86 53.00 230.00 Z"/>
</g>
<g fill="None" fill-opacity="0.0" stroke="#CE827B" stroke-opacity="0.09" stroke-width="0.3"><path d="
M 275.00 231.00 
C 274.25 230.76 270.22 225.73 270.00 225.00
C 270.48 227.46 272.39 230.43 275.00 231.00 Z"/>
</g>
<g fill="None" fill-opacity="0.0" stroke="#E47E7B" stroke-opacity="0.07" stroke-width="0.3"><path d="
M 24.00 227.00 
C 22.53 228.58 22.88 229.63 20.00 230.00
C 19.94 230.01 20.00 231.00 20.00 231.00
C 22.66 230.99 25.56 228.69 26.00 226.00
C 25.95 226.13 24.21 226.77 24.00 227.00 Z"/>
</g>
<g fill="None" fill-opacity="0.0" stroke="#BC4438" stroke-opacity="0.59" stroke-width="0.3"><path d="
M 135.00 230.00 
C 137.76 228.06 137.63 228.88 137.00 226.00
C 136.81 227.56 136.10 228.84 135.00 230.00 Z"/>
</g>
<g fill="None" fill-opacity="0.0" stroke="#D85B4D" stroke-opacity="0.08" stroke-width="0.3"><path d="
M 87.00 231.00 
C 89.89 230.93 92.22 229.93 93.00 227.00
C 91.68 228.16 88.47 230.56 87.00 231.00 Z"/>
</g>
<g fill="None" fill-opacity="0.0" stroke="#DF664F" stroke-opacity="0.04" stroke-width="0.3"><path d="
M 280.00 231.00 
C 282.48 230.63 284.33 229.53 285.00 227.00
C 284.17 227.88 281.01 230.75 280.00 231.00 Z"/>
</g>
<g fill="None" fill-opacity="0.0" stroke="#BE6157" stroke-opacity="0.27" stroke-width="0.3"><path d="
M 15.00 230.00 
C 16.36 230.61 17.99 231.65 20.00 231.00
C 20.00 231.00 19.94 230.01 20.00 230.00
C 18.71 229.76 15.34 230.11 15.00 230.00 Z"/>
</g>
<g fill="None" fill-opacity="0.0" stroke="#DD8982" stroke-opacity="0.05" stroke-width="0.3"><path d="
M 119.00 232.00 
C 117.18 230.54 114.99 230.13 113.00 229.00
C 114.84 230.38 116.60 231.44 119.00 232.00 Z"/>
</g>
<g fill="None" fill-opacity="0.0" stroke="#C64030" stroke-opacity="0.52" stroke-width="0.3"><path d="
M 198.00 232.00 
C 198.46 232.13 199.50 232.00 200.00 232.00
C 204.00 232.00 208.00 232.00 212.00 232.00
C 209.94 230.47 195.91 229.89 198.00 232.00 Z"/>
</g>
<g fill="None" fill-opacity="0.0" stroke="#C93F34" stroke-opacity="0.51" stroke-width="0.3"><path d="
M 120.00 232.00 
C 123.67 232.00 127.33 232.00 131.00 232.00
C 128.29 230.85 122.71 229.99 120.00 232.00 Z"/>
</g>
<g fill="None" fill-opacity="0.0" stroke="#DE9291" stroke-opacity="0.02" stroke-width="0.3"><path d="
M 131.00 232.00 
C 127.33 232.00 123.67 232.00 120.00 232.00
C 122.68 233.98 128.21 233.19 131.00 232.00 Z"/>
</g>
<g fill="None" fill-opacity="0.0" stroke="#E28883" stroke-opacity="0.02" stroke-width="0.3"><path d="
M 212.00 232.00 
C 208.00 232.00 204.00 232.00 200.00 232.00
C 202.83 233.20 209.19 234.08 212.00 232.00 Z"/>
</g>
<g fill="#000000" fill-opacity="0.00" stroke="None">
<path d="
M 0.00 246.00 
L 300.00 246.00
L 300.00 0.00
L 0.00 0.00
L 0.00 246.00
M 117.00 10.00 
C 117.29 10.53 117.66 11.58 118.00 12.00
C 120.09 14.61 122.25 16.99 124.00 20.00
C 134.70 33.69 146.30 46.57 156.00 61.00
C 156.91 62.35 157.27 63.76 158.00 65.00
C 159.92 67.53 163.67 70.86 166.00 74.00
C 169.64 78.89 173.26 83.96 177.00 89.00
C 181.74 95.37 188.15 101.27 191.00 109.00
C 192.28 112.46 192.87 116.20 193.00 120.00
C 193.28 121.90 193.27 123.16 193.00 125.00
C 192.92 127.38 192.44 128.87 192.00 131.00
C 191.41 133.88 191.47 138.11 189.00 140.00
C 188.91 140.48 189.00 141.00 189.00 141.00
C 188.80 146.27 185.23 150.70 185.00 156.00
C 176.70 153.05 173.12 142.29 167.00 136.00
C 166.76 135.68 167.00 135.00 167.00 135.00
C 155.06 126.65 145.65 108.76 137.00 97.00
C 136.31 96.07 135.70 94.85 135.00 94.00
C 133.42 92.08 131.55 90.12 130.00 88.00
C 128.93 86.53 127.94 84.14 127.00 83.00
C 125.47 81.14 124.22 79.96 123.00 78.00
C 117.52 70.85 110.68 64.34 107.00 56.00
C 101.84 44.32 104.57 33.46 108.00 22.00
C 108.80 19.31 110.24 16.34 111.00 14.00
C 111.52 11.65 111.44 9.35 112.00 7.00
C 114.16 6.47 116.24 8.11 117.00 10.00
M 202.00 53.00 
C 202.65 53.90 203.40 55.18 204.00 56.00
C 207.38 58.89 209.57 62.85 210.00 68.00
C 210.19 70.22 210.19 72.78 210.00 75.00
C 209.52 80.73 206.56 85.58 205.00 91.00
C 204.14 94.00 204.74 97.03 202.00 99.00
C 201.84 99.44 202.00 100.00 202.00 100.00
C 202.22 107.82 191.88 94.83 189.08 89.92 C 186.28 85.01 178.66 77.53 175.23 71.77 C 171.80 66.01 163.29 59.60 163.00 52.00
C 162.98 51.50 163.00 51.00 163.00 51.00
C 160.92 48.19 162.57 44.66 163.00 42.00
C 163.53 32.19 168.82 23.42 171.00 14.00
C 183.01 24.56 192.20 40.13 202.00 53.00
M 99.00 64.00 
C 99.41 64.62 99.62 65.41 100.00 66.00
C 100.48 66.74 100.58 67.09 101.00 68.00
C 103.67 71.74 107.29 75.14 110.00 79.00
C 110.79 79.75 110.88 79.74 111.00 81.00
C 112.67 83.34 115.21 85.62 117.00 88.00
C 120.29 92.38 123.74 97.84 127.00 102.00
C 127.49 102.63 128.47 103.35 129.00 104.00
C 140.64 118.25 128.46 135.94 126.00 151.00
C 122.05 151.16 120.50 146.69 118.00 144.00
C 117.23 142.74 116.89 141.16 116.00 140.00
C 110.52 132.85 104.52 124.83 99.00 118.00
C 98.47 117.34 97.55 116.69 97.00 116.00
C 92.65 110.57 87.10 105.22 86.00 98.00
C 84.40 87.51 89.95 76.46 93.00 67.00
C 93.41 65.74 93.81 62.46 95.00 62.00
C 96.92 61.26 98.15 62.70 99.00 64.00
M 36.00 184.00 
C 36.22 184.36 36.00 185.00 36.00 185.00
C 38.39 186.56 39.45 188.74 41.00 191.00
C 44.25 195.73 47.81 199.83 50.00 205.00
C 51.25 206.68 53.34 207.00 54.00 210.00
C 58.16 204.38 53.11 190.57 55.00 184.00 C 56.89 177.43 50.85 164.57 60.00 162.00
C 64.83 160.64 68.46 162.84 70.00 167.00
C 73.25 175.81 70.54 191.45 71.00 201.00 C 71.46 210.55 73.86 225.54 64.00 230.00
C 61.80 231.00 57.50 231.71 55.00 231.00
C 44.82 229.94 36.98 214.00 32.00 206.00
C 31.78 205.64 32.00 205.00 32.00 205.00
C 30.18 203.73 27.93 200.47 27.00 201.00
C 27.45 202.30 27.00 204.61 27.00 206.00
C 27.00 211.68 28.04 219.20 26.00 224.00
C 26.00 224.50 26.08 225.51 26.00 226.00
C 25.56 228.69 22.66 230.99 20.00 231.00
C 17.99 231.65 16.36 230.61 15.00 230.00
C 8.42 227.06 10.83 216.16 11.00 209.00 C 11.17 201.84 9.78 190.37 11.00 183.00 C 12.22 175.63 7.93 163.70 11.00 157.00
C 10.26 155.56 17.32 154.80 18.75 159.25 C 20.19 163.69 20.89 162.51 24.30 167.70 C 27.71 172.88 32.56 178.46 36.00 184.00
M 95.00 169.00 
C 95.20 170.11 95.16 171.88 95.00 173.00
C 94.22 178.38 88.18 181.05 83.00 180.00
C 76.48 178.68 76.48 171.48 77.00 166.00
C 80.13 165.53 80.27 161.06 84.00 162.00
C 85.21 161.84 87.85 161.61 89.00 162.00
C 91.33 162.97 94.57 166.59 95.00 169.00
M 123.00 174.00 
C 123.02 174.50 123.00 175.50 123.00 176.00
C 123.00 178.67 123.00 181.33 123.00 184.00
C 126.08 184.72 130.01 182.99 133.00 184.00
C 142.62 187.25 132.47 203.78 123.00 197.00
C 124.09 203.86 120.32 213.27 126.00 218.00
C 129.63 218.10 132.47 217.23 136.00 217.00
C 135.48 219.23 137.54 220.73 137.00 223.00
C 137.68 224.98 140.32 227.10 139.00 230.00
C 136.67 229.56 134.98 231.24 133.00 232.00
C 132.57 232.17 131.42 231.82 131.00 232.00
C 128.21 233.19 122.68 233.98 120.00 232.00
C 119.68 232.24 119.00 232.00 119.00 232.00
C 116.60 231.44 114.84 230.38 113.00 229.00
C 108.80 225.84 107.43 222.13 107.00 217.00
C 106.92 216.02 107.00 214.98 107.00 214.00
C 106.15 210.11 107.38 204.37 107.00 201.00
C 106.74 199.72 107.20 198.29 107.00 197.00
C 105.33 197.00 103.67 197.00 102.00 197.00
C 99.61 195.99 100.05 196.38 99.00 194.00
C 98.66 193.24 98.21 192.82 98.00 192.00
C 97.46 189.88 98.44 188.44 99.00 187.00
C 99.20 185.57 99.00 185.87 100.00 185.00
C 101.80 183.44 104.54 184.13 107.00 184.00
C 107.00 182.67 107.00 181.33 107.00 180.00
C 107.25 178.26 105.86 176.35 107.00 174.00
C 107.24 173.06 106.81 171.95 107.00 171.00
C 111.91 172.34 121.23 167.94 123.00 174.00
M 179.00 187.00 
C 179.37 188.07 179.21 190.88 179.00 192.00
C 178.83 192.91 178.26 194.04 178.00 195.00
C 176.58 200.25 175.82 198.73 171.00 200.00
C 164.99 202.14 161.57 204.67 160.00 211.00
C 158.30 217.88 162.05 230.47 152.00 231.00
C 151.08 231.05 149.91 231.13 149.00 231.00
C 140.57 229.77 142.32 215.04 143.00 209.00 C 143.68 202.96 139.68 186.19 146.00 184.00
C 150.48 182.45 161.01 183.02 159.00 190.00
C 161.35 189.15 162.23 185.76 165.00 186.00
C 168.43 184.05 177.70 179.80 179.00 187.00
M 218.00 186.00 
C 219.09 186.32 219.95 186.43 221.00 187.00
C 223.82 188.55 227.45 192.27 229.00 195.00
C 232.25 200.71 232.72 208.67 231.00 215.00
C 228.67 223.60 221.59 229.98 213.00 232.00
C 212.53 232.11 212.00 232.00 212.00 232.00
C 209.19 234.08 202.83 233.20 200.00 232.00
C 199.50 232.00 198.46 232.13 198.00 232.00
C 195.71 231.36 193.78 230.21 192.00 229.00
C 191.37 228.57 190.62 228.38 190.00 228.00
C 185.51 225.27 182.33 220.78 181.00 216.00
C 179.73 211.46 179.03 206.71 180.00 202.00
C 181.80 193.29 189.63 184.49 199.00 183.00
C 201.78 182.56 205.18 182.89 208.00 183.00
C 212.69 183.18 214.29 184.24 218.00 186.00
M 285.00 197.00 
C 285.09 198.31 284.82 199.70 285.00 201.00
C 285.72 206.31 288.54 220.22 285.00 225.00
C 285.00 225.50 285.00 226.00 285.00 226.00
C 285.00 226.50 285.00 227.00 285.00 227.00
C 284.33 229.53 282.48 230.63 280.00 231.00
C 278.65 231.20 276.33 231.29 275.00 231.00
C 272.39 230.43 270.48 227.46 270.00 225.00
C 268.40 216.88 271.44 207.89 269.00 200.00
C 266.08 199.77 264.32 196.25 261.00 197.00
C 257.92 197.39 255.64 201.95 254.00 204.00
C 253.95 204.50 254.00 205.00 254.00 205.00
C 254.00 212.13 257.43 229.66 248.00 231.00
C 243.64 231.62 240.62 230.71 239.00 227.00
C 236.87 222.12 237.59 210.46 238.00 205.00 C 238.41 199.54 235.03 186.18 241.00 184.00
C 242.66 183.40 247.26 183.65 249.00 184.00
C 250.61 184.33 253.33 184.69 253.00 187.00
C 254.82 187.55 255.47 185.25 257.00 185.00
C 261.38 183.26 264.99 182.62 270.00 183.00
C 277.56 183.58 284.48 188.96 285.00 197.00
M 93.00 186.00 
C 95.71 188.61 94.00 199.10 94.00 203.00
C 94.00 207.00 94.00 211.00 94.00 215.00
C 94.00 218.21 94.77 222.60 93.00 225.00
C 93.00 225.50 93.00 226.00 93.00 226.00
C 93.00 226.50 93.00 227.00 93.00 227.00
C 92.22 229.93 89.89 230.93 87.00 231.00
C 86.03 231.02 84.96 231.09 84.00 231.00
C 75.26 230.15 75.78 216.15 77.00 210.00 C 78.22 203.85 73.10 186.52 80.00 184.00
C 82.29 182.89 92.18 183.25 93.00 186.00 Z"/>
</g>
<g fill="#E33526" fill-opacity="0.97" stroke="None">
<path d="
M 111.00 14.00 
C 110.37 16.86 108.99 19.57 108.00 22.00
C 104.57 33.46 101.84 44.32 107.00 56.00
C 109.94 61.00 114.33 66.20 118.00 71.00
C 119.90 73.06 122.25 74.78 124.00 77.00
C 125.71 79.16 126.50 81.81 127.00 83.00
C 127.94 84.14 128.93 86.53 130.00 88.00
C 132.04 90.21 133.50 91.58 135.00 94.00
C 135.70 94.85 136.31 96.07 137.00 97.00
C 140.18 100.47 143.35 103.14 146.00 107.00
C 149.19 110.66 152.39 113.81 155.00 118.00
C 155.22 118.36 155.00 119.00 155.00 119.00
C 157.72 120.90 159.34 123.26 161.00 126.00
C 161.94 127.55 162.78 129.41 164.00 131.00
C 166.56 133.77 168.85 135.90 171.00 139.00
C 171.69 140.00 172.36 141.02 173.00 142.00
C 175.02 144.31 177.36 146.27 179.00 149.00
C 180.20 151.00 180.71 155.16 184.00 155.00
C 185.34 150.36 186.38 144.88 189.00 141.00
C 189.00 141.00 188.91 140.48 189.00 140.00
C 189.59 136.82 191.11 133.73 192.00 131.00
C 192.44 128.87 192.92 127.38 193.00 125.00
C 193.06 123.35 193.06 121.65 193.00 120.00
C 192.87 116.20 192.28 112.46 191.00 109.00
C 190.23 107.37 188.10 104.80 187.00 103.00
C 184.06 99.24 180.10 96.50 178.00 92.00
C 177.62 91.18 177.40 89.64 177.00 89.00
C 172.73 82.21 165.27 77.05 161.00 70.00
C 160.11 68.53 158.95 66.62 158.00 65.00
C 157.27 63.76 156.91 62.35 156.00 61.00
C 150.91 54.95 145.68 49.41 141.00 43.00
C 138.77 40.59 136.74 38.86 135.00 36.00
C 131.75 30.64 127.15 25.42 124.00 20.00
C 122.25 16.99 120.09 14.61 118.00 12.00
C 119.22 13.00 112.47 8.19 117.00 10.00
C 116.24 8.11 114.16 6.47 112.00 7.00
C 111.44 9.35 111.52 11.65 111.00 14.00 Z"/>
</g>
<g fill="#C6554A" fill-opacity="0.35" stroke="None">
<path d="
M 118.00 12.00 
C 117.66 11.58 117.29 10.53 117.00 10.00
C 112.47 8.19 119.22 13.00 118.00 12.00 Z"/>
</g>
<g fill="#DE8D7E" fill-opacity="0.08" stroke="None">
<path d="
M 108.00 22.00 
C 108.99 19.57 110.37 16.86 111.00 14.00
C 110.24 16.34 108.80 19.31 108.00 22.00 Z"/>
</g>
<g fill="#FBD51B" fill-opacity="0.93" stroke="None">
<path d="
M 163.00 42.00 
C 162.84 44.98 163.00 48.02 163.00 51.00
C 163.00 51.00 162.98 51.50 163.00 52.00
C 165.80 57.35 170.69 65.70 174.77 70.23 C 178.85 74.76 185.51 82.39 187.92 87.08 C 190.34 91.76 199.85 104.06 202.00 100.00
C 202.00 100.00 201.84 99.44 202.00 99.00
C 203.02 96.12 203.87 93.42 205.00 91.00
C 206.56 85.58 209.52 80.73 210.00 75.00
C 209.99 73.61 209.99 69.32 210.00 68.00
C 209.57 62.85 207.38 58.89 204.00 56.00
C 203.60 55.66 202.37 53.82 202.00 53.00
C 192.20 40.13 183.01 24.56 171.00 14.00
C 168.82 23.42 163.53 32.19 163.00 42.00 Z"/>
</g>
<g fill="#DE7F74" fill-opacity="0.09" stroke="None">
<path d="
M 135.00 36.00 
C 136.80 38.35 139.18 40.50 141.00 43.00
C 145.68 49.41 150.91 54.95 156.00 61.00
C 146.30 46.57 134.70 33.69 124.00 20.00
C 127.15 25.42 131.75 30.64 135.00 36.00 Z"/>
</g>
<g fill="#BC3F35" fill-opacity="0.56" stroke="None">
<path d="
M 141.00 43.00 
C 139.18 40.50 136.80 38.35 135.00 36.00
C 136.74 38.86 138.77 40.59 141.00 43.00 Z"/>
</g>
<g fill="#F3E693" fill-opacity="0.09" stroke="None">
<path d="
M 163.00 51.00 
C 163.00 48.02 162.84 44.98 163.00 42.00
C 162.57 44.66 160.92 48.19 163.00 51.00 Z"/>
</g>
<g fill="#F1E372" fill-opacity="0.14" stroke="None">
<path d="
M 202.00 100.00 
C 199.85 104.06 190.34 91.76 187.92 87.08 C 185.51 82.39 178.85 74.76 174.77 70.23 C 170.69 65.70 165.80 57.35 163.00 52.00
C 163.29 59.60 171.80 66.01 175.23 71.77 C 178.66 77.53 186.28 85.01 189.08 89.92 C 191.88 94.83 202.22 107.82 202.00 100.00 Z"/>
</g>
<g fill="#E5D24A" fill-opacity="0.33" stroke="None">
<path d="
M 204.00 56.00 
C 203.40 55.18 202.65 53.90 202.00 53.00
C 202.37 53.82 203.60 55.66 204.00 56.00 Z"/>
</g>
<g fill="#DA7970" fill-opacity="0.06" stroke="None">
<path d="
M 123.00 78.00 
C 122.38 77.00 121.67 75.89 121.00 75.00
C 120.01 73.68 118.97 72.26 118.00 71.00
C 114.33 66.20 109.94 61.00 107.00 56.00
C 110.68 64.34 117.52 70.85 123.00 78.00 Z"/>
</g>
<g fill="#A3E3EE" fill-opacity="0.07" stroke="None">
<path d="
M 93.00 67.00 
C 93.62 65.63 96.40 64.49 95.00 62.00
C 93.81 62.46 93.41 65.74 93.00 67.00 Z"/>
</g>
<g fill="#1BA7AF" fill-opacity="0.92" stroke="None">
<path d="
M 93.00 67.00 
C 89.95 76.46 84.40 87.51 86.00 98.00
C 87.09 102.22 91.77 108.68 95.00 112.00
C 97.14 114.20 98.31 116.47 99.00 118.00
C 104.52 124.83 110.52 132.85 116.00 140.00
C 116.65 140.47 120.62 142.12 121.00 145.00
C 119.72 145.53 119.14 144.03 118.00 144.00
C 120.50 146.69 122.05 151.16 126.00 151.00
C 128.46 135.94 140.64 118.25 129.00 104.00
C 128.70 103.71 127.36 102.73 127.00 102.00
C 123.74 97.84 120.29 92.38 117.00 88.00
C 114.98 86.43 111.33 84.44 111.00 81.00
C 110.88 79.74 110.79 79.75 110.00 79.00
C 106.82 75.96 102.90 72.08 101.00 68.00
C 100.58 67.09 100.48 66.74 100.00 66.00
C 100.46 66.23 95.17 62.47 99.00 64.00
C 98.15 62.70 96.92 61.26 95.00 62.00
C 96.40 64.49 93.62 65.63 93.00 67.00 Z"/>
</g>
<g fill="#4B9BA9" fill-opacity="0.31" stroke="None">
<path d="
M 100.00 66.00 
C 99.62 65.41 99.41 64.62 99.00 64.00
C 95.17 62.47 100.46 66.23 100.00 66.00 Z"/>
</g>
<g fill="#E9A49C" fill-opacity="0.06" stroke="None">
<path d="
M 161.00 70.00 
C 162.24 71.50 164.71 72.63 166.00 74.00
C 163.67 70.86 159.92 67.53 158.00 65.00
C 158.95 66.62 160.11 68.53 161.00 70.00 Z"/>
</g>
<g fill="#75CDD1" fill-opacity="0.06" stroke="None">
<path d="
M 110.00 79.00 
C 107.29 75.14 103.67 71.74 101.00 68.00
C 102.90 72.08 106.82 75.96 110.00 79.00 Z"/>
</g>
<g fill="#EFE061" fill-opacity="0.27" stroke="None">
<path d="
M 210.00 75.00 
C 210.19 72.78 210.19 70.22 210.00 68.00
C 209.99 69.32 209.99 73.61 210.00 75.00 Z"/>
</g>
<g fill="#D1695F" fill-opacity="0.31" stroke="None">
<path d="
M 177.00 89.00 
C 173.26 83.96 169.64 78.89 166.00 74.00
C 164.71 72.63 162.24 71.50 161.00 70.00
C 165.27 77.05 172.73 82.21 177.00 89.00 Z"/>
</g>
<g fill="#C33C33" fill-opacity="0.59" stroke="None">
<path d="
M 121.00 75.00 
C 121.82 75.76 123.24 76.28 124.00 77.00
C 122.25 74.78 119.90 73.06 118.00 71.00
C 118.97 72.26 120.01 73.68 121.00 75.00 Z"/>
</g>
<g fill="#C4544D" fill-opacity="0.33" stroke="None">
<path d="
M 123.00 78.00 
C 124.22 79.96 125.47 81.14 127.00 83.00
C 126.50 81.81 125.71 79.16 124.00 77.00
C 123.24 76.28 121.82 75.76 121.00 75.00
C 121.67 75.89 122.38 77.00 123.00 78.00 Z"/>
</g>
<g fill="#43ADB0" fill-opacity="0.30" stroke="None">
<path d="
M 117.00 88.00 
C 115.21 85.62 112.67 83.34 111.00 81.00
C 111.33 84.44 114.98 86.43 117.00 88.00 Z"/>
</g>
<g fill="#D28A85" fill-opacity="0.05" stroke="None">
<path d="
M 135.00 94.00 
C 133.50 91.58 132.04 90.21 130.00 88.00
C 131.55 90.12 133.42 92.08 135.00 94.00 Z"/>
</g>
<g fill="#DA786D" fill-opacity="0.07" stroke="None">
<path d="
M 178.00 92.00 
C 180.62 95.75 184.51 98.94 187.00 103.00
C 188.10 104.80 190.23 107.37 191.00 109.00
C 188.15 101.27 181.74 95.37 177.00 89.00
C 177.40 89.64 177.62 91.18 178.00 92.00 Z"/>
</g>
<g fill="#EDDB76" fill-opacity="0.17" stroke="None">
<path d="
M 202.00 99.00 
C 204.74 97.03 204.14 94.00 205.00 91.00
C 203.87 93.42 203.02 96.12 202.00 99.00 Z"/>
</g>
<g fill="#C14238" fill-opacity="0.52" stroke="None">
<path d="
M 187.00 103.00 
C 184.51 98.94 180.62 95.75 178.00 92.00
C 180.10 96.50 184.06 99.24 187.00 103.00 Z"/>
</g>
<g fill="#DA8070" fill-opacity="0.09" stroke="None">
<path d="
M 167.00 135.00 
C 166.26 133.59 164.93 132.22 164.00 131.00
C 162.78 129.41 161.94 127.55 161.00 126.00
C 159.21 123.66 156.86 121.43 155.00 119.00
C 155.00 119.00 155.22 118.36 155.00 118.00
C 151.35 115.62 148.45 110.57 146.00 107.00
C 143.35 103.14 140.18 100.47 137.00 97.00
C 145.65 108.76 155.06 126.65 167.00 135.00 Z"/>
</g>
<g fill="#70D6D7" fill-opacity="0.06" stroke="None">
<path d="
M 97.00 116.00 
C 96.31 114.85 95.92 113.23 95.00 112.00
C 91.77 108.68 87.09 102.22 86.00 98.00
C 87.10 105.22 92.65 110.57 97.00 116.00 Z"/>
</g>
<g fill="#40A4A6" fill-opacity="0.39" stroke="None">
<path d="
M 129.00 104.00 
C 128.47 103.35 127.49 102.63 127.00 102.00
C 127.36 102.73 128.70 103.71 129.00 104.00 Z"/>
</g>
<g fill="#C33A33" fill-opacity="0.67" stroke="None">
<path d="
M 155.00 118.00 
C 152.39 113.81 149.19 110.66 146.00 107.00
C 148.45 110.57 151.35 115.62 155.00 118.00 Z"/>
</g>
<g fill="#3AA2A4" fill-opacity="0.42" stroke="None">
<path d="
M 97.00 116.00 
C 97.55 116.69 98.47 117.34 99.00 118.00
C 98.31 116.47 97.14 114.20 95.00 112.00
C 95.92 113.23 96.31 114.85 97.00 116.00 Z"/>
</g>
<g fill="#BD3F34" fill-opacity="0.54" stroke="None">
<path d="
M 161.00 126.00 
C 159.34 123.26 157.72 120.90 155.00 119.00
C 156.86 121.43 159.21 123.66 161.00 126.00 Z"/>
</g>
<g fill="#FEFFDF" fill-opacity="0.00" stroke="None">
<path d="
M 193.00 125.00 
C 193.27 123.16 193.28 121.90 193.00 120.00
C 193.06 121.65 193.06 123.35 193.00 125.00 Z"/>
</g>
<g fill="#C34339" fill-opacity="0.49" stroke="None">
<path d="
M 167.00 135.00 
C 167.00 135.00 166.76 135.68 167.00 136.00
C 168.16 137.00 170.01 137.94 171.00 139.00
C 168.85 135.90 166.56 133.77 164.00 131.00
C 164.93 132.22 166.26 133.59 167.00 135.00 Z"/>
</g>
<g fill="#DE7E6E" fill-opacity="0.08" stroke="None">
<path d="
M 189.00 140.00 
C 191.47 138.11 191.41 133.88 192.00 131.00
C 191.11 133.73 189.59 136.82 189.00 140.00 Z"/>
</g>
<g fill="#DD7D6E" fill-opacity="0.09" stroke="None">
<path d="
M 189.00 141.00 
C 186.38 144.88 185.34 150.36 184.00 155.00
C 180.71 155.16 180.20 151.00 179.00 149.00
C 177.08 146.50 174.76 144.71 173.00 142.00
C 172.36 141.02 171.69 140.00 171.00 139.00
C 170.01 137.94 168.16 137.00 167.00 136.00
C 173.12 142.29 176.70 153.05 185.00 156.00
C 185.23 150.70 188.80 146.27 189.00 141.00 Z"/>
</g>
<g fill="#3BA2A5" fill-opacity="0.45" stroke="None">
<path d="
M 116.00 140.00 
C 116.89 141.16 117.23 142.74 118.00 144.00
C 119.14 144.03 119.72 145.53 121.00 145.00
C 120.62 142.12 116.65 140.47 116.00 140.00 Z"/>
</g>
<g fill="#C33E36" fill-opacity="0.59" stroke="None">
<path d="
M 179.00 149.00 
C 177.36 146.27 175.02 144.31 173.00 142.00
C 174.76 144.71 177.08 146.50 179.00 149.00 Z"/>
</g>
<g fill="#D5847A" fill-opacity="0.06" stroke="None">
<path d="
M 11.00 157.00 
C 11.14 156.68 12.66 156.02 13.00 156.00
C 15.08 155.86 17.18 158.32 18.00 160.00
C 18.20 160.40 18.00 161.00 18.00 161.00
C 21.18 163.07 23.00 166.90 25.00 170.00
C 26.50 172.32 27.68 174.80 29.00 177.00
C 30.72 179.25 33.13 181.85 35.00 184.00
C 35.41 184.19 36.00 184.00 36.00 184.00
C 32.56 178.46 27.71 172.88 24.30 167.70 C 20.89 162.51 20.19 163.69 18.75 159.25 C 17.32 154.80 10.26 155.56 11.00 157.00 Z"/>
</g>
<g fill="#E03728" fill-opacity="0.95" stroke="None">
<path d="
M 11.00 157.00 
C 7.93 163.70 12.22 175.63 11.00 183.00 C 9.78 190.37 11.17 201.84 11.00 209.00 C 10.83 216.16 8.42 227.06 15.00 230.00
C 15.34 230.11 18.71 229.76 20.00 230.00
C 22.88 229.63 22.53 228.58 24.00 227.00
C 23.29 226.20 25.86 220.56 25.00 218.00 C 24.14 215.44 25.45 210.09 25.00 207.00 C 24.55 203.91 25.34 199.23 25.00 196.00
C 26.28 195.73 27.72 196.77 28.00 198.00
C 29.34 199.23 32.47 204.27 32.00 205.00
C 32.00 205.00 31.78 205.64 32.00 206.00
C 37.82 209.80 41.90 218.49 46.00 224.00
C 47.64 225.88 51.09 228.84 53.00 230.00
C 53.29 230.11 54.92 230.98 55.00 231.00
C 57.50 231.71 61.80 231.00 64.00 230.00
C 68.19 225.81 55.82 214.72 54.00 211.00
C 52.18 208.95 50.57 206.34 50.00 205.00
C 47.81 199.83 44.25 195.73 41.00 191.00
C 39.34 189.38 34.40 187.58 36.00 185.00
C 36.00 185.00 36.22 184.36 36.00 184.00
C 36.00 184.00 35.41 184.19 35.00 184.00
C 32.57 182.90 30.33 179.21 29.00 177.00
C 27.68 174.80 26.50 172.32 25.00 170.00
C 22.57 167.01 20.10 164.38 18.00 161.00
C 18.00 161.00 18.20 160.40 18.00 160.00
C 17.26 159.22 13.70 156.06 13.00 156.00
C 12.66 156.02 11.14 156.68 11.00 157.00 Z"/>
</g>
<g fill="#BA4843" fill-opacity="0.47" stroke="None">
<path d="
M 18.00 160.00 
C 17.18 158.32 15.08 155.86 13.00 156.00
C 13.70 156.06 17.26 159.22 18.00 160.00 Z"/>
</g>
<g fill="#BF4A41" fill-opacity="0.43" stroke="None">
<path d="
M 25.00 170.00 
C 23.00 166.90 21.18 163.07 18.00 161.00
C 20.10 164.38 22.57 167.01 25.00 170.00 Z"/>
</g>
<g fill="#D27D72" fill-opacity="0.13" stroke="None">
<path d="
M 54.00 210.00 
C 54.10 210.48 54.00 211.00 54.00 211.00
C 55.82 214.72 68.19 225.81 64.00 230.00
C 73.86 225.54 71.46 210.55 71.00 201.00 C 70.54 191.45 73.25 175.81 70.00 167.00
C 67.47 184.16 73.38 203.00 70.00 220.00
C 69.89 220.53 69.23 222.58 69.00 223.00
C 68.34 224.17 67.59 225.30 66.00 225.00
C 66.55 223.18 64.25 222.53 64.00 221.00
C 60.71 216.62 55.98 212.21 56.00 206.00 C 56.02 199.78 55.54 187.89 56.00 182.00 C 56.46 176.11 53.41 164.57 60.00 162.00
C 50.85 164.57 56.89 177.43 55.00 184.00 C 53.11 190.57 58.16 204.38 54.00 210.00 Z"/>
</g>
<g fill="#E13527" fill-opacity="0.96" stroke="None">
<path d="
M 64.00 221.00 
C 65.11 222.10 67.56 224.69 69.00 223.00
C 69.23 222.58 69.89 220.53 70.00 220.00
C 70.47 212.59 69.26 202.26 69.00 194.00 C 68.74 185.74 70.92 174.25 70.00 167.00
C 68.46 162.84 64.83 160.64 60.00 162.00
C 53.41 164.57 56.46 176.11 56.00 182.00 C 55.54 187.89 56.02 199.78 56.00 206.00 C 55.98 212.21 60.71 216.62 64.00 221.00 Z"/>
</g>
<g fill="#D16863" fill-opacity="0.17" stroke="None">
<path d="
M 83.00 180.00 
C 75.59 177.39 76.80 163.80 84.00 162.00
C 80.27 161.06 80.13 165.53 77.00 166.00
C 76.48 171.48 76.48 178.68 83.00 180.00 Z"/>
</g>
<g fill="#DD3D2E" fill-opacity="0.88" stroke="None">
<path d="
M 83.00 180.00 
C 88.18 181.05 94.22 178.38 95.00 173.00
C 95.02 175.06 92.81 170.07 93.00 168.00
C 93.05 167.50 93.00 167.00 93.00 167.00
C 91.54 165.44 88.20 164.40 89.00 163.00
C 88.77 162.84 89.00 162.00 89.00 162.00
C 87.85 161.61 85.21 161.84 84.00 162.00
C 76.80 163.80 75.59 177.39 83.00 180.00 Z"/>
</g>
<g fill="#E09795" fill-opacity="0.05" stroke="None">
<path d="
M 89.00 163.00 
C 90.58 164.10 92.15 165.25 93.00 167.00
C 93.00 167.00 93.05 167.50 93.00 168.00
C 93.22 168.44 94.84 168.70 95.00 169.00
C 94.57 166.59 91.33 162.97 89.00 162.00
C 89.00 162.00 88.77 162.84 89.00 163.00 Z"/>
</g>
<g fill="#B6423A" fill-opacity="0.46" stroke="None">
<path d="
M 93.00 167.00 
C 92.15 165.25 90.58 164.10 89.00 163.00
C 88.20 164.40 91.54 165.44 93.00 167.00 Z"/>
</g>
<g fill="#BD3C2F" fill-opacity="0.81" stroke="None">
<path d="
M 70.00 220.00 
C 73.38 203.00 67.47 184.16 70.00 167.00
C 70.92 174.25 68.74 185.74 69.00 194.00 C 69.26 202.26 70.47 212.59 70.00 220.00 Z"/>
</g>
<g fill="#B74336" fill-opacity="0.44" stroke="None">
<path d="
M 95.00 173.00 
C 95.16 171.88 95.20 170.11 95.00 169.00
C 94.84 168.70 93.22 168.44 93.00 168.00
C 92.81 170.07 95.02 175.06 95.00 173.00 Z"/>
</g>
<g fill="#E03729" fill-opacity="0.93" stroke="None">
<path d="
M 107.00 174.00 
C 106.52 175.87 107.30 178.09 107.00 180.00
C 107.00 181.33 107.00 182.67 107.00 184.00
C 104.54 184.13 101.80 183.44 100.00 185.00
C 99.87 185.04 100.99 193.91 99.00 194.00
C 100.05 196.38 99.61 195.99 102.00 197.00
C 103.86 197.43 106.79 192.33 107.92 198.08 C 109.05 203.84 107.09 211.95 107.00 217.00
C 107.43 222.13 108.80 225.84 113.00 229.00
C 114.99 230.13 117.18 230.54 119.00 232.00
C 119.00 232.00 119.68 232.24 120.00 232.00
C 122.71 229.99 128.29 230.85 131.00 232.00
C 131.42 231.82 132.57 232.17 133.00 232.00
C 132.96 232.02 134.94 230.06 135.00 230.00
C 136.10 228.84 136.81 227.56 137.00 226.00
C 136.80 225.09 137.05 223.94 137.00 223.00
C 137.54 220.73 135.48 219.23 136.00 217.00
C 132.47 217.23 129.63 218.10 126.00 218.00
C 123.84 217.94 122.87 218.47 122.00 215.00
C 121.39 212.58 119.52 193.02 126.01 196.01 C 132.50 199.00 140.62 187.94 133.00 184.00
C 130.01 182.99 126.08 184.72 123.00 184.00
C 118.75 183.00 122.23 173.03 123.00 174.00
C 121.23 167.94 111.91 172.34 107.00 171.00
C 106.81 171.95 107.24 173.06 107.00 174.00 Z"/>
</g>
<g fill="#C3352E" fill-opacity="0.62" stroke="None">
<path d="
M 123.00 184.00 
C 120.85 182.08 122.17 177.95 123.00 176.00
C 123.00 175.50 123.02 174.50 123.00 174.00
C 122.23 173.03 118.75 183.00 123.00 184.00 Z"/>
</g>
<g fill="#FFFFFF" fill-opacity="0.00" stroke="None">
<path d="
M 107.00 180.00 
C 107.30 178.09 106.52 175.87 107.00 174.00
C 105.86 176.35 107.25 178.26 107.00 180.00 Z"/>
</g>
<g fill="#D7645D" fill-opacity="0.09" stroke="None">
<path d="
M 123.00 184.00 
C 123.00 181.33 123.00 178.67 123.00 176.00
C 122.17 177.95 120.85 182.08 123.00 184.00 Z"/>
</g>
<g fill="#B93E34" fill-opacity="0.55" stroke="None">
<path d="
M 35.00 184.00 
C 33.13 181.85 30.72 179.25 29.00 177.00
C 30.33 179.21 32.57 182.90 35.00 184.00 Z"/>
</g>
<g fill="#D27C78" fill-opacity="0.06" stroke="None">
<path d="
M 165.00 186.00 
C 166.63 185.41 168.25 185.36 170.00 185.00
C 172.58 184.47 174.96 182.79 177.00 186.00
C 177.17 186.27 177.74 186.88 178.00 187.00
C 178.41 187.19 179.00 187.00 179.00 187.00
C 177.70 179.80 168.43 184.05 165.00 186.00 Z"/>
</g>
<g fill="#DC837A" fill-opacity="0.10" stroke="None">
<path d="
M 180.00 202.00 
C 180.40 200.75 182.26 197.30 183.00 196.00
C 184.75 192.92 188.26 190.04 191.00 188.00
C 192.91 186.58 197.20 183.47 199.00 183.00
C 189.63 184.49 181.80 193.29 180.00 202.00 Z"/>
</g>
<g fill="#E03829" fill-opacity="0.93" stroke="None">
<path d="
M 191.00 188.00 
C 188.85 189.87 184.51 193.76 183.00 196.00
C 182.26 197.30 180.40 200.75 180.00 202.00
C 179.03 206.71 179.73 211.46 181.00 216.00
C 181.45 217.01 183.32 219.91 184.00 221.00
C 185.55 223.13 191.53 228.60 192.00 229.00
C 193.78 230.21 195.71 231.36 198.00 232.00
C 195.91 229.89 209.94 230.47 212.00 232.00
C 212.00 232.00 212.53 232.11 213.00 232.00
C 219.51 226.78 227.67 223.58 231.00 215.00
C 232.72 208.67 232.25 200.71 229.00 195.00
C 227.64 192.98 222.93 188.39 221.00 187.00
C 219.95 186.43 219.09 186.32 218.00 186.00
C 214.94 185.11 210.77 183.40 208.00 183.00
C 205.18 182.89 201.78 182.56 199.00 183.00
C 197.20 183.47 192.91 186.58 191.00 188.00
M 208.00 196.00 
C 209.14 196.15 210.95 196.51 212.00 197.00
C 214.09 197.97 215.65 199.84 216.00 202.00
C 216.08 202.49 215.97 203.50 216.00 204.00
C 216.17 206.72 216.35 209.65 215.00 212.00
C 218.49 212.11 214.99 214.14 213.75 216.75 C 212.51 219.37 209.04 218.00 209.00 218.00
C 205.63 219.50 202.35 218.15 199.00 217.00
C 198.40 216.79 194.26 216.01 195.00 213.00
C 196.25 213.30 196.71 214.83 198.00 215.00
C 195.92 211.65 194.39 209.31 195.00 205.00
C 195.52 201.31 199.28 196.97 203.00 196.00
C 205.34 195.15 205.77 195.39 208.00 196.00 Z"/>
</g>
<g fill="#D77C76" fill-opacity="0.11" stroke="None">
<path d="
M 218.00 186.00 
C 214.29 184.24 212.69 183.18 208.00 183.00
C 210.77 183.40 214.94 185.11 218.00 186.00 Z"/>
</g>
<g fill="#E03627" fill-opacity="0.95" stroke="None">
<path d="
M 257.00 185.00 
C 256.23 185.47 255.53 187.31 255.00 188.00
C 252.53 187.85 250.76 185.21 249.00 184.00
C 247.26 183.65 242.66 183.40 241.00 184.00
C 236.50 186.33 238.95 198.87 239.00 204.00 C 239.05 209.13 237.52 221.63 239.00 227.00
C 240.62 230.71 243.64 231.62 248.00 231.00
C 249.65 230.45 251.51 226.34 252.00 225.00
C 253.23 219.45 249.70 210.48 253.00 206.00
C 253.22 205.70 253.88 205.26 254.00 205.00
C 254.00 205.00 253.95 204.50 254.00 204.00
C 254.35 200.28 257.28 197.17 261.00 197.00
C 264.32 196.25 266.08 199.77 269.00 200.00
C 271.44 207.89 268.40 216.88 270.00 225.00
C 270.22 225.73 274.25 230.76 275.00 231.00
C 276.33 231.29 278.65 231.20 280.00 231.00
C 281.01 230.75 284.17 227.88 285.00 227.00
C 285.00 227.00 285.00 226.50 285.00 226.00
C 281.34 221.06 284.27 206.37 285.00 201.00
C 284.82 199.70 285.09 198.31 285.00 197.00
C 284.74 195.62 282.91 192.48 282.00 191.00
C 281.19 189.88 278.07 186.77 277.00 186.00
C 275.15 184.87 271.72 183.28 270.00 183.00
C 264.99 182.62 261.38 183.26 257.00 185.00 Z"/>
</g>
<g fill="#D97A71" fill-opacity="0.09" stroke="None">
<path d="
M 277.00 186.00 
C 279.00 187.23 280.81 189.05 282.00 191.00
C 282.91 192.48 284.74 195.62 285.00 197.00
C 284.48 188.96 277.56 183.58 270.00 183.00
C 271.72 183.28 275.15 184.87 277.00 186.00 Z"/>
</g>
<g fill="#DF9289" fill-opacity="0.06" stroke="None">
<path d="
M 84.00 231.00 
C 76.98 228.96 77.03 218.39 78.00 212.00 C 78.97 205.61 75.99 193.48 78.00 187.00
C 78.15 186.53 79.69 184.15 80.00 184.00
C 73.10 186.52 78.22 203.85 77.00 210.00 C 75.78 216.15 75.26 230.15 84.00 231.00 Z"/>
</g>
<g fill="#BD4D43" fill-opacity="0.29" stroke="None">
<path d="
M 78.00 187.00 
C 79.75 183.76 90.58 183.89 92.00 187.00
C 92.09 187.19 93.00 187.00 93.00 187.00
C 93.00 186.50 93.00 186.00 93.00 186.00
C 92.18 183.25 82.29 182.89 80.00 184.00
C 79.69 184.15 78.15 186.53 78.00 187.00 Z"/>
</g>
<g fill="#CE635B" fill-opacity="0.15" stroke="None">
<path d="
M 122.00 215.00 
C 122.42 216.19 124.38 218.30 126.00 218.00
C 120.32 213.27 124.09 203.86 123.00 197.00
C 132.47 203.78 142.62 187.25 133.00 184.00
C 140.62 187.94 132.50 199.00 126.01 196.01 C 119.52 193.02 121.39 212.58 122.00 215.00 Z"/>
</g>
<g fill="#D45F55" fill-opacity="0.19" stroke="None">
<path d="
M 149.00 231.00 
C 144.20 229.23 143.39 222.71 144.00 218.00 C 144.61 213.29 143.13 204.46 144.00 200.00 C 144.87 195.54 141.43 186.36 146.00 184.00
C 139.68 186.19 143.68 202.96 143.00 209.00 C 142.32 215.04 140.57 229.77 149.00 231.00 Z"/>
</g>
<g fill="#E1382A" fill-opacity="0.93" stroke="None">
<path d="
M 149.00 231.00 
C 149.91 231.13 151.08 231.05 152.00 231.00
C 160.24 229.12 157.74 216.61 160.00 211.00
C 161.57 204.67 164.99 202.14 171.00 200.00
C 173.74 199.02 177.29 199.19 177.00 195.00
C 176.79 192.64 176.28 188.24 177.00 186.00
C 175.86 184.39 171.68 184.88 170.00 185.00
C 168.25 185.36 166.63 185.41 165.00 186.00
C 162.23 185.76 161.35 189.15 159.00 190.00
C 161.01 183.02 150.48 182.45 146.00 184.00
C 141.43 186.36 144.87 195.54 144.00 200.00 C 143.13 204.46 144.61 213.29 144.00 218.00 C 143.39 222.71 144.20 229.23 149.00 231.00 Z"/>
</g>
<g fill="#C1443E" fill-opacity="0.56" stroke="None">
<path d="
M 170.00 185.00 
C 171.68 184.88 175.86 184.39 177.00 186.00
C 174.96 182.79 172.58 184.47 170.00 185.00 Z"/>
</g>
<g fill="#D36960" fill-opacity="0.28" stroke="None">
<path d="
M 239.00 227.00 
C 237.52 221.63 239.05 209.13 239.00 204.00 C 238.95 198.87 236.50 186.33 241.00 184.00
C 235.03 186.18 238.41 199.54 238.00 205.00 C 237.59 210.46 236.87 222.12 239.00 227.00 Z"/>
</g>
<g fill="#D57C76" fill-opacity="0.10" stroke="None">
<path d="
M 257.00 185.00 
C 255.47 185.25 254.82 187.55 253.00 187.00
C 253.33 184.69 250.61 184.33 249.00 184.00
C 250.76 185.21 252.53 187.85 255.00 188.00
C 255.53 187.31 256.23 185.47 257.00 185.00 Z"/>
</g>
<g fill="#D27569" fill-opacity="0.27" stroke="None">
<path d="
M 41.00 191.00 
C 39.45 188.74 38.39 186.56 36.00 185.00
C 34.40 187.58 39.34 189.38 41.00 191.00 Z"/>
</g>
<g fill="#E13628" fill-opacity="0.96" stroke="None">
<path d="
M 78.00 187.00 
C 75.99 193.48 78.97 205.61 78.00 212.00 C 77.03 218.39 76.98 228.96 84.00 231.00
C 84.96 231.09 86.03 231.02 87.00 231.00
C 88.47 230.56 91.68 228.16 93.00 227.00
C 93.00 227.00 93.00 226.50 93.00 226.00
C 89.82 221.70 92.44 212.71 92.00 207.00 C 91.56 201.29 91.47 192.87 92.00 187.00
C 90.58 183.89 79.75 183.76 78.00 187.00 Z"/>
</g>
<g fill="#C24636" fill-opacity="0.44" stroke="None">
<path d="
M 99.00 187.00 
C 98.87 187.96 97.98 191.79 98.00 192.00
C 98.21 192.82 98.66 193.24 99.00 194.00
C 100.99 193.91 99.87 185.04 100.00 185.00
C 99.00 185.87 99.20 185.57 99.00 187.00 Z"/>
</g>
<g fill="#FFD1D1" fill-opacity="0.02" stroke="None">
<path d="
M 93.00 187.00 
C 93.00 192.33 93.00 197.67 93.00 203.00
C 93.00 202.96 94.00 203.00 94.00 203.00
C 94.00 199.10 95.71 188.61 93.00 186.00
C 93.00 186.00 93.00 186.50 93.00 187.00 Z"/>
</g>
<g fill="#AF3A32" fill-opacity="0.29" stroke="None">
<path d="
M 177.00 195.00 
C 177.00 195.03 178.00 195.00 178.00 195.00
C 178.26 194.04 178.83 192.91 179.00 192.00
C 179.02 191.71 178.15 187.95 178.00 187.00
C 177.74 186.88 177.17 186.27 177.00 186.00
C 176.28 188.24 176.79 192.64 177.00 195.00 Z"/>
</g>
<g fill="#BD4342" fill-opacity="0.55" stroke="None">
<path d="
M 282.00 191.00 
C 280.81 189.05 279.00 187.23 277.00 186.00
C 278.07 186.77 281.19 189.88 282.00 191.00 Z"/>
</g>
<g fill="#B23F34" fill-opacity="0.67" stroke="None">
<path d="
M 93.00 226.00 
C 93.00 226.00 93.00 225.50 93.00 225.00
C 93.00 221.67 93.00 218.33 93.00 215.00
C 93.00 211.00 93.00 207.00 93.00 203.00
C 93.00 197.67 93.00 192.33 93.00 187.00
C 93.00 187.00 92.09 187.19 92.00 187.00
C 91.47 192.87 91.56 201.29 92.00 207.00 C 92.44 212.71 89.82 221.70 93.00 226.00 Z"/>
</g>
<g fill="#D2D4B4" fill-opacity="0.01" stroke="None">
<path d="
M 98.00 192.00 
C 97.98 191.79 98.87 187.96 99.00 187.00
C 98.44 188.44 97.46 189.88 98.00 192.00 Z"/>
</g>
<g fill="#FFFFFF" fill-opacity="0.00" stroke="None">
<path d="
M 179.00 192.00 
C 179.21 190.88 179.37 188.07 179.00 187.00
C 179.00 187.00 178.41 187.19 178.00 187.00
C 178.15 187.95 179.02 191.71 179.00 192.00 Z"/>
</g>
<g fill="#F0A69E" fill-opacity="0.04" stroke="None">
<path d="
M 229.00 195.00 
C 227.45 192.27 223.82 188.55 221.00 187.00
C 222.93 188.39 227.64 192.98 229.00 195.00 Z"/>
</g>
<g fill="#C13B33" fill-opacity="0.67" stroke="None">
<path d="
M 183.00 196.00 
C 184.51 193.76 188.85 189.87 191.00 188.00
C 188.26 190.04 184.75 192.92 183.00 196.00 Z"/>
</g>
<g fill="#E58D81" fill-opacity="0.08" stroke="None">
<path d="
M 171.00 200.00 
C 175.82 198.73 176.58 200.25 178.00 195.00
C 178.00 195.00 177.00 195.03 177.00 195.00
C 177.29 199.19 173.74 199.02 171.00 200.00 Z"/>
</g>
<g fill="#C33E32" fill-opacity="0.56" stroke="None">
<path d="
M 203.00 196.00 
C 203.47 195.88 204.50 196.00 205.00 196.00
C 205.50 196.00 206.50 196.00 207.00 196.00
C 207.50 196.00 208.00 196.00 208.00 196.00
C 205.77 195.39 205.34 195.15 203.00 196.00 Z"/>
</g>
<g fill="#B82D23" fill-opacity="0.52" stroke="None">
<path d="
M 24.00 227.00 
C 24.21 226.77 25.95 226.13 26.00 226.00
C 26.08 225.51 26.00 224.50 26.00 224.00
C 26.00 218.00 26.00 212.00 26.00 206.00
C 26.00 204.61 25.55 202.31 26.00 201.00
C 25.50 198.70 25.69 196.94 28.00 198.00
C 27.72 196.77 26.28 195.73 25.00 196.00
C 25.34 199.23 24.55 203.91 25.00 207.00 C 25.45 210.09 24.14 215.44 25.00 218.00 C 25.86 220.56 23.29 226.20 24.00 227.00 Z"/>
</g>
<g fill="#B13C30" fill-opacity="0.34" stroke="None">
<path d="
M 102.00 197.00 
C 103.67 197.00 105.33 197.00 107.00 197.00
C 107.20 198.29 106.74 199.72 107.00 201.00
C 107.82 204.95 107.00 209.96 107.00 214.00
C 107.00 214.98 106.92 216.02 107.00 217.00
C 107.09 211.95 109.05 203.84 107.92 198.08 C 106.79 192.33 103.86 197.43 102.00 197.00 Z"/>
</g>
<g fill="#E9978F" fill-opacity="0.06" stroke="None">
<path d="
M 195.00 205.00 
C 195.84 201.02 201.68 197.15 205.00 196.00
C 204.50 196.00 203.47 195.88 203.00 196.00
C 199.28 196.97 195.52 201.31 195.00 205.00 Z"/>
</g>
<g fill="#000000" fill-opacity="0.00" stroke="None">
<path d="
M 195.00 205.00 
C 194.39 209.31 195.92 211.65 198.00 215.00
C 198.19 215.30 198.81 216.87 199.00 217.00
C 202.35 218.15 205.63 219.50 209.00 218.00
C 209.61 217.73 210.45 217.33 211.00 217.00
C 212.64 216.00 214.08 214.43 215.00 213.00
C 215.09 212.52 215.00 212.00 215.00 212.00
C 216.35 209.65 216.17 206.72 216.00 204.00
C 214.44 203.91 209.56 196.85 207.00 196.00
C 206.50 196.00 205.50 196.00 205.00 196.00
C 201.68 197.15 195.84 201.02 195.00 205.00 Z"/>
</g>
<g fill="#E68279" fill-opacity="0.10" stroke="None">
<path d="
M 216.00 204.00 
C 215.97 203.50 216.08 202.49 216.00 202.00
C 215.63 201.14 212.88 197.53 212.00 197.00
C 210.95 196.51 209.14 196.15 208.00 196.00
C 208.00 196.00 207.50 196.00 207.00 196.00
C 209.56 196.85 214.44 203.91 216.00 204.00 Z"/>
</g>
<g fill="#C5584F" fill-opacity="0.18" stroke="None">
<path d="
M 26.00 201.00 
C 26.05 200.85 27.00 201.00 27.00 201.00
C 27.93 200.47 30.18 203.73 32.00 205.00
C 32.47 204.27 29.34 199.23 28.00 198.00
C 25.69 196.94 25.50 198.70 26.00 201.00 Z"/>
</g>
<g fill="#C33D33" fill-opacity="0.67" stroke="None">
<path d="
M 216.00 202.00 
C 215.65 199.84 214.09 197.97 212.00 197.00
C 212.88 197.53 215.63 201.14 216.00 202.00 Z"/>
</g>
<g fill="#E27E79" fill-opacity="0.08" stroke="None">
<path d="
M 254.00 204.00 
C 255.64 201.95 257.92 197.39 261.00 197.00
C 257.28 197.17 254.35 200.28 254.00 204.00 Z"/>
</g>
<g fill="#FFFFFF" fill-opacity="0.00" stroke="None">
<path d="
M 26.00 206.00 
C 26.05 206.15 27.00 206.00 27.00 206.00
C 27.00 204.61 27.45 202.30 27.00 201.00
C 27.00 201.00 26.05 200.85 26.00 201.00
C 25.55 202.31 26.00 204.61 26.00 206.00 Z"/>
</g>
<g fill="#FFFFFF" fill-opacity="0.00" stroke="None">
<path d="
M 107.00 214.00 
C 107.00 209.96 107.82 204.95 107.00 201.00
C 107.38 204.37 106.15 210.11 107.00 214.00 Z"/>
</g>
<g fill="#C1352A" fill-opacity="0.76" stroke="None">
<path d="
M 285.00 226.00 
C 285.00 226.00 285.00 225.50 285.00 225.00
C 285.00 217.00 285.00 209.00 285.00 201.00
C 284.27 206.37 281.34 221.06 285.00 226.00 Z"/>
</g>
<g fill="#DC7365" fill-opacity="0.02" stroke="None">
<path d="
M 285.00 225.00 
C 288.54 220.22 285.72 206.31 285.00 201.00
C 285.00 209.00 285.00 217.00 285.00 225.00 Z"/>
</g>
<g fill="#FFDABB" fill-opacity="0.03" stroke="None">
<path d="
M 93.00 215.00 
C 93.00 214.96 94.00 215.00 94.00 215.00
C 94.00 211.00 94.00 207.00 94.00 203.00
C 94.00 203.00 93.00 202.96 93.00 203.00
C 93.00 207.00 93.00 211.00 93.00 215.00 Z"/>
</g>
<g fill="#C5664A" fill-opacity="0.34" stroke="None">
<path d="
M 54.00 211.00 
C 54.00 211.00 54.10 210.48 54.00 210.00
C 53.34 207.00 51.25 206.68 50.00 205.00
C 50.57 206.34 52.18 208.95 54.00 211.00 Z"/>
</g>
<g fill="#D67870" fill-opacity="0.12" stroke="None">
<path d="
M 253.00 206.00 
C 252.09 212.30 254.07 219.40 252.00 225.00
C 251.51 226.34 249.65 230.45 248.00 231.00
C 257.43 229.66 254.00 212.13 254.00 205.00
C 253.88 205.26 253.22 205.70 253.00 206.00 Z"/>
</g>
<g fill="#CE9D99" fill-opacity="0.01" stroke="None">
<path d="
M 26.00 224.00 
C 28.04 219.20 27.00 211.68 27.00 206.00
C 27.00 206.00 26.05 206.15 26.00 206.00
C 26.00 212.00 26.00 218.00 26.00 224.00 Z"/>
</g>
<g fill="#DC7C74" fill-opacity="0.10" stroke="None">
<path d="
M 55.00 231.00 
C 54.92 230.98 53.29 230.11 53.00 230.00
C 49.96 228.86 47.88 226.52 46.00 224.00
C 41.90 218.49 37.82 209.80 32.00 206.00
C 36.98 214.00 44.82 229.94 55.00 231.00 Z"/>
</g>
<g fill="#C1362D" fill-opacity="0.73" stroke="None">
<path d="
M 252.00 225.00 
C 254.07 219.40 252.09 212.30 253.00 206.00
C 249.70 210.48 253.23 219.45 252.00 225.00 Z"/>
</g>
<g fill="#DB7A72" fill-opacity="0.18" stroke="None">
<path d="
M 152.00 231.00 
C 162.05 230.47 158.30 217.88 160.00 211.00
C 157.74 216.61 160.24 229.12 152.00 231.00 Z"/>
</g>
<g fill="#C64A3E" fill-opacity="0.42" stroke="None">
<path d="
M 215.00 213.00 
C 214.40 216.06 212.49 216.65 211.00 217.00
C 210.45 217.33 209.61 217.73 209.00 218.00
C 209.04 218.00 212.51 219.37 213.75 216.75 C 214.99 214.14 218.49 212.11 215.00 212.00
C 215.00 212.00 215.09 212.52 215.00 213.00 Z"/>
</g>
<g fill="#C5433D" fill-opacity="0.47" stroke="None">
<path d="
M 199.00 217.00 
C 198.81 216.87 198.19 215.30 198.00 215.00
C 196.71 214.83 196.25 213.30 195.00 213.00
C 194.26 216.01 198.40 216.79 199.00 217.00 Z"/>
</g>
<g fill="#E8A3A2" fill-opacity="0.04" stroke="None">
<path d="
M 211.00 217.00 
C 212.49 216.65 214.40 216.06 215.00 213.00
C 214.08 214.43 212.64 216.00 211.00 217.00 Z"/>
</g>
<g fill="#FFC1C1" fill-opacity="0.02" stroke="None">
<path d="
M 93.00 225.00 
C 94.77 222.60 94.00 218.21 94.00 215.00
C 94.00 215.00 93.00 214.96 93.00 215.00
C 93.00 218.33 93.00 221.67 93.00 225.00 Z"/>
</g>
<g fill="#C2453E" fill-opacity="0.57" stroke="None">
<path d="
M 126.00 218.00 
C 124.38 218.30 122.42 216.19 122.00 215.00
C 122.87 218.47 123.84 217.94 126.00 218.00 Z"/>
</g>
<g fill="#DE756C" fill-opacity="0.08" stroke="None">
<path d="
M 213.00 232.00 
C 221.59 229.98 228.67 223.60 231.00 215.00
C 227.67 223.58 219.51 226.78 213.00 232.00 Z"/>
</g>
<g fill="#DF7F79" fill-opacity="0.10" stroke="None">
<path d="
M 190.00 228.00 
C 188.01 226.14 185.41 223.28 184.00 221.00
C 183.32 219.91 181.45 217.01 181.00 216.00
C 182.33 220.78 185.51 225.27 190.00 228.00 Z"/>
</g>
<g fill="#B63B31" fill-opacity="0.66" stroke="None">
<path d="
M 69.00 223.00 
C 67.56 224.69 65.11 222.10 64.00 221.00
C 64.25 222.53 66.55 223.18 66.00 225.00
C 67.59 225.30 68.34 224.17 69.00 223.00 Z"/>
</g>
<g fill="#C24942" fill-opacity="0.38" stroke="None">
<path d="
M 190.00 228.00 
C 190.62 228.38 191.37 228.57 192.00 229.00
C 191.53 228.60 185.55 223.13 184.00 221.00
C 185.41 223.28 188.01 226.14 190.00 228.00 Z"/>
</g>
<g fill="#CE6D62" fill-opacity="0.09" stroke="None">
<path d="
M 137.00 226.00 
C 137.63 228.88 137.76 228.06 135.00 230.00
C 134.94 230.06 132.96 232.02 133.00 232.00
C 134.98 231.24 136.67 229.56 139.00 230.00
C 140.32 227.10 137.68 224.98 137.00 223.00
C 137.05 223.94 136.80 225.09 137.00 226.00 Z"/>
</g>
<g fill="#C54137" fill-opacity="0.54" stroke="None">
<path d="
M 53.00 230.00 
C 51.09 228.84 47.64 225.88 46.00 224.00
C 47.88 226.52 49.96 228.86 53.00 230.00 Z"/>
</g>
<g fill="#CE827B" fill-opacity="0.09" stroke="None">
<path d="
M 275.00 231.00 
C 274.25 230.76 270.22 225.73 270.00 225.00
C 270.48 227.46 272.39 230.43 275.00 231.00 Z"/>
</g>
<g fill="#E47E7B" fill-opacity="0.07" stroke="None">
<path d="
M 24.00 227.00 
C 22.53 228.58 22.88 229.63 20.00 230.00
C 19.94 230.01 20.00 231.00 20.00 231.00
C 22.66 230.99 25.56 228.69 26.00 226.00
C 25.95 226.13 24.21 226.77 24.00 227.00 Z"/>
</g>
<g fill="#BC4438" fill-opacity="0.59" stroke="None">
<path d="
M 135.00 230.00 
C 137.76 228.06 137.63 228.88 137.00 226.00
C 136.81 227.56 136.10 228.84 135.00 230.00 Z"/>
</g>
<g fill="#D85B4D" fill-opacity="0.08" stroke="None">
<path d="
M 87.00 231.00 
C 89.89 230.93 92.22 229.93 93.00 227.00
C 91.68 228.16 88.47 230.56 87.00 231.00 Z"/>
</g>
<g fill="#DF664F" fill-opacity="0.04" stroke="None">
<path d="
M 280.00 231.00 
C 282.48 230.63 284.33 229.53 285.00 227.00
C 284.17 227.88 281.01 230.75 280.00 231.00 Z"/>
</g>
<g fill="#BE6157" fill-opacity="0.27" stroke="None">
<path d="
M 15.00 230.00 
C 16.36 230.61 17.99 231.65 20.00 231.00
C 20.00 231.00 19.94 230.01 20.00 230.00
C 18.71 229.76 15.34 230.11 15.00 230.00 Z"/>
</g>
<g fill="#DD8982" fill-opacity="0.05" stroke="None">
<path d="
M 119.00 232.00 
C 117.18 230.54 114.99 230.13 113.00 229.00
C 114.84 230.38 116.60 231.44 119.00 232.00 Z"/>
</g>
<g fill="#C64030" fill-opacity="0.52" stroke="None">
<path d="
M 198.00 232.00 
C 198.46 232.13 199.50 232.00 200.00 232.00
C 204.00 232.00 208.00 232.00 212.00 232.00
C 209.94 230.47 195.91 229.89 198.00 232.00 Z"/>
</g>
<g fill="#C93F34" fill-opacity="0.51" stroke="None">
<path d="
M 120.00 232.00 
C 123.67 232.00 127.33 232.00 131.00 232.00
C 128.29 230.85 122.71 229.99 120.00 232.00 Z"/>
</g>
<g fill="#DE9291" fill-opacity="0.02" stroke="None">
<path d="
M 131.00 232.00 
C 127.33 232.00 123.67 232.00 120.00 232.00
C 122.68 233.98 128.21 233.19 131.00 232.00 Z"/>
</g>
<g fill="#E28883" fill-opacity="0.02" stroke="None">
<path d="
M 212.00 232.00 
C 208.00 232.00 204.00 232.00 200.00 232.00
C 202.83 233.20 209.19 234.08 212.00 232.00 Z"/>
</g>
</svg>