<svg xmlns="http://www.w3.org/2000/svg" xmlns:v="https://svgstorm.com"
viewBox = "0 0 300 119"
width="300"
height="119">
<g fill="None" fill-opacity="0.0" stroke="#000000" stroke-opacity="0.00" stroke-width="0.3"><path d="
M 0.00 119.00 
L 300.00 119.00
L 300.00 0.00
L 0.00 0.00
L 0.00 119.00
M 35.00 14.00 
C 39.65 12.84 50.35 12.84 55.00 14.00
C 59.26 15.06 55.53 23.78 57.00 28.00
C 60.33 28.00 63.67 28.00 67.00 28.00
C 71.99 30.47 67.40 40.66 69.00 45.00
C 65.35 46.04 58.27 42.75 57.00 47.00
C 59.60 54.95 55.72 65.68 57.00 74.00
C 57.62 76.29 61.97 80.89 64.00 82.00
C 71.80 80.01 70.86 100.68 66.00 102.00
C 64.83 102.30 59.44 101.30 58.00 101.00
C 55.72 100.52 53.81 98.80 52.00 98.00
C 49.65 96.96 48.11 96.58 46.00 95.00
C 45.39 94.54 44.62 94.38 44.00 94.00
C 40.49 91.86 38.29 88.17 36.00 85.00
C 35.77 84.84 36.20 83.40 36.00 83.00
C 32.87 76.85 32.28 68.25 33.00 61.00 C 33.72 53.75 32.08 42.44 33.00 36.00 C 33.92 29.56 30.42 15.14 35.00 14.00
M 266.00 29.00 
C 268.11 29.36 266.70 39.15 266.00 41.00
C 265.54 42.23 265.24 43.65 265.00 45.00
C 259.60 44.50 251.58 44.03 254.00 52.00
C 254.11 53.36 254.94 55.98 255.00 58.00
C 255.16 63.67 254.20 69.75 256.00 75.00
C 258.18 81.38 262.85 79.35 266.00 83.00
C 269.29 86.81 268.05 99.97 263.00 101.00
C 256.61 102.30 247.66 98.51 243.00 95.00
C 242.73 94.80 242.32 94.20 242.00 94.00
C 237.22 91.05 233.92 85.97 232.00 81.00
C 231.71 80.25 231.17 78.83 231.00 78.00
C 226.86 57.16 234.10 34.05 231.00 13.00
C 238.20 13.35 247.11 12.75 255.00 13.00
C 253.87 17.34 255.73 22.96 255.00 28.00
C 258.50 28.62 263.32 26.73 266.00 29.00
M 101.00 74.00 
C 104.50 85.21 120.29 83.95 123.00 73.00
C 123.83 58.75 121.72 44.21 123.00 30.00
C 123.24 25.86 131.80 29.04 134.00 28.00 C 136.20 26.96 147.27 28.56 146.00 30.00
C 148.66 35.79 145.34 45.40 146.00 52.00 C 146.66 58.60 146.69 68.25 146.00 75.00
C 144.28 91.76 130.16 98.70 116.00 101.00
C 112.24 101.61 108.75 101.82 105.00 101.00
C 104.02 101.00 102.98 101.09 102.00 101.00
C 100.05 100.82 98.48 99.60 97.00 99.00
C 93.34 97.52 90.32 96.62 87.00 94.00
C 82.28 90.27 77.63 84.04 77.00 78.00
C 76.90 77.04 77.21 75.94 77.00 75.00
C 75.15 66.59 76.00 56.17 76.00 47.00
C 76.00 44.67 76.00 42.33 76.00 40.00
C 76.00 37.35 74.48 28.75 78.00 28.00
C 90.79 26.84 101.32 26.27 100.00 40.00 C 98.68 53.73 99.32 61.45 101.00 74.00
M 178.00 75.00 
C 179.60 76.40 180.31 78.53 182.00 80.00
C 182.84 80.73 184.25 81.28 185.00 82.00
C 186.80 81.13 190.02 82.43 192.00 82.00
C 195.26 80.74 197.78 78.25 199.00 75.00
C 199.08 74.79 200.00 72.99 200.00 73.00
C 203.62 58.93 197.28 42.30 200.00 28.00
C 207.67 28.00 215.33 28.00 223.00 28.00
C 221.37 31.02 225.20 34.36 224.00 38.00
C 224.06 39.66 224.00 41.34 224.00 43.00
C 224.00 48.33 224.00 53.67 224.00 59.00
C 224.00 62.97 224.27 67.04 224.00 71.00
C 223.53 77.86 221.60 82.64 218.00 88.00
C 214.86 92.68 209.94 97.69 204.00 99.00
C 203.52 99.10 203.00 99.00 203.00 99.00
C 199.90 100.89 196.79 100.46 193.00 101.00
C 191.09 101.27 188.61 102.41 186.00 102.00
C 185.08 102.55 183.83 101.19 183.00 101.00
C 180.62 100.46 178.36 100.64 176.00 100.00
C 172.91 99.16 169.83 97.63 167.00 96.00
C 161.17 92.64 157.90 88.31 156.00 82.00
C 155.66 80.89 155.27 79.53 155.00 78.00
C 152.14 61.89 154.88 44.67 154.00 28.00
C 161.67 28.00 169.33 28.00 177.00 28.00
C 177.56 43.61 175.82 59.79 178.00 75.00 Z"/>
</g>
<g fill="None" fill-opacity="0.0" stroke="#12273E" stroke-opacity="0.40" stroke-width="0.3"><path d="
M 36.00 83.00 
C 37.53 78.00 34.32 68.77 35.00 62.00 C 35.68 55.23 35.82 44.80 35.00 38.00 C 34.18 31.20 37.86 20.03 35.00 14.00
C 30.42 15.14 33.92 29.56 33.00 36.00 C 32.08 42.44 33.72 53.75 33.00 61.00 C 32.28 68.25 32.87 76.85 36.00 83.00 Z"/>
</g>
<g fill="None" fill-opacity="0.0" stroke="#11213A" stroke-opacity="0.49" stroke-width="0.3"><path d="
M 55.00 14.00 
C 53.43 17.32 55.00 23.96 55.33 27.67 C 55.66 31.38 64.34 29.48 67.00 31.00
C 67.38 31.22 68.00 31.00 68.00 31.00
C 67.90 30.34 67.66 28.43 67.00 28.00
C 63.67 28.00 60.33 28.00 57.00 28.00
C 55.53 23.78 59.26 15.06 55.00 14.00 Z"/>
</g>
<g fill="None" fill-opacity="0.0" stroke="#0F223A" stroke-opacity="0.44" stroke-width="0.3"><path d="
M 231.00 78.00 
C 231.65 79.09 233.29 78.22 233.00 78.00
C 230.52 56.96 234.86 35.11 233.00 14.00
C 239.67 14.00 246.33 14.00 253.00 14.00
C 251.56 23.60 252.54 33.88 265.00 30.00
C 265.05 29.65 266.00 29.00 266.00 29.00
C 263.32 26.73 258.50 28.62 255.00 28.00
C 255.73 22.96 253.87 17.34 255.00 13.00
C 247.11 12.75 238.20 13.35 231.00 13.00
C 234.10 34.05 226.86 57.16 231.00 78.00 Z"/>
</g>
<g fill="None" fill-opacity="0.0" stroke="#113955" stroke-opacity="0.97" stroke-width="0.3"><path d="
M 36.00 83.00 
C 36.20 83.40 35.77 84.84 36.00 85.00
C 36.34 85.23 37.00 85.00 37.00 85.00
C 38.83 83.96 45.39 94.28 46.00 95.00
C 48.11 96.58 49.65 96.96 52.00 98.00
C 52.68 98.14 54.08 98.35 56.01 97.99 C 57.94 97.64 58.62 101.28 58.00 101.00
C 59.44 101.30 64.83 102.30 66.00 102.00
C 64.32 102.46 63.88 98.28 67.00 100.00
C 65.67 94.58 70.05 85.59 64.00 83.00
C 60.40 83.45 59.35 80.49 59.00 79.00
C 58.51 78.41 58.33 77.65 58.00 77.00
C 51.44 68.95 56.73 55.07 55.00 45.00
C 56.26 45.08 55.56 47.06 57.00 47.00
C 58.27 42.75 65.35 46.04 69.00 45.00
C 67.40 40.66 71.99 30.47 67.00 28.00
C 67.66 28.43 67.90 30.34 68.00 31.00
C 68.61 34.98 68.37 40.80 67.00 44.00
C 66.50 40.81 67.35 35.14 67.00 31.00
C 64.34 29.48 55.66 31.38 55.33 27.67 C 55.00 23.96 53.43 17.32 55.00 14.00
C 50.35 12.84 39.65 12.84 35.00 14.00
C 37.86 20.03 34.18 31.20 35.00 38.00 C 35.82 44.80 35.68 55.23 35.00 62.00 C 34.32 68.77 37.53 78.00 36.00 83.00 Z"/>
</g>
<g fill="None" fill-opacity="0.0" stroke="#103954" stroke-opacity="0.96" stroke-width="0.3"><path d="
M 233.00 78.00 
C 233.10 78.84 235.15 80.09 233.00 81.00
C 233.26 81.12 233.74 81.75 234.00 82.00
C 236.10 84.01 245.10 95.13 243.00 95.00
C 247.66 98.51 256.61 102.30 263.00 101.00
C 266.10 99.64 266.30 86.06 263.00 84.00
C 262.42 83.90 261.55 83.24 261.00 83.00
C 257.99 81.70 256.06 80.24 255.00 77.00
C 253.91 73.67 256.00 75.02 256.00 75.00
C 254.20 69.75 255.16 63.67 255.00 58.00
C 254.83 56.50 253.99 54.16 254.00 52.00
C 251.58 44.03 259.60 44.50 265.00 45.00
C 265.24 43.65 265.54 42.23 266.00 41.00
C 266.34 38.58 264.51 33.38 265.00 30.00
C 252.54 33.88 251.56 23.60 253.00 14.00
C 246.33 14.00 239.67 14.00 233.00 14.00
C 234.86 35.11 230.52 56.96 233.00 78.00 Z"/>
</g>
<g fill="None" fill-opacity="0.0" stroke="#3F4050" stroke-opacity="0.05" stroke-width="0.3"><path d="
M 76.00 40.00 
C 76.01 39.93 77.00 40.00 77.00 40.00
C 77.00 36.59 76.11 31.55 78.00 29.00
C 77.75 28.73 78.00 28.00 78.00 28.00
C 74.48 28.75 76.00 37.35 76.00 40.00 Z"/>
</g>
<g fill="None" fill-opacity="0.0" stroke="#102537" stroke-opacity="0.49" stroke-width="0.3"><path d="
M 78.00 29.00 
C 79.00 30.08 78.17 29.49 78.00 31.00
C 78.87 31.72 84.57 29.00 87.00 30.00 C 89.43 31.00 95.26 29.25 98.00 30.00
C 99.27 44.74 95.42 61.61 100.00 75.00
C 100.07 74.65 101.02 74.12 101.00 74.00
C 99.32 61.45 98.68 53.73 100.00 40.00 C 101.32 26.27 90.79 26.84 78.00 28.00
C 78.00 28.00 77.75 28.73 78.00 29.00 Z"/>
</g>
<g fill="None" fill-opacity="0.0" stroke="#13222E" stroke-opacity="0.15" stroke-width="0.3"><path d="
M 123.00 30.00 
C 123.00 29.96 124.00 30.00 124.00 30.00
C 127.17 27.66 139.77 28.10 144.00 29.00
C 144.11 29.02 146.01 30.03 146.00 30.00
C 147.27 28.56 136.20 26.96 134.00 28.00 C 131.80 29.04 123.24 25.86 123.00 30.00 Z"/>
</g>
<g fill="None" fill-opacity="0.0" stroke="#13263D" stroke-opacity="0.56" stroke-width="0.3"><path d="
M 155.00 78.00 
C 155.74 62.83 156.53 45.90 156.00 30.00
C 162.33 30.00 168.67 30.00 175.00 30.00
C 176.72 45.03 171.39 62.79 178.00 76.00
C 178.02 75.50 178.00 75.00 178.00 75.00
C 175.82 59.79 177.56 43.61 177.00 28.00
C 169.33 28.00 161.67 28.00 154.00 28.00
C 154.88 44.67 152.14 61.89 155.00 78.00 Z"/>
</g>
<g fill="None" fill-opacity="0.0" stroke="#0E2235" stroke-opacity="0.48" stroke-width="0.3"><path d="
M 200.00 73.00 
C 204.24 71.07 201.33 60.47 202.00 54.00 C 202.67 47.53 201.50 36.85 202.00 30.00
C 213.70 28.15 224.26 29.10 222.00 42.00 C 219.74 54.90 223.70 62.57 222.00 75.00
C 222.28 73.88 222.90 72.66 223.00 71.00
C 223.23 67.03 223.00 62.98 223.00 59.00
C 223.00 53.68 222.79 48.31 223.00 43.00
C 223.07 41.26 223.90 39.05 224.00 38.00
C 225.20 34.36 221.37 31.02 223.00 28.00
C 215.33 28.00 207.67 28.00 200.00 28.00
C 197.28 42.30 203.62 58.93 200.00 73.00 Z"/>
</g>
<g fill="None" fill-opacity="0.0" stroke="#000E29" stroke-opacity="0.61" stroke-width="0.3"><path d="
M 77.00 40.00 
C 77.00 42.33 77.00 44.67 77.00 47.00
C 77.00 56.20 76.17 65.84 77.00 75.00
C 77.27 74.75 78.00 75.00 78.00 75.00
C 77.27 60.99 76.40 44.93 78.00 31.00
C 78.17 29.49 79.00 30.08 78.00 29.00
C 76.11 31.55 77.00 36.59 77.00 40.00 Z"/>
</g>
<g fill="None" fill-opacity="0.0" stroke="#071F30" stroke-opacity="0.72" stroke-width="0.3"><path d="
M 124.00 30.00 
C 126.86 30.00 131.30 30.81 134.00 30.00 C 136.70 29.19 142.57 31.48 144.00 31.00
C 144.01 30.80 145.16 29.69 144.00 29.00
C 139.77 28.10 127.17 27.66 124.00 30.00 Z"/>
</g>
<g fill="None" fill-opacity="0.0" stroke="#14243C" stroke-opacity="0.51" stroke-width="0.3"><path d="
M 144.00 31.00 
C 142.93 46.59 144.81 62.39 144.00 78.00
C 145.67 77.76 144.17 75.15 146.00 75.00
C 146.69 68.25 146.66 58.60 146.00 52.00 C 145.34 45.40 148.66 35.79 146.00 30.00
C 146.01 30.03 144.11 29.02 144.00 29.00
C 145.16 29.69 144.01 30.80 144.00 31.00 Z"/>
</g>
<g fill="None" fill-opacity="0.0" stroke="#031B37" stroke-opacity="0.31" stroke-width="0.3"><path d="
M 265.00 30.00 
C 264.51 33.38 266.34 38.58 266.00 41.00
C 266.70 39.15 268.11 29.36 266.00 29.00
C 266.00 29.00 265.05 29.65 265.00 30.00 Z"/>
</g>
<g fill="None" fill-opacity="0.0" stroke="#113954" stroke-opacity="0.96" stroke-width="0.3"><path d="
M 78.00 31.00 
C 76.40 44.93 77.27 60.99 78.00 75.00
C 78.09 76.75 79.41 78.08 79.00 80.00
C 77.74 79.92 78.44 77.94 77.00 78.00
C 77.63 84.04 82.28 90.27 87.00 94.00
C 86.99 94.00 98.17 99.88 97.00 99.00
C 98.48 99.60 100.05 100.82 102.00 101.00
C 101.56 100.86 100.21 99.60 100.00 99.00
C 102.14 98.83 104.84 99.11 106.00 101.00
C 106.50 101.00 107.00 101.00 107.00 101.00
C 109.92 98.84 113.35 100.89 116.00 101.00
C 130.16 98.70 144.28 91.76 146.00 75.00
C 144.17 75.15 145.67 77.76 144.00 78.00
C 144.81 62.39 142.93 46.59 144.00 31.00
C 142.57 31.48 136.70 29.19 134.00 30.00 C 131.30 30.81 126.86 30.00 124.00 30.00
C 124.00 30.00 123.00 29.96 123.00 30.00
C 121.72 44.21 123.83 58.75 123.00 73.00
C 122.89 74.95 122.59 75.59 122.00 77.00
C 121.13 79.09 120.33 80.92 118.00 82.00
C 112.70 84.45 98.24 84.23 100.00 75.00
C 95.42 61.61 99.27 44.74 98.00 30.00
C 95.26 29.25 89.43 31.00 87.00 30.00 C 84.57 29.00 78.87 31.72 78.00 31.00 Z"/>
</g>
<g fill="None" fill-opacity="0.0" stroke="#113A55" stroke-opacity="0.98" stroke-width="0.3"><path d="
M 155.00 78.00 
C 155.27 79.53 155.66 80.89 156.00 82.00
C 155.76 81.09 155.77 79.21 157.00 79.00
C 156.53 85.99 165.47 90.99 167.00 95.00
C 167.23 95.16 167.00 96.00 167.00 96.00
C 169.83 97.63 172.91 99.16 176.00 100.00
C 175.39 99.64 174.34 98.76 174.00 98.00
C 177.22 98.01 181.68 97.14 183.00 101.00
C 183.83 101.19 185.08 102.55 186.00 102.00
C 185.91 101.98 186.00 101.00 186.00 101.00
C 181.19 99.20 192.37 100.95 193.00 101.00
C 196.79 100.46 199.90 100.89 203.00 99.00
C 198.77 97.83 206.04 95.41 204.00 99.00
C 209.94 97.69 214.86 92.68 218.00 88.00
C 218.22 87.45 219.29 85.35 220.00 84.00
C 221.16 81.18 221.79 78.13 222.00 75.00
C 223.70 62.57 219.74 54.90 222.00 42.00 C 224.26 29.10 213.70 28.15 202.00 30.00
C 201.50 36.85 202.67 47.53 202.00 54.00 C 201.33 60.47 204.24 71.07 200.00 73.00
C 200.00 72.99 199.08 74.79 199.00 75.00
C 198.81 79.99 192.25 87.61 186.00 83.00
C 185.70 82.78 185.25 82.25 185.00 82.00
C 184.25 81.28 182.84 80.73 182.00 80.00
C 182.63 81.06 183.58 81.86 184.00 83.00
C 181.08 82.43 177.61 79.27 178.00 76.00
C 171.39 62.79 176.72 45.03 175.00 30.00
C 168.67 30.00 162.33 30.00 156.00 30.00
C 156.53 45.90 155.74 62.83 155.00 78.00 Z"/>
</g>
<g fill="None" fill-opacity="0.0" stroke="#14253F" stroke-opacity="0.68" stroke-width="0.3"><path d="
M 68.00 31.00 
C 68.00 31.00 67.38 31.22 67.00 31.00
C 67.35 35.14 66.50 40.81 67.00 44.00
C 68.37 40.80 68.61 34.98 68.00 31.00 Z"/>
</g>
<g fill="None" fill-opacity="0.0" stroke="#364B4B" stroke-opacity="0.03" stroke-width="0.3"><path d="
M 223.00 43.00 
C 223.00 42.96 224.00 43.00 224.00 43.00
C 224.00 41.34 224.06 39.66 224.00 38.00
C 223.90 39.05 223.07 41.26 223.00 43.00 Z"/>
</g>
<g fill="None" fill-opacity="0.0" stroke="#304A50" stroke-opacity="0.04" stroke-width="0.3"><path d="
M 76.00 47.00 
C 76.01 47.07 77.00 47.00 77.00 47.00
C 77.00 44.67 77.00 42.33 77.00 40.00
C 77.00 40.00 76.01 39.93 76.00 40.00
C 76.00 42.33 76.00 44.67 76.00 47.00 Z"/>
</g>
<g fill="None" fill-opacity="0.0" stroke="#414161" stroke-opacity="0.03" stroke-width="0.3"><path d="
M 223.00 59.00 
C 223.00 58.96 224.00 59.00 224.00 59.00
C 224.00 53.67 224.00 48.33 224.00 43.00
C 224.00 43.00 223.00 42.96 223.00 43.00
C 222.79 48.31 223.00 53.68 223.00 59.00 Z"/>
</g>
<g fill="None" fill-opacity="0.0" stroke="#1B3046" stroke-opacity="0.40" stroke-width="0.3"><path d="
M 58.00 77.00 
C 57.42 75.85 57.20 75.30 57.00 74.00
C 55.72 65.68 59.60 54.95 57.00 47.00
C 55.56 47.06 56.26 45.08 55.00 45.00
C 56.73 55.07 51.44 68.95 58.00 77.00 Z"/>
</g>
<g fill="None" fill-opacity="0.0" stroke="#363753" stroke-opacity="0.04" stroke-width="0.3"><path d="
M 77.00 75.00 
C 76.17 65.84 77.00 56.20 77.00 47.00
C 77.00 47.00 76.01 47.07 76.00 47.00
C 76.00 56.17 75.15 66.59 77.00 75.00 Z"/>
</g>
<g fill="None" fill-opacity="0.0" stroke="#242449" stroke-opacity="0.03" stroke-width="0.3"><path d="
M 255.00 58.00 
C 254.94 55.98 254.11 53.36 254.00 52.00
C 253.99 54.16 254.83 56.50 255.00 58.00 Z"/>
</g>
<g fill="None" fill-opacity="0.0" stroke="#32504F" stroke-opacity="0.02" stroke-width="0.3"><path d="
M 223.00 71.00 
C 223.01 70.94 224.00 71.00 224.00 71.00
C 224.27 67.04 224.00 62.97 224.00 59.00
C 224.00 59.00 223.00 58.96 223.00 59.00
C 223.00 62.98 223.23 67.03 223.00 71.00 Z"/>
</g>
<g fill="None" fill-opacity="0.0" stroke="#343B53" stroke-opacity="0.12" stroke-width="0.3"><path d="
M 222.00 75.00 
C 221.79 78.13 221.16 81.18 220.00 84.00
C 219.42 85.40 218.55 86.59 218.00 88.00
C 221.60 82.64 223.53 77.86 224.00 71.00
C 224.00 71.00 223.01 70.94 223.00 71.00
C 222.90 72.66 222.28 73.88 222.00 75.00 Z"/>
</g>
<g fill="None" fill-opacity="0.0" stroke="#2A364C" stroke-opacity="0.26" stroke-width="0.3"><path d="
M 101.00 74.00 
C 101.02 74.12 100.07 74.65 100.00 75.00
C 98.24 84.23 112.70 84.45 118.00 82.00
C 119.11 81.33 121.49 77.96 122.00 77.00
C 122.59 75.59 122.89 74.95 123.00 73.00
C 120.29 83.95 104.50 85.21 101.00 74.00 Z"/>
</g>
<g fill="None" fill-opacity="0.0" stroke="#4F6386" stroke-opacity="0.06" stroke-width="0.3"><path d="
M 58.00 77.00 
C 58.33 77.65 58.51 78.41 59.00 79.00
C 60.28 80.54 62.26 81.43 64.00 82.00
C 61.97 80.89 57.62 76.29 57.00 74.00
C 57.20 75.30 57.42 75.85 58.00 77.00 Z"/>
</g>
<g fill="None" fill-opacity="0.0" stroke="#29374B" stroke-opacity="0.20" stroke-width="0.3"><path d="
M 255.00 77.00 
C 255.99 79.11 259.16 81.77 261.00 83.00
C 261.55 83.24 262.42 83.90 263.00 84.00
C 262.98 84.00 265.97 83.38 266.00 83.00
C 262.85 79.35 258.18 81.38 256.00 75.00
C 256.00 75.02 253.91 73.67 255.00 77.00 Z"/>
</g>
<g fill="None" fill-opacity="0.0" stroke="#122237" stroke-opacity="0.43" stroke-width="0.3"><path d="
M 77.00 78.00 
C 78.44 77.94 77.74 79.92 79.00 80.00
C 79.41 78.08 78.09 76.75 78.00 75.00
C 78.00 75.00 77.27 74.75 77.00 75.00
C 77.21 75.94 76.90 77.04 77.00 78.00 Z"/>
</g>
<g fill="None" fill-opacity="0.0" stroke="#233244" stroke-opacity="0.35" stroke-width="0.3"><path d="
M 178.00 76.00 
C 177.61 79.27 181.08 82.43 184.00 83.00
C 183.58 81.86 182.63 81.06 182.00 80.00
C 180.31 78.53 179.60 76.40 178.00 75.00
C 178.00 75.00 178.02 75.50 178.00 76.00 Z"/>
</g>
<g fill="None" fill-opacity="0.0" stroke="#1D364B" stroke-opacity="0.42" stroke-width="0.3"><path d="
M 192.00 82.00 
C 190.37 82.63 188.26 83.55 186.00 83.00
C 192.25 87.61 198.81 79.99 199.00 75.00
C 197.78 78.25 195.26 80.74 192.00 82.00 Z"/>
</g>
<g fill="None" fill-opacity="0.0" stroke="#11223A" stroke-opacity="0.61" stroke-width="0.3"><path d="
M 118.00 82.00 
C 120.33 80.92 121.13 79.09 122.00 77.00
C 121.49 77.96 119.11 81.33 118.00 82.00 Z"/>
</g>
<g fill="None" fill-opacity="0.0" stroke="#0F2139" stroke-opacity="0.68" stroke-width="0.3"><path d="
M 261.00 83.00 
C 259.16 81.77 255.99 79.11 255.00 77.00
C 256.06 80.24 257.99 81.70 261.00 83.00 Z"/>
</g>
<g fill="None" fill-opacity="0.0" stroke="#214356" stroke-opacity="0.41" stroke-width="0.3"><path d="
M 232.00 81.00 
C 232.14 81.23 233.00 81.00 233.00 81.00
C 235.15 80.09 233.10 78.84 233.00 78.00
C 233.29 78.22 231.65 79.09 231.00 78.00
C 231.17 78.83 231.71 80.25 232.00 81.00 Z"/>
</g>
<g fill="None" fill-opacity="0.0" stroke="#152944" stroke-opacity="0.57" stroke-width="0.3"><path d="
M 64.00 83.00 
C 63.90 82.98 64.00 82.00 64.00 82.00
C 62.26 81.43 60.28 80.54 59.00 79.00
C 59.35 80.49 60.40 83.45 64.00 83.00 Z"/>
</g>
<g fill="None" fill-opacity="0.0" stroke="#10223C" stroke-opacity="0.62" stroke-width="0.3"><path d="
M 156.00 82.00 
C 157.18 86.54 163.04 92.23 167.00 95.00
C 165.47 90.99 156.53 85.99 157.00 79.00
C 155.77 79.21 155.76 81.09 156.00 82.00 Z"/>
</g>
<g fill="None" fill-opacity="0.0" stroke="#3A475B" stroke-opacity="0.07" stroke-width="0.3"><path d="
M 242.00 94.00 
C 241.81 93.59 242.00 93.00 242.00 93.00
C 239.97 91.58 238.43 89.93 237.00 88.00
C 235.48 85.96 234.82 84.30 234.00 82.00
C 233.74 81.75 233.26 81.12 233.00 81.00
C 233.00 81.00 232.14 81.23 232.00 81.00
C 233.92 85.97 237.22 91.05 242.00 94.00 Z"/>
</g>
<g fill="None" fill-opacity="0.0" stroke="#1D2F42" stroke-opacity="0.40" stroke-width="0.3"><path d="
M 64.00 83.00 
C 70.05 85.59 65.67 94.58 67.00 100.00
C 63.88 98.28 64.32 102.46 66.00 102.00
C 70.86 100.68 71.80 80.01 64.00 82.00
C 64.00 82.00 63.90 82.98 64.00 83.00 Z"/>
</g>
<g fill="None" fill-opacity="0.0" stroke="#394A56" stroke-opacity="0.09" stroke-width="0.3"><path d="
M 167.00 96.00 
C 167.00 96.00 167.23 95.16 167.00 95.00
C 163.04 92.23 157.18 86.54 156.00 82.00
C 157.90 88.31 161.17 92.64 167.00 96.00 Z"/>
</g>
<g fill="None" fill-opacity="0.0" stroke="#3A4E5E" stroke-opacity="0.08" stroke-width="0.3"><path d="
M 186.00 83.00 
C 188.26 83.55 190.37 82.63 192.00 82.00
C 190.02 82.43 186.80 81.13 185.00 82.00
C 185.25 82.25 185.70 82.78 186.00 83.00 Z"/>
</g>
<g fill="None" fill-opacity="0.0" stroke="#0E1F39" stroke-opacity="0.63" stroke-width="0.3"><path d="
M 237.00 88.00 
C 238.55 89.78 240.90 90.75 242.00 93.00
C 242.00 93.00 241.81 93.59 242.00 94.00
C 242.32 94.20 242.73 94.80 243.00 95.00
C 245.10 95.13 236.10 84.01 234.00 82.00
C 234.82 84.30 235.48 85.96 237.00 88.00 Z"/>
</g>
<g fill="None" fill-opacity="0.0" stroke="#071B37" stroke-opacity="0.37" stroke-width="0.3"><path d="
M 263.00 84.00 
C 266.30 86.06 266.10 99.64 263.00 101.00
C 268.05 99.97 269.29 86.81 266.00 83.00
C 265.97 83.38 262.98 84.00 263.00 84.00 Z"/>
</g>
<g fill="None" fill-opacity="0.0" stroke="#0F1E38" stroke-opacity="0.60" stroke-width="0.3"><path d="
M 37.00 85.00 
C 39.08 87.98 41.96 91.42 44.00 94.00
C 44.62 94.38 45.39 94.54 46.00 95.00
C 45.39 94.28 38.83 83.96 37.00 85.00 Z"/>
</g>
<g fill="None" fill-opacity="0.0" stroke="#0A1B2C" stroke-opacity="0.54" stroke-width="0.3"><path d="
M 218.00 88.00 
C 218.55 86.59 219.42 85.40 220.00 84.00
C 219.29 85.35 218.22 87.45 218.00 88.00 Z"/>
</g>
<g fill="None" fill-opacity="0.0" stroke="#323C50" stroke-opacity="0.18" stroke-width="0.3"><path d="
M 44.00 94.00 
C 41.96 91.42 39.08 87.98 37.00 85.00
C 37.00 85.00 36.34 85.23 36.00 85.00
C 38.29 88.17 40.49 91.86 44.00 94.00 Z"/>
</g>
<g fill="None" fill-opacity="0.0" stroke="#152240" stroke-opacity="0.39" stroke-width="0.3"><path d="
M 242.00 93.00 
C 240.90 90.75 238.55 89.78 237.00 88.00
C 238.43 89.93 239.97 91.58 242.00 93.00 Z"/>
</g>
<g fill="None" fill-opacity="0.0" stroke="#16314B" stroke-opacity="0.31" stroke-width="0.3"><path d="
M 87.00 94.00 
C 90.32 96.62 93.34 97.52 97.00 99.00
C 98.17 99.88 86.99 94.00 87.00 94.00 Z"/>
</g>
<g fill="None" fill-opacity="0.0" stroke="#162545" stroke-opacity="0.36" stroke-width="0.3"><path d="
M 52.00 98.00 
C 53.81 98.80 55.72 100.52 58.00 101.00
C 58.62 101.28 57.94 97.64 56.01 97.99 C 54.08 98.35 52.68 98.14 52.00 98.00 Z"/>
</g>
<g fill="None" fill-opacity="0.0" stroke="#0D2337" stroke-opacity="0.54" stroke-width="0.3"><path d="
M 203.00 99.00 
C 203.00 99.00 203.52 99.10 204.00 99.00
C 206.04 95.41 198.77 97.83 203.00 99.00 Z"/>
</g>
<g fill="None" fill-opacity="0.0" stroke="#20304A" stroke-opacity="0.48" stroke-width="0.3"><path d="
M 176.00 100.00 
C 178.36 100.64 180.62 100.46 183.00 101.00
C 181.68 97.14 177.22 98.01 174.00 98.00
C 174.34 98.76 175.39 99.64 176.00 100.00 Z"/>
</g>
<g fill="None" fill-opacity="0.0" stroke="#28324A" stroke-opacity="0.37" stroke-width="0.3"><path d="
M 102.00 101.00 
C 102.98 101.09 104.02 101.00 105.00 101.00
C 105.50 101.00 106.00 101.00 106.00 101.00
C 104.84 99.11 102.14 98.83 100.00 99.00
C 100.21 99.60 101.56 100.86 102.00 101.00 Z"/>
</g>
<g fill="None" fill-opacity="0.0" stroke="#162137" stroke-opacity="0.60" stroke-width="0.3"><path d="
M 107.00 101.00 
C 110.00 101.00 113.00 101.00 116.00 101.00
C 113.35 100.89 109.92 98.84 107.00 101.00 Z"/>
</g>
<g fill="None" fill-opacity="0.0" stroke="#141E40" stroke-opacity="0.55" stroke-width="0.3"><path d="
M 186.00 101.00 
C 188.29 100.69 190.70 101.23 193.00 101.00
C 192.37 100.95 181.19 99.20 186.00 101.00 Z"/>
</g>
<g fill="None" fill-opacity="0.0" stroke="#535860" stroke-opacity="0.02" stroke-width="0.3"><path d="
M 116.00 101.00 
C 113.00 101.00 110.00 101.00 107.00 101.00
C 107.00 101.00 106.50 101.00 106.00 101.00
C 106.00 101.00 105.50 101.00 105.00 101.00
C 108.75 101.82 112.24 101.61 116.00 101.00 Z"/>
</g>
<g fill="None" fill-opacity="0.0" stroke="#919191" stroke-opacity="0.01" stroke-width="0.3"><path d="
M 186.00 102.00 
C 188.61 102.41 191.09 101.27 193.00 101.00
C 190.70 101.23 188.29 100.69 186.00 101.00
C 186.00 101.00 185.91 101.98 186.00 102.00 Z"/>
</g>
<g fill="#000000" fill-opacity="0.00" stroke="None">
<path d="
M 0.00 119.00 
L 300.00 119.00
L 300.00 0.00
L 0.00 0.00
L 0.00 119.00
M 35.00 14.00 
C 39.65 12.84 50.35 12.84 55.00 14.00
C 59.26 15.06 55.53 23.78 57.00 28.00
C 60.33 28.00 63.67 28.00 67.00 28.00
C 71.99 30.47 67.40 40.66 69.00 45.00
C 65.35 46.04 58.27 42.75 57.00 47.00
C 59.60 54.95 55.72 65.68 57.00 74.00
C 57.62 76.29 61.97 80.89 64.00 82.00
C 71.80 80.01 70.86 100.68 66.00 102.00
C 64.83 102.30 59.44 101.30 58.00 101.00
C 55.72 100.52 53.81 98.80 52.00 98.00
C 49.65 96.96 48.11 96.58 46.00 95.00
C 45.39 94.54 44.62 94.38 44.00 94.00
C 40.49 91.86 38.29 88.17 36.00 85.00
C 35.77 84.84 36.20 83.40 36.00 83.00
C 32.87 76.85 32.28 68.25 33.00 61.00 C 33.72 53.75 32.08 42.44 33.00 36.00 C 33.92 29.56 30.42 15.14 35.00 14.00
M 266.00 29.00 
C 268.11 29.36 266.70 39.15 266.00 41.00
C 265.54 42.23 265.24 43.65 265.00 45.00
C 259.60 44.50 251.58 44.03 254.00 52.00
C 254.11 53.36 254.94 55.98 255.00 58.00
C 255.16 63.67 254.20 69.75 256.00 75.00
C 258.18 81.38 262.85 79.35 266.00 83.00
C 269.29 86.81 268.05 99.97 263.00 101.00
C 256.61 102.30 247.66 98.51 243.00 95.00
C 242.73 94.80 242.32 94.20 242.00 94.00
C 237.22 91.05 233.92 85.97 232.00 81.00
C 231.71 80.25 231.17 78.83 231.00 78.00
C 226.86 57.16 234.10 34.05 231.00 13.00
C 238.20 13.35 247.11 12.75 255.00 13.00
C 253.87 17.34 255.73 22.96 255.00 28.00
C 258.50 28.62 263.32 26.73 266.00 29.00
M 101.00 74.00 
C 104.50 85.21 120.29 83.95 123.00 73.00
C 123.83 58.75 121.72 44.21 123.00 30.00
C 123.24 25.86 131.80 29.04 134.00 28.00 C 136.20 26.96 147.27 28.56 146.00 30.00
C 148.66 35.79 145.34 45.40 146.00 52.00 C 146.66 58.60 146.69 68.25 146.00 75.00
C 144.28 91.76 130.16 98.70 116.00 101.00
C 112.24 101.61 108.75 101.82 105.00 101.00
C 104.02 101.00 102.98 101.09 102.00 101.00
C 100.05 100.82 98.48 99.60 97.00 99.00
C 93.34 97.52 90.32 96.62 87.00 94.00
C 82.28 90.27 77.63 84.04 77.00 78.00
C 76.90 77.04 77.21 75.94 77.00 75.00
C 75.15 66.59 76.00 56.17 76.00 47.00
C 76.00 44.67 76.00 42.33 76.00 40.00
C 76.00 37.35 74.48 28.75 78.00 28.00
C 90.79 26.84 101.32 26.27 100.00 40.00 C 98.68 53.73 99.32 61.45 101.00 74.00
M 178.00 75.00 
C 179.60 76.40 180.31 78.53 182.00 80.00
C 182.84 80.73 184.25 81.28 185.00 82.00
C 186.80 81.13 190.02 82.43 192.00 82.00
C 195.26 80.74 197.78 78.25 199.00 75.00
C 199.08 74.79 200.00 72.99 200.00 73.00
C 203.62 58.93 197.28 42.30 200.00 28.00
C 207.67 28.00 215.33 28.00 223.00 28.00
C 221.37 31.02 225.20 34.36 224.00 38.00
C 224.06 39.66 224.00 41.34 224.00 43.00
C 224.00 48.33 224.00 53.67 224.00 59.00
C 224.00 62.97 224.27 67.04 224.00 71.00
C 223.53 77.86 221.60 82.64 218.00 88.00
C 214.86 92.68 209.94 97.69 204.00 99.00
C 203.52 99.10 203.00 99.00 203.00 99.00
C 199.90 100.89 196.79 100.46 193.00 101.00
C 191.09 101.27 188.61 102.41 186.00 102.00
C 185.08 102.55 183.83 101.19 183.00 101.00
C 180.62 100.46 178.36 100.64 176.00 100.00
C 172.91 99.16 169.83 97.63 167.00 96.00
C 161.17 92.64 157.90 88.31 156.00 82.00
C 155.66 80.89 155.27 79.53 155.00 78.00
C 152.14 61.89 154.88 44.67 154.00 28.00
C 161.67 28.00 169.33 28.00 177.00 28.00
C 177.56 43.61 175.82 59.79 178.00 75.00 Z"/>
</g>
<g fill="#12273E" fill-opacity="0.40" stroke="None">
<path d="
M 36.00 83.00 
C 37.53 78.00 34.32 68.77 35.00 62.00 C 35.68 55.23 35.82 44.80 35.00 38.00 C 34.18 31.20 37.86 20.03 35.00 14.00
C 30.42 15.14 33.92 29.56 33.00 36.00 C 32.08 42.44 33.72 53.75 33.00 61.00 C 32.28 68.25 32.87 76.85 36.00 83.00 Z"/>
</g>
<g fill="#11213A" fill-opacity="0.49" stroke="None">
<path d="
M 55.00 14.00 
C 53.43 17.32 55.00 23.96 55.33 27.67 C 55.66 31.38 64.34 29.48 67.00 31.00
C 67.38 31.22 68.00 31.00 68.00 31.00
C 67.90 30.34 67.66 28.43 67.00 28.00
C 63.67 28.00 60.33 28.00 57.00 28.00
C 55.53 23.78 59.26 15.06 55.00 14.00 Z"/>
</g>
<g fill="#0F223A" fill-opacity="0.44" stroke="None">
<path d="
M 231.00 78.00 
C 231.65 79.09 233.29 78.22 233.00 78.00
C 230.52 56.96 234.86 35.11 233.00 14.00
C 239.67 14.00 246.33 14.00 253.00 14.00
C 251.56 23.60 252.54 33.88 265.00 30.00
C 265.05 29.65 266.00 29.00 266.00 29.00
C 263.32 26.73 258.50 28.62 255.00 28.00
C 255.73 22.96 253.87 17.34 255.00 13.00
C 247.11 12.75 238.20 13.35 231.00 13.00
C 234.10 34.05 226.86 57.16 231.00 78.00 Z"/>
</g>
<g fill="#113955" fill-opacity="0.97" stroke="None">
<path d="
M 36.00 83.00 
C 36.20 83.40 35.77 84.84 36.00 85.00
C 36.34 85.23 37.00 85.00 37.00 85.00
C 38.83 83.96 45.39 94.28 46.00 95.00
C 48.11 96.58 49.65 96.96 52.00 98.00
C 52.68 98.14 54.08 98.35 56.01 97.99 C 57.94 97.64 58.62 101.28 58.00 101.00
C 59.44 101.30 64.83 102.30 66.00 102.00
C 64.32 102.46 63.88 98.28 67.00 100.00
C 65.67 94.58 70.05 85.59 64.00 83.00
C 60.40 83.45 59.35 80.49 59.00 79.00
C 58.51 78.41 58.33 77.65 58.00 77.00
C 51.44 68.95 56.73 55.07 55.00 45.00
C 56.26 45.08 55.56 47.06 57.00 47.00
C 58.27 42.75 65.35 46.04 69.00 45.00
C 67.40 40.66 71.99 30.47 67.00 28.00
C 67.66 28.43 67.90 30.34 68.00 31.00
C 68.61 34.98 68.37 40.80 67.00 44.00
C 66.50 40.81 67.35 35.14 67.00 31.00
C 64.34 29.48 55.66 31.38 55.33 27.67 C 55.00 23.96 53.43 17.32 55.00 14.00
C 50.35 12.84 39.65 12.84 35.00 14.00
C 37.86 20.03 34.18 31.20 35.00 38.00 C 35.82 44.80 35.68 55.23 35.00 62.00 C 34.32 68.77 37.53 78.00 36.00 83.00 Z"/>
</g>
<g fill="#103954" fill-opacity="0.96" stroke="None">
<path d="
M 233.00 78.00 
C 233.10 78.84 235.15 80.09 233.00 81.00
C 233.26 81.12 233.74 81.75 234.00 82.00
C 236.10 84.01 245.10 95.13 243.00 95.00
C 247.66 98.51 256.61 102.30 263.00 101.00
C 266.10 99.64 266.30 86.06 263.00 84.00
C 262.42 83.90 261.55 83.24 261.00 83.00
C 257.99 81.70 256.06 80.24 255.00 77.00
C 253.91 73.67 256.00 75.02 256.00 75.00
C 254.20 69.75 255.16 63.67 255.00 58.00
C 254.83 56.50 253.99 54.16 254.00 52.00
C 251.58 44.03 259.60 44.50 265.00 45.00
C 265.24 43.65 265.54 42.23 266.00 41.00
C 266.34 38.58 264.51 33.38 265.00 30.00
C 252.54 33.88 251.56 23.60 253.00 14.00
C 246.33 14.00 239.67 14.00 233.00 14.00
C 234.86 35.11 230.52 56.96 233.00 78.00 Z"/>
</g>
<g fill="#3F4050" fill-opacity="0.05" stroke="None">
<path d="
M 76.00 40.00 
C 76.01 39.93 77.00 40.00 77.00 40.00
C 77.00 36.59 76.11 31.55 78.00 29.00
C 77.75 28.73 78.00 28.00 78.00 28.00
C 74.48 28.75 76.00 37.35 76.00 40.00 Z"/>
</g>
<g fill="#102537" fill-opacity="0.49" stroke="None">
<path d="
M 78.00 29.00 
C 79.00 30.08 78.17 29.49 78.00 31.00
C 78.87 31.72 84.57 29.00 87.00 30.00 C 89.43 31.00 95.26 29.25 98.00 30.00
C 99.27 44.74 95.42 61.61 100.00 75.00
C 100.07 74.65 101.02 74.12 101.00 74.00
C 99.32 61.45 98.68 53.73 100.00 40.00 C 101.32 26.27 90.79 26.84 78.00 28.00
C 78.00 28.00 77.75 28.73 78.00 29.00 Z"/>
</g>
<g fill="#13222E" fill-opacity="0.15" stroke="None">
<path d="
M 123.00 30.00 
C 123.00 29.96 124.00 30.00 124.00 30.00
C 127.17 27.66 139.77 28.10 144.00 29.00
C 144.11 29.02 146.01 30.03 146.00 30.00
C 147.27 28.56 136.20 26.96 134.00 28.00 C 131.80 29.04 123.24 25.86 123.00 30.00 Z"/>
</g>
<g fill="#13263D" fill-opacity="0.56" stroke="None">
<path d="
M 155.00 78.00 
C 155.74 62.83 156.53 45.90 156.00 30.00
C 162.33 30.00 168.67 30.00 175.00 30.00
C 176.72 45.03 171.39 62.79 178.00 76.00
C 178.02 75.50 178.00 75.00 178.00 75.00
C 175.82 59.79 177.56 43.61 177.00 28.00
C 169.33 28.00 161.67 28.00 154.00 28.00
C 154.88 44.67 152.14 61.89 155.00 78.00 Z"/>
</g>
<g fill="#0E2235" fill-opacity="0.48" stroke="None">
<path d="
M 200.00 73.00 
C 204.24 71.07 201.33 60.47 202.00 54.00 C 202.67 47.53 201.50 36.85 202.00 30.00
C 213.70 28.15 224.26 29.10 222.00 42.00 C 219.74 54.90 223.70 62.57 222.00 75.00
C 222.28 73.88 222.90 72.66 223.00 71.00
C 223.23 67.03 223.00 62.98 223.00 59.00
C 223.00 53.68 222.79 48.31 223.00 43.00
C 223.07 41.26 223.90 39.05 224.00 38.00
C 225.20 34.36 221.37 31.02 223.00 28.00
C 215.33 28.00 207.67 28.00 200.00 28.00
C 197.28 42.30 203.62 58.93 200.00 73.00 Z"/>
</g>
<g fill="#000E29" fill-opacity="0.61" stroke="None">
<path d="
M 77.00 40.00 
C 77.00 42.33 77.00 44.67 77.00 47.00
C 77.00 56.20 76.17 65.84 77.00 75.00
C 77.27 74.75 78.00 75.00 78.00 75.00
C 77.27 60.99 76.40 44.93 78.00 31.00
C 78.17 29.49 79.00 30.08 78.00 29.00
C 76.11 31.55 77.00 36.59 77.00 40.00 Z"/>
</g>
<g fill="#071F30" fill-opacity="0.72" stroke="None">
<path d="
M 124.00 30.00 
C 126.86 30.00 131.30 30.81 134.00 30.00 C 136.70 29.19 142.57 31.48 144.00 31.00
C 144.01 30.80 145.16 29.69 144.00 29.00
C 139.77 28.10 127.17 27.66 124.00 30.00 Z"/>
</g>
<g fill="#14243C" fill-opacity="0.51" stroke="None">
<path d="
M 144.00 31.00 
C 142.93 46.59 144.81 62.39 144.00 78.00
C 145.67 77.76 144.17 75.15 146.00 75.00
C 146.69 68.25 146.66 58.60 146.00 52.00 C 145.34 45.40 148.66 35.79 146.00 30.00
C 146.01 30.03 144.11 29.02 144.00 29.00
C 145.16 29.69 144.01 30.80 144.00 31.00 Z"/>
</g>
<g fill="#031B37" fill-opacity="0.31" stroke="None">
<path d="
M 265.00 30.00 
C 264.51 33.38 266.34 38.58 266.00 41.00
C 266.70 39.15 268.11 29.36 266.00 29.00
C 266.00 29.00 265.05 29.65 265.00 30.00 Z"/>
</g>
<g fill="#113954" fill-opacity="0.96" stroke="None">
<path d="
M 78.00 31.00 
C 76.40 44.93 77.27 60.99 78.00 75.00
C 78.09 76.75 79.41 78.08 79.00 80.00
C 77.74 79.92 78.44 77.94 77.00 78.00
C 77.63 84.04 82.28 90.27 87.00 94.00
C 86.99 94.00 98.17 99.88 97.00 99.00
C 98.48 99.60 100.05 100.82 102.00 101.00
C 101.56 100.86 100.21 99.60 100.00 99.00
C 102.14 98.83 104.84 99.11 106.00 101.00
C 106.50 101.00 107.00 101.00 107.00 101.00
C 109.92 98.84 113.35 100.89 116.00 101.00
C 130.16 98.70 144.28 91.76 146.00 75.00
C 144.17 75.15 145.67 77.76 144.00 78.00
C 144.81 62.39 142.93 46.59 144.00 31.00
C 142.57 31.48 136.70 29.19 134.00 30.00 C 131.30 30.81 126.86 30.00 124.00 30.00
C 124.00 30.00 123.00 29.96 123.00 30.00
C 121.72 44.21 123.83 58.75 123.00 73.00
C 122.89 74.95 122.59 75.59 122.00 77.00
C 121.13 79.09 120.33 80.92 118.00 82.00
C 112.70 84.45 98.24 84.23 100.00 75.00
C 95.42 61.61 99.27 44.74 98.00 30.00
C 95.26 29.25 89.43 31.00 87.00 30.00 C 84.57 29.00 78.87 31.72 78.00 31.00 Z"/>
</g>
<g fill="#113A55" fill-opacity="0.98" stroke="None">
<path d="
M 155.00 78.00 
C 155.27 79.53 155.66 80.89 156.00 82.00
C 155.76 81.09 155.77 79.21 157.00 79.00
C 156.53 85.99 165.47 90.99 167.00 95.00
C 167.23 95.16 167.00 96.00 167.00 96.00
C 169.83 97.63 172.91 99.16 176.00 100.00
C 175.39 99.64 174.34 98.76 174.00 98.00
C 177.22 98.01 181.68 97.14 183.00 101.00
C 183.83 101.19 185.08 102.55 186.00 102.00
C 185.91 101.98 186.00 101.00 186.00 101.00
C 181.19 99.20 192.37 100.95 193.00 101.00
C 196.79 100.46 199.90 100.89 203.00 99.00
C 198.77 97.83 206.04 95.41 204.00 99.00
C 209.94 97.69 214.86 92.68 218.00 88.00
C 218.22 87.45 219.29 85.35 220.00 84.00
C 221.16 81.18 221.79 78.13 222.00 75.00
C 223.70 62.57 219.74 54.90 222.00 42.00 C 224.26 29.10 213.70 28.15 202.00 30.00
C 201.50 36.85 202.67 47.53 202.00 54.00 C 201.33 60.47 204.24 71.07 200.00 73.00
C 200.00 72.99 199.08 74.79 199.00 75.00
C 198.81 79.99 192.25 87.61 186.00 83.00
C 185.70 82.78 185.25 82.25 185.00 82.00
C 184.25 81.28 182.84 80.73 182.00 80.00
C 182.63 81.06 183.58 81.86 184.00 83.00
C 181.08 82.43 177.61 79.27 178.00 76.00
C 171.39 62.79 176.72 45.03 175.00 30.00
C 168.67 30.00 162.33 30.00 156.00 30.00
C 156.53 45.90 155.74 62.83 155.00 78.00 Z"/>
</g>
<g fill="#14253F" fill-opacity="0.68" stroke="None">
<path d="
M 68.00 31.00 
C 68.00 31.00 67.38 31.22 67.00 31.00
C 67.35 35.14 66.50 40.81 67.00 44.00
C 68.37 40.80 68.61 34.98 68.00 31.00 Z"/>
</g>
<g fill="#364B4B" fill-opacity="0.03" stroke="None">
<path d="
M 223.00 43.00 
C 223.00 42.96 224.00 43.00 224.00 43.00
C 224.00 41.34 224.06 39.66 224.00 38.00
C 223.90 39.05 223.07 41.26 223.00 43.00 Z"/>
</g>
<g fill="#304A50" fill-opacity="0.04" stroke="None">
<path d="
M 76.00 47.00 
C 76.01 47.07 77.00 47.00 77.00 47.00
C 77.00 44.67 77.00 42.33 77.00 40.00
C 77.00 40.00 76.01 39.93 76.00 40.00
C 76.00 42.33 76.00 44.67 76.00 47.00 Z"/>
</g>
<g fill="#414161" fill-opacity="0.03" stroke="None">
<path d="
M 223.00 59.00 
C 223.00 58.96 224.00 59.00 224.00 59.00
C 224.00 53.67 224.00 48.33 224.00 43.00
C 224.00 43.00 223.00 42.96 223.00 43.00
C 222.79 48.31 223.00 53.68 223.00 59.00 Z"/>
</g>
<g fill="#1B3046" fill-opacity="0.40" stroke="None">
<path d="
M 58.00 77.00 
C 57.42 75.85 57.20 75.30 57.00 74.00
C 55.72 65.68 59.60 54.95 57.00 47.00
C 55.56 47.06 56.26 45.08 55.00 45.00
C 56.73 55.07 51.44 68.95 58.00 77.00 Z"/>
</g>
<g fill="#363753" fill-opacity="0.04" stroke="None">
<path d="
M 77.00 75.00 
C 76.17 65.84 77.00 56.20 77.00 47.00
C 77.00 47.00 76.01 47.07 76.00 47.00
C 76.00 56.17 75.15 66.59 77.00 75.00 Z"/>
</g>
<g fill="#242449" fill-opacity="0.03" stroke="None">
<path d="
M 255.00 58.00 
C 254.94 55.98 254.11 53.36 254.00 52.00
C 253.99 54.16 254.83 56.50 255.00 58.00 Z"/>
</g>
<g fill="#32504F" fill-opacity="0.02" stroke="None">
<path d="
M 223.00 71.00 
C 223.01 70.94 224.00 71.00 224.00 71.00
C 224.27 67.04 224.00 62.97 224.00 59.00
C 224.00 59.00 223.00 58.96 223.00 59.00
C 223.00 62.98 223.23 67.03 223.00 71.00 Z"/>
</g>
<g fill="#343B53" fill-opacity="0.12" stroke="None">
<path d="
M 222.00 75.00 
C 221.79 78.13 221.16 81.18 220.00 84.00
C 219.42 85.40 218.55 86.59 218.00 88.00
C 221.60 82.64 223.53 77.86 224.00 71.00
C 224.00 71.00 223.01 70.94 223.00 71.00
C 222.90 72.66 222.28 73.88 222.00 75.00 Z"/>
</g>
<g fill="#2A364C" fill-opacity="0.26" stroke="None">
<path d="
M 101.00 74.00 
C 101.02 74.12 100.07 74.65 100.00 75.00
C 98.24 84.23 112.70 84.45 118.00 82.00
C 119.11 81.33 121.49 77.96 122.00 77.00
C 122.59 75.59 122.89 74.95 123.00 73.00
C 120.29 83.95 104.50 85.21 101.00 74.00 Z"/>
</g>
<g fill="#4F6386" fill-opacity="0.06" stroke="None">
<path d="
M 58.00 77.00 
C 58.33 77.65 58.51 78.41 59.00 79.00
C 60.28 80.54 62.26 81.43 64.00 82.00
C 61.97 80.89 57.62 76.29 57.00 74.00
C 57.20 75.30 57.42 75.85 58.00 77.00 Z"/>
</g>
<g fill="#29374B" fill-opacity="0.20" stroke="None">
<path d="
M 255.00 77.00 
C 255.99 79.11 259.16 81.77 261.00 83.00
C 261.55 83.24 262.42 83.90 263.00 84.00
C 262.98 84.00 265.97 83.38 266.00 83.00
C 262.85 79.35 258.18 81.38 256.00 75.00
C 256.00 75.02 253.91 73.67 255.00 77.00 Z"/>
</g>
<g fill="#122237" fill-opacity="0.43" stroke="None">
<path d="
M 77.00 78.00 
C 78.44 77.94 77.74 79.92 79.00 80.00
C 79.41 78.08 78.09 76.75 78.00 75.00
C 78.00 75.00 77.27 74.75 77.00 75.00
C 77.21 75.94 76.90 77.04 77.00 78.00 Z"/>
</g>
<g fill="#233244" fill-opacity="0.35" stroke="None">
<path d="
M 178.00 76.00 
C 177.61 79.27 181.08 82.43 184.00 83.00
C 183.58 81.86 182.63 81.06 182.00 80.00
C 180.31 78.53 179.60 76.40 178.00 75.00
C 178.00 75.00 178.02 75.50 178.00 76.00 Z"/>
</g>
<g fill="#1D364B" fill-opacity="0.42" stroke="None">
<path d="
M 192.00 82.00 
C 190.37 82.63 188.26 83.55 186.00 83.00
C 192.25 87.61 198.81 79.99 199.00 75.00
C 197.78 78.25 195.26 80.74 192.00 82.00 Z"/>
</g>
<g fill="#11223A" fill-opacity="0.61" stroke="None">
<path d="
M 118.00 82.00 
C 120.33 80.92 121.13 79.09 122.00 77.00
C 121.49 77.96 119.11 81.33 118.00 82.00 Z"/>
</g>
<g fill="#0F2139" fill-opacity="0.68" stroke="None">
<path d="
M 261.00 83.00 
C 259.16 81.77 255.99 79.11 255.00 77.00
C 256.06 80.24 257.99 81.70 261.00 83.00 Z"/>
</g>
<g fill="#214356" fill-opacity="0.41" stroke="None">
<path d="
M 232.00 81.00 
C 232.14 81.23 233.00 81.00 233.00 81.00
C 235.15 80.09 233.10 78.84 233.00 78.00
C 233.29 78.22 231.65 79.09 231.00 78.00
C 231.17 78.83 231.71 80.25 232.00 81.00 Z"/>
</g>
<g fill="#152944" fill-opacity="0.57" stroke="None">
<path d="
M 64.00 83.00 
C 63.90 82.98 64.00 82.00 64.00 82.00
C 62.26 81.43 60.28 80.54 59.00 79.00
C 59.35 80.49 60.40 83.45 64.00 83.00 Z"/>
</g>
<g fill="#10223C" fill-opacity="0.62" stroke="None">
<path d="
M 156.00 82.00 
C 157.18 86.54 163.04 92.23 167.00 95.00
C 165.47 90.99 156.53 85.99 157.00 79.00
C 155.77 79.21 155.76 81.09 156.00 82.00 Z"/>
</g>
<g fill="#3A475B" fill-opacity="0.07" stroke="None">
<path d="
M 242.00 94.00 
C 241.81 93.59 242.00 93.00 242.00 93.00
C 239.97 91.58 238.43 89.93 237.00 88.00
C 235.48 85.96 234.82 84.30 234.00 82.00
C 233.74 81.75 233.26 81.12 233.00 81.00
C 233.00 81.00 232.14 81.23 232.00 81.00
C 233.92 85.97 237.22 91.05 242.00 94.00 Z"/>
</g>
<g fill="#1D2F42" fill-opacity="0.40" stroke="None">
<path d="
M 64.00 83.00 
C 70.05 85.59 65.67 94.58 67.00 100.00
C 63.88 98.28 64.32 102.46 66.00 102.00
C 70.86 100.68 71.80 80.01 64.00 82.00
C 64.00 82.00 63.90 82.98 64.00 83.00 Z"/>
</g>
<g fill="#394A56" fill-opacity="0.09" stroke="None">
<path d="
M 167.00 96.00 
C 167.00 96.00 167.23 95.16 167.00 95.00
C 163.04 92.23 157.18 86.54 156.00 82.00
C 157.90 88.31 161.17 92.64 167.00 96.00 Z"/>
</g>
<g fill="#3A4E5E" fill-opacity="0.08" stroke="None">
<path d="
M 186.00 83.00 
C 188.26 83.55 190.37 82.63 192.00 82.00
C 190.02 82.43 186.80 81.13 185.00 82.00
C 185.25 82.25 185.70 82.78 186.00 83.00 Z"/>
</g>
<g fill="#0E1F39" fill-opacity="0.63" stroke="None">
<path d="
M 237.00 88.00 
C 238.55 89.78 240.90 90.75 242.00 93.00
C 242.00 93.00 241.81 93.59 242.00 94.00
C 242.32 94.20 242.73 94.80 243.00 95.00
C 245.10 95.13 236.10 84.01 234.00 82.00
C 234.82 84.30 235.48 85.96 237.00 88.00 Z"/>
</g>
<g fill="#071B37" fill-opacity="0.37" stroke="None">
<path d="
M 263.00 84.00 
C 266.30 86.06 266.10 99.64 263.00 101.00
C 268.05 99.97 269.29 86.81 266.00 83.00
C 265.97 83.38 262.98 84.00 263.00 84.00 Z"/>
</g>
<g fill="#0F1E38" fill-opacity="0.60" stroke="None">
<path d="
M 37.00 85.00 
C 39.08 87.98 41.96 91.42 44.00 94.00
C 44.62 94.38 45.39 94.54 46.00 95.00
C 45.39 94.28 38.83 83.96 37.00 85.00 Z"/>
</g>
<g fill="#0A1B2C" fill-opacity="0.54" stroke="None">
<path d="
M 218.00 88.00 
C 218.55 86.59 219.42 85.40 220.00 84.00
C 219.29 85.35 218.22 87.45 218.00 88.00 Z"/>
</g>
<g fill="#323C50" fill-opacity="0.18" stroke="None">
<path d="
M 44.00 94.00 
C 41.96 91.42 39.08 87.98 37.00 85.00
C 37.00 85.00 36.34 85.23 36.00 85.00
C 38.29 88.17 40.49 91.86 44.00 94.00 Z"/>
</g>
<g fill="#152240" fill-opacity="0.39" stroke="None">
<path d="
M 242.00 93.00 
C 240.90 90.75 238.55 89.78 237.00 88.00
C 238.43 89.93 239.97 91.58 242.00 93.00 Z"/>
</g>
<g fill="#16314B" fill-opacity="0.31" stroke="None">
<path d="
M 87.00 94.00 
C 90.32 96.62 93.34 97.52 97.00 99.00
C 98.17 99.88 86.99 94.00 87.00 94.00 Z"/>
</g>
<g fill="#162545" fill-opacity="0.36" stroke="None">
<path d="
M 52.00 98.00 
C 53.81 98.80 55.72 100.52 58.00 101.00
C 58.62 101.28 57.94 97.64 56.01 97.99 C 54.08 98.35 52.68 98.14 52.00 98.00 Z"/>
</g>
<g fill="#0D2337" fill-opacity="0.54" stroke="None">
<path d="
M 203.00 99.00 
C 203.00 99.00 203.52 99.10 204.00 99.00
C 206.04 95.41 198.77 97.83 203.00 99.00 Z"/>
</g>
<g fill="#20304A" fill-opacity="0.48" stroke="None">
<path d="
M 176.00 100.00 
C 178.36 100.64 180.62 100.46 183.00 101.00
C 181.68 97.14 177.22 98.01 174.00 98.00
C 174.34 98.76 175.39 99.64 176.00 100.00 Z"/>
</g>
<g fill="#28324A" fill-opacity="0.37" stroke="None">
<path d="
M 102.00 101.00 
C 102.98 101.09 104.02 101.00 105.00 101.00
C 105.50 101.00 106.00 101.00 106.00 101.00
C 104.84 99.11 102.14 98.83 100.00 99.00
C 100.21 99.60 101.56 100.86 102.00 101.00 Z"/>
</g>
<g fill="#162137" fill-opacity="0.60" stroke="None">
<path d="
M 107.00 101.00 
C 110.00 101.00 113.00 101.00 116.00 101.00
C 113.35 100.89 109.92 98.84 107.00 101.00 Z"/>
</g>
<g fill="#141E40" fill-opacity="0.55" stroke="None">
<path d="
M 186.00 101.00 
C 188.29 100.69 190.70 101.23 193.00 101.00
C 192.37 100.95 181.19 99.20 186.00 101.00 Z"/>
</g>
<g fill="#535860" fill-opacity="0.02" stroke="None">
<path d="
M 116.00 101.00 
C 113.00 101.00 110.00 101.00 107.00 101.00
C 107.00 101.00 106.50 101.00 106.00 101.00
C 106.00 101.00 105.50 101.00 105.00 101.00
C 108.75 101.82 112.24 101.61 116.00 101.00 Z"/>
</g>
<g fill="#919191" fill-opacity="0.01" stroke="None">
<path d="
M 186.00 102.00 
C 188.61 102.41 191.09 101.27 193.00 101.00
C 190.70 101.23 188.29 100.69 186.00 101.00
C 186.00 101.00 185.91 101.98 186.00 102.00 Z"/>
</g>
</svg>