<svg xmlns="http://www.w3.org/2000/svg" xmlns:v="https://svgstorm.com"
viewBox = "0 0 300 147"
width="300"
height="147">
<g fill="None" fill-opacity="0.0" stroke="#000000" stroke-opacity="0.00" stroke-width="0.3"><path d="
M 0.00 147.00 
L 300.00 147.00
L 300.00 0.00
L 0.00 0.00
L 0.00 147.00
M 101.00 36.00 
C 97.76 37.69 95.20 38.38 91.00 38.00
C 88.45 37.73 86.36 35.47 86.00 33.00
C 85.88 32.16 85.88 30.84 86.00 30.00
C 88.65 11.64 119.40 26.39 101.00 36.00
M 111.00 89.00 
C 111.20 89.40 111.00 90.00 111.00 90.00
C 109.03 97.55 90.20 90.57 85.00 93.00
C 84.53 94.88 86.06 97.93 84.00 99.00
C 82.54 103.63 79.86 113.71 75.00 116.00
C 71.17 117.80 69.67 115.56 66.00 115.00
C 54.29 113.21 40.87 115.00 29.00 115.00
C 28.00 115.00 27.00 115.01 26.00 115.00
C 13.87 114.93 25.64 100.20 30.25 95.25 C 34.86 90.30 39.87 77.99 46.00 74.00
C 46.17 73.57 46.00 73.00 46.00 73.00
C 48.05 69.70 50.86 66.93 53.00 64.00
C 54.49 61.44 55.76 59.09 58.00 57.00
C 58.04 57.00 55.13 54.00 53.00 55.00 C 50.86 56.00 48.18 55.00 46.00 55.00
C 44.48 56.77 41.12 56.77 39.00 58.00
C 35.65 60.30 32.28 68.27 28.00 69.00
C 21.69 70.07 23.03 64.44 24.00 61.00
C 25.31 56.38 28.28 44.76 34.00 44.00
C 40.94 43.07 51.26 47.34 59.00 46.00 C 66.74 44.66 77.64 44.59 83.00 49.00
C 84.39 49.75 82.89 51.01 86.00 50.00
C 88.52 48.04 91.06 47.46 94.00 46.00
C 95.40 45.30 96.25 44.48 98.00 44.00
C 110.34 40.62 103.65 67.25 105.00 75.00 C 106.35 82.75 107.92 82.70 111.00 89.00
M 131.00 47.00 
C 131.10 47.37 132.00 50.10 132.00 50.00
C 133.08 48.22 132.27 49.19 134.00 48.00
C 134.27 47.82 134.80 47.27 135.00 47.00
C 139.03 41.61 148.61 42.48 154.00 44.00
C 156.12 44.60 157.10 44.73 159.00 46.00
C 161.36 47.57 163.43 49.73 165.00 52.00
C 166.20 53.73 167.75 55.89 168.00 58.00
C 169.09 58.72 171.43 56.91 173.00 56.00
C 175.20 54.72 177.61 54.12 180.00 53.00
C 181.41 52.34 182.18 51.40 184.00 51.00
C 188.03 50.12 191.10 51.93 190.00 57.00
C 191.93 56.34 192.67 53.61 195.00 54.00
C 196.91 52.71 197.55 51.76 200.00 51.00
C 203.39 49.94 209.08 48.84 212.00 51.00
C 212.32 50.76 213.00 51.00 213.00 51.00
C 222.77 51.73 228.50 63.38 229.00 72.00
C 229.11 73.94 229.14 76.06 229.00 78.00
C 227.65 96.88 206.69 108.36 190.00 98.00
C 189.92 105.55 191.84 106.38 196.25 111.75 C 200.65 117.13 185.48 118.37 182.00 117.00
C 179.36 117.00 173.29 118.17 171.00 117.00
C 167.21 115.06 170.15 112.29 171.00 111.00
C 171.93 109.59 173.12 108.39 174.00 107.00
C 175.56 101.85 173.69 88.85 174.00 84.00 C 174.31 79.15 176.10 64.65 171.00 64.00
C 169.87 64.03 169.51 63.95 169.00 65.00
C 169.35 66.76 169.12 69.21 169.00 71.00
C 168.87 73.06 168.50 74.13 168.00 76.00
C 165.90 83.81 159.75 92.46 151.00 94.00
C 144.82 95.09 139.03 92.52 134.00 92.00
C 132.67 92.23 132.17 91.25 131.00 91.00
C 128.21 98.95 135.02 101.64 137.00 107.00
C 136.20 111.57 103.49 114.32 112.00 103.00
C 113.31 101.25 114.16 101.20 115.00 99.00
C 117.74 87.20 113.91 73.10 115.00 61.00
C 113.94 56.51 107.78 57.25 110.00 52.00
C 111.80 47.74 120.37 44.81 125.00 44.00
C 128.10 43.46 129.90 42.78 131.00 47.00
M 251.00 57.00 
C 249.66 58.95 249.47 59.70 249.00 62.00
C 249.15 65.35 254.13 73.77 256.00 77.00
C 256.39 77.67 256.65 78.34 257.00 79.00
C 257.57 80.07 257.83 81.53 259.00 82.00
C 262.48 76.78 259.07 72.44 264.31 67.31 C 269.54 62.17 262.22 57.88 262.00 54.00
C 261.65 47.80 280.55 48.22 283.00 52.00
C 285.21 55.41 276.91 60.37 275.00 63.00
C 273.02 67.14 273.17 72.31 270.00 76.00
C 270.04 76.50 270.00 77.00 270.00 77.00
C 266.62 85.21 263.00 101.63 256.00 107.00
C 255.96 107.50 256.00 108.00 256.00 108.00
C 254.41 111.24 250.85 113.59 248.00 115.00
C 244.65 117.96 238.40 117.42 235.00 116.00
C 231.79 114.66 231.12 113.15 230.00 110.00
C 229.26 107.91 226.99 102.26 228.00 100.00
C 230.82 90.72 238.41 103.98 241.00 105.00
C 251.73 106.20 248.02 95.17 245.00 89.00
C 244.02 87.00 242.97 84.90 242.00 83.00
C 238.28 75.72 234.49 68.48 231.00 61.00
C 229.90 59.59 228.09 58.54 227.00 57.00
C 225.90 55.45 224.04 54.65 225.00 52.00
C 226.21 48.67 233.77 49.63 237.00 50.00 C 240.23 50.37 247.93 48.59 251.00 50.00
C 251.23 49.79 253.40 51.80 254.00 51.00
C 254.53 53.46 253.42 56.13 251.00 57.00 Z"/>
</g>
<g fill="None" fill-opacity="0.0" stroke="#22552F" stroke-opacity="0.30" stroke-width="0.3"><path d="
M 86.00 30.00 
C 86.16 29.41 87.60 28.50 88.00 28.00
C 96.39 17.66 111.73 26.08 101.00 36.00
C 119.40 26.39 88.65 11.64 86.00 30.00 Z"/>
</g>
<g fill="None" fill-opacity="0.0" stroke="#085649" stroke-opacity="0.96" stroke-width="0.3"><path d="
M 88.00 28.00 
C 87.03 31.47 88.07 35.41 91.00 37.00
C 91.21 37.11 91.00 38.00 91.00 38.00
C 95.20 38.38 97.76 37.69 101.00 36.00
C 111.73 26.08 96.39 17.66 88.00 28.00 Z"/>
</g>
<g fill="None" fill-opacity="0.0" stroke="#1B5432" stroke-opacity="0.62" stroke-width="0.3"><path d="
M 86.00 30.00 
C 85.88 30.84 85.88 32.16 86.00 33.00
C 86.53 34.84 89.14 36.69 91.00 37.00
C 88.07 35.41 87.03 31.47 88.00 28.00
C 87.60 28.50 86.16 29.41 86.00 30.00 Z"/>
</g>
<g fill="None" fill-opacity="0.0" stroke="#1C5420" stroke-opacity="0.11" stroke-width="0.3"><path d="
M 91.00 38.00 
C 91.00 38.00 91.21 37.11 91.00 37.00
C 89.14 36.69 86.53 34.84 86.00 33.00
C 86.36 35.47 88.45 37.73 91.00 38.00 Z"/>
</g>
<g fill="None" fill-opacity="0.0" stroke="#23592D" stroke-opacity="0.47" stroke-width="0.3"><path d="
M 98.00 44.00 
C 98.48 43.94 100.79 45.18 102.00 44.00
C 106.65 58.22 95.50 80.87 111.00 89.00
C 107.92 82.70 106.35 82.75 105.00 75.00 C 103.65 67.25 110.34 40.62 98.00 44.00 Z"/>
</g>
<g fill="None" fill-opacity="0.0" stroke="#255B2B" stroke-opacity="0.15" stroke-width="0.3"><path d="
M 125.00 44.00 
C 126.76 44.08 130.13 45.22 131.00 47.00
C 129.90 42.78 128.10 43.46 125.00 44.00 Z"/>
</g>
<g fill="None" fill-opacity="0.0" stroke="#235B35" stroke-opacity="0.39" stroke-width="0.3"><path d="
M 135.00 47.00 
C 139.95 47.28 148.27 43.07 154.00 44.00
C 148.61 42.48 139.03 41.61 135.00 47.00 Z"/>
</g>
<g fill="None" fill-opacity="0.0" stroke="#205832" stroke-opacity="0.22" stroke-width="0.3"><path d="
M 24.00 61.00 
C 24.26 60.75 25.00 61.00 25.00 61.00
C 27.41 56.80 28.67 51.88 31.00 48.00
C 31.78 46.69 32.20 44.51 34.00 44.00
C 28.28 44.76 25.31 56.38 24.00 61.00 Z"/>
</g>
<g fill="None" fill-opacity="0.0" stroke="#215830" stroke-opacity="0.56" stroke-width="0.3"><path d="
M 31.00 48.00 
C 35.99 43.25 47.59 49.35 55.00 48.00 C 62.41 46.65 74.67 47.38 81.00 49.00
C 81.19 49.05 81.94 48.42 83.00 49.00
C 77.64 44.59 66.74 44.66 59.00 46.00 C 51.26 47.34 40.94 43.07 34.00 44.00
C 32.20 44.51 31.78 46.69 31.00 48.00 Z"/>
</g>
<g fill="None" fill-opacity="0.0" stroke="#075649" stroke-opacity="0.97" stroke-width="0.3"><path d="
M 94.00 46.00 
C 91.59 47.93 84.47 50.36 86.00 56.00
C 91.53 55.62 90.02 64.17 90.00 68.00 C 89.98 71.83 90.69 79.66 89.00 83.00
C 87.31 86.35 84.13 85.80 84.00 90.00
C 87.68 91.30 94.05 91.67 98.00 91.00 C 101.95 90.33 108.62 93.24 111.00 90.00
C 111.00 90.00 111.20 89.40 111.00 89.00
C 95.50 80.87 106.65 58.22 102.00 44.00
C 100.79 45.18 98.48 43.94 98.00 44.00
C 96.25 44.48 95.40 45.30 94.00 46.00 Z"/>
</g>
<g fill="None" fill-opacity="0.0" stroke="#095649" stroke-opacity="0.94" stroke-width="0.3"><path d="
M 110.00 52.00 
C 109.67 56.43 116.63 55.94 116.00 61.00
C 116.94 71.43 118.51 89.78 115.00 99.00
C 114.16 101.20 113.31 101.25 112.00 103.00
C 111.21 104.60 110.69 106.10 111.00 108.00
C 119.59 107.38 128.85 109.27 137.00 107.00
C 135.02 101.64 128.21 98.95 131.00 91.00
C 132.17 91.25 132.67 92.23 134.00 92.00
C 136.54 91.56 140.15 93.33 143.00 92.00 C 145.85 90.67 152.39 94.05 151.00 94.00
C 159.75 92.46 165.90 83.81 168.00 76.00
C 168.13 74.98 168.81 72.04 169.00 71.00
C 169.12 69.21 169.35 66.76 169.00 65.00
C 168.86 64.30 166.97 63.39 167.03 61.97 C 167.08 60.55 168.05 58.40 168.00 58.00
C 167.75 55.89 166.20 53.73 165.00 52.00
C 163.67 50.36 160.60 47.26 159.00 46.00
C 157.10 44.73 156.12 44.60 154.00 44.00
C 148.27 43.07 139.95 47.28 135.00 47.00
C 134.80 47.27 134.27 47.82 134.00 48.00
C 134.07 49.18 132.97 53.31 130.00 53.00
C 130.30 51.75 131.83 51.29 132.00 50.00
C 132.00 50.10 131.10 47.37 131.00 47.00
C 130.13 45.22 126.76 44.08 125.00 44.00
C 120.37 44.81 111.80 47.74 110.00 52.00
M 144.00 55.00 
C 147.67 57.06 148.58 58.84 151.00 62.00
C 152.98 64.58 153.65 63.42 154.00 68.00
C 154.46 74.07 153.02 76.70 151.00 79.00
C 148.16 86.06 142.10 86.01 136.00 83.00
C 134.64 82.33 134.21 82.69 133.00 80.00
C 132.22 78.28 131.54 75.87 131.00 74.00
C 129.59 69.16 130.00 65.52 132.00 62.00
C 132.28 61.11 132.81 59.93 133.00 59.00
C 134.15 53.20 139.10 52.24 144.00 55.00 Z"/>
</g>
<g fill="None" fill-opacity="0.0" stroke="#075649" stroke-opacity="0.97" stroke-width="0.3"><path d="
M 31.00 48.00 
C 28.67 51.88 27.41 56.80 25.00 61.00
C 24.75 62.97 25.19 65.02 25.00 67.00
C 33.46 67.20 36.13 54.11 45.00 55.00
C 47.01 50.73 57.71 53.31 61.00 54.00
C 59.91 54.70 59.00 58.78 58.00 57.00
C 55.76 59.09 54.49 61.44 53.00 64.00
C 51.14 67.20 49.15 70.95 46.00 73.00
C 46.00 73.00 46.17 73.57 46.00 74.00
C 44.39 78.10 41.07 81.55 39.00 85.00
C 37.22 87.97 34.93 90.40 33.00 93.00
C 29.12 99.53 22.75 105.42 22.00 113.00
C 23.41 113.15 25.34 113.65 26.00 115.00
C 27.00 115.01 28.00 115.00 29.00 115.00
C 33.87 112.52 41.13 113.31 48.00 113.00 C 54.87 112.69 62.95 113.26 66.00 115.00
C 69.67 115.56 71.17 117.80 75.00 116.00
C 78.10 113.52 81.89 101.94 83.00 98.00
C 83.32 94.91 84.19 93.19 83.00 90.00
C 81.22 89.79 81.14 90.48 80.00 91.00
C 78.48 92.13 76.46 93.78 75.00 95.00
C 70.93 99.76 66.92 103.95 61.00 106.00
C 55.46 107.92 48.27 106.64 42.00 107.00
C 42.91 101.83 48.19 98.81 50.00 94.00
C 55.27 86.62 60.26 79.02 66.25 72.25 C 72.24 65.47 75.31 55.13 81.00 49.00
C 74.67 47.38 62.41 46.65 55.00 48.00 C 47.59 49.35 35.99 43.25 31.00 48.00 Z"/>
</g>
<g fill="None" fill-opacity="0.0" stroke="#1B5631" stroke-opacity="0.44" stroke-width="0.3"><path d="
M 86.00 50.00 
C 85.14 50.67 83.97 51.30 83.00 52.00
C 82.41 53.15 83.08 57.17 85.00 57.00
C 84.94 56.96 86.02 56.07 86.00 56.00
C 84.47 50.36 91.59 47.93 94.00 46.00
C 91.06 47.46 88.52 48.04 86.00 50.00 Z"/>
</g>
<g fill="None" fill-opacity="0.0" stroke="#245122" stroke-opacity="0.16" stroke-width="0.3"><path d="
M 165.00 52.00 
C 163.43 49.73 161.36 47.57 159.00 46.00
C 160.60 47.26 163.67 50.36 165.00 52.00 Z"/>
</g>
<g fill="None" fill-opacity="0.0" stroke="#1D5730" stroke-opacity="0.24" stroke-width="0.3"><path d="
M 81.00 49.00 
C 75.31 55.13 72.24 65.47 66.25 72.25 C 60.26 79.02 55.27 86.62 50.00 94.00
C 49.61 94.70 43.28 105.57 44.00 106.00
C 50.77 97.63 55.90 87.09 63.25 79.25 C 70.60 71.41 74.32 58.22 83.00 52.00
C 83.97 51.30 85.14 50.67 86.00 50.00
C 82.89 51.01 84.39 49.75 83.00 49.00
C 81.94 48.42 81.19 49.05 81.00 49.00 Z"/>
</g>
<g fill="None" fill-opacity="0.0" stroke="#215637" stroke-opacity="0.67" stroke-width="0.3"><path d="
M 132.00 50.00 
C 131.83 51.29 130.30 51.75 130.00 53.00
C 132.97 53.31 134.07 49.18 134.00 48.00
C 132.27 49.19 133.08 48.22 132.00 50.00 Z"/>
</g>
<g fill="None" fill-opacity="0.0" stroke="#08564A" stroke-opacity="0.94" stroke-width="0.3"><path d="
M 184.00 51.00 
C 183.22 51.29 180.97 52.77 180.00 53.00
C 177.61 54.12 175.20 54.72 173.00 56.00
C 167.70 60.49 173.49 61.30 175.00 66.00
C 176.89 71.90 174.44 81.94 175.00 88.00 C 175.56 94.06 175.98 103.87 174.00 107.00
C 173.12 108.39 171.93 109.59 171.00 111.00
C 170.29 113.33 172.47 115.07 171.00 117.00
C 173.29 118.17 179.36 117.00 182.00 117.00
C 184.20 116.79 199.15 115.84 193.74 111.26 C 188.33 106.67 187.56 102.92 190.00 96.00
C 204.73 106.59 226.45 95.61 228.00 78.00
C 226.50 76.54 226.52 73.44 228.00 72.00
C 225.01 61.60 220.28 58.13 213.00 51.00
C 213.00 51.00 212.32 50.76 212.00 51.00
C 208.66 53.47 198.34 52.74 195.00 54.00
C 192.67 53.61 191.93 56.34 190.00 57.00
C 191.10 51.93 188.03 50.12 184.00 51.00
M 195.00 63.00 
C 199.63 61.76 202.61 62.34 207.00 64.00
C 209.49 64.94 209.62 65.31 210.00 68.00
C 210.18 69.25 210.67 69.82 211.00 71.00
C 211.49 71.68 214.21 71.57 213.00 74.00
C 215.09 76.59 213.54 79.79 213.00 82.00
C 212.28 84.98 212.24 84.19 211.00 86.00
C 208.70 91.88 203.46 93.02 198.00 92.00
C 197.52 91.91 196.45 92.15 196.00 92.00
C 191.31 90.39 191.09 85.85 191.00 83.00
C 190.34 78.02 189.89 72.73 192.00 68.00
C 191.98 69.53 189.06 67.35 191.31 65.30 C 193.56 63.26 193.50 63.40 195.00 63.00 Z"/>
</g>
<g fill="None" fill-opacity="0.0" stroke="#1C5531" stroke-opacity="0.51" stroke-width="0.3"><path d="
M 200.00 51.00 
C 198.49 51.60 196.92 53.69 195.00 54.00
C 198.34 52.74 208.66 53.47 212.00 51.00
C 209.08 48.84 203.39 49.94 200.00 51.00 Z"/>
</g>
<g fill="None" fill-opacity="0.0" stroke="#1E552F" stroke-opacity="0.58" stroke-width="0.3"><path d="
M 225.00 52.00 
C 226.19 49.69 234.27 53.68 237.00 52.00 C 239.73 50.32 249.62 54.24 252.00 52.00
C 251.98 51.89 250.97 49.99 251.00 50.00
C 247.93 48.59 240.23 50.37 237.00 50.00 C 233.77 49.63 226.21 48.67 225.00 52.00 Z"/>
</g>
<g fill="None" fill-opacity="0.0" stroke="#2E5F2C" stroke-opacity="0.15" stroke-width="0.3"><path d="
M 252.00 52.00 
C 252.15 52.70 252.15 54.30 252.00 55.00
C 251.94 55.29 251.16 56.83 251.00 57.00
C 253.42 56.13 254.53 53.46 254.00 51.00
C 253.40 51.80 251.23 49.79 251.00 50.00
C 250.97 49.99 251.98 51.89 252.00 52.00 Z"/>
</g>
<g fill="None" fill-opacity="0.0" stroke="#1F562E" stroke-opacity="0.56" stroke-width="0.3"><path d="
M 262.00 54.00 
C 262.70 51.32 280.49 50.40 283.00 52.00
C 280.55 48.22 261.65 47.80 262.00 54.00 Z"/>
</g>
<g fill="None" fill-opacity="0.0" stroke="#21572E" stroke-opacity="0.39" stroke-width="0.3"><path d="
M 180.00 53.00 
C 180.97 52.77 183.22 51.29 184.00 51.00
C 182.18 51.40 181.41 52.34 180.00 53.00 Z"/>
</g>
<g fill="None" fill-opacity="0.0" stroke="#27542C" stroke-opacity="0.16" stroke-width="0.3"><path d="
M 195.00 54.00 
C 196.92 53.69 198.49 51.60 200.00 51.00
C 197.55 51.76 196.91 52.71 195.00 54.00 Z"/>
</g>
<g fill="None" fill-opacity="0.0" stroke="#22562F" stroke-opacity="0.26" stroke-width="0.3"><path d="
M 228.00 72.00 
C 228.04 72.13 229.00 72.00 229.00 72.00
C 228.50 63.38 222.77 51.73 213.00 51.00
C 220.28 58.13 225.01 61.60 228.00 72.00 Z"/>
</g>
<g fill="None" fill-opacity="0.0" stroke="#0A5648" stroke-opacity="0.93" stroke-width="0.3"><path d="
M 225.00 52.00 
C 224.04 54.65 225.90 55.45 227.00 57.00
C 227.70 57.69 230.39 59.69 231.00 61.00
C 234.49 68.48 238.28 75.72 242.00 83.00
C 243.61 85.34 244.50 87.18 245.00 89.00
C 248.02 95.17 251.73 106.20 241.00 105.00
C 237.80 104.64 234.21 97.56 231.00 98.00
C 229.77 98.65 229.91 109.27 230.00 110.00
C 231.12 113.15 231.79 114.66 235.00 116.00
C 238.50 117.06 243.89 114.30 248.00 114.00
C 251.23 112.95 253.21 109.95 256.00 108.00
C 256.00 108.00 255.96 107.50 256.00 107.00
C 256.36 102.21 260.56 95.76 262.31 91.31 C 264.06 86.85 265.79 78.74 270.00 77.00
C 270.00 77.00 270.04 76.50 270.00 76.00
C 269.68 71.80 272.76 66.08 275.00 63.00
C 276.91 60.37 285.21 55.41 283.00 52.00
C 280.49 50.40 262.70 51.32 262.00 54.00
C 262.22 57.88 269.54 62.17 264.31 67.31 C 259.07 72.44 262.48 76.78 259.00 82.00
C 258.49 82.76 258.11 83.93 257.00 84.00
C 256.52 82.42 253.79 78.71 257.00 79.00
C 256.65 78.34 256.39 77.67 256.00 77.00
C 252.10 73.98 248.02 66.85 249.00 62.00
C 249.47 59.70 249.66 58.95 251.00 57.00
C 250.27 57.79 248.88 58.46 248.00 59.00
C 247.63 56.53 250.38 55.90 252.00 55.00
C 252.15 54.30 252.15 52.70 252.00 52.00
C 249.62 54.24 239.73 50.32 237.00 52.00 C 234.27 53.68 226.19 49.69 225.00 52.00 Z"/>
</g>
<g fill="None" fill-opacity="0.0" stroke="#000000" stroke-opacity="0.00" stroke-width="0.3"><path d="
M 44.00 106.00 
C 46.47 107.47 58.08 106.59 61.00 106.00
C 66.92 103.95 70.93 99.76 75.00 95.00
C 76.82 92.87 77.56 92.11 80.00 91.00
C 81.14 90.48 81.22 89.79 83.00 90.00
C 83.49 90.06 84.00 90.00 84.00 90.00
C 84.13 85.80 87.31 86.35 89.00 83.00
C 91.32 75.93 90.13 60.87 85.00 57.00
C 83.08 57.17 82.41 53.15 83.00 52.00
C 74.32 58.22 70.60 71.41 63.25 79.25 C 55.90 87.09 50.77 97.63 44.00 106.00 Z"/>
</g>
<g fill="None" fill-opacity="0.0" stroke="#245229" stroke-opacity="0.30" stroke-width="0.3"><path d="
M 115.00 61.00 
C 115.03 61.11 116.00 61.00 116.00 61.00
C 116.63 55.94 109.67 56.43 110.00 52.00
C 107.78 57.25 113.94 56.51 115.00 61.00 Z"/>
</g>
<g fill="None" fill-opacity="0.0" stroke="#1E5532" stroke-opacity="0.56" stroke-width="0.3"><path d="
M 45.00 55.00 
C 45.50 55.04 46.00 55.00 46.00 55.00
C 48.18 55.00 50.86 56.00 53.00 55.00 C 55.13 54.00 58.04 57.00 58.00 57.00
C 59.00 58.78 59.91 54.70 61.00 54.00
C 57.71 53.31 47.01 50.73 45.00 55.00 Z"/>
</g>
<g fill="None" fill-opacity="0.0" stroke="#20532E" stroke-opacity="0.35" stroke-width="0.3"><path d="
M 133.00 59.00 
C 135.13 55.25 139.84 54.13 144.00 55.00
C 139.10 52.24 134.15 53.20 133.00 59.00 Z"/>
</g>
<g fill="None" fill-opacity="0.0" stroke="#215631" stroke-opacity="0.35" stroke-width="0.3"><path d="
M 25.00 61.00 
C 25.00 61.00 24.26 60.75 24.00 61.00
C 23.03 64.44 21.69 70.07 28.00 69.00
C 31.27 68.20 35.67 59.93 39.00 58.00
C 41.12 56.77 44.48 56.77 46.00 55.00
C 46.00 55.00 45.50 55.04 45.00 55.00
C 36.13 54.11 33.46 67.20 25.00 67.00
C 25.19 65.02 24.75 62.97 25.00 61.00 Z"/>
</g>
<g fill="None" fill-opacity="0.0" stroke="#000000" stroke-opacity="0.00" stroke-width="0.3"><path d="
M 133.00 59.00 
C 132.81 59.93 132.28 61.11 132.00 62.00
C 130.88 65.52 130.38 70.13 131.00 74.00
C 131.54 75.87 132.22 78.28 133.00 80.00
C 133.37 80.55 135.51 82.60 136.00 83.00
C 142.10 86.01 148.16 86.06 151.00 79.00
C 152.18 76.07 152.30 73.07 153.00 70.00
C 152.93 68.31 151.74 64.03 151.00 62.00
C 148.58 58.84 147.67 57.06 144.00 55.00
C 139.84 54.13 135.13 55.25 133.00 59.00 Z"/>
</g>
<g fill="None" fill-opacity="0.0" stroke="#17573B" stroke-opacity="0.45" stroke-width="0.3"><path d="
M 251.00 57.00 
C 251.16 56.83 251.94 55.29 252.00 55.00
C 250.38 55.90 247.63 56.53 248.00 59.00
C 248.88 58.46 250.27 57.79 251.00 57.00 Z"/>
</g>
<g fill="None" fill-opacity="0.0" stroke="#1B5635" stroke-opacity="0.24" stroke-width="0.3"><path d="
M 85.00 57.00 
C 90.13 60.87 91.32 75.93 89.00 83.00
C 90.69 79.66 89.98 71.83 90.00 68.00 C 90.02 64.17 91.53 55.62 86.00 56.00
C 86.02 56.07 84.94 56.96 85.00 57.00 Z"/>
</g>
<g fill="None" fill-opacity="0.0" stroke="#19563A" stroke-opacity="0.41" stroke-width="0.3"><path d="
M 168.00 58.00 
C 168.05 58.40 167.08 60.55 167.03 61.97 C 166.97 63.39 168.86 64.30 169.00 65.00
C 169.51 63.95 169.87 64.03 171.00 64.00
C 171.96 63.98 174.56 65.13 175.00 66.00
C 173.49 61.30 167.70 60.49 173.00 56.00
C 171.43 56.91 169.09 58.72 168.00 58.00 Z"/>
</g>
<g fill="None" fill-opacity="0.0" stroke="#275530" stroke-opacity="0.22" stroke-width="0.3"><path d="
M 227.00 57.00 
C 228.09 58.54 229.90 59.59 231.00 61.00
C 230.39 59.69 227.70 57.69 227.00 57.00 Z"/>
</g>
<g fill="None" fill-opacity="0.0" stroke="#275227" stroke-opacity="0.05" stroke-width="0.3"><path d="
M 28.00 69.00 
C 32.28 68.27 35.65 60.30 39.00 58.00
C 35.67 59.93 31.27 68.20 28.00 69.00 Z"/>
</g>
<g fill="None" fill-opacity="0.0" stroke="#215534" stroke-opacity="0.03" stroke-width="0.3"><path d="
M 115.00 99.00 
C 118.51 89.78 116.94 71.43 116.00 61.00
C 116.00 61.00 115.03 61.11 115.00 61.00
C 113.91 73.10 117.74 87.20 115.00 99.00 Z"/>
</g>
<g fill="None" fill-opacity="0.0" stroke="#1A5835" stroke-opacity="0.13" stroke-width="0.3"><path d="
M 131.00 74.00 
C 130.38 70.13 130.88 65.52 132.00 62.00
C 130.00 65.52 129.59 69.16 131.00 74.00 Z"/>
</g>
<g fill="None" fill-opacity="0.0" stroke="#195A31" stroke-opacity="0.38" stroke-width="0.3"><path d="
M 153.00 70.00 
C 153.19 69.15 153.86 68.48 154.00 68.00
C 153.65 63.42 152.98 64.58 151.00 62.00
C 151.74 64.03 152.93 68.31 153.00 70.00 Z"/>
</g>
<g fill="None" fill-opacity="0.0" stroke="#1A5831" stroke-opacity="0.35" stroke-width="0.3"><path d="
M 192.00 68.00 
C 192.58 66.70 193.78 63.76 195.00 63.00
C 193.50 63.40 193.56 63.26 191.31 65.30 C 189.06 67.35 191.98 69.53 192.00 68.00 Z"/>
</g>
<g fill="None" fill-opacity="0.0" stroke="#000000" stroke-opacity="0.00" stroke-width="0.3"><path d="
M 195.00 63.00 
C 193.78 63.76 192.58 66.70 192.00 68.00
C 189.89 72.73 190.34 78.02 191.00 83.00
C 191.06 83.49 191.00 84.00 191.00 84.00
C 192.18 85.48 197.59 90.59 198.00 92.00
C 203.46 93.02 208.70 91.88 211.00 86.00
C 211.46 84.81 211.83 83.32 212.00 82.00
C 212.25 80.08 212.00 77.94 212.00 76.00
C 212.00 75.50 212.12 74.47 212.00 74.00
C 210.59 73.77 211.25 71.92 211.00 71.00
C 210.67 69.82 210.18 69.25 210.00 68.00
C 209.64 67.35 207.41 64.33 207.00 64.00
C 202.61 62.34 199.63 61.76 195.00 63.00 Z"/>
</g>
<g fill="None" fill-opacity="0.0" stroke="#205830" stroke-opacity="0.26" stroke-width="0.3"><path d="
M 256.00 77.00 
C 254.13 73.77 249.15 65.35 249.00 62.00
C 248.02 66.85 252.10 73.98 256.00 77.00 Z"/>
</g>
<g fill="None" fill-opacity="0.0" stroke="#185636" stroke-opacity="0.40" stroke-width="0.3"><path d="
M 207.00 64.00 
C 207.41 64.33 209.64 67.35 210.00 68.00
C 209.62 65.31 209.49 64.94 207.00 64.00 Z"/>
</g>
<g fill="None" fill-opacity="0.0" stroke="#1B5736" stroke-opacity="0.24" stroke-width="0.3"><path d="
M 270.00 76.00 
C 273.17 72.31 273.02 67.14 275.00 63.00
C 272.76 66.08 269.68 71.80 270.00 76.00 Z"/>
</g>
<g fill="None" fill-opacity="0.0" stroke="#295729" stroke-opacity="0.13" stroke-width="0.3"><path d="
M 46.00 73.00 
C 49.15 70.95 51.14 67.20 53.00 64.00
C 50.86 66.93 48.05 69.70 46.00 73.00 Z"/>
</g>
<g fill="None" fill-opacity="0.0" stroke="#1E5B3C" stroke-opacity="0.09" stroke-width="0.3"><path d="
M 174.00 107.00 
C 175.98 103.87 175.56 94.06 175.00 88.00 C 174.44 81.94 176.89 71.90 175.00 66.00
C 174.56 65.13 171.96 63.98 171.00 64.00
C 176.10 64.65 174.31 79.15 174.00 84.00 C 173.69 88.85 175.56 101.85 174.00 107.00 Z"/>
</g>
<g fill="None" fill-opacity="0.0" stroke="#1F5E34" stroke-opacity="0.25" stroke-width="0.3"><path d="
M 153.00 70.00 
C 152.30 73.07 152.18 76.07 151.00 79.00
C 153.02 76.70 154.46 74.07 154.00 68.00
C 153.86 68.48 153.19 69.15 153.00 70.00 Z"/>
</g>
<g fill="None" fill-opacity="0.0" stroke="#1B5335" stroke-opacity="0.51" stroke-width="0.3"><path d="
M 168.00 76.00 
C 168.50 74.13 168.87 73.06 169.00 71.00
C 168.81 72.04 168.13 74.98 168.00 76.00 Z"/>
</g>
<g fill="None" fill-opacity="0.0" stroke="#19562D" stroke-opacity="0.41" stroke-width="0.3"><path d="
M 212.00 74.00 
C 212.49 74.08 213.00 74.00 213.00 74.00
C 214.21 71.57 211.49 71.68 211.00 71.00
C 211.25 71.92 210.59 73.77 212.00 74.00 Z"/>
</g>
<g fill="None" fill-opacity="0.0" stroke="#1D5539" stroke-opacity="0.43" stroke-width="0.3"><path d="
M 228.00 78.00 
C 228.09 77.80 229.00 78.00 229.00 78.00
C 229.14 76.06 229.11 73.94 229.00 72.00
C 229.00 72.00 228.04 72.13 228.00 72.00
C 226.52 73.44 226.50 76.54 228.00 78.00 Z"/>
</g>
<g fill="None" fill-opacity="0.0" stroke="#26572F" stroke-opacity="0.25" stroke-width="0.3"><path d="
M 26.00 115.00 
C 25.34 113.65 23.41 113.15 22.00 113.00
C 22.75 105.42 29.12 99.53 33.00 93.00
C 34.77 90.01 37.05 87.60 39.00 85.00
C 41.07 81.55 44.39 78.10 46.00 74.00
C 39.87 77.99 34.86 90.30 30.25 95.25 C 25.64 100.20 13.87 114.93 26.00 115.00 Z"/>
</g>
<g fill="None" fill-opacity="0.0" stroke="#0E5347" stroke-opacity="0.71" stroke-width="0.3"><path d="
M 212.00 76.00 
C 212.66 77.63 213.54 79.74 213.00 82.00
C 213.54 79.79 215.09 76.59 213.00 74.00
C 213.00 74.00 212.49 74.08 212.00 74.00
C 212.12 74.47 212.00 75.50 212.00 76.00 Z"/>
</g>
<g fill="None" fill-opacity="0.0" stroke="#20553C" stroke-opacity="0.19" stroke-width="0.3"><path d="
M 212.00 82.00 
C 212.13 81.78 213.00 82.00 213.00 82.00
C 213.54 79.74 212.66 77.63 212.00 76.00
C 212.00 77.94 212.25 80.08 212.00 82.00 Z"/>
</g>
<g fill="None" fill-opacity="0.0" stroke="#1D5736" stroke-opacity="0.24" stroke-width="0.3"><path d="
M 256.00 107.00 
C 263.00 101.63 266.62 85.21 270.00 77.00
C 265.79 78.74 264.06 86.85 262.31 91.31 C 260.56 95.76 256.36 102.21 256.00 107.00 Z"/>
</g>
<g fill="None" fill-opacity="0.0" stroke="#1C5836" stroke-opacity="0.26" stroke-width="0.3"><path d="
M 182.00 117.00 
C 185.48 118.37 200.65 117.13 196.25 111.75 C 191.84 106.38 189.92 105.55 190.00 98.00
C 206.69 108.36 227.65 96.88 229.00 78.00
C 229.00 78.00 228.09 77.80 228.00 78.00
C 226.45 95.61 204.73 106.59 190.00 96.00
C 187.56 102.92 188.33 106.67 193.74 111.26 C 199.15 115.84 184.20 116.79 182.00 117.00 Z"/>
</g>
<g fill="None" fill-opacity="0.0" stroke="#1D683D" stroke-opacity="0.30" stroke-width="0.3"><path d="
M 259.00 82.00 
C 257.83 81.53 257.57 80.07 257.00 79.00
C 253.79 78.71 256.52 82.42 257.00 84.00
C 258.11 83.93 258.49 82.76 259.00 82.00 Z"/>
</g>
<g fill="None" fill-opacity="0.0" stroke="#23503B" stroke-opacity="0.31" stroke-width="0.3"><path d="
M 136.00 83.00 
C 135.51 82.60 133.37 80.55 133.00 80.00
C 134.21 82.69 134.64 82.33 136.00 83.00 Z"/>
</g>
<g fill="None" fill-opacity="0.0" stroke="#23582F" stroke-opacity="0.47" stroke-width="0.3"><path d="
M 211.00 86.00 
C 212.24 84.19 212.28 84.98 213.00 82.00
C 213.00 82.00 212.13 81.78 212.00 82.00
C 211.83 83.32 211.46 84.81 211.00 86.00 Z"/>
</g>
<g fill="None" fill-opacity="0.0" stroke="#195538" stroke-opacity="0.61" stroke-width="0.3"><path d="
M 196.00 92.00 
C 193.82 90.31 191.25 86.68 191.00 84.00
C 191.00 84.00 191.06 83.49 191.00 83.00
C 191.09 85.85 191.31 90.39 196.00 92.00 Z"/>
</g>
<g fill="None" fill-opacity="0.0" stroke="#1A5929" stroke-opacity="0.25" stroke-width="0.3"><path d="
M 245.00 89.00 
C 244.50 87.18 243.61 85.34 242.00 83.00
C 242.97 84.90 244.02 87.00 245.00 89.00 Z"/>
</g>
<g fill="None" fill-opacity="0.0" stroke="#204F22" stroke-opacity="0.14" stroke-width="0.3"><path d="
M 196.00 92.00 
C 196.45 92.15 197.52 91.91 198.00 92.00
C 197.59 90.59 192.18 85.48 191.00 84.00
C 191.25 86.68 193.82 90.31 196.00 92.00 Z"/>
</g>
<g fill="None" fill-opacity="0.0" stroke="#19563E" stroke-opacity="0.57" stroke-width="0.3"><path d="
M 33.00 93.00 
C 34.93 90.40 37.22 87.97 39.00 85.00
C 37.05 87.60 34.77 90.01 33.00 93.00 Z"/>
</g>
<g fill="None" fill-opacity="0.0" stroke="#1F562B" stroke-opacity="0.38" stroke-width="0.3"><path d="
M 83.00 98.00 
C 82.99 98.13 84.01 98.67 84.00 99.00
C 86.06 97.93 84.53 94.88 85.00 93.00
C 90.20 90.57 109.03 97.55 111.00 90.00
C 108.62 93.24 101.95 90.33 98.00 91.00 C 94.05 91.67 87.68 91.30 84.00 90.00
C 84.00 90.00 83.49 90.06 83.00 90.00
C 84.19 93.19 83.32 94.91 83.00 98.00 Z"/>
</g>
<g fill="None" fill-opacity="0.0" stroke="#2E5B27" stroke-opacity="0.29" stroke-width="0.3"><path d="
M 75.00 95.00 
C 76.46 93.78 78.48 92.13 80.00 91.00
C 77.56 92.11 76.82 92.87 75.00 95.00 Z"/>
</g>
<g fill="None" fill-opacity="0.0" stroke="#175636" stroke-opacity="0.38" stroke-width="0.3"><path d="
M 134.00 92.00 
C 139.03 92.52 144.82 95.09 151.00 94.00
C 152.39 94.05 145.85 90.67 143.00 92.00 C 140.15 93.33 136.54 91.56 134.00 92.00 Z"/>
</g>
<g fill="None" fill-opacity="0.0" stroke="#1E5430" stroke-opacity="0.59" stroke-width="0.3"><path d="
M 61.00 106.00 
C 58.08 106.59 46.47 107.47 44.00 106.00
C 43.28 105.57 49.61 94.70 50.00 94.00
C 48.19 98.81 42.91 101.83 42.00 107.00
C 48.27 106.64 55.46 107.92 61.00 106.00 Z"/>
</g>
<g fill="None" fill-opacity="0.0" stroke="#1B5328" stroke-opacity="0.25" stroke-width="0.3"><path d="
M 228.00 100.00 
C 228.19 99.57 230.50 98.07 231.00 98.00
C 234.21 97.56 237.80 104.64 241.00 105.00
C 238.41 103.98 230.82 90.72 228.00 100.00 Z"/>
</g>
<g fill="None" fill-opacity="0.0" stroke="#1A5535" stroke-opacity="0.26" stroke-width="0.3"><path d="
M 75.00 116.00 
C 79.86 113.71 82.54 103.63 84.00 99.00
C 84.01 98.67 82.99 98.13 83.00 98.00
C 81.89 101.94 78.10 113.52 75.00 116.00 Z"/>
</g>
<g fill="None" fill-opacity="0.0" stroke="#135533" stroke-opacity="0.57" stroke-width="0.3"><path d="
M 228.00 100.00 
C 226.99 102.26 229.26 107.91 230.00 110.00
C 229.91 109.27 229.77 98.65 231.00 98.00
C 230.50 98.07 228.19 99.57 228.00 100.00 Z"/>
</g>
<g fill="None" fill-opacity="0.0" stroke="#1F5733" stroke-opacity="0.31" stroke-width="0.3"><path d="
M 137.00 107.00 
C 128.85 109.27 119.59 107.38 111.00 108.00
C 110.69 106.10 111.21 104.60 112.00 103.00
C 103.49 114.32 136.20 111.57 137.00 107.00 Z"/>
</g>
<g fill="None" fill-opacity="0.0" stroke="#1F5922" stroke-opacity="0.04" stroke-width="0.3"><path d="
M 248.00 114.00 
C 247.85 114.05 248.00 115.00 248.00 115.00
C 250.85 113.59 254.41 111.24 256.00 108.00
C 253.21 109.95 251.23 112.95 248.00 114.00 Z"/>
</g>
<g fill="None" fill-opacity="0.0" stroke="#2A531E" stroke-opacity="0.34" stroke-width="0.3"><path d="
M 171.00 117.00 
C 172.47 115.07 170.29 113.33 171.00 111.00
C 170.15 112.29 167.21 115.06 171.00 117.00 Z"/>
</g>
<g fill="None" fill-opacity="0.0" stroke="#1D5421" stroke-opacity="0.37" stroke-width="0.3"><path d="
M 29.00 115.00 
C 40.87 115.00 54.29 113.21 66.00 115.00
C 62.95 113.26 54.87 112.69 48.00 113.00 C 41.13 113.31 33.87 112.52 29.00 115.00 Z"/>
</g>
<g fill="None" fill-opacity="0.0" stroke="#205334" stroke-opacity="0.24" stroke-width="0.3"><path d="
M 235.00 116.00 
C 238.40 117.42 244.65 117.96 248.00 115.00
C 248.00 115.00 247.85 114.05 248.00 114.00
C 243.89 114.30 238.50 117.06 235.00 116.00 Z"/>
</g>
<g fill="#000000" fill-opacity="0.00" stroke="None">
<path d="
M 0.00 147.00 
L 300.00 147.00
L 300.00 0.00
L 0.00 0.00
L 0.00 147.00
M 101.00 36.00 
C 97.76 37.69 95.20 38.38 91.00 38.00
C 88.45 37.73 86.36 35.47 86.00 33.00
C 85.88 32.16 85.88 30.84 86.00 30.00
C 88.65 11.64 119.40 26.39 101.00 36.00
M 111.00 89.00 
C 111.20 89.40 111.00 90.00 111.00 90.00
C 109.03 97.55 90.20 90.57 85.00 93.00
C 84.53 94.88 86.06 97.93 84.00 99.00
C 82.54 103.63 79.86 113.71 75.00 116.00
C 71.17 117.80 69.67 115.56 66.00 115.00
C 54.29 113.21 40.87 115.00 29.00 115.00
C 28.00 115.00 27.00 115.01 26.00 115.00
C 13.87 114.93 25.64 100.20 30.25 95.25 C 34.86 90.30 39.87 77.99 46.00 74.00
C 46.17 73.57 46.00 73.00 46.00 73.00
C 48.05 69.70 50.86 66.93 53.00 64.00
C 54.49 61.44 55.76 59.09 58.00 57.00
C 58.04 57.00 55.13 54.00 53.00 55.00 C 50.86 56.00 48.18 55.00 46.00 55.00
C 44.48 56.77 41.12 56.77 39.00 58.00
C 35.65 60.30 32.28 68.27 28.00 69.00
C 21.69 70.07 23.03 64.44 24.00 61.00
C 25.31 56.38 28.28 44.76 34.00 44.00
C 40.94 43.07 51.26 47.34 59.00 46.00 C 66.74 44.66 77.64 44.59 83.00 49.00
C 84.39 49.75 82.89 51.01 86.00 50.00
C 88.52 48.04 91.06 47.46 94.00 46.00
C 95.40 45.30 96.25 44.48 98.00 44.00
C 110.34 40.62 103.65 67.25 105.00 75.00 C 106.35 82.75 107.92 82.70 111.00 89.00
M 131.00 47.00 
C 131.10 47.37 132.00 50.10 132.00 50.00
C 133.08 48.22 132.27 49.19 134.00 48.00
C 134.27 47.82 134.80 47.27 135.00 47.00
C 139.03 41.61 148.61 42.48 154.00 44.00
C 156.12 44.60 157.10 44.73 159.00 46.00
C 161.36 47.57 163.43 49.73 165.00 52.00
C 166.20 53.73 167.75 55.89 168.00 58.00
C 169.09 58.72 171.43 56.91 173.00 56.00
C 175.20 54.72 177.61 54.12 180.00 53.00
C 181.41 52.34 182.18 51.40 184.00 51.00
C 188.03 50.12 191.10 51.93 190.00 57.00
C 191.93 56.34 192.67 53.61 195.00 54.00
C 196.91 52.71 197.55 51.76 200.00 51.00
C 203.39 49.94 209.08 48.84 212.00 51.00
C 212.32 50.76 213.00 51.00 213.00 51.00
C 222.77 51.73 228.50 63.38 229.00 72.00
C 229.11 73.94 229.14 76.06 229.00 78.00
C 227.65 96.88 206.69 108.36 190.00 98.00
C 189.92 105.55 191.84 106.38 196.25 111.75 C 200.65 117.13 185.48 118.37 182.00 117.00
C 179.36 117.00 173.29 118.17 171.00 117.00
C 167.21 115.06 170.15 112.29 171.00 111.00
C 171.93 109.59 173.12 108.39 174.00 107.00
C 175.56 101.85 173.69 88.85 174.00 84.00 C 174.31 79.15 176.10 64.65 171.00 64.00
C 169.87 64.03 169.51 63.95 169.00 65.00
C 169.35 66.76 169.12 69.21 169.00 71.00
C 168.87 73.06 168.50 74.13 168.00 76.00
C 165.90 83.81 159.75 92.46 151.00 94.00
C 144.82 95.09 139.03 92.52 134.00 92.00
C 132.67 92.23 132.17 91.25 131.00 91.00
C 128.21 98.95 135.02 101.64 137.00 107.00
C 136.20 111.57 103.49 114.32 112.00 103.00
C 113.31 101.25 114.16 101.20 115.00 99.00
C 117.74 87.20 113.91 73.10 115.00 61.00
C 113.94 56.51 107.78 57.25 110.00 52.00
C 111.80 47.74 120.37 44.81 125.00 44.00
C 128.10 43.46 129.90 42.78 131.00 47.00
M 251.00 57.00 
C 249.66 58.95 249.47 59.70 249.00 62.00
C 249.15 65.35 254.13 73.77 256.00 77.00
C 256.39 77.67 256.65 78.34 257.00 79.00
C 257.57 80.07 257.83 81.53 259.00 82.00
C 262.48 76.78 259.07 72.44 264.31 67.31 C 269.54 62.17 262.22 57.88 262.00 54.00
C 261.65 47.80 280.55 48.22 283.00 52.00
C 285.21 55.41 276.91 60.37 275.00 63.00
C 273.02 67.14 273.17 72.31 270.00 76.00
C 270.04 76.50 270.00 77.00 270.00 77.00
C 266.62 85.21 263.00 101.63 256.00 107.00
C 255.96 107.50 256.00 108.00 256.00 108.00
C 254.41 111.24 250.85 113.59 248.00 115.00
C 244.65 117.96 238.40 117.42 235.00 116.00
C 231.79 114.66 231.12 113.15 230.00 110.00
C 229.26 107.91 226.99 102.26 228.00 100.00
C 230.82 90.72 238.41 103.98 241.00 105.00
C 251.73 106.20 248.02 95.17 245.00 89.00
C 244.02 87.00 242.97 84.90 242.00 83.00
C 238.28 75.72 234.49 68.48 231.00 61.00
C 229.90 59.59 228.09 58.54 227.00 57.00
C 225.90 55.45 224.04 54.65 225.00 52.00
C 226.21 48.67 233.77 49.63 237.00 50.00 C 240.23 50.37 247.93 48.59 251.00 50.00
C 251.23 49.79 253.40 51.80 254.00 51.00
C 254.53 53.46 253.42 56.13 251.00 57.00 Z"/>
</g>
<g fill="#22552F" fill-opacity="0.30" stroke="None">
<path d="
M 86.00 30.00 
C 86.16 29.41 87.60 28.50 88.00 28.00
C 96.39 17.66 111.73 26.08 101.00 36.00
C 119.40 26.39 88.65 11.64 86.00 30.00 Z"/>
</g>
<g fill="#085649" fill-opacity="0.96" stroke="None">
<path d="
M 88.00 28.00 
C 87.03 31.47 88.07 35.41 91.00 37.00
C 91.21 37.11 91.00 38.00 91.00 38.00
C 95.20 38.38 97.76 37.69 101.00 36.00
C 111.73 26.08 96.39 17.66 88.00 28.00 Z"/>
</g>
<g fill="#1B5432" fill-opacity="0.62" stroke="None">
<path d="
M 86.00 30.00 
C 85.88 30.84 85.88 32.16 86.00 33.00
C 86.53 34.84 89.14 36.69 91.00 37.00
C 88.07 35.41 87.03 31.47 88.00 28.00
C 87.60 28.50 86.16 29.41 86.00 30.00 Z"/>
</g>
<g fill="#1C5420" fill-opacity="0.11" stroke="None">
<path d="
M 91.00 38.00 
C 91.00 38.00 91.21 37.11 91.00 37.00
C 89.14 36.69 86.53 34.84 86.00 33.00
C 86.36 35.47 88.45 37.73 91.00 38.00 Z"/>
</g>
<g fill="#23592D" fill-opacity="0.47" stroke="None">
<path d="
M 98.00 44.00 
C 98.48 43.94 100.79 45.18 102.00 44.00
C 106.65 58.22 95.50 80.87 111.00 89.00
C 107.92 82.70 106.35 82.75 105.00 75.00 C 103.65 67.25 110.34 40.62 98.00 44.00 Z"/>
</g>
<g fill="#255B2B" fill-opacity="0.15" stroke="None">
<path d="
M 125.00 44.00 
C 126.76 44.08 130.13 45.22 131.00 47.00
C 129.90 42.78 128.10 43.46 125.00 44.00 Z"/>
</g>
<g fill="#235B35" fill-opacity="0.39" stroke="None">
<path d="
M 135.00 47.00 
C 139.95 47.28 148.27 43.07 154.00 44.00
C 148.61 42.48 139.03 41.61 135.00 47.00 Z"/>
</g>
<g fill="#205832" fill-opacity="0.22" stroke="None">
<path d="
M 24.00 61.00 
C 24.26 60.75 25.00 61.00 25.00 61.00
C 27.41 56.80 28.67 51.88 31.00 48.00
C 31.78 46.69 32.20 44.51 34.00 44.00
C 28.28 44.76 25.31 56.38 24.00 61.00 Z"/>
</g>
<g fill="#215830" fill-opacity="0.56" stroke="None">
<path d="
M 31.00 48.00 
C 35.99 43.25 47.59 49.35 55.00 48.00 C 62.41 46.65 74.67 47.38 81.00 49.00
C 81.19 49.05 81.94 48.42 83.00 49.00
C 77.64 44.59 66.74 44.66 59.00 46.00 C 51.26 47.34 40.94 43.07 34.00 44.00
C 32.20 44.51 31.78 46.69 31.00 48.00 Z"/>
</g>
<g fill="#075649" fill-opacity="0.97" stroke="None">
<path d="
M 94.00 46.00 
C 91.59 47.93 84.47 50.36 86.00 56.00
C 91.53 55.62 90.02 64.17 90.00 68.00 C 89.98 71.83 90.69 79.66 89.00 83.00
C 87.31 86.35 84.13 85.80 84.00 90.00
C 87.68 91.30 94.05 91.67 98.00 91.00 C 101.95 90.33 108.62 93.24 111.00 90.00
C 111.00 90.00 111.20 89.40 111.00 89.00
C 95.50 80.87 106.65 58.22 102.00 44.00
C 100.79 45.18 98.48 43.94 98.00 44.00
C 96.25 44.48 95.40 45.30 94.00 46.00 Z"/>
</g>
<g fill="#095649" fill-opacity="0.94" stroke="None">
<path d="
M 110.00 52.00 
C 109.67 56.43 116.63 55.94 116.00 61.00
C 116.94 71.43 118.51 89.78 115.00 99.00
C 114.16 101.20 113.31 101.25 112.00 103.00
C 111.21 104.60 110.69 106.10 111.00 108.00
C 119.59 107.38 128.85 109.27 137.00 107.00
C 135.02 101.64 128.21 98.95 131.00 91.00
C 132.17 91.25 132.67 92.23 134.00 92.00
C 136.54 91.56 140.15 93.33 143.00 92.00 C 145.85 90.67 152.39 94.05 151.00 94.00
C 159.75 92.46 165.90 83.81 168.00 76.00
C 168.13 74.98 168.81 72.04 169.00 71.00
C 169.12 69.21 169.35 66.76 169.00 65.00
C 168.86 64.30 166.97 63.39 167.03 61.97 C 167.08 60.55 168.05 58.40 168.00 58.00
C 167.75 55.89 166.20 53.73 165.00 52.00
C 163.67 50.36 160.60 47.26 159.00 46.00
C 157.10 44.73 156.12 44.60 154.00 44.00
C 148.27 43.07 139.95 47.28 135.00 47.00
C 134.80 47.27 134.27 47.82 134.00 48.00
C 134.07 49.18 132.97 53.31 130.00 53.00
C 130.30 51.75 131.83 51.29 132.00 50.00
C 132.00 50.10 131.10 47.37 131.00 47.00
C 130.13 45.22 126.76 44.08 125.00 44.00
C 120.37 44.81 111.80 47.74 110.00 52.00
M 144.00 55.00 
C 147.67 57.06 148.58 58.84 151.00 62.00
C 152.98 64.58 153.65 63.42 154.00 68.00
C 154.46 74.07 153.02 76.70 151.00 79.00
C 148.16 86.06 142.10 86.01 136.00 83.00
C 134.64 82.33 134.21 82.69 133.00 80.00
C 132.22 78.28 131.54 75.87 131.00 74.00
C 129.59 69.16 130.00 65.52 132.00 62.00
C 132.28 61.11 132.81 59.93 133.00 59.00
C 134.15 53.20 139.10 52.24 144.00 55.00 Z"/>
</g>
<g fill="#075649" fill-opacity="0.97" stroke="None">
<path d="
M 31.00 48.00 
C 28.67 51.88 27.41 56.80 25.00 61.00
C 24.75 62.97 25.19 65.02 25.00 67.00
C 33.46 67.20 36.13 54.11 45.00 55.00
C 47.01 50.73 57.71 53.31 61.00 54.00
C 59.91 54.70 59.00 58.78 58.00 57.00
C 55.76 59.09 54.49 61.44 53.00 64.00
C 51.14 67.20 49.15 70.95 46.00 73.00
C 46.00 73.00 46.17 73.57 46.00 74.00
C 44.39 78.10 41.07 81.55 39.00 85.00
C 37.22 87.97 34.93 90.40 33.00 93.00
C 29.12 99.53 22.75 105.42 22.00 113.00
C 23.41 113.15 25.34 113.65 26.00 115.00
C 27.00 115.01 28.00 115.00 29.00 115.00
C 33.87 112.52 41.13 113.31 48.00 113.00 C 54.87 112.69 62.95 113.26 66.00 115.00
C 69.67 115.56 71.17 117.80 75.00 116.00
C 78.10 113.52 81.89 101.94 83.00 98.00
C 83.32 94.91 84.19 93.19 83.00 90.00
C 81.22 89.79 81.14 90.48 80.00 91.00
C 78.48 92.13 76.46 93.78 75.00 95.00
C 70.93 99.76 66.92 103.95 61.00 106.00
C 55.46 107.92 48.27 106.64 42.00 107.00
C 42.91 101.83 48.19 98.81 50.00 94.00
C 55.27 86.62 60.26 79.02 66.25 72.25 C 72.24 65.47 75.31 55.13 81.00 49.00
C 74.67 47.38 62.41 46.65 55.00 48.00 C 47.59 49.35 35.99 43.25 31.00 48.00 Z"/>
</g>
<g fill="#1B5631" fill-opacity="0.44" stroke="None">
<path d="
M 86.00 50.00 
C 85.14 50.67 83.97 51.30 83.00 52.00
C 82.41 53.15 83.08 57.17 85.00 57.00
C 84.94 56.96 86.02 56.07 86.00 56.00
C 84.47 50.36 91.59 47.93 94.00 46.00
C 91.06 47.46 88.52 48.04 86.00 50.00 Z"/>
</g>
<g fill="#245122" fill-opacity="0.16" stroke="None">
<path d="
M 165.00 52.00 
C 163.43 49.73 161.36 47.57 159.00 46.00
C 160.60 47.26 163.67 50.36 165.00 52.00 Z"/>
</g>
<g fill="#1D5730" fill-opacity="0.24" stroke="None">
<path d="
M 81.00 49.00 
C 75.31 55.13 72.24 65.47 66.25 72.25 C 60.26 79.02 55.27 86.62 50.00 94.00
C 49.61 94.70 43.28 105.57 44.00 106.00
C 50.77 97.63 55.90 87.09 63.25 79.25 C 70.60 71.41 74.32 58.22 83.00 52.00
C 83.97 51.30 85.14 50.67 86.00 50.00
C 82.89 51.01 84.39 49.75 83.00 49.00
C 81.94 48.42 81.19 49.05 81.00 49.00 Z"/>
</g>
<g fill="#215637" fill-opacity="0.67" stroke="None">
<path d="
M 132.00 50.00 
C 131.83 51.29 130.30 51.75 130.00 53.00
C 132.97 53.31 134.07 49.18 134.00 48.00
C 132.27 49.19 133.08 48.22 132.00 50.00 Z"/>
</g>
<g fill="#08564A" fill-opacity="0.94" stroke="None">
<path d="
M 184.00 51.00 
C 183.22 51.29 180.97 52.77 180.00 53.00
C 177.61 54.12 175.20 54.72 173.00 56.00
C 167.70 60.49 173.49 61.30 175.00 66.00
C 176.89 71.90 174.44 81.94 175.00 88.00 C 175.56 94.06 175.98 103.87 174.00 107.00
C 173.12 108.39 171.93 109.59 171.00 111.00
C 170.29 113.33 172.47 115.07 171.00 117.00
C 173.29 118.17 179.36 117.00 182.00 117.00
C 184.20 116.79 199.15 115.84 193.74 111.26 C 188.33 106.67 187.56 102.92 190.00 96.00
C 204.73 106.59 226.45 95.61 228.00 78.00
C 226.50 76.54 226.52 73.44 228.00 72.00
C 225.01 61.60 220.28 58.13 213.00 51.00
C 213.00 51.00 212.32 50.76 212.00 51.00
C 208.66 53.47 198.34 52.74 195.00 54.00
C 192.67 53.61 191.93 56.34 190.00 57.00
C 191.10 51.93 188.03 50.12 184.00 51.00
M 195.00 63.00 
C 199.63 61.76 202.61 62.34 207.00 64.00
C 209.49 64.94 209.62 65.31 210.00 68.00
C 210.18 69.25 210.67 69.82 211.00 71.00
C 211.49 71.68 214.21 71.57 213.00 74.00
C 215.09 76.59 213.54 79.79 213.00 82.00
C 212.28 84.98 212.24 84.19 211.00 86.00
C 208.70 91.88 203.46 93.02 198.00 92.00
C 197.52 91.91 196.45 92.15 196.00 92.00
C 191.31 90.39 191.09 85.85 191.00 83.00
C 190.34 78.02 189.89 72.73 192.00 68.00
C 191.98 69.53 189.06 67.35 191.31 65.30 C 193.56 63.26 193.50 63.40 195.00 63.00 Z"/>
</g>
<g fill="#1C5531" fill-opacity="0.51" stroke="None">
<path d="
M 200.00 51.00 
C 198.49 51.60 196.92 53.69 195.00 54.00
C 198.34 52.74 208.66 53.47 212.00 51.00
C 209.08 48.84 203.39 49.94 200.00 51.00 Z"/>
</g>
<g fill="#1E552F" fill-opacity="0.58" stroke="None">
<path d="
M 225.00 52.00 
C 226.19 49.69 234.27 53.68 237.00 52.00 C 239.73 50.32 249.62 54.24 252.00 52.00
C 251.98 51.89 250.97 49.99 251.00 50.00
C 247.93 48.59 240.23 50.37 237.00 50.00 C 233.77 49.63 226.21 48.67 225.00 52.00 Z"/>
</g>
<g fill="#2E5F2C" fill-opacity="0.15" stroke="None">
<path d="
M 252.00 52.00 
C 252.15 52.70 252.15 54.30 252.00 55.00
C 251.94 55.29 251.16 56.83 251.00 57.00
C 253.42 56.13 254.53 53.46 254.00 51.00
C 253.40 51.80 251.23 49.79 251.00 50.00
C 250.97 49.99 251.98 51.89 252.00 52.00 Z"/>
</g>
<g fill="#1F562E" fill-opacity="0.56" stroke="None">
<path d="
M 262.00 54.00 
C 262.70 51.32 280.49 50.40 283.00 52.00
C 280.55 48.22 261.65 47.80 262.00 54.00 Z"/>
</g>
<g fill="#21572E" fill-opacity="0.39" stroke="None">
<path d="
M 180.00 53.00 
C 180.97 52.77 183.22 51.29 184.00 51.00
C 182.18 51.40 181.41 52.34 180.00 53.00 Z"/>
</g>
<g fill="#27542C" fill-opacity="0.16" stroke="None">
<path d="
M 195.00 54.00 
C 196.92 53.69 198.49 51.60 200.00 51.00
C 197.55 51.76 196.91 52.71 195.00 54.00 Z"/>
</g>
<g fill="#22562F" fill-opacity="0.26" stroke="None">
<path d="
M 228.00 72.00 
C 228.04 72.13 229.00 72.00 229.00 72.00
C 228.50 63.38 222.77 51.73 213.00 51.00
C 220.28 58.13 225.01 61.60 228.00 72.00 Z"/>
</g>
<g fill="#0A5648" fill-opacity="0.93" stroke="None">
<path d="
M 225.00 52.00 
C 224.04 54.65 225.90 55.45 227.00 57.00
C 227.70 57.69 230.39 59.69 231.00 61.00
C 234.49 68.48 238.28 75.72 242.00 83.00
C 243.61 85.34 244.50 87.18 245.00 89.00
C 248.02 95.17 251.73 106.20 241.00 105.00
C 237.80 104.64 234.21 97.56 231.00 98.00
C 229.77 98.65 229.91 109.27 230.00 110.00
C 231.12 113.15 231.79 114.66 235.00 116.00
C 238.50 117.06 243.89 114.30 248.00 114.00
C 251.23 112.95 253.21 109.95 256.00 108.00
C 256.00 108.00 255.96 107.50 256.00 107.00
C 256.36 102.21 260.56 95.76 262.31 91.31 C 264.06 86.85 265.79 78.74 270.00 77.00
C 270.00 77.00 270.04 76.50 270.00 76.00
C 269.68 71.80 272.76 66.08 275.00 63.00
C 276.91 60.37 285.21 55.41 283.00 52.00
C 280.49 50.40 262.70 51.32 262.00 54.00
C 262.22 57.88 269.54 62.17 264.31 67.31 C 259.07 72.44 262.48 76.78 259.00 82.00
C 258.49 82.76 258.11 83.93 257.00 84.00
C 256.52 82.42 253.79 78.71 257.00 79.00
C 256.65 78.34 256.39 77.67 256.00 77.00
C 252.10 73.98 248.02 66.85 249.00 62.00
C 249.47 59.70 249.66 58.95 251.00 57.00
C 250.27 57.79 248.88 58.46 248.00 59.00
C 247.63 56.53 250.38 55.90 252.00 55.00
C 252.15 54.30 252.15 52.70 252.00 52.00
C 249.62 54.24 239.73 50.32 237.00 52.00 C 234.27 53.68 226.19 49.69 225.00 52.00 Z"/>
</g>
<g fill="#000000" fill-opacity="0.00" stroke="None">
<path d="
M 44.00 106.00 
C 46.47 107.47 58.08 106.59 61.00 106.00
C 66.92 103.95 70.93 99.76 75.00 95.00
C 76.82 92.87 77.56 92.11 80.00 91.00
C 81.14 90.48 81.22 89.79 83.00 90.00
C 83.49 90.06 84.00 90.00 84.00 90.00
C 84.13 85.80 87.31 86.35 89.00 83.00
C 91.32 75.93 90.13 60.87 85.00 57.00
C 83.08 57.17 82.41 53.15 83.00 52.00
C 74.32 58.22 70.60 71.41 63.25 79.25 C 55.90 87.09 50.77 97.63 44.00 106.00 Z"/>
</g>
<g fill="#245229" fill-opacity="0.30" stroke="None">
<path d="
M 115.00 61.00 
C 115.03 61.11 116.00 61.00 116.00 61.00
C 116.63 55.94 109.67 56.43 110.00 52.00
C 107.78 57.25 113.94 56.51 115.00 61.00 Z"/>
</g>
<g fill="#1E5532" fill-opacity="0.56" stroke="None">
<path d="
M 45.00 55.00 
C 45.50 55.04 46.00 55.00 46.00 55.00
C 48.18 55.00 50.86 56.00 53.00 55.00 C 55.13 54.00 58.04 57.00 58.00 57.00
C 59.00 58.78 59.91 54.70 61.00 54.00
C 57.71 53.31 47.01 50.73 45.00 55.00 Z"/>
</g>
<g fill="#20532E" fill-opacity="0.35" stroke="None">
<path d="
M 133.00 59.00 
C 135.13 55.25 139.84 54.13 144.00 55.00
C 139.10 52.24 134.15 53.20 133.00 59.00 Z"/>
</g>
<g fill="#215631" fill-opacity="0.35" stroke="None">
<path d="
M 25.00 61.00 
C 25.00 61.00 24.26 60.75 24.00 61.00
C 23.03 64.44 21.69 70.07 28.00 69.00
C 31.27 68.20 35.67 59.93 39.00 58.00
C 41.12 56.77 44.48 56.77 46.00 55.00
C 46.00 55.00 45.50 55.04 45.00 55.00
C 36.13 54.11 33.46 67.20 25.00 67.00
C 25.19 65.02 24.75 62.97 25.00 61.00 Z"/>
</g>
<g fill="#000000" fill-opacity="0.00" stroke="None">
<path d="
M 133.00 59.00 
C 132.81 59.93 132.28 61.11 132.00 62.00
C 130.88 65.52 130.38 70.13 131.00 74.00
C 131.54 75.87 132.22 78.28 133.00 80.00
C 133.37 80.55 135.51 82.60 136.00 83.00
C 142.10 86.01 148.16 86.06 151.00 79.00
C 152.18 76.07 152.30 73.07 153.00 70.00
C 152.93 68.31 151.74 64.03 151.00 62.00
C 148.58 58.84 147.67 57.06 144.00 55.00
C 139.84 54.13 135.13 55.25 133.00 59.00 Z"/>
</g>
<g fill="#17573B" fill-opacity="0.45" stroke="None">
<path d="
M 251.00 57.00 
C 251.16 56.83 251.94 55.29 252.00 55.00
C 250.38 55.90 247.63 56.53 248.00 59.00
C 248.88 58.46 250.27 57.79 251.00 57.00 Z"/>
</g>
<g fill="#1B5635" fill-opacity="0.24" stroke="None">
<path d="
M 85.00 57.00 
C 90.13 60.87 91.32 75.93 89.00 83.00
C 90.69 79.66 89.98 71.83 90.00 68.00 C 90.02 64.17 91.53 55.62 86.00 56.00
C 86.02 56.07 84.94 56.96 85.00 57.00 Z"/>
</g>
<g fill="#19563A" fill-opacity="0.41" stroke="None">
<path d="
M 168.00 58.00 
C 168.05 58.40 167.08 60.55 167.03 61.97 C 166.97 63.39 168.86 64.30 169.00 65.00
C 169.51 63.95 169.87 64.03 171.00 64.00
C 171.96 63.98 174.56 65.13 175.00 66.00
C 173.49 61.30 167.70 60.49 173.00 56.00
C 171.43 56.91 169.09 58.72 168.00 58.00 Z"/>
</g>
<g fill="#275530" fill-opacity="0.22" stroke="None">
<path d="
M 227.00 57.00 
C 228.09 58.54 229.90 59.59 231.00 61.00
C 230.39 59.69 227.70 57.69 227.00 57.00 Z"/>
</g>
<g fill="#275227" fill-opacity="0.05" stroke="None">
<path d="
M 28.00 69.00 
C 32.28 68.27 35.65 60.30 39.00 58.00
C 35.67 59.93 31.27 68.20 28.00 69.00 Z"/>
</g>
<g fill="#215534" fill-opacity="0.03" stroke="None">
<path d="
M 115.00 99.00 
C 118.51 89.78 116.94 71.43 116.00 61.00
C 116.00 61.00 115.03 61.11 115.00 61.00
C 113.91 73.10 117.74 87.20 115.00 99.00 Z"/>
</g>
<g fill="#1A5835" fill-opacity="0.13" stroke="None">
<path d="
M 131.00 74.00 
C 130.38 70.13 130.88 65.52 132.00 62.00
C 130.00 65.52 129.59 69.16 131.00 74.00 Z"/>
</g>
<g fill="#195A31" fill-opacity="0.38" stroke="None">
<path d="
M 153.00 70.00 
C 153.19 69.15 153.86 68.48 154.00 68.00
C 153.65 63.42 152.98 64.58 151.00 62.00
C 151.74 64.03 152.93 68.31 153.00 70.00 Z"/>
</g>
<g fill="#1A5831" fill-opacity="0.35" stroke="None">
<path d="
M 192.00 68.00 
C 192.58 66.70 193.78 63.76 195.00 63.00
C 193.50 63.40 193.56 63.26 191.31 65.30 C 189.06 67.35 191.98 69.53 192.00 68.00 Z"/>
</g>
<g fill="#000000" fill-opacity="0.00" stroke="None">
<path d="
M 195.00 63.00 
C 193.78 63.76 192.58 66.70 192.00 68.00
C 189.89 72.73 190.34 78.02 191.00 83.00
C 191.06 83.49 191.00 84.00 191.00 84.00
C 192.18 85.48 197.59 90.59 198.00 92.00
C 203.46 93.02 208.70 91.88 211.00 86.00
C 211.46 84.81 211.83 83.32 212.00 82.00
C 212.25 80.08 212.00 77.94 212.00 76.00
C 212.00 75.50 212.12 74.47 212.00 74.00
C 210.59 73.77 211.25 71.92 211.00 71.00
C 210.67 69.82 210.18 69.25 210.00 68.00
C 209.64 67.35 207.41 64.33 207.00 64.00
C 202.61 62.34 199.63 61.76 195.00 63.00 Z"/>
</g>
<g fill="#205830" fill-opacity="0.26" stroke="None">
<path d="
M 256.00 77.00 
C 254.13 73.77 249.15 65.35 249.00 62.00
C 248.02 66.85 252.10 73.98 256.00 77.00 Z"/>
</g>
<g fill="#185636" fill-opacity="0.40" stroke="None">
<path d="
M 207.00 64.00 
C 207.41 64.33 209.64 67.35 210.00 68.00
C 209.62 65.31 209.49 64.94 207.00 64.00 Z"/>
</g>
<g fill="#1B5736" fill-opacity="0.24" stroke="None">
<path d="
M 270.00 76.00 
C 273.17 72.31 273.02 67.14 275.00 63.00
C 272.76 66.08 269.68 71.80 270.00 76.00 Z"/>
</g>
<g fill="#295729" fill-opacity="0.13" stroke="None">
<path d="
M 46.00 73.00 
C 49.15 70.95 51.14 67.20 53.00 64.00
C 50.86 66.93 48.05 69.70 46.00 73.00 Z"/>
</g>
<g fill="#1E5B3C" fill-opacity="0.09" stroke="None">
<path d="
M 174.00 107.00 
C 175.98 103.87 175.56 94.06 175.00 88.00 C 174.44 81.94 176.89 71.90 175.00 66.00
C 174.56 65.13 171.96 63.98 171.00 64.00
C 176.10 64.65 174.31 79.15 174.00 84.00 C 173.69 88.85 175.56 101.85 174.00 107.00 Z"/>
</g>
<g fill="#1F5E34" fill-opacity="0.25" stroke="None">
<path d="
M 153.00 70.00 
C 152.30 73.07 152.18 76.07 151.00 79.00
C 153.02 76.70 154.46 74.07 154.00 68.00
C 153.86 68.48 153.19 69.15 153.00 70.00 Z"/>
</g>
<g fill="#1B5335" fill-opacity="0.51" stroke="None">
<path d="
M 168.00 76.00 
C 168.50 74.13 168.87 73.06 169.00 71.00
C 168.81 72.04 168.13 74.98 168.00 76.00 Z"/>
</g>
<g fill="#19562D" fill-opacity="0.41" stroke="None">
<path d="
M 212.00 74.00 
C 212.49 74.08 213.00 74.00 213.00 74.00
C 214.21 71.57 211.49 71.68 211.00 71.00
C 211.25 71.92 210.59 73.77 212.00 74.00 Z"/>
</g>
<g fill="#1D5539" fill-opacity="0.43" stroke="None">
<path d="
M 228.00 78.00 
C 228.09 77.80 229.00 78.00 229.00 78.00
C 229.14 76.06 229.11 73.94 229.00 72.00
C 229.00 72.00 228.04 72.13 228.00 72.00
C 226.52 73.44 226.50 76.54 228.00 78.00 Z"/>
</g>
<g fill="#26572F" fill-opacity="0.25" stroke="None">
<path d="
M 26.00 115.00 
C 25.34 113.65 23.41 113.15 22.00 113.00
C 22.75 105.42 29.12 99.53 33.00 93.00
C 34.77 90.01 37.05 87.60 39.00 85.00
C 41.07 81.55 44.39 78.10 46.00 74.00
C 39.87 77.99 34.86 90.30 30.25 95.25 C 25.64 100.20 13.87 114.93 26.00 115.00 Z"/>
</g>
<g fill="#0E5347" fill-opacity="0.71" stroke="None">
<path d="
M 212.00 76.00 
C 212.66 77.63 213.54 79.74 213.00 82.00
C 213.54 79.79 215.09 76.59 213.00 74.00
C 213.00 74.00 212.49 74.08 212.00 74.00
C 212.12 74.47 212.00 75.50 212.00 76.00 Z"/>
</g>
<g fill="#20553C" fill-opacity="0.19" stroke="None">
<path d="
M 212.00 82.00 
C 212.13 81.78 213.00 82.00 213.00 82.00
C 213.54 79.74 212.66 77.63 212.00 76.00
C 212.00 77.94 212.25 80.08 212.00 82.00 Z"/>
</g>
<g fill="#1D5736" fill-opacity="0.24" stroke="None">
<path d="
M 256.00 107.00 
C 263.00 101.63 266.62 85.21 270.00 77.00
C 265.79 78.74 264.06 86.85 262.31 91.31 C 260.56 95.76 256.36 102.21 256.00 107.00 Z"/>
</g>
<g fill="#1C5836" fill-opacity="0.26" stroke="None">
<path d="
M 182.00 117.00 
C 185.48 118.37 200.65 117.13 196.25 111.75 C 191.84 106.38 189.92 105.55 190.00 98.00
C 206.69 108.36 227.65 96.88 229.00 78.00
C 229.00 78.00 228.09 77.80 228.00 78.00
C 226.45 95.61 204.73 106.59 190.00 96.00
C 187.56 102.92 188.33 106.67 193.74 111.26 C 199.15 115.84 184.20 116.79 182.00 117.00 Z"/>
</g>
<g fill="#1D683D" fill-opacity="0.30" stroke="None">
<path d="
M 259.00 82.00 
C 257.83 81.53 257.57 80.07 257.00 79.00
C 253.79 78.71 256.52 82.42 257.00 84.00
C 258.11 83.93 258.49 82.76 259.00 82.00 Z"/>
</g>
<g fill="#23503B" fill-opacity="0.31" stroke="None">
<path d="
M 136.00 83.00 
C 135.51 82.60 133.37 80.55 133.00 80.00
C 134.21 82.69 134.64 82.33 136.00 83.00 Z"/>
</g>
<g fill="#23582F" fill-opacity="0.47" stroke="None">
<path d="
M 211.00 86.00 
C 212.24 84.19 212.28 84.98 213.00 82.00
C 213.00 82.00 212.13 81.78 212.00 82.00
C 211.83 83.32 211.46 84.81 211.00 86.00 Z"/>
</g>
<g fill="#195538" fill-opacity="0.61" stroke="None">
<path d="
M 196.00 92.00 
C 193.82 90.31 191.25 86.68 191.00 84.00
C 191.00 84.00 191.06 83.49 191.00 83.00
C 191.09 85.85 191.31 90.39 196.00 92.00 Z"/>
</g>
<g fill="#1A5929" fill-opacity="0.25" stroke="None">
<path d="
M 245.00 89.00 
C 244.50 87.18 243.61 85.34 242.00 83.00
C 242.97 84.90 244.02 87.00 245.00 89.00 Z"/>
</g>
<g fill="#204F22" fill-opacity="0.14" stroke="None">
<path d="
M 196.00 92.00 
C 196.45 92.15 197.52 91.91 198.00 92.00
C 197.59 90.59 192.18 85.48 191.00 84.00
C 191.25 86.68 193.82 90.31 196.00 92.00 Z"/>
</g>
<g fill="#19563E" fill-opacity="0.57" stroke="None">
<path d="
M 33.00 93.00 
C 34.93 90.40 37.22 87.97 39.00 85.00
C 37.05 87.60 34.77 90.01 33.00 93.00 Z"/>
</g>
<g fill="#1F562B" fill-opacity="0.38" stroke="None">
<path d="
M 83.00 98.00 
C 82.99 98.13 84.01 98.67 84.00 99.00
C 86.06 97.93 84.53 94.88 85.00 93.00
C 90.20 90.57 109.03 97.55 111.00 90.00
C 108.62 93.24 101.95 90.33 98.00 91.00 C 94.05 91.67 87.68 91.30 84.00 90.00
C 84.00 90.00 83.49 90.06 83.00 90.00
C 84.19 93.19 83.32 94.91 83.00 98.00 Z"/>
</g>
<g fill="#2E5B27" fill-opacity="0.29" stroke="None">
<path d="
M 75.00 95.00 
C 76.46 93.78 78.48 92.13 80.00 91.00
C 77.56 92.11 76.82 92.87 75.00 95.00 Z"/>
</g>
<g fill="#175636" fill-opacity="0.38" stroke="None">
<path d="
M 134.00 92.00 
C 139.03 92.52 144.82 95.09 151.00 94.00
C 152.39 94.05 145.85 90.67 143.00 92.00 C 140.15 93.33 136.54 91.56 134.00 92.00 Z"/>
</g>
<g fill="#1E5430" fill-opacity="0.59" stroke="None">
<path d="
M 61.00 106.00 
C 58.08 106.59 46.47 107.47 44.00 106.00
C 43.28 105.57 49.61 94.70 50.00 94.00
C 48.19 98.81 42.91 101.83 42.00 107.00
C 48.27 106.64 55.46 107.92 61.00 106.00 Z"/>
</g>
<g fill="#1B5328" fill-opacity="0.25" stroke="None">
<path d="
M 228.00 100.00 
C 228.19 99.57 230.50 98.07 231.00 98.00
C 234.21 97.56 237.80 104.64 241.00 105.00
C 238.41 103.98 230.82 90.72 228.00 100.00 Z"/>
</g>
<g fill="#1A5535" fill-opacity="0.26" stroke="None">
<path d="
M 75.00 116.00 
C 79.86 113.71 82.54 103.63 84.00 99.00
C 84.01 98.67 82.99 98.13 83.00 98.00
C 81.89 101.94 78.10 113.52 75.00 116.00 Z"/>
</g>
<g fill="#135533" fill-opacity="0.57" stroke="None">
<path d="
M 228.00 100.00 
C 226.99 102.26 229.26 107.91 230.00 110.00
C 229.91 109.27 229.77 98.65 231.00 98.00
C 230.50 98.07 228.19 99.57 228.00 100.00 Z"/>
</g>
<g fill="#1F5733" fill-opacity="0.31" stroke="None">
<path d="
M 137.00 107.00 
C 128.85 109.27 119.59 107.38 111.00 108.00
C 110.69 106.10 111.21 104.60 112.00 103.00
C 103.49 114.32 136.20 111.57 137.00 107.00 Z"/>
</g>
<g fill="#1F5922" fill-opacity="0.04" stroke="None">
<path d="
M 248.00 114.00 
C 247.85 114.05 248.00 115.00 248.00 115.00
C 250.85 113.59 254.41 111.24 256.00 108.00
C 253.21 109.95 251.23 112.95 248.00 114.00 Z"/>
</g>
<g fill="#2A531E" fill-opacity="0.34" stroke="None">
<path d="
M 171.00 117.00 
C 172.47 115.07 170.29 113.33 171.00 111.00
C 170.15 112.29 167.21 115.06 171.00 117.00 Z"/>
</g>
<g fill="#1D5421" fill-opacity="0.37" stroke="None">
<path d="
M 29.00 115.00 
C 40.87 115.00 54.29 113.21 66.00 115.00
C 62.95 113.26 54.87 112.69 48.00 113.00 C 41.13 113.31 33.87 112.52 29.00 115.00 Z"/>
</g>
<g fill="#205334" fill-opacity="0.24" stroke="None">
<path d="
M 235.00 116.00 
C 238.40 117.42 244.65 117.96 248.00 115.00
C 248.00 115.00 247.85 114.05 248.00 114.00
C 243.89 114.30 238.50 117.06 235.00 116.00 Z"/>
</g>
</svg>